<svg _ngcontent-c0="" viewBox="0 0 48 48" xmlns="http://www.w3.org/2000/svg">
  <g _ngcontent-c0="" fill="#CDD6E3" fill-rule="nonzero">
    <path _ngcontent-c0="" d="M17.295 38.553c-.334.062-.48.219-.438.468.042.25.23.333.562.25.333-.083.479-.23.437-.437-.041-.23-.229-.323-.561-.281zM15.515 38.803c-.333 0-.5.114-.5.343 0 .27.178.385.531.343.333 0 .5-.114.5-.343 0-.27-.177-.385-.531-.343zM13.08 38.709c-.083.229.052.384.406.468.312.124.51.062.593-.187.063-.23-.073-.395-.406-.5-.312-.083-.51-.011-.593.219z"></path>
    <path _ngcontent-c0="" d="M45.311 2.638C43.553.879 41.436 0 38.96 0H8.99C6.514 0 4.396.88 2.638 2.638.879 4.396 0 6.514 0 8.99v29.97c0 2.476.88 4.593 2.638 6.351 1.758 1.76 3.876 2.638 6.352 2.638h6.993c.457 0 .801-.015 1.03-.046.229-.031.457-.167.687-.406.229-.24.343-.588.343-1.046l-.016-2.123c-.01-1.353-.016-2.425-.016-3.216l-.718.125c-.457.083-1.035.12-1.732.11-.697-.01-1.42-.084-2.17-.219a4.864 4.864 0 0 1-2.091-.936 3.962 3.962 0 0 1-1.374-1.92l-.312-.718c-.208-.479-.536-1.01-.983-1.592-.448-.583-.9-.978-1.358-1.186l-.219-.156a2.296 2.296 0 0 1-.405-.375 1.735 1.735 0 0 1-.281-.437c-.063-.146-.01-.266.156-.36.167-.093.468-.14.905-.14l.624.094c.417.083.932.332 1.546.749a5.038 5.038 0 0 1 1.514 1.623c.479.853 1.056 1.503 1.732 1.95.676.449 1.358.672 2.045.672.686 0 1.28-.052 1.78-.155.498-.105.967-.261 1.404-.47.187-1.393.697-2.466 1.53-3.215a21.377 21.377 0 0 1-3.2-.562c-.947-.25-1.925-.655-2.935-1.218-1.01-.562-1.847-1.258-2.513-2.091-.666-.833-1.212-1.926-1.638-3.278-.427-1.353-.64-2.914-.64-4.683 0-2.518.822-4.662 2.466-6.43-.77-1.894-.697-4.017.218-6.369.604-.187 1.499-.047 2.685.422 1.186.468 2.055.87 2.607 1.202.552.332.994.613 1.327.843a22.158 22.158 0 0 1 5.993-.812c2.06 0 4.059.27 5.995.812l1.186-.75c.812-.5 1.769-.957 2.872-1.373 1.103-.416 1.946-.53 2.529-.343.936 2.352 1.02 4.474.249 6.368 1.644 1.769 2.466 3.912 2.466 6.43 0 1.77-.213 3.336-.64 4.699-.426 1.363-.977 2.456-1.654 3.278-.676.822-1.519 1.513-2.528 2.076-1.01.561-1.988.968-2.935 1.217-.947.25-2.013.438-3.2.563 1.082.936 1.623 2.413 1.623 4.432v7.461c0 .354.052.64.156.859.105.218.27.368.5.452.23.083.431.135.609.156.177.02.432.031.765.031h6.992c2.476 0 4.594-.879 6.352-2.638 1.759-1.758 2.638-3.876 2.638-6.352V8.99c0-2.476-.88-4.594-2.638-6.352z"></path>
    <path _ngcontent-c0="" d="M9.49 34.9c-.146.104-.125.27.062.5.209.208.375.24.5.093.146-.103.125-.27-.063-.5-.208-.186-.374-.218-.5-.092zM8.46 34.12c-.062.146.01.271.219.375.166.104.302.084.405-.062.063-.146-.01-.271-.218-.376-.208-.062-.344-.041-.406.063zM10.458 36.118c-.188.104-.188.292 0 .562.187.27.364.343.53.218.188-.146.188-.343 0-.593-.166-.27-.343-.333-.53-.187zM11.55 37.522c-.187.167-.145.364.126.594.249.25.457.28.624.093.166-.166.125-.364-.125-.593-.25-.25-.458-.28-.624-.094z"></path>
  </g>
</svg>
