<svg width="56" height="51" xmlns="http://www.w3.org/2000/svg"><g fill="none" fill-rule="evenodd"><path d="M-4-6h64v64H-4z"/><path d="M14.997.309l.605 1.262" fill="#728BB7"/><path d="M27.971 5.766a3.593 3.593 0 1 1 0 7.185 3.593 3.593 0 0 1 0-7.185M32.06 43.813v2.438a4.089 4.089 0 1 1-8.178 0v-2.438h8.178z" fill="#457AE6"/><path d="M27.971 43.813v6.526a4.088 4.088 0 0 0 4.09-4.088v-2.438h-4.09z" fill="#457AE6"/><path d="M27.971 46.358h18.45c0-8.448-5.346-2.732-5.346-22.313 0-8.16-5.345-14.687-13.104-14.687-7.759 0-13.104 6.527-13.104 14.687 0 19.581-5.344 13.864-5.344 22.313h18.448z" fill="#6DA3F2"/><path d="M29.973 43.685H45.43c0-7.514-4.477-2.43-4.477-19.846 0-7.255-4.478-13.06-10.979-13.06-6.5 0-10.978 5.805-10.978 13.06 0 16.316-3.929 12.886-4.426 18.564-.06.684.44 1.282 1.088 1.282h14.316z" fill="#97BDFF"/><path d="M10.971 47.358a2.386 2.386 0 0 1-2.375-2.613c.188-1.897.668-3.026 1.691-4.425.1-.137.466-.625.541-.728.207-.281.37-.515.527-.758 1.66-2.579 2.512-6.574 2.512-14.789 0-8.874 5.925-15.687 14.104-15.687 8.18 0 14.104 6.813 14.104 15.687 0 8.216.852 12.21 2.514 14.79.156.242.32.476.526.757.076.103.44.59.541.728 1.023 1.4 1.504 2.528 1.692 4.425a2.387 2.387 0 0 1-2.376 2.613h-34zm34.001-2a.387.387 0 0 0 .385-.416c-.15-1.513-.49-2.313-1.315-3.441-.093-.127-.455-.611-.538-.723a16.42 16.42 0 0 1-.597-.86c-1.904-2.956-2.832-7.307-2.832-15.873 0-7.826-5.096-13.687-12.104-13.687-7.007 0-12.104 5.86-12.104 13.687 0 8.565-.927 12.917-2.83 15.872-.182.282-.368.548-.598.86-.082.112-.445.597-.538.724-.824 1.128-1.165 1.928-1.315 3.442a.386.386 0 0 0 .385.415h34.001z" fill="#457AE6" fill-rule="nonzero"/><path d="M35.685 19.324c0 2.087-1.23 3.78-2.749 3.78-1.518 0-2.749-1.693-2.749-3.78 0-2.088 1.231-3.78 2.75-3.78 1.518 0 2.748 1.692 2.748 3.78" fill="#CADEFF"/><path d="M17.138 4.188l.866-.5 1 1.733-.867.5a19.704 19.704 0 0 0-9.888 17.093v1h-2v-1A21.704 21.704 0 0 1 17.138 4.188zM49.693 23.014v1h-2v-1A19.704 19.704 0 0 0 37.805 5.92l-.866-.5 1-1.732.866.5a21.704 21.704 0 0 1 10.888 18.825z" fill="#457AE6" fill-rule="nonzero"/><path d="M14.022.5l.866-.5.999 1.733-.866.5C7.029 6.84 2 15.35 2 24.74v1H0v-1C0 14.628 5.415 5.461 14.02.5zM55.943 24.74v1h-2v-1c0-9.39-5.028-17.9-13.02-22.507l-.867-.5 1-1.733.865.5c8.606 4.961 14.022 14.128 14.022 24.24z" fill="#457AE6" fill-rule="nonzero"/></g></svg>