<svg width="64" height="64" xmlns="http://www.w3.org/2000/svg"><g fill="none" fill-rule="evenodd"><path d="M60.066 28.94H3.82a.82.82 0 0 1-.82-.818V5.82A.82.82 0 0 1 3.82 5h56.246a.82.82 0 0 1 .819.82v22.302a.82.82 0 0 1-.82.819" fill="#97BDFF"/><path d="M60.116 26.223H3.77a.771.771 0 0 1-.77-.775V5.774C3 5.347 3.346 5 3.77 5h56.346c.425 0 .77.347.77.774v19.674a.772.772 0 0 1-.77.775" fill="#CADEFF"/><path d="M60.569 8.223H3.317c-.175 0-.316-.129-.316-.286V5.286C3 5.128 3.14 5 3.317 5h57.252c.175 0 .316.128.316.286v2.65c0 .158-.141.287-.316.287" fill="#FFF"/><path d="M59.216 27.94V6H4v21.94h55.215zm.185 2H3.815A1.813 1.813 0 0 1 2 28.128V5.815C2 4.813 2.812 4 3.815 4H59.4c1.002 0 1.815.811 1.815 1.814v22.312A1.814 1.814 0 0 1 59.4 29.94z" fill="#457AE6" fill-rule="nonzero"/><path d="M30.465 16.559c0 .652-.092 1.238-.276 1.757-.183.52-.44.961-.77 1.325-.33.363-.723.641-1.178.835a3.79 3.79 0 0 1-1.497.29c-.55 0-1.056-.097-1.515-.29a3.32 3.32 0 0 1-1.183-.835 3.848 3.848 0 0 1-.77-1.325c-.184-.52-.276-1.105-.276-1.757v-.346c0-.652.09-1.238.272-1.758.182-.52.438-.96.768-1.324a3.36 3.36 0 0 1 1.18-.838c.458-.195.962-.293 1.512-.293.543 0 1.043.098 1.5.293.457.195.851.475 1.181.838.33.363.588.805.774 1.324.185.52.278 1.106.278 1.758v.346zm-2.092-.358c0-.847-.142-1.491-.425-1.93-.283-.44-.688-.66-1.216-.66-.55 0-.961.22-1.233.66-.271.439-.407 1.083-.407 1.93v.358c0 .836.138 1.478.416 1.927.277.45.69.674 1.236.674.524 0 .926-.223 1.207-.67.281-.448.422-1.092.422-1.931V16.2zm6.053 1.272l-.844.925v2.25h-2.057v-8.53h2.057v3.76l.715-1.083 1.84-2.678h2.543l-2.883 3.774 2.883 4.757h-2.438l-1.816-3.175z" fill="#5590EB"/><g><path d="M55.215 37.352c-.769 0-1.392.625-1.392 1.392v3.478a.695.695 0 1 1-1.39 0v-4.87a1.392 1.392 0 0 0-2.783 0v5.015a.697.697 0 0 1-1.392 0v-6.406a1.392 1.392 0 0 0-2.782 0v6.261a.697.697 0 0 1-1.392 0V29.004a1.393 1.393 0 0 0-2.783 0v17.392a.698.698 0 0 1-.329.592.7.7 0 0 1-.677.03l-4.832-2.416a2.823 2.823 0 0 0-1.048-.286c-.71-.051-1.414.462-1.459 1.172-.024.38.11.732.368.99l8.998 8.997a9.308 9.308 0 0 0 6.872 2.744c4.15-.103 7.413-3.61 7.413-7.762V38.744c0-.767-.624-1.392-1.392-1.392" fill="#6DA3F2"/><path d="M55.215 36.769c-.769 0-1.392.624-1.392 1.391v.062c0 .384-.31-1.305-.695-1.305-.384 0-.696 1.689-.696 1.305v-1.585a1.392 1.392 0 0 0-2.782 0v1.73a.697.697 0 0 1-1.392 0v-2.892a1.392 1.392 0 0 0-2.782 0v2.747a.697.697 0 0 1-1.392 0v-9.606c0-.767-.623-1.392-1.39-1.392-.769 0-1.393.625-1.393 1.392v13.78c0 .241-.125 3.929-.329 4.056a.7.7 0 0 1-.677.03l-4.832-2.869a2.805 2.805 0 0 0-1.048-.287c-.71-.05-1.414.462-1.459 1.172-.024.38.11.733.368.99l8.998 5.987a9.308 9.308 0 0 0 6.872 2.744c4.15-.103 7.413-3.61 7.413-7.762V38.16c0-.767-.624-1.391-1.392-1.391" fill="#97BDFF"/><path d="M42.693 25.613a3.396 3.396 0 0 0-3.392 3.392v15.28l-2.943-1.471a4.772 4.772 0 0 0-1.801-.493 3.18 3.18 0 0 0-.24-.008c-1.773 0-3.25 1.339-3.356 3.049a3.278 3.278 0 0 0 .954 2.535l8.994 8.992a11.29 11.29 0 0 0 8.335 3.33c5.163-.128 9.363-4.507 9.363-9.761V38.744a3.396 3.396 0 0 0-4.663-3.144 3.392 3.392 0 0 0-4.175-1.391 3.391 3.391 0 0 0-3.684-1.548v-3.656a3.396 3.396 0 0 0-3.392-3.392m0 2c.769 0 1.392.625 1.392 1.392v13.217a.696.696 0 1 0 1.39 0v-6.26a1.392 1.392 0 0 1 2.783 0v6.405a.696.696 0 0 0 1.392 0v-5.015a1.392 1.392 0 0 1 2.782 0v4.87a.696.696 0 0 0 1.392 0v-3.478c0-.767.623-1.392 1.39-1.392.769 0 1.393.625 1.393 1.392v11.714c0 4.15-3.263 7.658-7.413 7.76a9.302 9.302 0 0 1-6.871-2.744l-8.998-8.996a1.262 1.262 0 0 1-.368-.99c.042-.678.685-1.175 1.36-1.175.033 0 .065 0 .099.003.363.026.72.124 1.048.286l4.832 2.416a.697.697 0 0 0 .676-.03.698.698 0 0 0 .329-.592V29.005c0-.767.624-1.392 1.392-1.392" fill="#457AE6"/></g></g></svg>