<svg width="52" height="52" xmlns="http://www.w3.org/2000/svg"><g fill="none" fill-rule="evenodd"><path d="M50.016 32H1.788C1.353 32 1 31.78 1 31.51V1.49c0-.27.353-.49.788-.49h48.228c.435 0 .788.22.788.49v30.02c0 .27-.353.49-.788.49" fill="#CADEFF"/><path d="M1.984 38h48.228c.435 0 .788.092.788.206v12.589c0 .113-.353.205-.788.205H1.984c-.435 0-.788-.092-.788-.205v-12.59c0-.113.353-.205.788-.205m0 0h48.228c.435 0 .788.049.788.11v6.676c0 .06-.353.109-.788.109H1.984c-.435 0-.788-.049-.788-.109V38.11c0-.06.353-.109.788-.109" fill="#6DA3F2"/><path d="M1.984 38h48.228c.435 0 .788.049.788.11v6.676c0 .06-.353.109-.788.109H1.984c-.435 0-.788-.049-.788-.109V38.11c0-.06.353-.109.788-.109" fill="#97BDFF"/><path d="M4.717 29.197c-.396 0-.717-.232-.717-.519V1.52c0-.287.321-.52.717-.52h43.03c.396 0 .717.233.717.52v27.158c0 .287-.321.52-.717.52H4.717z" fill="#FFF" opacity=".7"/><path d="M49.804 32V2H2v30h47.804zm.212 2H1.788C.801 34 0 33.2 0 32.212V1.787C0 .8.801 0 1.788 0h48.228c.987 0 1.788.8 1.788 1.787v30.425c0 .987-.8 1.788-1.788 1.788zM49.804 50V39H2v11h47.804zm.212 1.788H1.788C.801 51.788 0 50.988 0 50V38.787C0 37.8.801 37 1.788 37h48.228c.987 0 1.788.8 1.788 1.787V50c0 .987-.8 1.788-1.788 1.788z" fill="#457AE6" fill-rule="nonzero"/><path fill="#457AE6" fill-rule="nonzero" d="M0 14v-2h46.244v2zM20 8V6h6.122v2z"/><path fill="#EFF5FF" fill-rule="nonzero" d="M20 45v-2h6.122v2z"/><path d="M43.036 5.622l1.81-1.811 1.415 1.414-1.81 1.811 1.81 1.81-1.414 1.415-1.811-1.81-1.81 1.81-1.415-1.414 1.81-1.811-1.81-1.81 1.414-1.415 1.811 1.81z" fill="#457AE6" fill-rule="nonzero"/><path d="M43.036 42.622l1.81-1.811 1.415 1.414-1.81 1.811 1.81 1.81-1.414 1.415-1.811-1.81-1.81 1.81-1.415-1.414 1.81-1.811-1.81-1.81 1.414-1.415 1.811 1.81z" fill="#EFF5FF" fill-rule="nonzero"/><path fill="#467AE5" d="M36 10V8h-4V4h-2v6z"/><path fill="#EFF5FF" d="M30 41v2h4v4h2v-6z"/></g></svg>