<svg width="64" height="64" xmlns="http://www.w3.org/2000/svg"><g fill="none" fill-rule="evenodd"><path d="M57.57 14.709H17.25c-.464 0-.84-.32-.84-.715V9.27c0-.395.376-.715.84-.715h40.32c.465 0 .84.32.84.715v4.723c0 .395-.375.715-.84.715" fill="#6DA3F2"/><path d="M57.713 11.283H17.107c-.385 0-.696-.195-.696-.434V8.99c0-.24.311-.434.696-.434h40.606c.385 0 .698.195.698.434v1.86c0 .24-.313.434-.698.434" fill="#97BDFF"/><path d="M39 8.962V7h18.092C58.147 7 59 7.754 59 8.683v4.634c0 .93-.853 1.683-1.908 1.683H17.908C16.854 15 16 14.246 16 13.317V8.683C16 7.753 16.854 7 17.908 7h25.906v1.962H18.227v4.076h38.546V8.962H39z" fill="#457AE6" fill-rule="nonzero"/><path d="M57.36 24H26.64c-.353 0-.64.32-.64.715v4.723c0 .395.287.715.64.715h30.72c.354 0 .64-.32.64-.715v-4.723c0-.395-.286-.715-.64-.715" fill="#CADEFF"/><path d="M57.468 27H26.53c-.293 0-.53.195-.53.434v1.86c0 .24.237.434.53.434h30.938c.293 0 .531-.195.531-.434v-1.86c0-.24-.238-.434-.53-.434" fill="#EFF5FF"/><path d="M49.03 29.153v2H25.923c-1.063 0-1.924-.768-1.924-1.715v-4.723c0-.947.861-1.715 1.924-1.715h31.49c1.064 0 1.924.768 1.924 1.715v4.723c0 .947-.86 1.715-1.924 1.715H45.921v-2h11.172V25H26.245v4.153h22.784z" fill="#457AE6" fill-rule="nonzero"/><path d="M57.468 37H26.53c-.293 0-.53.48-.53 1.07v4.588c0 .59.237 1.07.53 1.07h30.938c.293 0 .531-.48.531-1.07V38.07c0-.59-.238-1.07-.53-1.07" fill="#EFF5FF"/><path d="M49.03 42.153v2H25.923c-1.063 0-1.924-.768-1.924-1.715v-4.723c0-.947.861-1.715 1.924-1.715h31.49c1.064 0 1.924.768 1.924 1.715v4.723c0 .947-.86 1.715-1.924 1.715H43.681v-2h13.412V38H26.245v4.153h22.784z" fill="#457AE6" fill-rule="nonzero"/><path d="M57.468 50H26.53c-.293 0-.53.48-.53 1.07v4.588c0 .59.237 1.07.53 1.07h30.938c.293 0 .531-.48.531-1.07V51.07c0-.59-.238-1.07-.53-1.07" fill="#EFF5FF"/><path d="M49.03 55.153v2H25.923c-1.063 0-1.924-.768-1.924-1.715v-4.723c0-.947.861-1.715 1.924-1.715h31.49c1.064 0 1.924.768 1.924 1.715v4.723c0 .947-.86 1.715-1.924 1.715H52.46v-2h4.633V51H26.245v4.153h22.784z" fill="#457AE6" fill-rule="nonzero"/><path d="M13 15H4l4.407-5.948c.052-.07.135-.07.186 0L13 15z" fill="#457AE6"/><path d="M15.651 27a1 1 0 0 1 1-1h2.99a1 1 0 1 1 0 2h-2.99a1 1 0 0 1-1-1zM15.651 40a1 1 0 0 1 1-1h2.99a1 1 0 1 1 0 2h-2.99a1 1 0 0 1-1-1zM15.651 53a1 1 0 0 1 1-1h2.99a1 1 0 1 1 0 2h-2.99a1 1 0 0 1-1-1z" fill="#457AE6" fill-rule="nonzero"/></g></svg>