<svg width="64" height="64" xmlns="http://www.w3.org/2000/svg"><g fill="none" fill-rule="evenodd"><path d="M27.775 40.262h13.577c.814 0 1.592.153 2.315.425a6.612 6.612 0 0 0-4.63-1.898H25.461c-3.374 0-6.182 2.55-6.589 5.819l-.135 10.646 7.408 2.959 19.222-2.621-1.122-10.43c.407-3.267-19.844-4.9-16.47-4.9" fill="#6FA0EF"/><path d="M45.662 44.976a6.62 6.62 0 0 0-1.995-4.29c-.722-.271-2.746-1.45-3.56-1.45l-12.332 1.026c-3.373 0-6.181 2.55-6.589 5.818l-.153 10.527 11.113 2.705 13.604-3.466c-.048-.298-.067-10.568-.088-10.87" fill="#97BDFF"/><path d="M19.872 55.415h-2V44.607l.008-.124c.473-3.795 3.729-6.694 7.58-6.694h13.578c4.01 0 7.35 3.136 7.624 7.187v10.632h-2v-1l.002-9.564c-.2-2.936-2.67-5.255-5.626-5.255H25.46c-2.82 0-5.214 2.114-5.59 4.883v10.743z" fill="#457AE6" fill-rule="nonzero"/><path d="M32.25 40.64a1.912 1.912 0 0 0 1.906-1.907v-3.53a1.913 1.913 0 0 0-1.907-1.907 1.914 1.914 0 0 0-1.908 1.907v3.53c0 1.049.86 1.907 1.908 1.907" fill="#C7E3FF"/><path d="M32.25 40.64a1.912 1.912 0 0 0 1.906-1.907v-3.53a1.913 1.913 0 0 0-1.907-1.907 1.914 1.914 0 0 0-1.908 1.907v3.53c0 1.049.86 1.907 1.908 1.907z" stroke="#457AE6" stroke-width="2" stroke-linecap="round"/><path d="M32.196 36.267c4.23 0 7.691-5.087 7.691-9.316V19.43a3.798 3.798 0 0 0-3.786-3.786h-7.809a3.797 3.797 0 0 0-3.786 3.786v7.52c0 4.23 3.461 9.317 7.69 9.317" fill="#CADEFF"/><path d="M36.997 26.95v-7.52a3.798 3.798 0 0 0-3.786-3.787h1.882a3.798 3.798 0 0 1 3.786 3.786v7.521c0 4.23-3.46 9.316-7.69 9.316-.32 0-.632-.038-.942-.092 3.79-.679 6.75-5.313 6.75-9.224" fill="#FFF"/><path d="M32.196 37.267c-4.606 0-8.69-5.275-8.69-10.316V19.43a4.797 4.797 0 0 1 4.786-4.786h7.81a4.798 4.798 0 0 1 4.785 4.786v7.52c0 5.043-4.083 10.317-8.69 10.317zm0-2c3.375 0 6.691-4.283 6.691-8.316V19.43a2.798 2.798 0 0 0-2.786-2.786h-7.809a2.797 2.797 0 0 0-2.786 2.786v7.52c0 4.034 3.316 8.317 6.69 8.317z" fill="#457AE6" fill-rule="nonzero"/><path d="M39.906 19.175l-15.276-.057-.08 5.565C22.008 22.139 22.14 13.3 22.14 13.3l3.482-.535-1.204-2.41c17.48 3.6 15.488 8.82 15.488 8.82" fill="#6FA0EF"/><path d="M24.417 10.354l-.402-.803s14.262 1.941 17.275 4.953c3.013 3.014-1.299 9.644-1.299 9.644l-.086-4.973s1.993-5.22-15.488-8.82" fill="#97BDFF"/><path d="M23.761 20.334a3.224 3.224 0 0 1 3.07-2.208l10.904.04c1.396.006 2.584.9 3.025 2.149.236-.652.41-1.284.508-1.882.236-1.432.02-2.515-.686-3.221-.999-1-3.866-2.063-7.884-3.02a96.11 96.11 0 0 0-6.065-1.22l-.86-.143 1.357 2.716-3.985.612c.007.372.02.798.043 1.263.062 1.292.18 2.57.364 3.756.063.405.133.792.21 1.158zm-1.488-12.03l1.877.256c.143.02.41.057.78.113.615.093 1.3.202 2.038.328 2.11.359 4.22.775 6.193 1.245 4.4 1.048 7.472 2.187 8.836 3.552 1.233 1.233 1.575 2.952 1.244 4.96-.19 1.158-.598 2.37-1.156 3.595-.272.597-.563 1.16-.854 1.672-.177.31-.317.538-.401.668l-1.782 2.74-.056-3.268-.048-2.797a1.222 1.222 0 0 0-1.217-1.201l-10.903-.041a1.222 1.222 0 0 0-1.226 1.205l-.081 5.732-1.674-1.673c-1.142-1.143-1.843-3.18-2.267-5.907a37.928 37.928 0 0 1-.386-3.967 39.889 39.889 0 0 1-.05-2.166v-.066l.014-.844 2.96-.455-1.84-3.68z" fill="#457AE6" fill-rule="nonzero"/><path d="M18.997 6.309l.605 1.262" fill="#728BB7"/><path fill="#FFF" d="M29.257 44.78l2.812-4.14-1.875-3.92-4.767 2.702z"/><path d="M29.278 46.528l-5.31-7.428 6.666-3.778 2.585 5.404-3.94 5.802zm1.641-5.975l-1.164-2.434-2.868 1.625 2.35 3.286 1.682-2.477z" fill="#457AE6" fill-rule="nonzero"/><path fill="#FFF" d="M35.454 44.78l-2.812-4.14 1.875-3.92 4.767 2.702z"/><path d="M37.825 39.744l-2.868-1.625-1.164 2.434 1.683 2.477 2.349-3.286zm-6.333.982l2.586-5.404 6.666 3.778-5.31 7.428-3.942-5.802zM31.069 51.386h2v7.416h-2zM35.842 48.546v-2h7.293v2z" fill="#457AE6" fill-rule="nonzero"/><path d="M17.684 9.525l-.828.56-1.12-1.658.829-.56A28.369 28.369 0 0 1 32.499 3C48.24 3 61 15.76 61 31.5S48.24 60 32.5 60C16.76 60 4 47.24 4 31.5c0-4.528 1.06-8.908 3.062-12.862l.452-.892 1.784.904-.452.892A26.377 26.377 0 0 0 6 31.5C6 46.135 17.865 58 32.5 58 47.135 58 59 46.135 59 31.5S47.135 5 32.5 5a26.369 26.369 0 0 0-14.815 4.525z" fill="#457AE6" fill-rule="nonzero"/></g></svg>