<svg width="64" height="64" xmlns="http://www.w3.org/2000/svg"><g fill="none" fill-rule="evenodd"><path fill="#CADEFF" d="M7 7l50 50H7z"/><path fill="#FFF" opacity=".7" d="M7 7l50 50H7z"/><path d="M22.864 39.509v-7.743l3.791 3.79a.112.112 0 0 1 0 .16l-3.79 3.793zM22.864 51.722v-7.744l3.791 3.792a.112.112 0 0 1 0 .16l-3.79 3.792z" fill="#457AE6"/><path d="M24.616 20.655a7.783 7.783 0 1 1-15.566-.01 7.783 7.783 0 0 1 15.566.01" fill="#CADEFF"/><path d="M25.464 19.049a7.12 7.12 0 1 1-14.24-.01 7.12 7.12 0 0 1 14.24.01" fill="#CADEFF"/><path d="M24.863 19.65a7.12 7.12 0 0 0-7.116-7.125 7.105 7.105 0 0 0-5.57 2.684 7.089 7.089 0 0 1 4.44-1.554 7.121 7.121 0 0 1 7.116 7.125 7.089 7.089 0 0 1-1.557 4.431 7.102 7.102 0 0 0 2.687-5.561" fill="#97BDFF"/><path d="M16.718 13.555a7.076 7.076 0 0 0-4.44 1.555 7.081 7.081 0 0 0-1.555 4.43 7.118 7.118 0 0 0 11.555 5.57 7.118 7.118 0 0 0-5.56-11.556" fill="#6FA0EF"/><path d="M24.464 19.048a6.12 6.12 0 1 0-12.24-.007 6.12 6.12 0 0 0 12.24.007zm2 .002a8.12 8.12 0 1 1-16.24-.011 8.12 8.12 0 0 1 16.24.01z" fill="#457AE6" fill-rule="nonzero"/><path d="M29.634 17.838h22.42" fill="#FFF"/><path fill="#457AE6" fill-rule="nonzero" d="M29.634 18.838v-2h22.42v2z"/><path d="M29.634 21.278h15.11" fill="#FFF"/><path fill="#457AE6" fill-rule="nonzero" d="M29.634 22.278v-2h15.11v2z"/><path d="M29.823 33.927h22.2" fill="#FFF"/><path fill="#457AE6" fill-rule="nonzero" d="M29.823 34.927v-2h22.2v2z"/><path d="M29.823 37.368h16.858" fill="#FFF"/><path fill="#457AE6" fill-rule="nonzero" d="M29.823 38.368v-2h16.858v2z"/><g><path d="M29.823 46.337h7.72" fill="#FFF"/><path fill="#457AE6" fill-rule="nonzero" d="M29.823 47.337v-2h7.72v2z"/></g><path d="M56.002 56.002V8H8v48.002h48.002zm.25 2h-48.5A1.75 1.75 0 0 1 6 56.252v-48.5A1.75 1.75 0 0 1 7.751 6h48.5a1.75 1.75 0 0 1 1.751 1.751v48.5a1.75 1.75 0 0 1-1.75 1.751z" fill="#457AE6" fill-rule="nonzero"/><g><path d="M29.823 49.778h12.208" fill="#FFF"/><path fill="#457AE6" fill-rule="nonzero" d="M29.823 50.778v-2h12.208v2z"/></g></g></svg>