<svg width="64" height="64" xmlns="http://www.w3.org/2000/svg" xmlns:xlink="http://www.w3.org/1999/xlink"><defs><path id="a" d="M0 .178h10.263v10.263H0z"/><path id="c" d="M0 .678h10.263v10.263H0z"/><path id="e" d="M0 .737h10.263V11H0z"/></defs><g fill="none" fill-rule="evenodd"><path d="M59.76 36.563H22.835a.871.871 0 0 1-.87-.87v-7.76c0-.48.39-.87.87-.87H59.76c.481 0 .871.39.871.87v7.76c0 .48-.39.87-.87.87" fill="#CADEFF"/><path d="M59.909 33.606H22.687a.723.723 0 0 1-.722-.723v-5.097c0-.4.324-.723.722-.723h37.222c.399 0 .723.323.723.723v5.097c0 .4-.324.723-.723.723" fill="#FFF" opacity=".699"/><path d="M59.631 28.063H22.964v7.5h36.667v-7.5zm.13 9.5H22.834a1.871 1.871 0 0 1-1.87-1.87v-7.76c0-1.033.838-1.87 1.87-1.87H59.76c1.034 0 1.871.837 1.871 1.87v7.76a1.87 1.87 0 0 1-1.87 1.87z" fill="#457AE6" fill-rule="nonzero"/><path d="M59.76 51.272H22.835a.872.872 0 0 1-.87-.871v-7.76c0-.48.39-.87.87-.87H59.76a.87.87 0 0 1 .871.87v7.76c0 .48-.39.87-.87.87" fill="#CADEFF"/><path d="M59.909 48.315H22.687a.723.723 0 0 1-.722-.723v-5.098c0-.4.324-.722.722-.722h37.222c.399 0 .723.323.723.722v5.098a.723.723 0 0 1-.723.723" fill="#FFF" opacity=".699"/><path d="M28.131 50.272v2h-5.296a1.872 1.872 0 0 1-1.87-1.871v-7.76c0-1.032.838-1.87 1.87-1.87H59.76a1.87 1.87 0 0 1 1.872 1.87v7.76a1.872 1.872 0 0 1-1.871 1.87h-8.13v-2h8v-7.5H22.966v7.5h5.166z" fill="#457AE6" fill-rule="nonzero"/><path d="M59.76 21.855H22.835a.872.872 0 0 1-.87-.871v-7.76c0-.48.39-.87.87-.87H59.76a.87.87 0 0 1 .871.87v7.76c0 .48-.39.87-.87.87" fill="#CADEFF"/><path d="M59.909 18.898H22.687a.723.723 0 0 1-.722-.723v-5.097c0-.4.324-.723.722-.723h37.222c.399 0 .723.323.723.723v5.097c0 .4-.324.723-.723.723" fill="#FFF" opacity=".699"/><path d="M59.632 13.355h-4.5v-2h4.629a1.87 1.87 0 0 1 1.87 1.87v7.759a1.871 1.871 0 0 1-1.87 1.87H22.836a1.872 1.872 0 0 1-1.871-1.87v-7.76c0-1.032.838-1.87 1.87-1.87h27.047v2H22.965v7.5H59.63v-7.5z" fill="#457AE6" fill-rule="nonzero"/><g transform="translate(4 12.444)"><mask id="b" fill="#fff"><use xlink:href="#a"/></mask><path d="M10.263 5.313A5.132 5.132 0 1 1-.002 5.304a5.132 5.132 0 0 1 10.265.01" fill="#CADEFF" mask="url(#b)"/></g><path d="M14.822 16.697a4.695 4.695 0 1 1-9.39-.008 4.695 4.695 0 0 1 9.39.008" fill="#CADEFF"/><path d="M14.425 17.094a4.695 4.695 0 0 0-4.69-4.698 4.684 4.684 0 0 0-3.673 1.77 4.679 4.679 0 0 1 2.926-1.025 4.695 4.695 0 0 1 4.692 4.698 4.671 4.671 0 0 1-1.026 2.92 4.68 4.68 0 0 0 1.771-3.665" fill="#97BDFF"/><path d="M9.055 13.075A4.675 4.675 0 0 0 6.128 14.1a4.682 4.682 0 0 0-1.026 2.922 4.695 4.695 0 0 0 4.691 4.698 4.667 4.667 0 0 0 2.927-1.025 4.693 4.693 0 0 0-3.665-7.619" fill="#6FA0EF"/><path d="M13.822 16.697a3.695 3.695 0 1 0-7.39-.003 3.695 3.695 0 0 0 7.39.003zm2 .001a5.695 5.695 0 1 1-11.39-.01 5.695 5.695 0 0 1 11.39.01z" fill="#457AE6" fill-rule="nonzero"/><g transform="translate(4 26.444)"><mask id="d" fill="#fff"><use xlink:href="#c"/></mask><path d="M10.263 5.813A5.132 5.132 0 1 1-.002 5.804a5.132 5.132 0 0 1 10.265.01" fill="#CADEFF" mask="url(#d)"/></g><path d="M14.822 31.197a4.695 4.695 0 1 1-9.39-.008 4.695 4.695 0 0 1 9.39.008" fill="#CADEFF"/><path d="M14.425 31.594a4.695 4.695 0 0 0-4.69-4.698 4.684 4.684 0 0 0-3.673 1.77 4.679 4.679 0 0 1 2.926-1.025 4.695 4.695 0 0 1 4.692 4.698 4.671 4.671 0 0 1-1.026 2.92 4.68 4.68 0 0 0 1.771-3.665" fill="#97BDFF"/><path d="M9.055 27.575A4.675 4.675 0 0 0 6.128 28.6a4.682 4.682 0 0 0-1.026 2.922 4.695 4.695 0 0 0 4.691 4.698 4.667 4.667 0 0 0 2.927-1.025 4.693 4.693 0 0 0-3.665-7.619" fill="#6FA0EF"/><path d="M13.822 31.197a3.695 3.695 0 1 0-7.39-.003 3.695 3.695 0 0 0 7.39.003zm2 .001a5.695 5.695 0 1 1-11.39-.01 5.695 5.695 0 0 1 11.39.01z" fill="#457AE6" fill-rule="nonzero"/><g transform="translate(4 41.444)"><mask id="f" fill="#fff"><use xlink:href="#e"/></mask><path d="M10.263 5.872A5.132 5.132 0 1 1-.002 5.863a5.132 5.132 0 0 1 10.265.009" fill="#CADEFF" mask="url(#f)"/></g><path d="M14.822 46.257a4.695 4.695 0 1 1-9.39-.008 4.695 4.695 0 0 1 9.39.008" fill="#CADEFF"/><path d="M14.425 46.653a4.693 4.693 0 0 0-8.363-2.928 4.694 4.694 0 0 1 7.618 3.673 4.67 4.67 0 0 1-1.026 2.92 4.68 4.68 0 0 0 1.771-3.665" fill="#97BDFF"/><path d="M9.055 42.634a4.675 4.675 0 0 0-2.927 1.025 4.68 4.68 0 0 0-1.026 2.92 4.695 4.695 0 0 0 4.691 4.699 4.667 4.667 0 0 0 2.927-1.025 4.671 4.671 0 0 0 1.026-2.921 4.694 4.694 0 0 0-4.69-4.698" fill="#6FA0EF"/><path d="M13.822 46.256a3.695 3.695 0 1 0-7.39-.005 3.695 3.695 0 0 0 7.39.005zm2 .002a5.695 5.695 0 1 1-11.39-.01 5.695 5.695 0 0 1 11.39.01z" fill="#457AE6" fill-rule="nonzero"/></g></svg>