<svg width="64" height="64" xmlns="http://www.w3.org/2000/svg"><g fill="none" fill-rule="evenodd"><path d="M58.515 5H4.84A.84.84 0 0 0 4 5.84v39.723c0 .464.376.841.84.841h22.623l5.215 5.215 5.215-5.215h20.622a.841.841 0 0 0 .84-.84V5.84a.84.84 0 0 0-.84-.84" fill="#6DA3F2"/><path d="M57.515 5.34H7.84A.84.84 0 0 0 7 6.18v35.384c0 .463.376.84.84.84h22.623l5.215 5.215 5.215-1.435h16.622c.465 0 .84-4.157.84-4.62V6.18a.84.84 0 0 0-.84-.84" fill="#97BDFF"/><path d="M4.84 47.404A1.841 1.841 0 0 1 3 45.564V5.84A1.84 1.84 0 0 1 4.84 4h53.675a1.84 1.84 0 0 1 1.84 1.84v39.723a1.841 1.841 0 0 1-1.84 1.841H38.307l-4.922 4.923a1 1 0 0 1-1.414 0l-4.923-4.923H4.841zM58.357 6H5v39.404h22.463a1 1 0 0 1 .707.293l4.508 4.508 4.508-4.508a1 1 0 0 1 .707-.293h20.463V6z" fill="#457AE6" fill-rule="nonzero"/><path fill="#CADEFF" d="M11.201 20.539h40.953v-8.813H11.201z"/><path fill="#FFF" opacity=".7" d="M15.72 20.539h36.434v-8.813H15.72z"/><path d="M11.201 21.539a1 1 0 0 1-1-1v-8.813a1 1 0 0 1 1-1h40.953a1 1 0 0 1 1 1v8.813a1 1 0 0 1-1 1H11.201zm1-2h38.953v-6.813H12.201v6.813zM10.927 27.078v-2h20.837v2zM34.89 27.078v-2h6.97v2zM10.927 31.898v-2h27.066v2zM41.188 31.898v-2h4.817v2z" fill="#457AE6" fill-rule="nonzero"/><ellipse fill="#CADEFF" cx="33" cy="58" rx="14" ry="2"/></g></svg>