<svg width="64" height="64" xmlns="http://www.w3.org/2000/svg"><g fill="none" fill-rule="evenodd"><path fill="#97BDFF" d="M7 24h51V8H7z"/><path fill="#6DA3F2" d="M7 25h51v-4H7z"/><path d="M6.747 26A.755.755 0 0 1 6 25.238V7.762c0-.42.334-.762.747-.762h50.506c.413 0 .747.341.747.762v17.476a.755.755 0 0 1-.747.762H6.747zm.747-1.525h49.012V8.525H7.494v15.95z" fill="#457AE6" fill-rule="nonzero"/><path d="M14.635 15.556l-.254-.98c-.06-.22-.131-.5-.216-.847-.085-.346-.14-.594-.167-.744-.025.14-.072.368-.144.687-.07.319-.229.946-.473 1.884h1.254zM15.256 18l-.29-1.12h-1.917L12.751 18H11l1.925-6h2.126L17 18h-1.744zM21.38 16.824a.87.87 0 0 0 .568-.192.612.612 0 0 0 .236-.499v-.375l-.42.017c-.6.02-.901.222-.901.606 0 .295.172.443.518.443zm1.355 1.09l-.35-.639h-.038c-.246.28-.496.47-.751.572-.256.102-.586.153-.99.153-.498 0-.89-.136-1.177-.409-.286-.273-.429-.657-.429-1.15 0-.515.196-.898.588-1.15.392-.251.96-.392 1.704-.424l.883-.026v-.067c0-.398-.215-.598-.645-.598-.386 0-.876.12-1.47.359l-.528-1.1c.616-.29 1.395-.435 2.334-.435.679 0 1.204.153 1.576.46.372.307.558.737.558 1.287v3.168h-1.265zM27.38 16.824a.87.87 0 0 0 .568-.192.612.612 0 0 0 .236-.499v-.375l-.42.017c-.6.02-.901.222-.901.606 0 .295.172.443.518.443zm1.355 1.09l-.35-.639h-.038c-.246.28-.496.47-.751.572-.256.102-.586.153-.99.153-.498 0-.89-.136-1.177-.409-.286-.273-.429-.657-.429-1.15 0-.515.196-.898.588-1.15.392-.251.96-.392 1.704-.424l.883-.026v-.067c0-.398-.215-.598-.645-.598-.386 0-.876.12-1.47.359l-.528-1.1c.616-.29 1.395-.435 2.334-.435.679 0 1.204.153 1.576.46.372.307.558.737.558 1.287v3.168h-1.265zM52 18h-8l3.917-4.956c.046-.059.12-.059.166 0L52 18z" fill="#FFF"/><path d="M57.02 46H7.98a.973.973 0 0 1-.98-.966v-7.068c0-.533.44-.966.98-.966h49.04c.54 0 .98.433.98.966v7.068c0 .534-.44.966-.98.966" fill="#CADEFF"/><path d="M57.186 43H7.814c-.45 0-.814-.347-.814-.776v-4.449c0-.428.365-.775.814-.775h49.372c.45 0 .814.347.814.775v4.449c0 .429-.365.776-.814.776" fill="#FFF" opacity=".7"/><path d="M57.02 56H7.98a.974.974 0 0 1-.98-.966v-7.068c0-.534.44-.966.98-.966h49.04c.54 0 .98.432.98.966v7.068c0 .533-.44.966-.98.966" fill="#CADEFF"/><path d="M57.186 53H7.814c-.45 0-.814-.347-.814-.776v-4.448c0-.43.365-.776.814-.776h49.372c.45 0 .814.347.814.776v4.448c0 .43-.365.776-.814.776" fill="#FFF" opacity=".7"/><path d="M57.02 37H7.98a.974.974 0 0 1-.98-.966v-7.068c0-.533.44-.966.98-.966h49.04c.54 0 .98.433.98.966v7.068c0 .533-.44.966-.98.966" fill="#CADEFF"/><path d="M57.186 34H7.814c-.45 0-.814-.347-.814-.775v-4.449c0-.429.365-.776.814-.776h49.372c.45 0 .814.347.814.776v4.449c0 .428-.365.775-.814.775" fill="#FFF" opacity=".7"/><path d="M6 48V37h52v11H6zm50.506-1.564v-7.872H7.494v7.872h49.012z" fill="#457AE6" fill-rule="nonzero"/><path d="M6 57V46h52v11H6zm50.506-1.564v-7.872H7.494v7.872h49.012zM6 39V28h52v11H6zm50.506-1.564v-7.872H7.494v7.872h49.012z" fill="#457AE6" fill-rule="nonzero"/></g></svg>