<svg width="64" height="64" xmlns="http://www.w3.org/2000/svg"><g transform="translate(4 11)" fill="none" fill-rule="evenodd"><path fill="#6DA3F2" d="M1 30h27V1H1z"/><path fill="#CADEFF" d="M56 30H28V11l28 17z"/><path d="M55 26.595H28V.54c17.226-.72 26.226-.72 27 0 .774.72.774 9.405 0 26.055z" fill="#EFF5FF"/><path fill="#97BDFF" d="M1 30h23V1H1z"/><g fill="#457AE6" fill-rule="nonzero"><path d="M54.605 28.854V1H1v27.854h53.605zm.222 2H.777C-.232 30.854-1 29.99-1 28.98V.874C-1-.136-.232-1 .778-1h54.05c1.009 0 1.777.863 1.777 1.874V28.98c0 1.01-.768 1.874-1.778 1.874z"/><path d="M28 30.05h-2V-1h2z"/></g><path d="M39.625 17.875h-3.758L35.211 20h-2.93l4.172-11.375h2.578L43.234 20H40.29l-.664-2.125zm-3.102-2.117h2.446l-1.227-3.945-1.219 3.945zM48.703 20a1.833 1.833 0 0 1-.144-.348 4.937 4.937 0 0 1-.106-.41 2.572 2.572 0 0 1-.789.649c-.323.177-.737.265-1.242.265-.39 0-.76-.062-1.106-.187a2.922 2.922 0 0 1-.91-.52 2.467 2.467 0 0 1-.62-.8 2.305 2.305 0 0 1-.231-1.032c0-.437.08-.828.238-1.172a2.22 2.22 0 0 1 .727-.87c.325-.238.737-.42 1.234-.548.497-.127 1.087-.191 1.77-.191h.812v-.445c0-.36-.078-.644-.234-.852-.157-.208-.414-.312-.774-.312-.302 0-.534.075-.695.226-.162.151-.242.383-.242.695h-2.633c0-.39.087-.755.262-1.093.174-.339.423-.63.746-.875a3.74 3.74 0 0 1 1.168-.578c.455-.141.964-.211 1.527-.211.505 0 .973.062 1.402.187.43.125.801.314 1.114.567.312.252.557.567.734.945.177.377.266.816.266 1.316v3.461c0 .276.007.516.023.719.016.203.04.381.07.535a2.48 2.48 0 0 0 .266.746V20h-2.633zm-1.648-1.719c.328 0 .6-.07.816-.21.216-.141.371-.3.465-.477v-1.352h-.828c-.245 0-.452.034-.621.102-.17.067-.305.159-.407.273a1.032 1.032 0 0 0-.218.395 1.618 1.618 0 0 0-.067.465c0 .24.081.433.242.582a.876.876 0 0 0 .618.222z" fill="#5590EB"/><ellipse fill="#CADEFF" cx="28.5" cy="43" rx="22.5" ry="2"/></g></svg>