<svg xmlns="http://www.w3.org/2000/svg" viewBox="0 0 395.99 246.03"><title>Asset 48100</title><g id="Layer_2" data-name="Layer 2"><g id="Layer_1-2" data-name="Layer 1"><path d="M388,115H27.93L133.8,13.78A8,8,0,1,0,122.74,2.22L2.46,117.23l-.12.13-.13.12-.15.17-.28.32-.23.3-.24.35-.2.32-.2.36-.17.34L.59,120l-.14.37c0,.12-.08.24-.12.36s-.07.25-.1.38-.06.24-.08.37,0,.26-.06.39,0,.25,0,.37,0,.26,0,.39,0,.25,0,.38,0,.25,0,.38,0,.26,0,.39,0,.25,0,.37,0,.26.06.39.05.24.08.37.06.26.1.38.08.24.12.36l.14.37.16.36.17.34.2.36.2.32.24.35.23.3.28.32.15.17.13.12.13.13,120.28,115a8,8,0,1,0,11.06-11.56L27.93,131H388a8,8,0,0,0,0-16Z"/></g></g></svg>