<svg xmlns="http://www.w3.org/2000/svg" viewBox="0 0 396 212.1"><title>Asset 34100</title><g id="Layer_2" data-name="Layer 2"><g id="Layer_1-2" data-name="Layer 1"><path d="M394.37,136.54l.24-.32.18-.3c.08-.12.16-.24.22-.37s.11-.21.16-.32.13-.25.18-.37.1-.26.15-.39.09-.22.12-.34.08-.28.11-.42.06-.22.09-.34,0-.26.07-.39,0-.26.06-.39,0-.24,0-.35,0-.3,0-.45,0-.06,0-.09,0-.17,0-.26,0-.29,0-.44,0-.25,0-.37,0-.27-.06-.4-.05-.26-.09-.39-.06-.25-.1-.37-.08-.25-.12-.38-.08-.24-.13-.36l-.15-.35-.17-.36-.19-.33-.21-.34-.23-.33-.23-.3-.29-.33-.17-.2-44.85-46.9-.13-.12-.12-.13-.17-.15-.32-.28-.3-.23-.35-.24-.32-.2-.35-.2-.35-.17-.36-.16-.37-.14-.36-.12-.39-.1-.36-.08-.4-.07-.36,0-.4,0h-.76l-.37,0-.39,0-.37.06-.38.08-.37.1-.38.12-.36.13-.37.16-.34.17-.36.2-.32.2-.35.24-.3.23-.32.28-.17.15-.12.13-.13.12-44.85,46.9-.17.2-.29.33-.23.3-.23.33-.21.34-.19.33-.17.36-.15.35c0,.12-.09.24-.13.36s-.09.25-.12.38-.07.25-.1.37-.06.26-.09.39,0,.27-.06.4,0,.25,0,.37,0,.29,0,.44,0,.17,0,.26,0,.06,0,.09,0,.3,0,.45,0,.24,0,.35,0,.26.06.39,0,.26.07.39.06.22.09.34.07.28.11.42.08.22.12.34.09.26.15.39.12.25.18.37.1.22.16.32.15.25.22.37l.18.3.24.32.24.31.24.26.3.32.06.06.21.18.31.27.31.23.31.22.35.21.31.18.37.18.33.15.38.14.35.12.4.1.35.08.46.07.31,0c.26,0,.52,0,.78,0h36.39A58.78,58.78,0,0,1,276,196.1H56.89a8,8,0,1,0,0,16H276a74.79,74.79,0,0,0,74.65-72.37H388c.26,0,.52,0,.78,0l.31,0,.46-.07.35-.08.39-.1.35-.12.38-.14.33-.15.37-.18.31-.18.35-.21.31-.22L393,138l.31-.27.21-.19.06-.06.3-.32.24-.26ZM317,123.72,343.15,96.4l26.13,27.33Z"/><path d="M47.51,128.77l.3.26.33.25.32.23.35.21.33.19.38.18.33.15.42.15.31.11.46.12.28.07.53.08.23,0c.26,0,.51,0,.77,0h0c.26,0,.51,0,.77,0l.22,0,.55-.08.27-.06.48-.12.3-.1.44-.16.31-.14.4-.19.31-.18.37-.22.31-.22.34-.26.29-.25.19-.17.13-.13.13-.12,44.85-46.9.17-.2.29-.33.23-.3.23-.33.21-.34.19-.33.17-.36.15-.35c0-.12.09-.24.13-.36s.09-.25.12-.38.07-.25.1-.37.06-.26.09-.39,0-.27.06-.4,0-.25,0-.37,0-.29,0-.44,0-.17,0-.26,0-.06,0-.09,0-.3,0-.45,0-.24,0-.35,0-.26-.06-.39,0-.26-.07-.39-.06-.22-.09-.34-.07-.28-.11-.42-.08-.22-.12-.34-.09-.26-.15-.39-.12-.25-.18-.37-.1-.22-.16-.32-.15-.25-.22-.37l-.18-.3-.24-.32-.24-.31-.24-.26-.3-.32-.06-.06L103,70l-.33-.29-.3-.23-.33-.23-.34-.2-.34-.19-.36-.17-.36-.16-.36-.13-.38-.12-.37-.09-.39-.09L98.78,68l-.38,0-.43,0H61.25A58.79,58.79,0,0,1,119.56,16H338.7a8,8,0,0,0,0-16H119.56A74.8,74.8,0,0,0,45.17,67.93H7.71l-.41,0-.4,0-.37.06-.42.09-.34.09-.4.13L5,68.5l-.37.16-.34.16L4,69l-.33.2-.34.24-.3.22L2.67,70l-.2.17-.06.06-.3.32-.24.26-.24.31-.24.32-.18.3c-.08.12-.16.24-.22.37s-.11.21-.16.32-.13.25-.18.37-.1.26-.15.39-.09.22-.12.34-.08.28-.11.42-.06.22-.09.34,0,.26-.07.39,0,.26-.06.39,0,.24,0,.35,0,.3,0,.45,0,.06,0,.09,0,.17,0,.26,0,.29,0,.44,0,.25,0,.37,0,.27.06.4.05.26.09.39.06.25.1.37.08.25.12.38.08.24.13.36l.15.35.17.36.19.33.21.34.23.33.23.3.29.33.17.2,44.85,46.9.13.12.13.13ZM26.72,83.93H79L52.85,111.25Z"/></g></g></svg>