<svg xmlns="http://www.w3.org/2000/svg" viewBox="0 0 396 214.69"><title>Asset 6100</title><g id="Layer_2" data-name="Layer 2"><g id="Layer_1-2" data-name="Layer 1"><path d="M394.25,13l.22-.29.24-.34.2-.33.19-.35.17-.35c.06-.12.11-.24.16-.36s.09-.24.13-.36.09-.25.12-.38.07-.24.09-.37.06-.26.09-.39,0-.26.06-.4,0-.25,0-.38,0-.29,0-.44,0-.17,0-.26,0-.06,0-.09,0-.3,0-.45,0-.24,0-.35,0-.26-.06-.39,0-.26-.07-.39-.06-.22-.09-.33-.07-.28-.11-.42-.08-.22-.12-.33-.09-.27-.15-.4-.11-.24-.17-.35-.11-.23-.17-.34-.14-.23-.21-.34-.13-.22-.2-.32l-.22-.3-.26-.33-.22-.25-.32-.34-.06-.06-.19-.16-.35-.3-.29-.22-.34-.24L392,1.1l-.34-.19-.36-.17L391,.58l-.37-.14-.37-.12-.38-.1-.37-.08-.41-.06-.36,0-.46,0H7.72L7.3,0l-.39,0L6.53.14l-.4.09L5.77.32,5.38.45,5,.58,4.66.74,4.32.9,4,1.1l-.32.2-.35.24L3,1.75l-.35.3-.19.16-.06.06-.32.34-.22.25-.26.33-.22.3c-.07.1-.13.21-.2.32S1,4,1,4.16s-.11.23-.17.34-.12.23-.17.35-.1.27-.15.4-.08.22-.12.33S.3,5.86.26,6s-.06.22-.09.33,0,.26-.07.39,0,.26-.06.39,0,.24,0,.35,0,.3,0,.45S0,8,0,8s0,.17,0,.26,0,.29,0,.44,0,.25,0,.38,0,.27.06.4.05.26.09.39.06.25.09.37.08.26.13.38.08.24.13.36.1.24.16.36l.17.35L1.1,12l.2.33.24.34.22.29.3.35.16.19,190,198.69.13.12.13.13.19.17.29.25.33.26.31.22.36.22.32.18.4.19.31.14.44.16.29.1.48.12.27.06.55.08.22,0c.26,0,.51,0,.77,0h0c.26,0,.51,0,.77,0l.23,0,.54-.08.28-.07.47-.12.3-.1.43-.15.32-.14.39-.19.32-.18.36-.22.31-.22.33-.25.29-.25.19-.17.13-.13.13-.12,190-198.69.16-.19ZM198,195.12,26.72,16H369.28Z"/></g></g></svg>