<svg xmlns="http://www.w3.org/2000/svg" viewBox="0 0 396 312.79"><title>Asset 31100</title><g id="Layer_2" data-name="Layer 2"><g id="Layer_1-2" data-name="Layer 1"><path d="M293.42,0H105.74a20,20,0,0,0-20,20V292.79a20,20,0,0,0,20,20H293.42a20,20,0,0,0,20-20V20A20,20,0,0,0,293.42,0Zm4,292.79a4.05,4.05,0,0,1-4,4H105.74a4.05,4.05,0,0,1-4-4V20a4.05,4.05,0,0,1,4-4H293.42a4.05,4.05,0,0,1,4,4Z"/><path d="M199.85,131.27a46.78,46.78,0,1,0-46.78-46.78A46.83,46.83,0,0,0,199.85,131.27Zm0-77.56a30.78,30.78,0,1,1-30.78,30.78A30.82,30.82,0,0,1,199.85,53.71Z"/><path d="M199.85,134.66a69.94,69.94,0,1,0,69.94,69.94A70,70,0,0,0,199.85,134.66Zm0,123.89a53.94,53.94,0,1,1,53.94-53.94A54,54,0,0,1,199.85,258.55Z"/><path d="M199.85,105.41a22,22,0,1,0-22-22A22,22,0,0,0,199.85,105.41Zm0-28a6,6,0,1,1-6,6A6,6,0,0,1,199.85,77.41Z"/><path d="M199.85,156.29a48.31,48.31,0,1,0,48.31,48.31A48.37,48.37,0,0,0,199.85,156.29Zm0,80.62a32.31,32.31,0,1,1,32.31-32.31A32.35,32.35,0,0,1,199.85,236.92Z"/><path d="M199.85,183.59a21,21,0,1,0,21,21A21,21,0,0,0,199.85,183.59Zm0,26a5,5,0,1,1,5-5A5,5,0,0,1,199.85,209.61Z"/><path d="M65.67,257.47a48.18,48.18,0,0,1-1-75.77,8,8,0,0,0-10-12.45A64.18,64.18,0,0,0,56,270.19a8,8,0,1,0,9.71-12.71Z"/><path d="M44.24,276.3a71.89,71.89,0,0,1-1.49-113.07,8,8,0,0,0-10-12.45A87.89,87.89,0,0,0,34.52,289a8,8,0,0,0,9.71-12.71Z"/><path d="M341.37,169.25a8,8,0,0,0-10,12.45,48.18,48.18,0,0,1-1,75.77A8,8,0,1,0,340,270.19a64.18,64.18,0,0,0,1.33-100.94Z"/><path d="M363.3,150.78a8,8,0,0,0-10,12.45,71.89,71.89,0,0,1-1.49,113.07A8,8,0,1,0,361.48,289a87.89,87.89,0,0,0,1.82-138.24Z"/><circle cx="287.86" cy="24.58" r="3.91"/><circle cx="110.27" cy="24.58" r="3.91"/><circle cx="287.86" cy="286.67" r="3.91"/><circle cx="110.27" cy="286.67" r="3.91"/></g></g></svg>