<svg xmlns="http://www.w3.org/2000/svg" viewBox="0 0 396 257.86"><title>Asset 9100</title><g id="Layer_2" data-name="Layer 2"><g id="Layer_1-2" data-name="Layer 1"><path d="M343.69,111c.14-2.25.22-4.51.22-6.76A104.27,104.27,0,0,0,161.64,35.06a82.46,82.46,0,0,0-100.42,73.7,75.2,75.2,0,0,0,14,149.1H320.79A75.2,75.2,0,0,0,343.69,111Zm-22.9,130.82H75.21A59.28,59.28,0,0,1,16,182.65c0-30,23.35-55.84,53.16-58.9a8.94,8.94,0,0,0,7.77-8.31,66.43,66.43,0,0,1,131-15.69A8,8,0,0,0,223.46,96a82.09,82.09,0,0,0-45.14-55.22,88.28,88.28,0,0,1,149.59,63.52,89.46,89.46,0,0,1-.77,11.69,8,8,0,0,0,6.84,9,59.2,59.2,0,0,1-13.19,116.92Z"/></g></g></svg>