<svg xmlns="http://www.w3.org/2000/svg" viewBox="0 0 360.68 396"><title>Asset 43100</title><g id="Layer_2" data-name="Layer 2"><g id="Layer_1-2" data-name="Layer 1"><path d="M360.36,201.32c-1.45-25.25-7.1-44.49-17.78-60.48-21.28-31.85-59-48-106.82-45.87l4.79-21.88c0-.09,0-.17,0-.26s.06-.33.08-.49,0-.21,0-.31,0-.32,0-.48,0-.23,0-.35,0-.29,0-.43,0-.26,0-.39,0-.25-.05-.38-.06-.27-.09-.41-.05-.23-.08-.35-.08-.27-.13-.4-.07-.22-.11-.33-.11-.25-.16-.38-.1-.22-.15-.33l-.18-.34-.19-.34-.2-.3-.24-.34-.22-.27-.28-.32-.25-.25-.31-.29-.29-.24-.31-.24-.36-.24-.3-.19-.43-.23-.28-.14-.47-.19-.24-.1L52.73.44l-.2-.06L52.15.27,51.75.17,51.4.11,51,0l-.31,0-.49,0h-.27l-.53,0-.25,0-.54.09-.14,0-.12,0-.49.13-.3.1-.4.15-.35.15-.33.16-.37.2-.29.18-.35.24-.29.22-.3.25-.3.28-.25.25L44,2.88l-.2.25-.26.36-.19.28-.2.35-.19.35-.15.32c-.06.14-.12.29-.17.43l-.06.14c0,.05,0,.11,0,.16s-.1.31-.14.47l-.07.31c0,.15-.06.3-.08.45s0,.24,0,.35,0,.27,0,.41,0,.27,0,.4,0,.24,0,.36,0,.3,0,.45,0,.21,0,.32,0,.32.08.48,0,.11,0,.17L61.16,96.48a8,8,0,0,0,1.66,3.4,11.91,11.91,0,0,0-.12,1.62v26.39A147.38,147.38,0,0,0,0,248.54C0,329.85,66.15,396,147.46,396s147.46-66.15,147.46-147.46a147.74,147.74,0,0,0-52.31-112.65l3.7.07c21.31.56,36.9,6.27,49.06,18,12.73,12.24,20.22,30.22,20.54,49.32,0,0,0,0,0,0s0,.16,0,.24a8,8,0,0,0,8,8h28.77a8,8,0,0,0,7.68-10.22ZM61,20.23,223.4,76.61,220.58,89.5H76ZM217.37,105.5v19.31H78.69V105.5Zm61.55,143c0,72.49-59,131.46-131.46,131.46S16,321,16,248.54A131.4,131.4,0,0,1,72.44,140.59a11.92,11.92,0,0,0,2.25.22H221.37a11.88,11.88,0,0,0,1.84-.16l-.2.29A131.73,131.73,0,0,1,278.92,248.54ZM306.47,142.4c-15.21-14.63-34.19-21.76-59.73-22.43-2.93-.08-5.88-.11-8.73-.14l-4.64-.06v-8.66c43.49-2.66,77.44,11,95.91,38.62,8.1,12.12,12.8,26.82,14.6,45.81H331.47C329.44,175,320.56,155.95,306.47,142.4Z"/><path d="M236.75,260c-6-5.07-13.58-11.4-27.26-10.54s-20.38,8-25.75,13.82c-4.64,5-7.71,8.29-15,8.75s-10.76-2.44-16-6.82c-6-5.07-13.56-11.4-27.26-10.54s-20.38,8-25.75,13.82c-4.64,5-7.71,8.29-15,8.74s-10.76-2.44-16-6.82c-6-5.07-13.57-11.4-27.26-10.54a10.22,10.22,0,0,0-7.86,9.75c.59,28,13.15,54,35.36,73.24,21.32,18.48,49.1,28.56,78.5,28.56l2.72,0c28.5-.6,55.6-10.78,76.31-28.66s33.4-42.06,35.56-67.93a8,8,0,0,0-11.27-7.95C244.76,266.72,241.47,264,236.75,260Zm-86.93,95.39c-26.42.55-51.43-8.19-70.41-24.63C62.72,316.33,52.5,297.44,50.1,277c2.89,1.18,5.31,3.2,8.31,5.72,5.67,4.76,12.65,10.61,24.81,10.61q1.19,0,2.45-.08c13.69-.85,20.38-8,25.75-13.82,4.64-5,7.71-8.29,15-8.74s10.76,2.44,16,6.82c6,5.07,13.56,11.4,27.26,10.54s20.38-8,25.76-13.82c4.64-5,7.71-8.29,15-8.75s10.77,2.44,16,6.83c4.59,3.85,10,8.41,18.38,10C236.81,323.57,197.55,354.4,149.82,355.41Z"/></g></g></svg>