<svg xmlns="http://www.w3.org/2000/svg" viewBox="0 0 395.99 371.48"><title>Asset 59100</title><g id="Layer_2" data-name="Layer 2"><g id="Layer_1-2" data-name="Layer 1"><path d="M389.83,56.59,344.67,7.53a23.39,23.39,0,0,0-33-1.37L290.79,25.37l-2-2.16a20,20,0,0,0-28.27-.93l-6.72,6.29a20,20,0,0,0-.93,28.27l1.74,1.85L24.17,270.79a8,8,0,0,0-1.8,9.34L.72,351.4a15.89,15.89,0,0,0,5.41,17.39A13.1,13.1,0,0,0,14,371.48a13,13,0,0,0,5.81-1.39l73.07-17a8,8,0,0,0,1.37-.47,8,8,0,0,0,9.54-1L332.09,141.48l.78.84a19.86,19.86,0,0,0,13.94,6.31h.68a19.85,19.85,0,0,0,13.65-5.38l6.71-6.29a20,20,0,0,0,.93-28.27l-.5-.54L388.46,89.6A23.39,23.39,0,0,0,389.83,56.59ZM265.53,70.37l21,22.45-223,211.45L39.34,278.57Zm-249,284,17.62-58,41.57,44.24Zm78.56-16.53-20.64-22,223-211.42,23.68,25.3ZM358.18,122.5a4,4,0,0,1-1.25,2.79l-6.71,6.29a4,4,0,0,1-5.65-.19l-80-85.48a4.05,4.05,0,0,1,.19-5.65L271.44,34a4.05,4.05,0,0,1,5.65.19l7.39,7.9h0l72.62,77.58A4,4,0,0,1,358.18,122.5Zm19.45-44.67L357.36,96.48,301.73,37.05,322.5,17.93a7.37,7.37,0,0,1,10.4.43l45.15,49.06A7.37,7.37,0,0,1,377.63,77.82Z"/></g></g></svg>