<svg xmlns="http://www.w3.org/2000/svg" viewBox="0 0 396 256.42"><title>Asset 23100</title><g id="Layer_2" data-name="Layer 2"><g id="Layer_1-2" data-name="Layer 1"><path d="M372.53,0H23.47A23.5,23.5,0,0,0,0,23.47V232.95a23.5,23.5,0,0,0,23.47,23.47H372.53A23.5,23.5,0,0,0,396,232.95V23.47A23.5,23.5,0,0,0,372.53,0ZM252.24,128.21,380,44V212.37Zm-50.5,14.11a7.17,7.17,0,0,1-7.89,0l-31.51-20.76h0L22.1,29.17a6.94,6.94,0,0,1-2.93-8.05A6.94,6.94,0,0,1,26,16h343.5a6.94,6.94,0,0,1,6.87,5.12,6.94,6.94,0,0,1-2.93,8.05L233.27,121.55h0ZM16,44.31l127.35,83.9L16,212.11Zm10.31,196.1c-5.07,0-7.74-2.91-8.48-5.41-.46-1.54-.69-4.49,3-6.9L157.9,137.79,185,155.68a23.15,23.15,0,0,0,25.5,0l27.15-17.89L374.79,228.1c3.67,2.42,3.44,5.36,3,6.9-.75,2.5-3.42,5.41-8.48,5.41Z"/></g></g></svg>