<svg xmlns="http://www.w3.org/2000/svg" viewBox="0 0 296.86 395.94"><title>Asset 38100</title><g id="Layer_2" data-name="Layer 2"><g id="Layer_1-2" data-name="Layer 1"><path d="M274.9,149.09C254,106.56,217.82,64.32,175.66,33.2c-10-7.41-20.88-15.11-33.19-20.59a240.31,240.31,0,0,0-24.83-9.09C104.7-.32,90.82-3,85.86,6.38c-4.08,7.69.28,17.72,3.45,25,.57,1.32,1.11,2.56,1.41,3.37l.48,1.3c1.19,3.24,2.31,6.31,3.29,9.41a51.49,51.49,0,0,1,2.79,15C97.67,89,76,110.84,55,131.94c-7.27,7.32-14.79,14.88-21.15,22.54A149.47,149.47,0,0,0,.24,241.06C-1.56,273,6.9,304.87,24.06,330.84c20.62,31.21,53.13,53.72,89.18,61.77a138.81,138.81,0,0,0,30.27,3.33,146.23,146.23,0,0,0,71.82-19.14,161.71,161.71,0,0,0,68.91-77.39C303.81,253.29,300.58,201.31,274.9,149.09ZM142.19,206.16c-.58-1.84-1.23-3.61-1.85-5.31l-.21-.57A100.91,100.91,0,0,1,150.26,204c5.18,2.3,10.09,5.81,14.69,9.2,37.8,27.91,70.05,77.84,51.52,121.53-12.79,30.15-43.74,47.19-73.58,40.53a62.49,62.49,0,0,1-38.1-26.42c-15-22.78-13.27-54.61,4.22-75.7,2.9-3.5,6.39-7,10.07-10.71,11.89-12,25.37-25.52,25.09-45.19A38.23,38.23,0,0,0,142.19,206.16Zm127.32,87a146.14,146.14,0,0,1-42.88,57,86.12,86.12,0,0,0,4.55-9.16c10.45-24.63,8.77-52.31-4.86-80-11.11-22.59-29.53-44.12-51.88-60.61-5.3-3.92-11-8-17.69-10.94a124.91,124.91,0,0,0-13.16-4.82c-4.91-1.46-16.42-4.88-20.8,3.37-3,5.59-.2,12,1.63,16.18.25.58.48,1.1.63,1.51l.25.69c.59,1.61,1.14,3.12,1.61,4.61a22.64,22.64,0,0,1,1.24,6.53c.18,12.94-9.84,23-20.44,33.69C104,255,100,258.91,96.69,263a80.18,80.18,0,0,0-5.26,94.74,78.4,78.4,0,0,0,14.51,16.36,130.56,130.56,0,0,1-68.52-52C5.63,273.92,9.23,209.22,46.18,164.7c5.9-7.11,12.84-14.09,20.19-21.48,22.22-22.35,47.4-47.68,46.9-83a67.48,67.48,0,0,0-3.52-19.56h0c-1.09-3.45-2.32-6.83-3.52-10.1l-.47-1.29C105.29,28,104.68,26.65,104,25a75,75,0,0,1-3.42-9c7.77.77,25.05,6.63,35.39,11.23,10.84,4.82,20.86,12,30.19,18.84C245.07,104.32,307.63,203.32,269.51,293.16Z"/></g></g></svg>