<svg xmlns="http://www.w3.org/2000/svg" viewBox="0 0 396 396"><title>Asset 8100</title><g id="Layer_2" data-name="Layer 2"><g id="Layer_1-2" data-name="Layer 1"><path d="M363.94,153.38h-2.8l-12.14.06-6.09,0h-.07q-.39-1.29-.84-2.61c-1-2.91-2-5.79-3.15-8.57a146.1,146.1,0,0,0-6.49-13.65L333,128l16.08-16a31.91,31.91,0,0,0,0-45.19c-1.41-1.41-2.89-3-4.46-4.61-10.71-11.27-26.89-28.29-48-18.33-6.22,2.93-10.87,7.81-14.61,11.74l-10.47,11L270.7,66c-.93-.61-1.8-1.18-2.66-1.62-3.23-1.68-6.54-3.25-9.84-4.66a141.29,141.29,0,0,0-16.08-5.8q0-.36,0-.73,0-1.41,0-2.82c0-1.55,0-3.11,0-4.66V31.94A32,32,0,0,0,210.15,0H186.68a32,32,0,0,0-32.06,31.93V43.62c0,3.62,0,7.06.07,10.42l-1.92.62c-4.58,1.49-9.32,3-14,5A82.6,82.6,0,0,0,130,63.79l-.67.35-1.15.6L110.83,47.42a32.2,32.2,0,0,0-45.31,0L48.93,63.92a31.91,31.91,0,0,0,0,45.18l16.79,16.7q-.61,1.12-1.21,2.24c-1.36,2.57-2.66,5.22-3.86,7.85-1.73,3.79-3.31,7.69-4.71,11.6-.71,2-1.37,4-2,6l-21.87-.09A32,32,0,0,0,0,185.31v23.34a32,32,0,0,0,32.06,31.93c3,0,6,0,8.94,0,4.06,0,8.21-.06,12.33,0a117.41,117.41,0,0,0,4.44,12.39c1.51,3.59,3.28,7.32,5.25,11.08.85,1.62,1.75,3.29,2.7,5l-14,13.95-2.36,2.35a31.91,31.91,0,0,0,0,45.19l16.6,16.51a32.2,32.2,0,0,0,45.31,0l.16-.16c1.79-1.89,3.63-3.72,5.57-5.65l2.92-2.92,6.67-6.73c.12-.12.41-.43.79-.87a147.05,147.05,0,0,0,20,8.92l.17.06a71.15,71.15,0,0,0,7.1,1.91v22.58A32,32,0,0,0,186.68,396h23.47a32,32,0,0,0,32.06-31.93v-.9q0-3-.08-5.91c0-4-.1-8.22-.19-12.35v-.54c0-.84,0-1.67-.06-2.49l1-.3a152.49,152.49,0,0,0,16-5.86c2.93-1.27,5.86-2.66,8.72-4.12.91-.47,1.82-.94,2.72-1.43q3.73,3.68,7.46,7.39l9.08,9a32.2,32.2,0,0,0,45.31,0L348.72,330a31.91,31.91,0,0,0,0-45.19L332,268.26c.84-1.54,1.6-3.06,2.33-4.54A149.57,149.57,0,0,0,341,248.09c.88-2.48,1.62-5,2.29-7.41l20.68-.1A32,32,0,0,0,396,208.65V185.31A32,32,0,0,0,363.94,153.38ZM380,208.65a16,16,0,0,1-16.1,15.93l-23.08.1c-1.21,0-2.42,0-3.62,0a8.2,8.2,0,0,0-7.9,6.18l-.38,1.44c-1,3.65-1.85,7.1-3,10.4a133.5,133.5,0,0,1-5.88,14,66.33,66.33,0,0,1-4.27,7.71,8.76,8.76,0,0,0-1.47,6.59l.15.75.23.64a9,9,0,0,0,2.17,3.32l20.62,20.5a15.91,15.91,0,0,1,0,22.5l-16.6,16.51a16.17,16.17,0,0,1-22.76,0l-9.08-9q-3.79-3.77-7.59-7.51l-3.91-3.86a8.39,8.39,0,0,0-9.7-1.67,12.57,12.57,0,0,0-1.88,1.12l0,0-1.77,1c-1.26.7-2.56,1.39-3.85,2.05-2.55,1.31-5.18,2.55-7.79,3.68a136.45,136.45,0,0,1-14.3,5.24c-1.6.49-3.22.94-4.84,1.39l-1,.29a8.64,8.64,0,0,0-6.48,8.48c0,2.82,0,5.6.1,8.3v.54c.1,4,.14,8.17.19,12.16q0,3,.08,6v.71A16,16,0,0,1,210.15,380H186.68a16,16,0,0,1-16.06-15.93V335.45a8.42,8.42,0,0,0-6.9-8.42l-1.44-.29a83,83,0,0,1-9.64-2.31,134.05,134.05,0,0,1-22.57-10.64l-1-.57-.79-.21c-5.29-1.6-8.54,2.08-12.64,6.73l-.5.56L108.53,327l-2.84,2.84c-1.91,1.9-3.88,3.86-5.8,5.88a16.16,16.16,0,0,1-22.67-.07L60.62,319.1a15.91,15.91,0,0,1,0-22.5L63,294.25l15.58-15.48,2.61-2.59a8.29,8.29,0,0,0,1.35-10.24l-1.06-1.78c-.54-.9-1.08-1.8-1.6-2.71-.94-1.66-1.83-3.3-2.66-4.88-1.76-3.37-3.34-6.7-4.68-9.88a96.6,96.6,0,0,1-5.07-15.34,8.57,8.57,0,0,0-3.11-5l-.45-.32a8.67,8.67,0,0,0-4.77-1.47c-6.12-.13-12.27-.09-18.23,0-2.94,0-5.89,0-8.83,0A16,16,0,0,1,16,208.65V185.31a16,16,0,0,1,16-15.93l27.38.12a8.34,8.34,0,0,0,8.13-5.92L68,162c1-3.16,1.92-6.14,3-9.1,1.25-3.49,2.66-7,4.2-10.36,1.07-2.36,2.23-4.72,3.45-7s2.46-4.51,3.77-6.66a8.25,8.25,0,0,0-1.28-10.28l-1.29-1.28L60.21,97.77a15.91,15.91,0,0,1,0-22.5L76.8,58.76a16.16,16.16,0,0,1,22.72,0l17.69,17.71c1.19,1.19,2.38,2.38,3.56,3.58a8.31,8.31,0,0,0,4.35,2.4l1.39.27,1.32-.17a9.74,9.74,0,0,0,4.47-1.84l.69-.39.48-.26q1.57-.87,3.15-1.69l.68-.35a68.13,68.13,0,0,1,7.24-3.41l.36-.14c4.05-1.74,8.3-3.11,12.79-4.57,2.25-.73,4.57-1.48,6.88-2.29a9.22,9.22,0,0,0,4-2.58,9.09,9.09,0,0,0,2.23-6.45c-.11-4.78-.16-9.66-.16-14.94V31.93A16,16,0,0,1,186.68,16h23.47a16,16,0,0,1,16.06,15.94V45.71c0,1.48,0,3,0,4.43,0,1,0,1.94,0,2.91,0,1.3,0,2.6,0,3.86v.25a11,11,0,0,0,2.21,7.6A10.48,10.48,0,0,0,234,68.28a123.61,123.61,0,0,1,17.86,6.13c2.94,1.26,5.89,2.66,8.76,4.15.22.12.85.53,1.31.83,3.5,2.28,8.29,5.41,13.47,3.87A14.55,14.55,0,0,0,281.85,79l11.78-12.36c3.12-3.27,6.34-6.65,9.86-8.31,9.92-4.68,18.16,2.86,29.59,14.89,1.65,1.73,3.2,3.37,4.77,4.93a15.91,15.91,0,0,1,0,22.5l-16.1,16c-1.4,1.4-2.73,2.73-4.09,4a9.19,9.19,0,0,0-2.5,3.81l-.13.43a9.08,9.08,0,0,0,.89,6.88l.56,1A159.86,159.86,0,0,1,324,148.26c1,2.49,2,5.09,2.83,7.71a71.27,71.27,0,0,1,2,7.24l.14.55c1.74,6,7.85,5.9,9.86,5.87,1.16,0,2.55-.08,3.48-.12l.7,0,6,0,12.16-.06h2.71A16,16,0,0,1,380,185.31Z"/><path d="M198.41,104.86c-51.68,0-93.57,41.67-93.57,93.06S146.74,291,198.41,291,292,249.32,292,197.92,250.09,104.86,198.41,104.86Zm0,170.13c-42.77,0-77.57-34.57-77.57-77.06s34.8-77.06,77.57-77.06S276,155.43,276,197.92,241.18,275,198.41,275Z"/><path d="M198.41,135.34a62.58,62.58,0,1,0,62.92,62.58A62.75,62.75,0,0,0,198.41,135.34Zm0,109.17a46.58,46.58,0,1,1,46.92-46.58A46.81,46.81,0,0,1,198.41,244.5Z"/></g></g></svg>