<svg xmlns="http://www.w3.org/2000/svg" viewBox="0 0 396.05 340.35"><title>Asset 54100</title><g id="Layer_2" data-name="Layer 2"><g id="Layer_1-2" data-name="Layer 1"><path d="M390.54,87.71a126.79,126.79,0,0,0-50.3-67.4A119.15,119.15,0,0,0,258.45,1c-21,2.78-41.42,11.21-57.35,23.73l-.28.22a25.56,25.56,0,0,1-2.95,2.12,28.54,28.54,0,0,1-3.5-2.68,45,45,0,0,0-3.56-2.81,125.38,125.38,0,0,0-13.52-8.08A121.17,121.17,0,0,0,137.6,1a119.12,119.12,0,0,0-81.79,19.3,126.79,126.79,0,0,0-50.3,67.4c-8.43,26.92-7.19,56.13,3.69,86.81,8.94,25.22,24.31,50.78,44.47,73.91a305.44,305.44,0,0,0,141.19,91.45h0a10.81,10.81,0,0,0,6.32,0,305.44,305.44,0,0,0,141.19-91.45c20.16-23.13,35.53-48.69,44.47-73.91C397.73,143.84,399,114.64,390.54,87.71Zm-60.22,150.2A289.45,289.45,0,0,1,198,324.11a289.45,289.45,0,0,1-132.3-86.19c-20-23-64.45-83.11-44.95-145.43C35.18,46.47,76.5,16,122,16a102.61,102.61,0,0,1,13.46.89A105.2,105.2,0,0,1,170,27.72a109.1,109.1,0,0,1,11.79,7c.59.41,1.41,1.1,2.28,1.84,3.45,2.92,8.18,6.91,14.51,6.55,5.43-.32,9.33-3.39,12.18-5.63l.27-.21c13.71-10.77,31.31-18,49.56-20.45,50.67-6.7,98.91,25.1,114.72,75.62C394.78,154.81,350.34,215,330.33,237.92Z"/></g></g></svg>