<svg xmlns="http://www.w3.org/2000/svg" viewBox="0 0 396 396.01"><title>Asset 3100</title><g id="Layer_2" data-name="Layer 2"><g id="Layer_1-2" data-name="Layer 1"><path d="M367.18,157.07a26,26,0,0,0-3.29-2.79l-147.71-111-.56-.25c-.15-.12-.3-.25-.44-.38-.35-.3-.69-.59-1-.87-.82-.64-1.65-1.27-2.49-1.89l-8.39-6.35a8.49,8.49,0,0,0-10.45,0L29.65,156.13a16.23,16.23,0,0,0-2.36,2.18,8.42,8.42,0,0,0-1.66,2.79,8.32,8.32,0,0,0-.48,2.84V379.78c0,8.95,8.53,16.23,19,16.23h98.59c7.67,0,13.68-5.38,13.68-12.24V276.85a5.17,5.17,0,0,1,3-.84h76.18a5.17,5.17,0,0,1,3,.84V383.77c0,6.86,6,12.24,13.68,12.24h99.51c10.48,0,19-7.28,19-16.23V179.46c0-1.41,0-2.83,0-4.24,0-3.1.07-6.31-.06-9.55A12.86,12.86,0,0,0,367.18,157.07Zm-12.29,18c0,1.48,0,3,0,4.43v199.7a5.17,5.17,0,0,1-3,.84H254.65V276.24c0-8.95-8.53-16.23-19-16.23H159.45c-10.48,0-19,7.28-19,16.23V380H44.16a5.17,5.17,0,0,1-3-.84V167.5L198,49.67l4,3.06c.74.56,1.49,1.11,2.22,1.69l.5.42A18,18,0,0,0,207.81,57l146.46,110,.61.46C354.95,170,354.92,172.44,354.89,175Z"/><path d="M392.79,141.82,206.87,2.93a14.91,14.91,0,0,0-17.75,0L113.49,59.44V42.1c0-10.38-9.87-18.82-22-18.82H62.31c-12.13,0-22,8.44-22,18.82v72L3.21,141.82a8,8,0,1,0,9.58,12.82L198,16.27,383.21,154.64a8,8,0,1,0,9.58-12.82ZM56.31,42.1c0-.7,2.13-2.82,6-2.82H91.48c3.87,0,6,2.12,6,2.82V71.39L56.31,102.15Z"/></g></g></svg>