<svg xmlns="http://www.w3.org/2000/svg" viewBox="0 0 380 380"><title>Asset 4100</title><g id="Layer_2" data-name="Layer 2"><g id="Layer_1-2" data-name="Layer 1"><path d="M51.35,0A51.35,51.35,0,1,0,102.7,51.35,51.35,51.35,0,0,0,51.35,0Zm0,86.7A35.35,35.35,0,1,1,86.7,51.35,35.39,35.39,0,0,1,51.35,86.7Z"/><path d="M190,0a51.35,51.35,0,1,0,51.35,51.35A51.35,51.35,0,0,0,190,0Zm0,86.7a35.35,35.35,0,1,1,35.35-35.35A35.39,35.39,0,0,1,190,86.7Z"/><path d="M328.65,102.7A51.35,51.35,0,1,0,277.3,51.35,51.35,51.35,0,0,0,328.65,102.7Zm0-86.7A35.35,35.35,0,1,1,293.3,51.35,35.39,35.39,0,0,1,328.65,16Z"/><path d="M51.35,138.65A51.35,51.35,0,1,0,102.7,190,51.35,51.35,0,0,0,51.35,138.65Zm0,86.7A35.35,35.35,0,1,1,86.7,190,35.39,35.39,0,0,1,51.35,225.35Z"/><path d="M190,138.65A51.35,51.35,0,1,0,241.35,190,51.35,51.35,0,0,0,190,138.65Zm0,86.7A35.35,35.35,0,1,1,225.35,190,35.39,35.39,0,0,1,190,225.35Z"/><path d="M328.65,138.65A51.35,51.35,0,1,0,380,190,51.35,51.35,0,0,0,328.65,138.65Zm0,86.7A35.35,35.35,0,1,1,364,190,35.39,35.39,0,0,1,328.65,225.35Z"/><path d="M51.35,277.3a51.35,51.35,0,1,0,51.35,51.35A51.35,51.35,0,0,0,51.35,277.3Zm0,86.7A35.35,35.35,0,1,1,86.7,328.65,35.39,35.39,0,0,1,51.35,364Z"/><path d="M190,277.3a51.35,51.35,0,1,0,51.35,51.35A51.35,51.35,0,0,0,190,277.3Zm0,86.7a35.35,35.35,0,1,1,35.35-35.35A35.39,35.39,0,0,1,190,364Z"/><path d="M328.65,277.3A51.35,51.35,0,1,0,380,328.65,51.35,51.35,0,0,0,328.65,277.3Zm0,86.7A35.35,35.35,0,1,1,364,328.65,35.39,35.39,0,0,1,328.65,364Z"/></g></g></svg>