<svg xmlns="http://www.w3.org/2000/svg" viewBox="0 0 396 396"><title>Asset 91100</title><g id="Layer_2" data-name="Layer 2"><g id="Layer_1-2" data-name="Layer 1"><path d="M376,0H20A20,20,0,0,0,0,20V376a20,20,0,0,0,20,20H376a20,20,0,0,0,20-20V20A20,20,0,0,0,376,0ZM16,20a4.05,4.05,0,0,1,4-4H376a4.05,4.05,0,0,1,4,4V71.1H16ZM380,376a4.05,4.05,0,0,1-4,4H20a4.05,4.05,0,0,1-4-4V87.1H380Z"/><path d="M159,339H330a20,20,0,0,0,20-20V148a20,20,0,0,0-20-20H159a20,20,0,0,0-20,20V319A20,20,0,0,0,159,339Zm-4-191a4.05,4.05,0,0,1,4-4H330a4.05,4.05,0,0,1,4,4V319a4.05,4.05,0,0,1-4,4H159a4.05,4.05,0,0,1-4-4Z"/><rect x="46.11" y="128" width="46.89" height="211" rx="20" ry="20"/></g></g></svg>