<svg xmlns="http://www.w3.org/2000/svg" viewBox="0 0 396 396"><title>Asset 95100</title><g id="Layer_2" data-name="Layer 2"><g id="Layer_1-2" data-name="Layer 1"><path d="M376,0H20A20,20,0,0,0,0,20V376a20,20,0,0,0,20,20H376a20,20,0,0,0,20-20V20A20,20,0,0,0,376,0ZM16,20a4.05,4.05,0,0,1,4-4H376a4.05,4.05,0,0,1,4,4V71.1H16ZM380,376a4.05,4.05,0,0,1-4,4H20a4.05,4.05,0,0,1-4-4V87.1H380Z"/><path d="M108,338h48a20,20,0,0,0,20-20V147a20,20,0,0,0-20-20H108a20,20,0,0,0-20,20V318A20,20,0,0,0,108,338Zm-4-191a4.05,4.05,0,0,1,4-4h48a4.05,4.05,0,0,1,4,4V318a4.05,4.05,0,0,1-4,4H108a4.05,4.05,0,0,1-4-4Z"/><path d="M236,338h48a20,20,0,0,0,20-20V147a20,20,0,0,0-20-20H236a20,20,0,0,0-20,20V318A20,20,0,0,0,236,338Zm-4-191a4.05,4.05,0,0,1,4-4h48a4.05,4.05,0,0,1,4,4V318a4.05,4.05,0,0,1-4,4H236a4.05,4.05,0,0,1-4-4Z"/></g></g></svg>