<svg xmlns="http://www.w3.org/2000/svg" viewBox="0 0 396 396"><title>Asset 92100</title><g id="Layer_2" data-name="Layer 2"><g id="Layer_1-2" data-name="Layer 1"><path d="M376,0H20A20,20,0,0,0,0,20V376a20,20,0,0,0,20,20H376a20,20,0,0,0,20-20V20A20,20,0,0,0,376,0ZM16,20a4.05,4.05,0,0,1,4-4H376a4.05,4.05,0,0,1,4,4V71.1H16ZM380,376a4.05,4.05,0,0,1-4,4H20a4.05,4.05,0,0,1-4-4V87.1H380Z"/><path d="M66,339H237a20,20,0,0,0,20-20V148a20,20,0,0,0-20-20H66a20,20,0,0,0-20,20V319A20,20,0,0,0,66,339ZM62,148a4.05,4.05,0,0,1,4-4H237a4.05,4.05,0,0,1,4,4V319a4.05,4.05,0,0,1-4,4H66a4.05,4.05,0,0,1-4-4Z"/><rect x="303" y="128" width="46.89" height="211" rx="20" ry="20"/></g></g></svg>