<svg xmlns="http://www.w3.org/2000/svg" viewBox="0 0 396 396"><title>Asset 96100</title><g id="Layer_2" data-name="Layer 2"><g id="Layer_1-2" data-name="Layer 1"><path d="M376,0H20A20,20,0,0,0,0,20V376a20,20,0,0,0,20,20H376a20,20,0,0,0,20-20V20A20,20,0,0,0,376,0ZM16,20a4.05,4.05,0,0,1,4-4H376a4.05,4.05,0,0,1,4,4V71.1H16ZM380,376a4.05,4.05,0,0,1-4,4H20a4.05,4.05,0,0,1-4-4V87.1H380Z"/><path d="M137,340H258a20,20,0,0,0,20-20V149a20,20,0,0,0-20-20H137a20,20,0,0,0-20,20V320A20,20,0,0,0,137,340Zm-4-191a4.05,4.05,0,0,1,4-4H258a4.05,4.05,0,0,1,4,4V320a4.05,4.05,0,0,1-4,4H137a4.05,4.05,0,0,1-4-4Z"/></g></g></svg>