<svg xmlns="http://www.w3.org/2000/svg" viewBox="0 0 396 396"><title>Asset 93100</title><g id="Layer_2" data-name="Layer 2"><g id="Layer_1-2" data-name="Layer 1"><path d="M376,0H20A20,20,0,0,0,0,20V376a20,20,0,0,0,20,20H376a20,20,0,0,0,20-20V20A20,20,0,0,0,376,0ZM16,20a4.05,4.05,0,0,1,4-4H376a4.05,4.05,0,0,1,4,4V71.1H16ZM380,376a4.05,4.05,0,0,1-4,4H20a4.05,4.05,0,0,1-4-4V87.1H380Z"/><path d="M98,338H295a20,20,0,0,0,20-20V147a20,20,0,0,0-20-20H98a20,20,0,0,0-20,20V318A20,20,0,0,0,98,338ZM94,147a4.05,4.05,0,0,1,4-4H295a4.05,4.05,0,0,1,4,4V318a4.05,4.05,0,0,1-4,4H98a4.05,4.05,0,0,1-4-4Z"/></g></g></svg>