<svg xmlns="http://www.w3.org/2000/svg" viewBox="0 0 386 396"><title>Asset 27100</title><g id="Layer_2" data-name="Layer 2"><g id="Layer_1-2" data-name="Layer 1"><path d="M235.9,307.75a118.41,118.41,0,0,0,75-110.46C310.94,131.92,258,78.73,193,78.73S75.06,131.92,75.06,197.29a118.42,118.42,0,0,0,75,110.46V364.6c0,.1,0,.19,0,.29s0,.19,0,.29a8,8,0,0,0,8,8h3.63v14.23c0,.1,0,.19,0,.29s0,.19,0,.29a8,8,0,0,0,8,8h47.7a8,8,0,0,0,8-8s0,0,0-.06a8,8,0,0,0,.06-1l-.07-13.77h2.5a8,8,0,0,0,8-8c0-.22,0-.43,0-.64s0-.42,0-.63ZM209.45,380H177.73v-6.81H181a8,8,0,0,0,0-16H166.1v-55c0-.14,0-.27,0-.4s0-.17,0-.26,0-.38-.07-.57,0-.13,0-.19-.09-.42-.14-.62l0-.12c-.06-.22-.13-.43-.21-.64l0-.08c-.08-.21-.17-.42-.27-.62l0-.09c-.1-.19-.2-.38-.32-.57l-.07-.12c-.11-.17-.22-.33-.34-.49l-.12-.16c-.11-.14-.23-.28-.35-.42l-.17-.18-.36-.35-.21-.19-.39-.31-.22-.16-.45-.3-.19-.12c-.18-.1-.36-.2-.55-.28l-.14-.07c-.21-.09-.43-.18-.65-.26l-.07,0a102.4,102.4,0,0,1-69.58-97.29c0-56.55,45.73-102.56,101.94-102.56s101.94,46,101.94,102.56a102.4,102.4,0,0,1-69.59,97.29l-.17.07-.51.2-.29.14-.4.21-.34.21-.3.2-.37.27-.24.19-.35.32-.21.21-.31.34-.21.25-.25.33-.21.31-.19.32-.2.36-.15.31c-.06.13-.12.26-.17.4l-.12.32c0,.13-.09.26-.13.4s-.07.25-.1.38-.06.24-.08.36-.05.32-.07.48,0,.19,0,.29,0,.38,0,.57,0,.11,0,.17v.16s0,0,0,0V357.2l-13.72,0a8,8,0,0,0,0,16h3.22Z"/><path d="M53.86,221.36a8,8,0,0,0-8-8H8a8,8,0,0,0,0,16H45.86A8,8,0,0,0,53.86,221.36Z"/><path d="M378,213.36H340.14a8,8,0,0,0,0,16H378a8,8,0,0,0,0-16Z"/><path d="M194.13,54.08a8,8,0,0,0,8-8V8a8,8,0,0,0-16,0V46.08A8,8,0,0,0,194.13,54.08Z"/><path d="M42.59,85,72.13,108.8a8,8,0,1,0,10-12.46L52.62,72.53A8,8,0,1,0,42.59,85Z"/><path d="M309.36,111.21a8,8,0,0,0,4.88-1.67l30-23.18A8,8,0,0,0,334.5,73.7l-30,23.18a8,8,0,0,0,4.89,14.33Z"/><path d="M310.81,289.81a8,8,0,0,0-12.65,9.79l23.25,30.05a8,8,0,0,0,12.65-9.79Z"/><path d="M87.09,289.14a8,8,0,0,0-11.21,1.51l-23,30.22a8,8,0,0,0,12.72,9.7l23-30.22A8,8,0,0,0,87.09,289.14Z"/><path d="M202,337.48V261.1h18.28l.47,0,.54,0a8,8,0,0,0,7.42-5l15.16-37.62a8,8,0,0,0-14.84-6l-.85,2.11H161.84l-.85-2.11a8,8,0,1,0-14.84,6l15.16,37.62v0a7.93,7.93,0,0,0,.49,1l.13.21a8,8,0,0,0,.58.82l.09.11a8,8,0,0,0,.66.69l.22.2a8,8,0,0,0,.8.62l.08,0a8,8,0,0,0,.86.48l.18.09a7.93,7.93,0,0,0,1,.38h0a7.94,7.94,0,0,0,1,.22l.27,0a8,8,0,0,0,1,.07H186v76.38a8,8,0,0,0,16,0ZM221.75,230.6l-5.84,14.5H174.14l-5.85-14.5Z"/></g></g></svg>