<svg xmlns="http://www.w3.org/2000/svg" viewBox="0 0 396 230.04"><title>Asset 33100</title><g id="Layer_2" data-name="Layer 2"><g id="Layer_1-2" data-name="Layer 1"><path d="M101.86,42.53H388a8,8,0,0,0,0-16H101.86a8,8,0,1,0,0,16Z"/><path d="M388,108.74H101.86a8,8,0,1,0,0,16H388a8,8,0,0,0,0-16Z"/><path d="M388,190.94H101.86a8,8,0,1,0,0,16H388a8,8,0,0,0,0-16Z"/><path d="M30.89,0A30.89,30.89,0,1,0,61.78,30.89,30.93,30.93,0,0,0,30.89,0Zm0,45.78A14.89,14.89,0,1,1,45.78,30.89,14.91,14.91,0,0,1,30.89,45.78Z"/><path d="M30.89,85.84a30.89,30.89,0,1,0,30.89,30.89A30.93,30.93,0,0,0,30.89,85.84Zm0,45.78a14.89,14.89,0,1,1,14.89-14.89A14.91,14.91,0,0,1,30.89,131.63Z"/><path d="M30.89,168.25a30.89,30.89,0,1,0,30.89,30.89A30.93,30.93,0,0,0,30.89,168.25Zm0,45.78a14.89,14.89,0,1,1,14.89-14.89A14.91,14.91,0,0,1,30.89,214Z"/></g></g></svg>