<svg xmlns="http://www.w3.org/2000/svg" viewBox="0 0 396 356"><title>Asset 11100</title><g id="Layer_2" data-name="Layer 2"><g id="Layer_1-2" data-name="Layer 1"><path d="M395.29,344.72,328.49,172.54a8,8,0,0,0-7.84-6.4H280.92c.92-2.54,1.81-5.08,2.62-7.59,1.3-4,2.48-8.08,3.49-12.05s2-8.18,2.7-12.2,1.38-8.26,1.82-12.3.74-8.31.86-12.36,0-8.32-.2-12.37-.71-8.3-1.34-12.32a122.24,122.24,0,0,0-2.58-12.22,117,117,0,0,0-9.2-23.81q-.79-1.52-1.62-3C261.42,17,232.26-.58,201.4,0l-.95.05h-.06C169.65.07,140.83,18,125.11,47a117.44,117.44,0,0,0-9.7,23.73,121.06,121.06,0,0,0-2.81,12.17c-.71,4-1.23,8.15-1.56,12.28s-.45,8.18-.39,12.33.28,8.18.68,12.32.95,8.15,1.66,12.27,1.56,8.08,2.56,12.16,2.11,8,3.37,12c1,3.25,2.15,6.55,3.36,9.84H75.59a8.44,8.44,0,0,0-7.7,5.2L.54,344.93a8,8,0,0,0,.22,6.28A8,8,0,0,0,8.08,356H388a8,8,0,0,0,7.29-11.28ZM310.85,340c-7.55-44.66-47.89-45.85-61.6-46.25-9-.26-19,.38-29.69,1.06-50.67,3.22-87.35,2.32-97.82-39-5-19.62,2-42.3,16.24-55.42.3.55.58,1.1.89,1.64,2,3.55,4.06,7.14,6.21,10.67s4.29,6.88,6.55,10.28,4.48,6.61,6.81,9.84,4.62,6.3,7,9.36,4.71,6,7.11,8.84,4.74,5.59,7.16,8.28,4.75,5.21,7.13,7.67,4.7,4.79,7,7l.77.77c.59.6,1.27,1.29,2,2a8.5,8.5,0,0,0,5.58,2.13,8.16,8.16,0,0,0,2.26-.32l1.08-.34,1-.6a8.47,8.47,0,0,0,1.41-1.11c2.78-2.67,5.21-5.1,7.44-7.41s4.72-5,7.06-7.6,4.77-5.42,7.1-8.22,4.76-5.81,7.08-8.8,4.72-6.19,7-9.33,4.61-6.52,6.81-9.82,4.47-6.84,6.56-10.27,4.26-7.12,6.24-10.67,4-7.36,5.85-11,3.67-7.53,5.33-11.25h40.58L376.3,340Zm-230-157.86h48c.55,1.21,1.09,2.41,1.66,3.62-20.78,16.59-31.12,47-24.28,74,14.55,57.35,72.23,53.67,114.35,51,10.28-.66,20-1.27,28.2-1,20.7.61,40.3,4.91,45.79,30.26H19.62ZM127,96.44c.28-3.62.74-7.23,1.36-10.74a105,105,0,0,1,2.44-10.56,101.49,101.49,0,0,1,8.38-20.51c12.72-23.46,36.73-38.57,61.23-38.57h.54l.93-.06h.93c24.19,0,47.91,14.69,60.68,37.67q.72,1.29,1.4,2.6a100.94,100.94,0,0,1,7.95,20.56,106.06,106.06,0,0,1,2.24,10.61c.56,3.52,1,7.15,1.18,10.8s.28,7.26.17,11-.36,7.34-.77,11.06-1,7.4-1.65,11.13-1.51,7.41-2.47,11.15-2,7.39-3.22,11.11-2.48,7.34-3.9,11-2.9,7.25-4.52,10.88-3.27,7.12-5.06,10.67-3.6,7-5.52,10.42-3.87,6.77-5.92,10.11-4.09,6.54-6.23,9.75-4.27,6.28-6.47,9.34-4.39,6-6.64,8.88-4.46,5.65-6.73,8.36-4.48,5.27-6.73,7.79-4.44,4.87-6.66,7.17l-1.75,1.8q-1.92-1.91-3.85-3.91c-2.24-2.33-4.51-4.77-6.73-7.25s-4.57-5.19-6.79-7.85-4.56-5.57-6.76-8.4-4.5-5.91-6.65-8.9-4.39-6.22-6.47-9.35-4.23-6.5-6.21-9.75-4-6.74-5.88-10.1c-1.59-2.87-3.11-5.76-4.57-8.64a8,8,0,0,0-.72-1.51c-.07-.11-.15-.21-.22-.32-1.75-3.52-3.41-7.07-4.94-10.55S139.33,166,138,162.46s-2.66-7.35-3.8-11-2.2-7.41-3.1-11-1.7-7.45-2.33-11.08-1.15-7.44-1.5-11.06-.56-7.4-.61-11S126.71,100,127,96.44Z"/><path d="M201.64,147.51c26.41,0,47.89-22.93,47.89-51.11S228,45.29,201.64,45.29,153.75,68.21,153.75,96.4,175.23,147.51,201.64,147.51Zm0-86.22c17.58,0,31.89,15.75,31.89,35.11s-14.3,35.11-31.89,35.11-31.89-15.75-31.89-35.11S184.05,61.29,201.64,61.29Z"/></g></g></svg>