<svg xmlns="http://www.w3.org/2000/svg" viewBox="0 0 319.29 396"><title>Asset 49100</title><g id="Layer_2" data-name="Layer 2"><g id="Layer_1-2" data-name="Layer 1"><path d="M319,180.7a20,20,0,0,0-20-20h0l-43.39.07L255.47,96a96.21,96.21,0,0,0-96.1-96h-.15a96.22,96.22,0,0,0-96,96.26l.1,64.85L20,161.17a20,20,0,0,0-20,20L.3,376a20,20,0,0,0,20,20h0l279-.44a20,20,0,0,0,20-20ZM79.26,96.23a80.37,80.37,0,0,1,80-80.23h.13a80.37,80.37,0,0,1,80.1,80l.1,64.85-160.21.25ZM17.18,178.36A4,4,0,0,1,20,177.17l279-.44h0a4,4,0,0,1,4,4l.25,157.65-287,.45L16,181.18A4,4,0,0,1,17.18,178.36Zm284.94,200a4,4,0,0,1-2.82,1.19l-279,.44h0a4,4,0,0,1-4-4l0-21.17,287-.45,0,21.17A4,4,0,0,1,302.12,378.37Z"/><path d="M141.68,307.63a26.53,26.53,0,0,0,18.84,7.81h0a26.77,26.77,0,0,0,26.67-26.76l-.1-61.62a26.77,26.77,0,0,0-26.71-26.67h0a26.75,26.75,0,0,0-26.67,26.76l.1,61.62A26.53,26.53,0,0,0,141.68,307.63Zm11.18-88.07a10.63,10.63,0,0,1,7.56-3.17h0a10.77,10.77,0,0,1,10.72,10.7l.1,61.62a10.77,10.77,0,0,1-10.7,10.73h0a10.77,10.77,0,0,1-10.71-10.7l-.1-61.62A10.63,10.63,0,0,1,152.86,219.56Z"/></g></g></svg>