<svg xmlns="http://www.w3.org/2000/svg" viewBox="0 0 396 343.36"><title>Asset 39100</title><g id="Layer_2" data-name="Layer 2"><g id="Layer_1-2" data-name="Layer 1"><path d="M356.06,216A8,8,0,0,0,345.94,221a155.51,155.51,0,0,1-147.7,106.32c-85.84,0-155.68-69.84-155.68-155.68,0-.14,0-.28,0-.42L54.88,184a8,8,0,1,0,11.51-11.11L42.75,148.4a11.18,11.18,0,0,0-15.81-.28L2.44,171.77a8,8,0,0,0,11.11,11.51l13-12.57c0,.32,0,.65,0,1,0,94.66,77,171.68,171.68,171.68A171.49,171.49,0,0,0,361.12,226.11,8,8,0,0,0,356.06,216Z"/><path d="M393.75,153.25a8,8,0,0,0-11.31-.2l-12.65,12.21C366.41,73.56,290.76,0,198.24,0A172.05,172.05,0,0,0,36.48,114a8,8,0,1,0,15.07,5.37A156,156,0,0,1,198.24,16C282,16,350.51,82.49,353.79,165.46l-12.67-13.13a8,8,0,1,0-11.51,11.11l23.65,24.49a11.11,11.11,0,0,0,7.85,3.42h.2a11.11,11.11,0,0,0,7.76-3.14l24.49-23.65A8,8,0,0,0,393.75,153.25Z"/></g></g></svg>