<svg id="Layer_1" data-name="Layer 1" xmlns="http://www.w3.org/2000/svg" viewBox="0 0 400 400"><title>Artboard 188 copy 15</title><path d="M273.89,236.42a8,8,0,0,0-11.31.25l-55.83,58.39V85a8,8,0,0,0-16,0V295.06l-55.83-58.39a8,8,0,0,0-11.56,11.06L193,320.53l.13.12.13.13.19.17.29.25.33.25.31.22.36.22.32.18.39.19.31.14.43.16.3.1.47.12.27.06.54.08.22,0c.26,0,.51,0,.77,0h0c.26,0,.51,0,.77,0l.23,0,.53-.08.28-.07.47-.12.3-.1.43-.15.31-.14.39-.19.32-.18.36-.22.31-.22.34-.26.29-.25.19-.17.13-.13.13-.12,69.61-72.8A8,8,0,0,0,273.89,236.42Z"/></svg>