<svg id="Layer_1" data-name="Layer 1" xmlns="http://www.w3.org/2000/svg" viewBox="0 0 400 400"><title>Artboard 188 copy 14</title><path d="M280.15,169.27l-69.61-72.8-.13-.12-.12-.13-.17-.15-.32-.28-.3-.23-.35-.24-.32-.2-.36-.2-.35-.17-.36-.16-.37-.14-.36-.12-.39-.1-.36-.08-.39-.07-.37,0-.39,0h-.76L204,94l-.38,0-.38.06-.37.08-.38.1-.36.12-.37.14-.36.16-.35.17-.35.2-.33.2-.34.24-.3.23-.32.28-.17.15-.12.13-.13.12-69.61,72.8a8,8,0,1,0,11.56,11.06l55.83-58.39V332a8,8,0,0,0,16,0V121.94l55.83,58.39a8,8,0,1,0,11.56-11.06Z"/></svg>