<svg id="Layer_1" data-name="Layer 1" xmlns="http://www.w3.org/2000/svg" viewBox="0 0 400 400"><title>Artboard 104 copy 23</title><path d="M321.78,232.12l-116-121.31-.13-.12-.12-.13-.17-.15-.32-.28-.3-.23-.35-.24-.32-.2-.36-.2-.34-.17-.36-.16-.36-.14-.36-.12-.38-.1-.37-.08-.39-.07-.37,0-.39,0h-.76l-.38,0-.38,0-.39.06-.37.08-.38.1-.36.12-.37.14-.36.16-.35.17-.35.2-.32.2-.34.24-.3.23-.32.28-.17.15-.12.13-.13.12-116,121.31a8,8,0,0,0,11.56,11.06L200,127.92,310.22,243.18a8,8,0,1,0,11.56-11.06Z"/></svg>