<svg id="Layer_1" data-name="Layer 1" xmlns="http://www.w3.org/2000/svg" viewBox="0 0 400 400"><title>Artboard 188 copy 13</title><path d="M329.19,204.74l.24-.35.2-.32.2-.35.17-.35.16-.36.14-.37c0-.12.08-.24.12-.36s.07-.26.1-.38.06-.24.08-.36,0-.26.07-.39,0-.25,0-.37,0-.26,0-.39,0-.25,0-.38,0-.25,0-.38,0-.26,0-.39,0-.25,0-.37,0-.26-.07-.39-.05-.24-.08-.36-.07-.26-.1-.38-.08-.24-.12-.36l-.14-.37-.16-.36-.17-.35-.2-.35-.2-.32-.24-.35L329,195l-.28-.32-.15-.17-.13-.12-.12-.13-72.8-69.61a8,8,0,0,0-11.06,11.56L302.81,192H92.75a8,8,0,0,0,0,16H302.81l-58.39,55.83a8,8,0,0,0,11.06,11.56l72.8-69.61.13-.13.13-.12.15-.17L329,205Z"/></svg>