<svg id="Layer_1" data-name="Layer 1" xmlns="http://www.w3.org/2000/svg" viewBox="0 0 400 400"><title>Artboard 104 copy 7</title><path d="M347,297.76l.19-.26c.08-.12.14-.23.21-.35l.19-.32c.05-.1.1-.21.15-.31s.13-.26.18-.4.07-.18.1-.28.11-.3.16-.46,0-.18.07-.27.08-.32.12-.48,0-.23.05-.35,0-.28.06-.42,0-.45,0-.68c0,0,0-.07,0-.1h0a8,8,0,0,0,0-.81v-.08c0-.23-.06-.46-.11-.69s-.05-.21-.08-.32-.07-.29-.11-.43-.11-.31-.17-.46-.06-.18-.1-.27-.21-.46-.32-.68v0a8,8,0,0,0-.42-.7h0L207.22,82.37h0l-.09-.14-.12-.16c-.1-.15-.21-.29-.32-.43l-.22-.25-.3-.32-.33-.31-.24-.22-.44-.33L205,80.1l0,0-.48-.29-.22-.13-.42-.2-.32-.14-.3-.11-.45-.16-.17,0-.59-.14-.1,0c-.22,0-.43-.07-.65-.09H201l-.52,0-.52,0h-.24c-.22,0-.43.05-.65.09l-.11,0-.58.14-.17,0-.44.15-.3.11-.31.14-.42.2-.21.12-.48.29,0,0-.15.11-.44.34-.24.21-.33.31-.3.32-.22.25c-.11.14-.22.28-.32.43l-.12.16-.09.14h0L53.88,288.58h0a8,8,0,0,0-.42.7v0c-.12.22-.23.45-.32.68s-.07.18-.1.27-.12.3-.17.46-.08.29-.11.43-.06.21-.08.32-.08.46-.11.69v.08a8,8,0,0,0,0,.81h0s0,.07,0,.1c0,.23,0,.45,0,.68s0,.28.06.42,0,.23.05.35.07.32.12.48,0,.18.07.27.1.31.16.46.06.18.1.28.12.27.18.4.1.21.15.31l.19.32c.07.12.14.24.21.35l.19.26c.09.12.18.25.28.37l.2.23c.1.12.2.23.31.34l.29.27.28.25q.3.25.62.47h0a8,8,0,0,0,1,.55l.2.1a7.9,7.9,0,0,0,1,.38l.12,0a8,8,0,0,0,.9.2l.29,0a8.07,8.07,0,0,0,1,.07H340.56a8.07,8.07,0,0,0,1-.07l.29,0a8,8,0,0,0,.9-.2l.12,0a7.9,7.9,0,0,0,1-.38l.2-.1a8,8,0,0,0,1-.55h0q.32-.22.62-.47l.28-.25.29-.27c.11-.11.21-.23.31-.34l.2-.23C346.8,298,346.89,297.88,347,297.76ZM200.5,101,325.41,285.08H75.59Z"/><path d="M183,176a187.22,187.22,0,0,0,5.25,30.52q.4,1.57.84,3.13t.91,3.1q.48,1.54,1,3c.34,1,.69,2,1,2.92l.1.27a9.3,9.3,0,0,0,8.67,6h.12a9.27,9.27,0,0,0,8.68-6.36c.15-.44.28-.89.42-1.32s.25-.8.38-1.19q.51-1.51,1-3t.92-3.1c.3-1,.58-2.09.85-3.14l.07-.26A187.2,187.2,0,0,0,218.41,176a183.14,183.14,0,0,0,.8-18.71c-.09-4.93-.62-12.1-4.26-17.41a16.43,16.43,0,0,0-10.06-7.11,22.36,22.36,0,0,0-4.56-.4,16.7,16.7,0,0,0-5.34.81,17.18,17.18,0,0,0-8.58,6.7c-3.64,5.31-4.18,12.48-4.26,17.41A183.13,183.13,0,0,0,183,176Z"/><path d="M200.66,232.38a16.81,16.81,0,1,0,16.81,16.81A16.83,16.83,0,0,0,200.66,232.38Z"/></svg>