<svg id="Layer_1" data-name="Layer 1" xmlns="http://www.w3.org/2000/svg" viewBox="0 0 400 400"><title>Artboard 104 copy 24</title><path d="M275,75.66l-.44,0-.37,0-.4.06-.39.09-.37.1-.38.12-.36.13-.36.16-.35.17-.34.19-.33.2-.34.24-.3.22-.34.3-.19.17-121.31,116-.12.13-.13.12-.15.17-.28.32-.23.3-.24.35-.2.32-.2.36-.17.34-.16.36c0,.12-.09.24-.14.37s-.08.24-.12.36-.07.25-.1.38-.06.24-.08.36,0,.26-.07.39,0,.24,0,.37,0,.26,0,.39,0,.25,0,.37,0,.26,0,.39,0,.25,0,.38,0,.26,0,.38,0,.25.06.38.05.25.08.38.06.25.1.37.08.25.12.37l.13.36.16.37.17.34.2.36.2.32.24.35.23.3.28.32.15.17.13.12.12.13,121.31,116,.19.17.34.3.3.22.34.24.33.2.34.19.35.17.36.16.36.13.38.12.37.1.39.09.4.06.37,0,.44,0h.35l.45,0,.35,0,.39-.06.39-.07.33-.09.42-.11.32-.12.4-.15.36-.17.34-.17.35-.21.31-.19.31-.23.32-.25.25-.23.33-.31.06-.06.18-.21.27-.32.23-.31L282,320l.21-.35.18-.32c.06-.12.12-.25.18-.37s.1-.22.15-.33.09-.25.14-.38.08-.23.12-.35.07-.26.1-.4.06-.23.08-.35,0-.3.07-.46,0-.2,0-.31c0-.26,0-.52,0-.78h0v-232h0c0-.26,0-.52,0-.78,0-.1,0-.21,0-.31s0-.3-.07-.46-.06-.24-.08-.35-.06-.26-.1-.39-.08-.24-.12-.35-.09-.25-.14-.38-.1-.22-.15-.33-.11-.25-.18-.37l-.18-.32-.21-.35-.22-.31-.23-.31-.27-.32-.18-.21-.06-.06-.33-.31-.25-.23-.32-.25L279.8,77l-.31-.19-.35-.21-.34-.17-.36-.17-.4-.15-.32-.12-.42-.11-.33-.09-.39-.07-.39-.06-.35,0-.45,0H275Z"/></svg>