<svg id="Layer_1" data-name="Layer 1" xmlns="http://www.w3.org/2000/svg" viewBox="0 0 400 400"><title>Artboard 212</title><path d="M321.53,133.56a8,8,0,0,0-11.31.25L200,249.08,89.78,133.82a8,8,0,1,0-11.56,11.06l116,121.31.13.12.13.13.19.17.29.25.33.25.32.22.36.22.32.18.39.19.32.14.43.15.3.1.47.12.28.07.54.08.23,0c.26,0,.51,0,.77,0h0c.26,0,.51,0,.77,0l.23,0,.53-.08.28-.07.47-.12.3-.1.43-.15.31-.14.39-.19.32-.18.36-.22.31-.22.34-.26.29-.25.19-.17.13-.13.13-.12,116-121.31A8,8,0,0,0,321.53,133.56Z"/></svg>