<svg id="Layer_1" data-name="Layer 1" xmlns="http://www.w3.org/2000/svg" viewBox="0 0 400 400"><title>Artboard 104 copy 16</title><path d="M248,206c.16-.15.32-.29.47-.46a8,8,0,0,0-.42-11.31L124.68,79.56a8,8,0,1,0-10.89,11.72L231,200.23,114.54,311.64a8,8,0,0,0,11.06,11.56L247.36,206.76A8,8,0,0,0,248,206Z"/><path d="M324.21,194.24,200.78,79.56a8,8,0,1,0-10.89,11.72L307.15,200.23,190.64,311.64A8,8,0,0,0,201.7,323.2L323.46,206.76a8,8,0,0,0,.69-.76c.16-.15.32-.29.47-.46A8,8,0,0,0,324.21,194.24Z"/></svg>