<svg id="Layer_1" data-name="Layer 1" xmlns="http://www.w3.org/2000/svg" viewBox="0 0 400 400"><title>Artboard 152 copy 5</title><path d="M278.63,67.48H124.32a20,20,0,0,0-20,20v226a20,20,0,0,0,20,20H278.63a20,20,0,0,0,20-20v-226A20,20,0,0,0,278.63,67.48Zm4,246a4.05,4.05,0,0,1-4,4H124.32a4.05,4.05,0,0,1-4-4v-226a4.05,4.05,0,0,1,4-4H278.63a4.05,4.05,0,0,1,4,4Z"/><path d="M201.7,169a35.42,35.42,0,1,0-35.42-35.42A35.46,35.46,0,0,0,201.7,169Zm0-54.83a19.42,19.42,0,1,1-19.42,19.42A19.44,19.44,0,0,1,201.7,114.16Z"/><path d="M201.7,182.13a60.18,60.18,0,1,0,60.18,60.18A60.25,60.25,0,0,0,201.7,182.13Zm0,104.36a44.18,44.18,0,1,1,44.18-44.18A44.23,44.23,0,0,1,201.7,286.49Z"/><path d="M201.7,209.32a33,33,0,1,0,33,33A33,33,0,0,0,201.7,209.32Zm0,50a17,17,0,1,1,17-17A17,17,0,0,1,201.7,259.3Z"/><path d="M89.44,284.62a39.32,39.32,0,0,1-.81-61.84,8,8,0,1,0-10-12.45,55.32,55.32,0,0,0,1.15,87,8,8,0,0,0,9.71-12.71Z"/><path d="M71.39,300.48a59.3,59.3,0,0,1-1.23-93.26,8,8,0,1,0-10-12.45A75.3,75.3,0,0,0,61.67,313.2a8,8,0,1,0,9.71-12.71Z"/><path d="M321.7,210.33a8,8,0,0,0-10,12.45,39.32,39.32,0,0,1-.82,61.84,8,8,0,1,0,9.71,12.71,55.32,55.32,0,0,0,1.15-87Z"/><path d="M340.17,194.77a8,8,0,0,0-10,12.45,59.3,59.3,0,0,1-1.23,93.26,8,8,0,1,0,9.71,12.71,75.3,75.3,0,0,0,1.56-118.43Z"/><circle cx="265.83" cy="99.45" r="3.3"/><circle cx="136.24" cy="99.45" r="3.3"/><circle cx="265.83" cy="300.22" r="3.3"/><circle cx="136.24" cy="300.22" r="3.29"/></svg>