<svg id="Layer_1" data-name="Layer 1" xmlns="http://www.w3.org/2000/svg" viewBox="0 0 400 400"><title>Artboard 66 copy 51</title><path d="M336.86,230.45c.09-.11.17-.22.25-.34l.16-.26c.08-.13.17-.26.24-.4s.09-.18.13-.27.14-.28.2-.42.08-.22.12-.33.1-.26.14-.39.07-.25.1-.37.07-.26.1-.38,0-.24.06-.35,0-.28.07-.43,0-.22,0-.32,0-.32,0-.48,0-.05,0-.08,0-.16,0-.24,0-.31,0-.47,0-.23,0-.35,0-.28-.06-.42-.05-.24-.08-.37-.06-.26-.1-.39-.08-.24-.12-.36-.09-.26-.14-.38l-.15-.34c-.06-.13-.12-.25-.18-.37l-.18-.32-.21-.35-.22-.32-.23-.31-.28-.32-.18-.21L305.6,188l-.13-.12-.12-.13-.17-.15-.32-.28-.3-.23-.34-.24-.32-.2-.35-.2-.35-.17-.36-.16-.37-.14-.36-.12-.39-.1-.36-.08-.4-.07-.37,0-.4,0h-.76l-.38,0-.38,0-.38.06-.37.08-.37.1-.37.12-.36.14-.36.16-.34.17-.36.2-.32.2-.34.24-.3.23-.32.28-.17.15-.12.13L294,188l-30.69,32.09-.18.21-.28.32-.23.31-.22.32-.21.35-.18.32c-.06.12-.12.25-.18.37l-.15.34c-.05.13-.1.25-.14.38s-.08.24-.12.36-.07.26-.1.39-.06.24-.08.37,0,.28-.06.42,0,.23,0,.35,0,.31,0,.47,0,.16,0,.24,0,.05,0,.08,0,.32,0,.48,0,.22,0,.32,0,.28.07.43,0,.24.06.35.06.26.1.38.06.25.1.37.09.26.14.39.08.22.12.33.13.28.2.42.09.19.13.27.16.27.24.4l.16.26c.08.12.17.23.25.34l.22.29.25.28.29.31.06.07.22.19.3.26.32.24.3.21.36.22.3.17.38.18.32.15.38.14.34.12.4.1.35.08.46.07.31,0c.26,0,.52,0,.78,0h22.18a37.7,37.7,0,0,1-37.41,33.52H104a8,8,0,0,0,0,16H253.89a53.71,53.71,0,0,0,53.47-49.52H330.5c.26,0,.52,0,.78,0l.31,0,.46-.07.35-.08.4-.1.35-.12.38-.14.33-.15.37-.18.31-.17.36-.22.3-.21.32-.24.3-.26.22-.19.06-.07.29-.31.25-.28Zm-49-12.84,12-12.51,12,12.51Z"/><path d="M95.85,209.88l.29.25.34.26.31.22.36.22.32.18.39.19.31.14.43.16.3.1.47.12.28.07.54.08.23,0c.26,0,.51,0,.77,0h0c.26,0,.51,0,.77,0l.23,0,.54-.08.28-.07.47-.12.3-.1.43-.16.31-.14.4-.19.31-.18.36-.22.31-.22.34-.26.29-.25.19-.17.13-.13.13-.12,30.69-32.09.18-.21.28-.32.23-.31.22-.32.21-.35.18-.32c.06-.12.12-.25.18-.37l.15-.34c.05-.13.1-.25.14-.38s.08-.24.12-.36.07-.26.1-.39.06-.24.08-.37,0-.28.06-.42,0-.23,0-.35,0-.31,0-.47,0-.16,0-.24,0-.05,0-.08,0-.32,0-.48,0-.22,0-.32,0-.28-.07-.43,0-.24-.06-.35-.06-.26-.1-.38-.06-.25-.1-.37-.09-.26-.14-.39-.08-.22-.12-.33-.13-.28-.2-.42-.09-.19-.13-.27-.16-.27-.24-.4l-.16-.26c-.08-.12-.17-.23-.25-.34l-.22-.29-.25-.28-.29-.31-.06-.07-.21-.18-.32-.28-.31-.23-.32-.23-.34-.21-.33-.19-.36-.17-.35-.15-.37-.13-.37-.12-.38-.1-.38-.08-.41-.06-.37,0-.45,0H109.88a37.7,37.7,0,0,1,37-30.48H296.77a8,8,0,1,0,0-16H146.83a53.72,53.72,0,0,0-53.15,46.48H70.23l-.43,0-.38,0L69,164l-.4.09-.36.09-.39.13-.35.13-.36.16-.35.17-.34.19-.33.2-.33.23-.3.23-.33.28-.21.18-.06.07-.29.31-.25.28-.22.29c-.09.11-.17.22-.25.34l-.16.26c-.08.13-.17.26-.24.4s-.09.18-.13.27-.14.28-.2.42-.08.22-.12.33-.1.26-.14.39-.07.25-.1.37-.07.26-.1.38,0,.24-.06.35,0,.28-.07.43,0,.22,0,.32,0,.32,0,.48,0,.05,0,.08,0,.16,0,.24,0,.31,0,.47,0,.23,0,.35,0,.28.06.42.05.24.08.37.06.26.1.39.08.24.12.36.09.26.14.38l.15.34c.06.13.12.25.18.37l.18.32.21.35.22.32.23.31.28.32.18.21L95.4,209.46l.13.12.13.13Zm-6.63-30h23.93l-12,12.51Z"/></svg>