<svg id="Layer_1" data-name="Layer 1" xmlns="http://www.w3.org/2000/svg" viewBox="0 0 400 400"><title>Artboard 104 copy 25</title><path d="M325,255.74c0-.15,0-.29,0-.44s0-.25,0-.37,0-.27-.06-.4-.05-.26-.09-.39-.06-.25-.1-.37-.08-.25-.12-.38-.08-.24-.13-.36-.1-.24-.16-.36l-.17-.35-.19-.34-.2-.33-.24-.34-.22-.3-.3-.34-.17-.19-116-121.31-.13-.12-.12-.13-.17-.15-.32-.28-.3-.23-.35-.24-.32-.2-.36-.2-.34-.17-.36-.16-.37-.14-.36-.12-.38-.1-.36-.08-.39-.07-.37,0-.39,0h-.76l-.38,0-.38,0-.38.06-.38.08-.37.1-.37.12-.36.13-.37.16-.34.17-.36.2-.32.2-.35.24-.3.23-.32.28-.17.15-.12.13-.13.12-116,121.31-.17.19-.3.34-.22.3-.24.34-.2.33-.19.34-.17.35c-.05.12-.11.24-.16.36s-.09.24-.13.36-.09.25-.12.38-.07.25-.1.37-.06.26-.09.39,0,.27-.06.4,0,.25,0,.37,0,.29,0,.44,0,.17,0,.26,0,.06,0,.09,0,.3,0,.45,0,.24,0,.35,0,.26.06.39,0,.26.07.39.06.22.09.33.07.28.11.42.08.22.12.32.09.27.15.4.11.24.17.36.11.23.17.34.14.23.21.35.13.21.19.31l.23.31.25.32.23.25.31.33.06.06.21.18.32.27.31.23.31.22.35.21.32.18.37.18.33.15.38.14.35.12.4.1.35.08.46.07.31,0c.26,0,.52,0,.78,0H317c.26,0,.52,0,.78,0l.31,0,.46-.07.35-.08.39-.1.35-.12.38-.14.33-.15.37-.18.32-.18.35-.21.31-.22.31-.23.32-.27.21-.18.06-.06.31-.33.23-.25.25-.32.23-.31c.07-.1.13-.21.19-.31s.15-.23.21-.35.11-.23.17-.34.12-.24.17-.36.1-.27.15-.4.08-.22.12-.32.08-.28.11-.42.06-.22.09-.33,0-.26.07-.39,0-.26.06-.39,0-.24,0-.35,0-.3,0-.45,0-.06,0-.09S325,255.83,325,255.74Z"/></svg>