<svg id="Layer_1" data-name="Layer 1" xmlns="http://www.w3.org/2000/svg" viewBox="0 0 400 400"><title>Artboard 66 copy 23</title><path d="M350.5,290.32H321.61V140.24c0-8.11-6.15-14.7-13.71-14.7H266c-7.56,0-13.71,6.59-13.71,14.7V290.32h-7.91V186c0-8.11-6.15-14.7-13.71-14.7H188.84c-7.56,0-13.71,6.6-13.71,14.7V290.32h-7.91V231.44c0-8.11-6.15-14.7-13.71-14.7H111.64c-7.56,0-13.71,6.6-13.71,14.7v58.88H60.5a8,8,0,0,0,0,16h290a8,8,0,0,0,0-16ZM268.32,141.54h37.29V290.32H268.32Zm-77.2,45.74h37.29v103H191.13Zm-77.2,45.47h37.29v57.58H113.93Z"/><path d="M99.15,208.83a8,8,0,0,0,5.29-2l70-61.67,10.08,12.32a8.21,8.21,0,0,0,11.79,1.1l67-59v15.69a8,8,0,1,0,16,0V84A10.93,10.93,0,0,0,268.34,73.1H237.09a8,8,0,1,0,0,16H251l-59.11,52.08-9.74-11.91a7.94,7.94,0,0,0-12-1.64l-76.26,67.2a8,8,0,0,0,5.29,14Z"/></svg>