<svg id="Layer_1" data-name="Layer 1" xmlns="http://www.w3.org/2000/svg" viewBox="0 0 400 400"><title>Artboard 104 copy 33</title><path d="M269.37,254.57l.24-.32.19-.3c.08-.12.15-.24.22-.37s.11-.21.16-.32.13-.25.18-.37.1-.25.14-.38.09-.23.13-.34.07-.27.11-.41.06-.23.09-.35,0-.26.06-.39,0-.26.06-.39,0-.23,0-.35,0-.3,0-.45,0-.06,0-.09,0-.17,0-.26,0-.3,0-.44,0-.25,0-.37,0-.27-.06-.4-.05-.26-.08-.38-.06-.25-.1-.38-.08-.25-.12-.37-.09-.24-.13-.37-.1-.24-.15-.35l-.17-.36-.19-.33-.21-.34-.23-.33-.23-.3-.29-.33-.17-.2-60-62.75-.13-.12-.12-.13-.17-.15-.32-.28-.3-.23-.34-.24-.33-.2-.35-.2-.35-.17-.35-.16-.37-.14-.36-.12-.38-.1-.36-.08-.39-.07-.37,0-.39,0h-.76l-.39,0-.37,0-.39.07-.36.08-.39.1-.36.12-.37.14-.35.16-.35.17-.35.2-.32.2-.34.24-.3.23-.32.28-.17.15-.12.13-.13.12-60,62.75-.17.2-.29.33-.23.3-.23.33-.21.34-.19.33-.17.36c-.05.12-.11.23-.15.35s-.09.24-.13.37-.08.25-.12.38-.07.25-.1.38-.06.25-.08.38,0,.27-.06.4,0,.25,0,.37,0,.3,0,.44,0,.17,0,.26,0,.06,0,.09,0,.3,0,.45,0,.23,0,.35,0,.26.06.39,0,.26.06.39.06.23.09.35.07.27.11.41.08.23.12.34.09.26.14.38.12.25.18.37.1.22.16.32.15.24.22.37l.19.3.24.32.24.31.24.27.3.32.06.06.21.18.31.27.31.23.31.22.35.21.31.18.37.18.33.15.38.14.35.12.4.1.35.08.46.07.3,0c.26,0,.52,0,.78,0H263c.26,0,.52,0,.78,0l.31,0,.46-.07.35-.08.4-.1.35-.12.38-.14.33-.15.37-.18.31-.18.35-.21.31-.22L268,256l.31-.27.21-.18.06-.06.3-.32.24-.27ZM182.69,226h0a1.3,1.3,0,0,0-.28.19h0Z"/></svg>