<svg id="Layer_1" data-name="Layer 1" xmlns="http://www.w3.org/2000/svg" viewBox="0 0 400 400"><title>Artboard 104 copy 31</title><path d="M222.19,264.69l.23-.33.21-.34.19-.33.17-.36c.05-.12.11-.23.15-.35s.09-.24.13-.37.08-.25.12-.37.07-.25.1-.38.06-.25.08-.38,0-.27.06-.4,0-.25,0-.37,0-.3,0-.44,0-.17,0-.26V140c0-.09,0-.17,0-.26s0-.3,0-.44,0-.25,0-.37,0-.27-.06-.4-.05-.26-.08-.38-.06-.25-.1-.38-.08-.25-.12-.37-.09-.24-.13-.37-.1-.24-.15-.35l-.17-.36-.19-.33-.21-.34-.23-.33L222,135l-.29-.33-.17-.2-.06-.06-.32-.3-.26-.24-.31-.24-.32-.24-.29-.18-.37-.23-.31-.15-.38-.18-.38-.14-.35-.13-.4-.11-.35-.09-.38-.06-.4-.06-.34,0-.46,0h-.34l-.45,0-.37,0-.41.06-.38.08-.38.1-.37.12-.37.13-.35.15-.36.17-.34.19-.34.21-.33.23-.3.23-.33.29-.2.17-62.75,60-.12.13-.13.12-.15.17-.28.32-.23.3-.24.34-.2.33-.2.35-.17.35-.16.35c0,.12-.1.25-.14.37s-.08.24-.12.36-.07.26-.1.38-.06.24-.08.36,0,.26-.07.39,0,.25,0,.37,0,.26,0,.39,0,.25,0,.38,0,.25,0,.38,0,.26,0,.39,0,.25,0,.37,0,.26.07.39.05.24.08.36.06.26.1.38.08.24.12.36.09.25.14.37l.16.35.17.35.2.35.2.33.24.34.23.3.28.32.15.17.13.12.13.13,62.75,60,.21.18.31.27.31.23.31.22.35.21.31.18.37.18.33.15.38.14.35.12.4.1.35.08.46.07.31,0c.26,0,.52,0,.78,0h0c.25,0,.5,0,.76,0l.48-.07.31,0,.54-.13.23-.06.52-.19.22-.08.52-.25.46-.26.4-.24.27-.21.37-.28.24-.22.35-.33.06-.06.17-.2L222,265ZM192,220.28a1.28,1.28,0,0,0,.19.28v0l-.19-.29Z"/></svg>