<svg id="Layer_1" data-name="Layer 1" xmlns="http://www.w3.org/2000/svg" viewBox="0 0 400 400"><title>Artboard 66 copy 4</title><path d="M317.26,208.22c.07-1.38.11-2.77.11-4.15a84,84,0,0,0-146.18-56.5,66.83,66.83,0,0,0-80.26,58.65A61.05,61.05,0,0,0,103.56,327H297.44a61,61,0,0,0,19.82-118.78ZM297.44,311H103.56A45.06,45.06,0,0,1,99,221.12a8.74,8.74,0,0,0,7.65-8.24,50.76,50.76,0,0,1,100.08-12,8,8,0,0,0,15.55-3.77,66.49,66.49,0,0,0-34.32-43.63,68,68,0,0,1,113.46,50.58,69,69,0,0,1-.59,9,8,8,0,0,0,6.7,8.95,45.05,45.05,0,0,1-10,89Z"/></svg>