<svg id="Layer_1" data-name="Layer 1" xmlns="http://www.w3.org/2000/svg" viewBox="0 0 400 400"><title>Artboard 152 copy 6</title><path d="M340.84,212.73c-1-19.33-5.31-34-13.49-46.29-16.77-25.1-46.94-37.3-85.06-34.46a11.88,11.88,0,0,0-1.57-5.75l3.88-17.72c0-.09,0-.18,0-.27s.06-.32.08-.48,0-.21,0-.31,0-.32,0-.48,0-.23,0-.35,0-.29,0-.43,0-.26,0-.39,0-.25-.05-.38-.06-.27-.09-.4-.05-.23-.08-.35-.08-.27-.13-.4-.07-.23-.11-.34-.1-.25-.16-.37-.1-.23-.15-.33l-.18-.33-.2-.34-.2-.3-.24-.34-.22-.26-.28-.33-.24-.24-.31-.29-.29-.24-.31-.25-.35-.23-.3-.19-.42-.22-.28-.14-.46-.19-.25-.1L104.83,52.54l-.14,0-.5-.15-.29-.07-.47-.09-.34,0-.42,0-.4,0h-.36l-.45,0-.32,0-.48.08-.17,0-.15,0-.44.12-.35.11-.35.14-.39.17-.29.15-.4.22-.26.17-.38.26-.27.21-.32.26-.29.27-.25.25-.29.33-.2.25-.26.37-.18.28-.21.36-.18.34-.15.33c-.06.14-.12.28-.17.42l-.06.14c0,.05,0,.11,0,.16s-.09.3-.13.46-.05.21-.08.32-.06.29-.08.44,0,.24,0,.36,0,.26,0,.4,0,.27,0,.41,0,.24,0,.35,0,.3,0,.46,0,.21,0,.32,0,.32.08.48,0,.11,0,.17l13.54,62.3a11.93,11.93,0,0,0-3.14,8.05v15.58a11.89,11.89,0,0,0,.35,2.81,110.76,110.76,0,1,0,179.55,86.8c0-31.94-16.46-65.2-42.63-87.36a11.94,11.94,0,0,0,.21-2c32.69-2.73,58.18,7,71.77,27.31,6.52,9.75,10,21.91,10.82,38.25a8,8,0,0,0,8,7.58h.43A8,8,0,0,0,340.84,212.73ZM225.66,120.15H123.45L113,72.33,227.43,112ZM120.79,143.73v-7.58h105.5v7.58Zm147.9,93.61a94.76,94.76,0,1,1-149.13-77.61H228.68C252.79,178.67,268.69,209.22,268.69,237.33Z"/><path d="M218.62,214.29c-11.62,1.11-16.75,9.2-20.49,15.11-3.46,5.47-5,7.41-8.49,7.75s-5.37-1.28-9.8-6c-4.79-5.1-11.36-12.07-23-11s-16.74,9.2-20.49,15.11c-3.46,5.47-5,7.41-8.49,7.74s-5.37-1.28-9.8-6c-4.79-5.09-11.36-12.07-23-11a8,8,0,0,0-7.2,8.72v.06c0,.18,0,.36,0,.54.91,42.87,39.3,77.07,86,77.07l2,0a91,91,0,0,0,57.56-21.63c15.73-13.58,25.29-31.86,26.92-51.47a8,8,0,0,0-10.81-8.14c-2.49-.34-4.4-2.12-8-6C236.81,220.16,230.25,213.18,218.62,214.29Zm11.32,21.92c3.26,3.47,7.35,7.8,13.29,9.87-6.5,28.54-34.14,49.67-67.61,50.38-34.25.72-63.32-20.65-70.18-49.51l1,1.05c4.45,4.73,10.42,11.08,20.55,11.08q1.17,0,2.43-.12c11.62-1.11,16.74-9.2,20.49-15.11,3.46-5.47,5-7.41,8.49-7.74s5.37,1.28,9.8,6c4.79,5.09,11.36,12.08,23,11s16.75-9.2,20.49-15.11c3.46-5.47,5-7.41,8.49-7.74S225.51,231.5,229.95,236.21Z"/></svg>