<svg id="Layer_1" data-name="Layer 1" xmlns="http://www.w3.org/2000/svg" viewBox="0 0 400 400"><title>Artboard 66 copy 21</title><path d="M288.69,148.53h0a8,8,0,0,0-8,8L280.8,316c0,3.14-2.92,5.69-6.51,5.69H100c-3.59,0-6.51-2.55-6.51-5.69V95.59c0-3.14,2.92-5.69,6.52-5.69L244,89.73a8,8,0,0,0,0-16h0L100,73.9c-12.41,0-22.51,9.73-22.51,21.69V316c0,12,10.1,21.69,22.51,21.69H274.29c12.41,0,22.51-9.73,22.51-21.7l-.12-159.51A8,8,0,0,0,288.69,148.53Z"/><path d="M256,226H118.89a8,8,0,1,0,0,16H256a8,8,0,0,0,0-16Z"/><path d="M256,256.06H118.89a8,8,0,1,0,0,16H256a8,8,0,0,0,0-16Z"/><path d="M256,286.11H118.89a8,8,0,1,0,0,16H256a8,8,0,0,0,0-16Z"/><path d="M341.05,69.56l-17-18.5a13.81,13.81,0,0,0-19.49-.81L196.13,150a8,8,0,0,0-2.5,7L183,185a10.87,10.87,0,0,0,3.23,12.55,9.86,9.86,0,0,0,6.09,2.09,10.33,10.33,0,0,0,4.54-1.06l28.73-8.81a7.93,7.93,0,0,0,7.28-1.89L340.25,89A13.81,13.81,0,0,0,341.05,69.56ZM226.84,171.69l-14.2-15.1,78.74-72.47,14.06,15.23Zm-24.91,8.58,3.17-8.34,5.38,5.72ZM317.2,88.51,303.14,73.28l10.6-9.76,14,15.25Z"/></svg>