<svg id="Layer_1" data-name="Layer 1" xmlns="http://www.w3.org/2000/svg" viewBox="0 0 400 400"><title>Artboard 104 copy 27</title><path d="M180.2,207l56.7-54.22a8,8,0,1,0-11.06-11.56l-62.75,60-.12.13-.13.12-.15.17-.28.32-.23.3-.24.34-.2.32-.2.35-.17.35-.16.36-.14.37c0,.12-.08.24-.12.36s-.07.25-.1.38-.06.24-.08.37,0,.26-.07.39,0,.25,0,.37,0,.26,0,.39,0,.25,0,.38,0,.25,0,.38,0,.26,0,.39,0,.25,0,.37,0,.26.07.39.05.24.08.37.06.26.1.38.08.24.12.36l.14.37.16.36.17.35.2.35.2.32.24.34.23.3.28.32.15.17.13.12.13.13,62.75,60a8,8,0,1,0,11.06-11.56Z"/></svg>