<svg id="Layer_1" data-name="Layer 1" xmlns="http://www.w3.org/2000/svg" viewBox="0 0 400 400"><title>Artboard 224</title><path d="M276.62,184.62l.22-.3.24-.34.2-.33.19-.34.17-.35c.05-.12.11-.24.16-.36s.09-.24.13-.36.09-.25.12-.38.07-.25.1-.37.06-.26.09-.39,0-.27.06-.4,0-.25,0-.37,0-.29,0-.44,0-.17,0-.26,0-.06,0-.09,0-.3,0-.44,0-.24,0-.35,0-.26-.06-.39,0-.26-.07-.39-.06-.22-.08-.33-.07-.28-.11-.42-.08-.22-.12-.33-.09-.27-.15-.4-.11-.24-.17-.36-.11-.23-.17-.34-.14-.23-.21-.35-.13-.21-.19-.31l-.23-.31-.25-.32-.23-.25-.31-.33-.06-.06-.19-.17-.34-.29-.3-.22-.34-.24-.33-.2-.34-.19-.35-.17-.36-.16-.36-.13-.38-.12-.37-.09-.39-.09-.4-.06-.38,0-.44,0H150.1l-.43,0-.38,0-.39.06-.39.09-.36.09-.38.13-.36.13-.36.16-.35.17-.34.19-.33.2-.34.24-.3.22-.34.29-.19.17-.06.06-.31.33-.23.25-.25.32-.23.31c-.07.1-.13.21-.19.31s-.15.23-.21.35-.11.23-.17.34-.12.24-.17.36-.1.27-.15.4-.08.22-.12.33-.08.28-.11.42-.06.22-.08.33,0,.26-.07.39,0,.26-.06.39,0,.24,0,.35,0,.3,0,.44,0,.06,0,.09,0,.17,0,.26,0,.29,0,.44,0,.25,0,.37,0,.27.06.4.05.26.09.39.06.25.1.37.08.25.12.38.08.24.13.36.1.24.16.36l.17.35.19.34.2.33.24.34.22.3.3.34.17.19,60,62.75.13.12.13.13.19.17.3.26.33.25.32.22.35.22.32.18.39.19.32.14.43.15.3.1.47.12.28.07.54.08.23,0c.26,0,.51,0,.77,0h0c.26,0,.51,0,.77,0l.23,0,.53-.08.28-.07.47-.12.3-.1.43-.15.32-.14.39-.19.32-.18.36-.22.31-.22.33-.25.29-.25.19-.17L216,248l.13-.12,60-62.75.17-.19Zm-45.93,18.75h0a1.3,1.3,0,0,0,.28-.19h0Z"/></svg>