<?xml version="1.0" encoding="UTF-8"?>
<svg width="40px" height="40px" viewBox="0 0 40 40" version="1.1" xmlns="http://www.w3.org/2000/svg" xmlns:xlink="http://www.w3.org/1999/xlink">
    <!-- Generator: Sketch 51.1 (57501) - http://www.bohemiancoding.com/sketch -->
    <title>Group 6</title>
    <desc>Created with Sketch.</desc>
    <defs></defs>
    <g id="Page-1" stroke="none" stroke-width="1" fill="none" fill-rule="evenodd">
        <g id="tosts" transform="translate(-762.000000, -504.000000)">
            <g id="Group-2" transform="translate(762.000000, 504.000000)">
                <g id="Rectangle-12">
                    <rect fill-rule="nonzero" x="0" y="0" width="40" height="40"></rect>
                    <path d="M20,34 C12.2680135,34 6,27.7319865 6,20 C6,12.2680135 12.2680135,6 20,6 C27.7319865,6 34,12.2680135 34,20 C34,27.7319865 27.7319865,34 20,34 Z M20,33 C27.1797017,33 33,27.1797017 33,20 C33,12.8202983 27.1797017,7 20,7 C12.8202983,7 7,12.8202983 7,20 C7,27.1797017 12.8202983,33 20,33 Z M24.2307681,15.9265377 C24.5474826,15.4740884 25.171013,15.3640536 25.6234623,15.6807681 C26.0759116,15.9974826 26.1859464,16.621013 25.8692319,17.0734623 L20.3454483,24.9645818 L15.3098156,20.7682213 C14.8855387,20.4146572 14.8282146,19.7840925 15.1817787,19.3598156 C15.5353428,18.9355387 16.1659075,18.8782146 16.5901844,19.2317787 L19.9545517,22.0354182 L24.2307681,15.9265377 Z" id="Combined-Shape" fill="#000000" fill-rule="evenodd"></path>
                </g>
            </g>
            <g id="icon-copy-5" transform="translate(768.000000, 510.000000)">
                <g id="Group">
                    <g id="primary.color-copy"></g>
                </g>
            </g>
        </g>
    </g>
</svg>