<svg id="Layer_1" data-name="Layer 1" xmlns="http://www.w3.org/2000/svg" viewBox="0 0 400 400"><title>Artboard 104 copy 32</title><path d="M238.44,204.73l.24-.34.2-.33.2-.35.17-.35.16-.36c0-.12.1-.25.14-.37s.08-.24.12-.36.07-.26.1-.39.06-.24.08-.36,0-.26.07-.39,0-.25,0-.37,0-.26,0-.39,0-.25,0-.38,0-.25,0-.38,0-.26,0-.39,0-.25,0-.37,0-.26-.07-.39-.05-.24-.08-.36-.07-.26-.1-.39-.08-.24-.12-.36-.09-.25-.14-.37l-.16-.36-.17-.35-.2-.35-.2-.33-.24-.34-.23-.3-.28-.32-.15-.17-.13-.12-.12-.13-62.75-60-.19-.17-.34-.29-.3-.22-.34-.23-.33-.2-.34-.19-.35-.17-.36-.16-.36-.13-.38-.12-.37-.1-.39-.08-.4-.06-.37,0-.44,0h-.35l-.45,0-.35,0-.39.06-.39.06-.34.09-.41.11-.34.12-.39.15-.36.18-.33.16-.36.22-.31.19-.31.23-.32.25-.26.23-.33.31-.06.06-.17.19-.3.34-.22.3-.24.34-.2.33-.19.34-.17.35c-.05.12-.11.24-.16.36s-.09.24-.13.36-.09.25-.12.38-.07.25-.1.37-.06.26-.09.39,0,.27-.06.4,0,.25,0,.37,0,.29,0,.44,0,.17,0,.26V260c0,.09,0,.17,0,.26s0,.29,0,.44,0,.25,0,.37,0,.27.06.4.05.26.09.39.06.25.1.37.08.25.12.38.08.24.13.36.1.24.16.36l.17.35.19.34.2.33.24.34.22.3.3.34.17.19.06.06.36.34.24.21.37.28.27.2.4.25.48.27c.16.08.33.17.5.24l.24.09.51.18.24.06.53.13.31,0,.48.07c.25,0,.51,0,.76,0h0c.26,0,.52,0,.78,0l.31,0,.46-.07.35-.08.39-.1.35-.12.38-.14.33-.15.37-.18.32-.18.35-.21.31-.22.31-.23.32-.27.21-.18,62.75-60,.13-.13.13-.12.15-.17.28-.32Zm-45.45-25a1.28,1.28,0,0,0-.19-.28v0l.19.29Z"/></svg>