<?xml version="1.0" encoding="UTF-8"?>
<svg width="40px" height="40px" viewBox="0 0 40 40" version="1.1" xmlns="http://www.w3.org/2000/svg" xmlns:xlink="http://www.w3.org/1999/xlink">
    <!-- Generator: Sketch 51.1 (57501) - http://www.bohemiancoding.com/sketch -->
    <title>Group 6</title>
    <desc>Created with Sketch.</desc>
    <defs>
        <polygon id="path-1" points="7 4 17 4 17 20 7 20"></polygon>
    </defs>
    <g id="Group-6" stroke="none" stroke-width="1" fill="none" fill-rule="evenodd">
        <g transform="translate(8.000000, 7.000000)">
            <path d="M18.6460568,2.4675186 L17.7902953,1 L6.1485886,1 L5.28360146,2.41419691 C4.95233217,2.95581567 4.54305678,3.44632712 4.06738952,3.87204212 C3.63384474,4.25998717 3.15193541,4.58774223 2.63484707,4.84606496 L1,5.6630642 L1,11.2790918 C1,14.6166171 2.0621089,17.7838106 4.07457771,20.4472982 C5.84734373,22.793561 8.23660868,24.5628389 10.985751,25.5655819 L12.0000197,25.9355487 L13.0142611,25.5655775 C15.7633864,24.5628407 18.152652,22.7935657 19.925372,20.4473476 C21.9378909,17.7837938 23,14.6166881 23,11.2790918 L23,5.83397512 L21.3656561,5.01691205 C20.2277449,4.44805766 19.2866182,3.56586408 18.6460568,2.4675186 Z M21.812814,4.12245703 L24,5.2159043 L24,11.2790918 C24,14.8343379 22.8668846,18.213082 20.7232313,21.0501914 C18.8344946,23.549959 16.2872276,25.4362148 13.356926,26.5050352 L12.0000264,27 L10.643074,26.5050352 C7.71277244,25.4362148 5.16550543,23.549959 3.27671597,21.0501387 C1.13306261,18.2130293 0,14.8341797 0,11.2790918 L0,5.04488672 L2.18781921,3.95154492 C2.62546748,3.7329082 3.03340801,3.45536719 3.40055977,3.12683203 C3.80364575,2.76607617 4.15016567,2.35079297 4.43051595,1.89242578 L5.58800961,0 L18.3647641,0 L19.5099103,1.96377539 C20.052459,2.8940625 20.8487636,3.64051758 21.812814,4.12245703 Z" id="Shape" fill="#000000" fill-rule="nonzero"></path>
            <mask id="mask-2" fill="white">
                <use xlink:href="#path-1"></use>
            </mask>
            <g id="Clip-2"></g>
            <path d="M14.9436661,8.77136884 L14.0140823,11.3417993 L12.0140679,5 L9.98591772,11.3417993 L9.05635789,8.77136884 L7.08157695,14.1917999 C7.02765605,14.3397698 7,14.4971475 7,14.6558802 C7,17.5973051 9.22970591,19.9834084 11.9859081,19.9996165 C14.7702941,19.9834084 17,17.5973051 17,14.6558802 C17,14.4971475 16.972344,14.3397698 16.9184231,14.1917999 L14.9436661,8.77136884 Z" id="Fill-1" fill="#000000" mask="url(#mask-2)"></path>
        </g>
    </g>
</svg>