<svg id="Layer_1" data-name="Layer 1" xmlns="http://www.w3.org/2000/svg" viewBox="0 0 400 400"><title>Artboard 170</title><path d="M328.86,128.82a17.16,17.16,0,0,0-4.55-12.41L297,86.79a17.3,17.3,0,0,0-24.41-1L261.54,96a20.41,20.41,0,0,0-28.38,26.12L99.06,245.55a8,8,0,0,0-2.47,7.18L83.45,296a12.94,12.94,0,0,0,4.45,14.14,11.11,11.11,0,0,0,11.33,1.26l44.93-10.46a7.93,7.93,0,0,0,7.25-1.89L284.48,176.55a20.44,20.44,0,0,0,8,1.89h.7A20.46,20.46,0,0,0,312.29,151l11-10.13A17.16,17.16,0,0,0,328.86,128.82ZM115.42,252.24,243.2,134.62l8.44,9-126,119.49Zm-14.83,42.4,8-26.32,18.86,20.06Zm44.15-11.21-8.13-8.65,126-119.47,9.88,10.56ZM296.15,161.27h0a4.48,4.48,0,0,1-6.28-.21l-41.21-44a4.5,4.5,0,0,1,.21-6.28,4.41,4.41,0,0,1,3-1.18h.15a4.42,4.42,0,0,1,3.1,1.39l41.21,44a4.48,4.48,0,0,1-.21,6.28ZM312.46,129l-9.92,9.13-29.25-31.25,10.19-9.38a1.28,1.28,0,0,1,1.8.07l27.26,29.62a1.27,1.27,0,0,1-.07,1.8Z"/></svg>