<svg id="Layer_1" data-name="Layer 1" xmlns="http://www.w3.org/2000/svg" viewBox="0 0 400 400"><title>Artboard 188 copy 10</title><path d="M329.18,133.64a23.5,23.5,0,0,0-23.47-23.47H96.65a23.5,23.5,0,0,0-23.47,23.47V272.36a23.37,23.37,0,0,0,1.16,7.27,19.3,19.3,0,0,0,.78,3.44,18.28,18.28,0,0,0,17.63,12.76H309.36A18.28,18.28,0,0,0,327,283.07a19.47,19.47,0,0,0,.55-2.09,23.34,23.34,0,0,0,1.64-8.61ZM239.75,203,309,152a24,24,0,0,0,4.16-3.9V257.05Zm-18.25-6.43-16.19,11.92a7.14,7.14,0,0,1-8.51,0l-16.19-11.91,0,0-78-57.42a7.18,7.18,0,0,1,4.25-13H295.28a7.18,7.18,0,0,1,4.25,13l-78,57.42ZM93.08,152l69.27,51L89.18,256.87V148.4A24,24,0,0,0,93.08,152Zm3.57,127.82a7.47,7.47,0,0,1-6.32-3.51,2.59,2.59,0,0,1,.9-1.1l84.62-62.29,11.46,8.44a23.07,23.07,0,0,0,27.48,0l11.46-8.44,84.62,62.29a2.46,2.46,0,0,1,1,1.37,7.47,7.47,0,0,1-6.15,3.24Z"/></svg>