<svg id="Layer_1" data-name="Layer 1" xmlns="http://www.w3.org/2000/svg" viewBox="0 0 400 400"><title>Artboard 152 copy 4</title><path d="M201.5,5C93.7,5,6,92.7,6,200.5S93.7,396,201.5,396,397,308.3,397,200.5,309.3,5,201.5,5Zm0,375C102.52,380,22,299.48,22,200.5S102.52,21,201.5,21,381,101.52,381,200.5,300.48,380,201.5,380Z"/><path d="M219.34,105.67c-6-4.43-12.5-9-20-12.37a141.43,141.43,0,0,0-14.88-5.45c-5.8-1.72-17.86-5.31-22.42,3.3-3.13,5.9-.1,12.88,1.9,17.49.3.69.61,1.4.75,1.78l.29.8c.67,1.84,1.31,3.58,1.85,5.31a26.88,26.88,0,0,1,1.47,7.78c.21,15.25-11.39,26.92-23.67,39.28-4.29,4.32-8.73,8.78-12.53,13.37-25.08,30.22-27.52,74.14-5.93,106.81a88.62,88.62,0,0,0,54.06,37.44,84.36,84.36,0,0,0,18.38,2,88.61,88.61,0,0,0,43.52-11.6,97.65,97.65,0,0,0,41.61-46.73c11.8-27.81,9.89-59.08-5.53-90.43C265.81,149.2,244.34,124.13,219.34,105.67ZM201.85,211.33a48.69,48.69,0,0,1,7.29,4.7c21,15.52,39.05,43.07,29,66.88-6.72,15.84-23.54,25.16-39.11,21.68a33.07,33.07,0,0,1-20.16-14,34.44,34.44,0,0,1,2.25-40.18c1.6-1.92,3.58-3.92,5.67-6,7-7.07,15.78-15.88,15.6-28.75A22.73,22.73,0,0,0,201.85,211.33ZM269,258.65a83,83,0,0,1-13.29,21.52c6.69-29.24-12.81-59.08-37.09-77a59.07,59.07,0,0,0-10.94-6.75c-13.12-5.83-20.78-5.63-24.11.64-2.48,4.68-.4,9.47.84,12.33.12.27.22.51.29.69l.14.39c.33.9.64,1.76.9,2.56a10.33,10.33,0,0,1,.57,2.86c.09,6.14-5.28,11.54-11,17.25-2.25,2.27-4.58,4.61-6.64,7.09a50.13,50.13,0,0,0-4,58.1,73,73,0,0,1-25.23-23.37c-17.45-26.41-15.39-63.32,4.9-87.77,3.34-4,7.34-8,11.57-12.31,13.42-13.5,28.63-28.8,28.32-50.78a42.55,42.55,0,0,0-2.21-12.36h0c-.65-2.07-1.38-4.07-2.09-6l-.29-.78c-.24-.65-.52-1.33-.83-2a114.94,114.94,0,0,1,14,5c6,2.67,11.69,6.71,17,10.62C253.35,150.66,290.43,208.2,269,258.65Z"/></svg>