<svg id="Layer_1" data-name="Layer 1" xmlns="http://www.w3.org/2000/svg" viewBox="0 0 400 400"><title>Artboard 66 copy 26</title><path d="M131.44,67.85H88.09a20,20,0,0,0-20,20V131.2a20,20,0,0,0,20,20h43.35a20,20,0,0,0,20-20V87.85A20,20,0,0,0,131.44,67.85Zm4,63.35a4.05,4.05,0,0,1-4,4H88.09a4.05,4.05,0,0,1-4-4V87.85a4.05,4.05,0,0,1,4-4h43.35a4.05,4.05,0,0,1,4,4Z"/><path d="M312.71,67.85H269.36a20,20,0,0,0-20,20V131.2a20,20,0,0,0,20,20h43.35a20,20,0,0,0,20-20V87.85A20,20,0,0,0,312.71,67.85Zm4,63.35a4.05,4.05,0,0,1-4,4H269.36a4.05,4.05,0,0,1-4-4V87.85a4.05,4.05,0,0,1,4-4h43.35a4.05,4.05,0,0,1,4,4Z"/><path d="M222.08,67.85H178.73a20,20,0,0,0-20,20V131.2a20,20,0,0,0,20,20h43.35a20,20,0,0,0,20-20V87.85A20,20,0,0,0,222.08,67.85Zm4,63.35a4.05,4.05,0,0,1-4,4H178.73a4.05,4.05,0,0,1-4-4V87.85a4.05,4.05,0,0,1,4-4h43.35a4.05,4.05,0,0,1,4,4Z"/><path d="M131.44,158.18H88.09a20,20,0,0,0-20,20v43.35a20,20,0,0,0,20,20h43.35a20,20,0,0,0,20-20V178.18A20,20,0,0,0,131.44,158.18Zm4,63.35a4.05,4.05,0,0,1-4,4H88.09a4.05,4.05,0,0,1-4-4V178.18a4.05,4.05,0,0,1,4-4h43.35a4.05,4.05,0,0,1,4,4Z"/><path d="M312.71,158.18H269.36a20,20,0,0,0-20,20v43.35a20,20,0,0,0,20,20h43.35a20,20,0,0,0,20-20V178.18A20,20,0,0,0,312.71,158.18Zm4,63.35a4.05,4.05,0,0,1-4,4H269.36a4.05,4.05,0,0,1-4-4V178.18a4.05,4.05,0,0,1,4-4h43.35a4.05,4.05,0,0,1,4,4Z"/><path d="M222.08,158.18H178.73a20,20,0,0,0-20,20v43.35a20,20,0,0,0,20,20h43.35a20,20,0,0,0,20-20V178.18A20,20,0,0,0,222.08,158.18Zm4,63.35a4.05,4.05,0,0,1-4,4H178.73a4.05,4.05,0,0,1-4-4V178.18a4.05,4.05,0,0,1,4-4h43.35a4.05,4.05,0,0,1,4,4Z"/><path d="M131.44,248.5H88.09a20,20,0,0,0-20,20v43.35a20,20,0,0,0,20,20h43.35a20,20,0,0,0,20-20V268.5A20,20,0,0,0,131.44,248.5Zm4,63.35a4.05,4.05,0,0,1-4,4H88.09a4.05,4.05,0,0,1-4-4V268.5a4.05,4.05,0,0,1,4-4h43.35a4.05,4.05,0,0,1,4,4Z"/><path d="M312.71,248.5H269.36a20,20,0,0,0-20,20v43.35a20,20,0,0,0,20,20h43.35a20,20,0,0,0,20-20V268.5A20,20,0,0,0,312.71,248.5Zm4,63.35a4.05,4.05,0,0,1-4,4H269.36a4.05,4.05,0,0,1-4-4V268.5a4.05,4.05,0,0,1,4-4h43.35a4.05,4.05,0,0,1,4,4Z"/><path d="M222.08,248.5H178.73a20,20,0,0,0-20,20v43.35a20,20,0,0,0,20,20h43.35a20,20,0,0,0,20-20V268.5A20,20,0,0,0,222.08,248.5Zm4,63.35a4.05,4.05,0,0,1-4,4H178.73a4.05,4.05,0,0,1-4-4V268.5a4.05,4.05,0,0,1,4-4h43.35a4.05,4.05,0,0,1,4,4Z"/></svg>