<svg id="Layer_1" data-name="Layer 1" xmlns="http://www.w3.org/2000/svg" viewBox="0 0 400 400"><title>Artboard 66 copy 25</title><path d="M86.18,194.88h86.88a20,20,0,0,0,20-20V88a20,20,0,0,0-20-20H86.18a20,20,0,0,0-20,20v86.88A20,20,0,0,0,86.18,194.88ZM82.18,88a4.05,4.05,0,0,1,4-4h86.88a4.05,4.05,0,0,1,4,4v86.88a4.05,4.05,0,0,1-4,4H86.18a4.05,4.05,0,0,1-4-4Z"/><path d="M226.08,194.88H313a20,20,0,0,0,20-20V88a20,20,0,0,0-20-20H226.08a20,20,0,0,0-20,20v86.88A20,20,0,0,0,226.08,194.88ZM222.08,88a4.05,4.05,0,0,1,4-4H313a4.05,4.05,0,0,1,4,4v86.88a4.05,4.05,0,0,1-4,4H226.08a4.05,4.05,0,0,1-4-4Z"/><path d="M174,205.12H87.11a20,20,0,0,0-20,20V312a20,20,0,0,0,20,20H174a20,20,0,0,0,20-20V225.12A20,20,0,0,0,174,205.12ZM178,312a4.05,4.05,0,0,1-4,4H87.11a4.05,4.05,0,0,1-4-4V225.12a4.05,4.05,0,0,1,4-4H174a4.05,4.05,0,0,1,4,4Z"/><path d="M313.23,205.12H226.36a20,20,0,0,0-20,20V312a20,20,0,0,0,20,20h86.88a20,20,0,0,0,20-20V225.12A20,20,0,0,0,313.23,205.12Zm4,106.88a4.05,4.05,0,0,1-4,4H226.36a4.05,4.05,0,0,1-4-4V225.12a4.05,4.05,0,0,1,4-4h86.88a4.05,4.05,0,0,1,4,4Z"/></svg>