<svg id="Layer_1" data-name="Layer 1" xmlns="http://www.w3.org/2000/svg" viewBox="0 0 400 400"><title>Artboard 66 copy 41</title><path d="M309.17,177h-1.84l-8,0h-2c-.64-1.92-1.34-3.83-2.08-5.67-1-2.63-2.24-5.12-3.47-7.52l9.64-9.64a23.87,23.87,0,0,0,0-33.7c-.93-.93-1.89-1.95-2.88-3-7.13-7.54-19.06-20.16-34.77-12.72-4.55,2.16-7.81,5.59-10.43,8.35L248,118.75l-.62-.34c-2.18-1.14-4.42-2.21-6.65-3.17-2.94-1.27-5.92-2.39-8.92-3.34v-.27c0-1.06,0-2.11,0-3.17V99.35A23.86,23.86,0,0,0,208,75.52H192.55a23.86,23.86,0,0,0-23.83,23.83v7.73c0,1.7,0,3.34,0,4.94-2.85.93-5.79,1.91-8.74,3.17a52.71,52.71,0,0,0-5.45,2.53l-10-10a23.87,23.87,0,0,0-33.7,0L100,118.6a23.87,23.87,0,0,0,0,33.7l9.63,9.63c-.87,1.66-1.7,3.37-2.47,5.08-1.16,2.57-2.23,5.22-3.18,7.89q-.38,1.07-.73,2.13L90.83,177A23.86,23.86,0,0,0,67,200.8v15.44a23.86,23.86,0,0,0,23.83,23.83l5.9,0c2,0,4,0,6.07,0,.7,2.16,1.51,4.34,2.42,6.53,1,2.45,2.22,5,3.55,7.53q.4.78.83,1.58l-8.81,8.81-.54.54a23.86,23.86,0,0,0,0,33.7l10.92,10.92a23.86,23.86,0,0,0,33.7,0l.16-.16c1.15-1.22,2.34-2.41,3.61-3.67l1.94-2,3.51-3.56a98.19,98.19,0,0,0,11.67,5.08l.17.06c1,.32,1.88.59,2.8.83V319a23.86,23.86,0,0,0,23.83,23.83H208A23.87,23.87,0,0,0,231.82,319v-.54q0-2,0-4c0-2.71-.06-5.41-.13-8.12,3.29-1.06,6.48-2.26,9.49-3.57,2-.86,4-1.81,5.89-2.8h0l3.47,3.46,6,5.94a23.86,23.86,0,0,0,33.7,0l10.92-10.92a23.86,23.86,0,0,0,0-33.7l-9.57-9.57.65-1.32a102.06,102.06,0,0,0,4.46-10.62c.37-1,.7-2.08,1-3.1l11.53-.05A23.86,23.86,0,0,0,333,216.24V200.8A23.86,23.86,0,0,0,309.17,177ZM317,216.24a7.85,7.85,0,0,1-7.87,7.83l-15.17.07h-2.41a8.13,8.13,0,0,0-7.82,6.12l-.24.94c-.61,2.36-1.19,4.6-1.93,6.68a85.82,85.82,0,0,1-3.75,8.95,41.8,41.8,0,0,1-2.62,4.76,8.47,8.47,0,0,0-1.4,6.25l.09.57.3.9a8.57,8.57,0,0,0,2.05,3.17L289.79,276a7.84,7.84,0,0,1,0,11.07L278.87,298a7.84,7.84,0,0,1-11.09,0l-6-5.94-5-5-2.57-2.56a8.25,8.25,0,0,0-9.49-1.61,11,11,0,0,0-1.56.92l-1,.58q-1.22.68-2.46,1.31c-1.62.84-3.3,1.63-5,2.36a86.68,86.68,0,0,1-9.12,3.36c-1,.32-2.08.61-3.13.91l-.69.19a8.42,8.42,0,0,0-6.23,8.18c0,1.93,0,3.82.06,5.65v.29c.06,2.66.09,5.31.13,8,0,1.33,0,2.67.05,4V319a7.84,7.84,0,0,1-7.83,7.83H192.55a7.84,7.84,0,0,1-7.83-7.83V300.11a8.28,8.28,0,0,0-6.73-8.22l-.95-.19a52.86,52.86,0,0,1-6-1.44,85.45,85.45,0,0,1-14.38-6.83l-.6-.35-.88-.33c-5.34-1.8-8.59,1.9-11.45,5.17l-4.56,4.67-1.86,1.87c-1.25,1.26-2.55,2.55-3.83,3.9a7.84,7.84,0,0,1-11-.07l-10.92-10.92a7.84,7.84,0,0,1,0-11.07l.54-.54,11.26-11.25,1.76-1.75a8.19,8.19,0,0,0,1.28-10l-.71-1.19c-.34-.58-.69-1.15-1-1.74q-.88-1.56-1.71-3.15c-1.13-2.17-2.13-4.3-3-6.34a61.44,61.44,0,0,1-3.19-9.68,8.42,8.42,0,0,0-3.06-4.86l-.42-.3a8.38,8.38,0,0,0-4.62-1.44c-4.06-.09-8.14-.06-12.07,0l-5.79,0A7.84,7.84,0,0,1,83,216.24V200.8A7.83,7.83,0,0,1,90.79,193l18,.08h0a8.24,8.24,0,0,0,5.24-1.83,8.34,8.34,0,0,0,2.69-4l.33-1.06c.64-2.06,1.25-4,1.92-5.91.8-2.25,1.7-4.48,2.68-6.64.69-1.52,1.43-3,2.2-4.5s1.57-2.89,2.4-4.27a8.21,8.21,0,0,0,.72-7l0-.11a8.24,8.24,0,0,0-2-3l-.86-.86L111.29,141a7.87,7.87,0,0,1,0-11.07L122.21,119a7.88,7.88,0,0,1,11.05,0l11.68,11.75c.76.77,1.53,1.53,2.24,2.27a8.3,8.3,0,0,0,4.35,2.41l1.35.26,1.31-.17a9.06,9.06,0,0,0,4.08-1.63l.28-.16.33-.18q1-.56,2-1.08l.44-.23a42.88,42.88,0,0,1,4.47-2.13l.36-.14c2.55-1.1,5.28-2,8.18-2.94,1.53-.5,3.06-1,4.57-1.53a8.62,8.62,0,0,0,5.9-8.59c-.07-3.14-.1-6.36-.1-9.82V99.35a7.84,7.84,0,0,1,7.83-7.83H208a7.84,7.84,0,0,1,7.83,7.83v9.11c0,1,0,2,0,2.94l0,1.89c0,.86,0,1.71,0,2.56v.08a9.91,9.91,0,0,0,2,6.81A9.66,9.66,0,0,0,223,126a78.18,78.18,0,0,1,11.35,3.92c1.85.8,3.71,1.69,5.53,2.63l.68.44c2.6,1.71,6.52,4.28,11.16,2.9a12.22,12.22,0,0,0,5.43-3.58l7.75-8.17c1.88-2,3.82-4,5.67-4.9,4.48-2.12,8.47,1,16.29,9.25,1.1,1.16,2.16,2.28,3.19,3.32a7.88,7.88,0,0,1,0,11.07L279.45,153.5c-.87.87-1.74,1.74-2.62,2.58a8.73,8.73,0,0,0-2.19,3.17l-.25.73a8.71,8.71,0,0,0,.75,6.67l.37.7a104.13,104.13,0,0,1,4.83,9.94c.64,1.6,1.25,3.27,1.81,5a44.54,44.54,0,0,1,1.25,4.41l.15.62c.63,2.2,2.62,5.86,8.86,5.86h.31c.78,0,1.72-.05,2.35-.08l.38,0,3.94,0,8,0h1.74A7.84,7.84,0,0,1,317,200.8Z"/><path d="M200.27,137.41A71.73,71.73,0,1,0,272,209.14,71.73,71.73,0,0,0,200.27,137.41Zm0,127.46A55.73,55.73,0,1,1,256,209.14,55.79,55.79,0,0,1,200.27,264.87Z"/><path d="M200.27,170.41A38.73,38.73,0,1,0,239,209.14,38.73,38.73,0,0,0,200.27,170.41Zm0,61.46A22.73,22.73,0,1,1,223,209.14,22.75,22.75,0,0,1,200.27,231.87Z"/></svg>