<svg id="Layer_1" data-name="Layer 1" xmlns="http://www.w3.org/2000/svg" viewBox="0 0 400 400"><title>Artboard 66 copy 7</title><path d="M311.94,190.93c0-2.06,0-4.19,0-6.38a11.18,11.18,0,0,0-3-7.32,19.12,19.12,0,0,0-2.43-2.15l-93.77-72.92-.27-.13c-.24-.21-.48-.42-.73-.62-.52-.42-1.06-.84-1.59-1.25L204.74,96a8.3,8.3,0,0,0-10.34,0L91.34,176a12.9,12.9,0,0,0-1.87,1.78,8.22,8.22,0,0,0-2.06,5.48l.19,141.2c0,7.37,6.72,13.37,15,13.38l62.35.08h0a12,12,0,0,0,8.49-3.42,10.34,10.34,0,0,0,3.09-7.36l-.09-67.71,46.11.06.09,67.75c0,5.93,5.2,10.76,11.58,10.77l62.93.08h0a15.81,15.81,0,0,0,11.16-4.44,12.59,12.59,0,0,0,3.79-8.94l-.17-131.05C311.92,192.76,311.93,191.84,311.94,190.93ZM95.59,324.45l8-.13s0,.08,0,.12Zm143-2.43-.08-65.14c0-7.37-6.72-13.37-15-13.38l-48.18-.06h0a15.81,15.81,0,0,0-11.16,4.44,12.6,12.6,0,0,0-3.79,8.95l.09,65.1-56.91-.07-.18-134.95,96.13-74.67.73.57,1.32,1,.22.19a14.49,14.49,0,0,0,2.23,1.69L296,187.19c0,1.16,0,2.34,0,3.57,0,1,0,2,0,2.93l.17,128.4Z"/><path d="M328.93,158.46,207.56,64.67a12.36,12.36,0,0,0-15.12,0L147.61,99.32V93.12c0-8.44-7.69-15.31-17.14-15.31h-19c-9.45,0-17.14,6.87-17.14,15.31v47.4L71.07,158.46a8,8,0,1,0,9.78,12.66L200,79l119.14,92.08a8,8,0,1,0,9.78-12.66ZM110.28,94a2.91,2.91,0,0,1,1.14-.21h19a2.91,2.91,0,0,1,1.14.21v17.65l-21.32,16.48Z"/></svg>