<?xml version="1.0" encoding="UTF-8"?>
<svg width="40px" height="40px" viewBox="0 0 40 40" version="1.1" xmlns="http://www.w3.org/2000/svg" xmlns:xlink="http://www.w3.org/1999/xlink">
    <!-- Generator: Sketch 51.1 (57501) - http://www.bohemiancoding.com/sketch -->
    <title>Rectangle 12 Copy</title>
    <desc>Created with Sketch.</desc>
    <defs></defs>
    <g id="Rectangle-12-Copy" stroke="none" stroke-width="1" fill="none" fill-rule="evenodd">
        <rect fill-rule="nonzero" x="0" y="0" width="40" height="40"></rect>
        <path d="M13.2744686,28.0930912 C13.4156223,28.2095952 13.4679246,28.3440635 13.4869315,28.4931008 L13.485324,28.6233282 L12.8622813,32.7034089 C12.814273,33.0177977 13.1613826,33.2404504 13.4275288,33.0654518 C14.8190497,32.152574 15.8631747,31.4680517 16.5599486,31.0118558 C16.9084817,30.7836622 17.1701573,30.6125631 17.3450647,30.4985007 C17.46557,30.419972 17.46557,30.419972 17.5432836,30.3695788 C17.5507747,30.3307593 17.5507747,30.3307593 17.9826263,30.2669708 L18.0541331,30.2864417 C19.0175216,30.4739644 19.8538761,30.5585104 20.7551517,30.5585104 C27.4914243,30.5585104 32.9166274,25.2580741 32.9166274,18.6813708 C32.9166274,12.1040085 27.4915902,6.80340976 20.7551517,6.80340976 C14.0187132,6.80340976 8.59367609,12.1040085 8.59367609,18.6813708 C8.59367609,22.374825 10.3101875,25.8325227 13.2744686,28.0930912 Z M7.65496631,18.6813708 C7.65496631,11.5806356 13.5050908,5.86469999 20.7551517,5.86469999 C28.0052126,5.86469999 33.8553371,11.5806356 33.8553371,18.6813708 C33.8553371,25.7814602 28.0050341,31.4972202 20.7551517,31.4972202 C19.8251635,31.4972202 18.9574239,31.4127238 17.9539605,31.2221577 C17.9322177,31.2363127 17.9038811,31.2547785 17.8578276,31.2847896 C17.6834961,31.3984765 17.4222374,31.5693028 17.0741408,31.7972107 C16.3776552,32.2532179 15.3337389,32.9376033 13.9428479,33.8500677 C12.9979123,34.4713905 11.7636142,33.6796526 11.9343284,32.5617072 L12.5241878,28.6989319 C9.43856129,26.2594292 7.65496631,22.5921732 7.65496631,18.6813708 Z" id="Stroke-1" fill="#000000" fill-rule="nonzero"></path>
        <path d="M20.7551517,22.1810133 C20.2718196,22.1810133 19.9486006,21.8662942 19.9486006,21.3938504 L19.9486006,18.7965049 C19.9486006,18.3240611 20.2718196,18.009342 20.7551517,18.009342 C21.8841737,18.009342 22.7715296,17.1433168 22.7715296,16.0414348 C22.7715296,14.9395528 21.8841737,14.0735275 20.7551517,14.0735275 C19.6261298,14.0735275 18.7387739,14.9395528 18.7387739,16.0414348 C18.7387739,16.5131483 18.416303,16.8278675 17.9329709,16.8278675 C17.4481424,16.8278675 17.1256716,16.5131483 17.1256716,16.0414348 C17.1256716,14.0735275 18.7387739,12.4992017 20.7551517,12.4992017 C22.7715296,12.4992017 24.3846319,14.0727973 24.3846319,16.0414348 C24.3846319,17.6938927 23.174057,19.111224 21.5617029,19.5048055 L21.5617029,21.3938504 C21.5617029,21.7874319 21.2384839,22.1810133 20.7551517,22.1810133 Z" id="Stroke-3" fill="#000000"></path>
        <path d="M21.8116739,24.5157034 C21.8116739,25.037071 21.3784706,25.4598608 20.8442614,25.4598608 C20.3100522,25.4598608 19.8768489,25.037071 19.8768489,24.5157034 C19.8768489,23.9943358 20.3100522,23.5715461 20.8442614,23.5715461 C21.3784706,23.5715461 21.8116739,23.9943358 21.8116739,24.5157034" id="Fill-5" fill="#000000"></path>
    </g>
</svg>