<svg id="Layer_1" data-name="Layer 1" xmlns="http://www.w3.org/2000/svg" viewBox="0 0 400 400"><title>Artboard 188 copy 7</title><path d="M323.93,148.73c-11.63-37.17-47.29-60.54-84.78-55.58a76.66,76.66,0,0,0-36.85,15.26l-.05,0-.21-.18a30.7,30.7,0,0,0-2.44-1.92,80.51,80.51,0,0,0-8.67-5.18,77.76,77.76,0,0,0-25.49-8c-37.5-5-73.14,18.42-84.78,55.58-14,44.66,16.54,86.23,30.31,102a191.39,191.39,0,0,0,88.48,57.3h0a9.71,9.71,0,0,0,5.69,0,191.39,191.39,0,0,0,88.48-57.3C307.39,235,337.91,193.38,323.93,148.73Zm-42.37,91.52a175.39,175.39,0,0,1-79.26,51.94A175.37,175.37,0,0,1,123,240.24c-12-13.77-38.66-49.79-27.1-86.74,8.47-27.08,32.76-45,59.52-45a60.15,60.15,0,0,1,7.89.52,61.81,61.81,0,0,1,20.25,6.37,64.37,64.37,0,0,1,6.94,4.15c.24.16.75.6,1.16.95,2.24,1.89,6,5.07,11.11,4.76,4.31-.25,7.38-2.67,9.22-4.12l.17-.13a60.44,60.44,0,0,1,29.07-12c29.75-3.94,58.11,14.78,67.41,44.5C320.23,190.45,293.56,226.47,281.56,240.24Z"/></svg>