<svg id="Layer_1" data-name="Layer 1" xmlns="http://www.w3.org/2000/svg" viewBox="0 0 400 400"><title>Artboard 66 copy 40</title><path d="M115.51,70A33.51,33.51,0,1,0,149,103.51,33.51,33.51,0,0,0,115.51,70Zm0,51A17.51,17.51,0,1,1,133,103.51,17.53,17.53,0,0,1,115.51,121Z"/><path d="M206,70a33.51,33.51,0,1,0,33.51,33.51A33.51,33.51,0,0,0,206,70Zm0,51a17.51,17.51,0,1,1,17.51-17.51A17.53,17.53,0,0,1,206,121Z"/><path d="M296.49,137A33.51,33.51,0,1,0,263,103.51,33.51,33.51,0,0,0,296.49,137Zm0-51A17.51,17.51,0,1,1,279,103.51,17.53,17.53,0,0,1,296.49,86Z"/><path d="M115.51,160.49A33.51,33.51,0,1,0,149,194,33.51,33.51,0,0,0,115.51,160.49Zm0,51A17.51,17.51,0,1,1,133,194,17.53,17.53,0,0,1,115.51,211.51Z"/><path d="M206,160.49A33.51,33.51,0,1,0,239.51,194,33.51,33.51,0,0,0,206,160.49Zm0,51A17.51,17.51,0,1,1,223.51,194,17.53,17.53,0,0,1,206,211.51Z"/><path d="M296.49,160.49A33.51,33.51,0,1,0,330,194,33.51,33.51,0,0,0,296.49,160.49Zm0,51A17.51,17.51,0,1,1,314,194,17.53,17.53,0,0,1,296.49,211.51Z"/><path d="M115.51,251A33.51,33.51,0,1,0,149,284.49,33.51,33.51,0,0,0,115.51,251Zm0,51A17.51,17.51,0,1,1,133,284.49,17.53,17.53,0,0,1,115.51,302Z"/><path d="M206,251a33.51,33.51,0,1,0,33.51,33.51A33.51,33.51,0,0,0,206,251Zm0,51a17.51,17.51,0,1,1,17.51-17.51A17.53,17.53,0,0,1,206,302Z"/><path d="M296.49,251A33.51,33.51,0,1,0,330,284.49,33.51,33.51,0,0,0,296.49,251Zm0,51A17.51,17.51,0,1,1,314,284.49,17.53,17.53,0,0,1,296.49,302Z"/></svg>