<svg id="Layer_1" data-name="Layer 1" xmlns="http://www.w3.org/2000/svg" viewBox="0 0 400 400"><title>Artboard 148</title><path d="M317,68H93A20,20,0,0,0,73,88V312a20,20,0,0,0,20,20H317a20,20,0,0,0,20-20V88A20,20,0,0,0,317,68ZM89,88a4.05,4.05,0,0,1,4-4H317a4.05,4.05,0,0,1,4,4v26.4H89ZM321,312a4.05,4.05,0,0,1-4,4H93a4.05,4.05,0,0,1-4-4V130.4H321Z"/><path d="M150.43,294.15h23a20,20,0,0,0,20-20V170.88a20,20,0,0,0-20-20h-23a20,20,0,0,0-20,20V274.15A20,20,0,0,0,150.43,294.15Zm-4-123.26a4.05,4.05,0,0,1,4-4h23a4.05,4.05,0,0,1,4,4V274.15a4.05,4.05,0,0,1-4,4h-23a4.05,4.05,0,0,1-4-4Z"/><path d="M234,294.15h23a20,20,0,0,0,20-20V170.88a20,20,0,0,0-20-20H234a20,20,0,0,0-20,20V274.15A20,20,0,0,0,234,294.15Zm-4-123.26a4.05,4.05,0,0,1,4-4h23a4.05,4.05,0,0,1,4,4V274.15a4.05,4.05,0,0,1-4,4H234a4.05,4.05,0,0,1-4-4Z"/></svg>