<svg id="Layer_1" data-name="Layer 1" xmlns="http://www.w3.org/2000/svg" viewBox="0 0 400 400"><title>Artboard 188 copy 3</title><path d="M129.16,145.33H340a8,8,0,0,0,0-16H129.16a8,8,0,0,0,0,16Z"/><path d="M340,203.88H129.16a8,8,0,1,0,0,16H340a8,8,0,0,0,0-16Z"/><path d="M340,278.43H129.16a8,8,0,0,0,0,16H340a8,8,0,0,0,0-16Z"/><path d="M76.87,112.54a24.87,24.87,0,1,0,24.87,24.87A24.9,24.9,0,0,0,76.87,112.54Zm0,33.73a8.87,8.87,0,1,1,8.87-8.87A8.88,8.88,0,0,1,76.87,146.28Z"/><path d="M76.87,187a24.87,24.87,0,1,0,24.87,24.87A24.9,24.9,0,0,0,76.87,187Zm0,33.73a8.87,8.87,0,1,1,8.87-8.87A8.88,8.88,0,0,1,76.87,220.73Z"/><path d="M76.87,261.72a24.87,24.87,0,1,0,24.87,24.87A24.9,24.9,0,0,0,76.87,261.72Zm0,33.73a8.87,8.87,0,1,1,8.87-8.87A8.88,8.88,0,0,1,76.87,295.46Z"/></svg>