<svg id="Layer_1" data-name="Layer 1" xmlns="http://www.w3.org/2000/svg" viewBox="0 0 400 400"><title>Artboard 160</title><path d="M234.64,286.16a91.91,91.91,0,1,0-69.28,0V328c0,.07,0,.15,0,.22s0,.15,0,.22a8,8,0,0,0,8,8h.88v17.44c0,.11,0,.22,0,.33s0,.22,0,.33a8,8,0,0,0,8,8h36.41a8,8,0,0,0,8-8c0-.08,0-.16,0-.24a8,8,0,0,0,.06-.94l-.06-16.93h0a8,8,0,0,0,8-8c0-.17,0-.33,0-.5s0-.31,0-.48ZM124.09,201a75.91,75.91,0,1,1,100,72l-.16.06-.53.21-.27.13-.42.22-.33.2-.32.2-.35.26-.25.2-.34.31-.23.22-.29.32-.23.27-.23.31-.23.33-.18.29c-.07.13-.15.25-.21.38l-.14.28c-.06.14-.13.28-.19.42l-.11.3c0,.14-.1.28-.14.43s-.06.23-.09.35-.06.26-.09.39,0,.3-.07.45,0,.21,0,.31,0,.36,0,.55,0,.13,0,.19v39.87h-.06a8,8,0,0,0-8,8l.06,18H190.24V329a9,9,0,0,0-8.51-8.52h-.37V280.61c0-.12,0-.24,0-.36s0-.22,0-.32,0-.34-.06-.51,0-.16,0-.25-.08-.38-.13-.57l0-.17c-.06-.2-.12-.4-.2-.59l0-.13c-.08-.19-.16-.38-.25-.57l-.07-.14c-.09-.18-.19-.35-.29-.52l-.1-.17c-.1-.15-.2-.3-.31-.44l-.15-.2-.31-.37-.21-.23-.32-.31-.25-.23-.34-.27-.27-.2-.4-.26-.25-.15-.5-.25-.19-.09c-.19-.09-.4-.16-.6-.23l-.11,0A75.83,75.83,0,0,1,124.09,201Z"/><path d="M87.64,218.1a8,8,0,0,0-8-8h-31a8,8,0,1,0,0,16h31A8,8,0,0,0,87.64,218.1Z"/><path d="M351.33,210.1h-31a8,8,0,0,0,0,16h31a8,8,0,0,0,0-16Z"/><path d="M200.93,83.52a8,8,0,0,0,8-8v-31a8,8,0,0,0-16,0v31A8,8,0,0,0,200.93,83.52Z"/><path d="M76.06,108.35l24.17,19.37a8,8,0,0,0,10-12.49L86.06,95.86a8,8,0,0,0-10,12.49Z"/><path d="M295.18,130a8,8,0,0,0,4.87-1.65l24.57-18.86a8,8,0,1,0-9.74-12.69l-24.57,18.86A8,8,0,0,0,295.18,130Z"/><path d="M297.51,272.84a8,8,0,1,0-12.63,9.83l19,24.44a8,8,0,1,0,12.63-9.83Z"/><path d="M114.26,272.06A8,8,0,0,0,103,273.54L84.2,298.12a8,8,0,1,0,12.7,9.73l18.84-24.58A8,8,0,0,0,114.26,272.06Z"/><path d="M174.33,240.92l.18.14a8,8,0,0,0,.94.58l.13.06a8,8,0,0,0,1,.42l.11,0a7.94,7.94,0,0,0,1.08.26l.27,0a8.09,8.09,0,0,0,1,.08h12.76v60.64a8,8,0,0,0,16,0V242.55h13.5l.47,0,.36,0a8,8,0,0,0,7.66-5.69l12.4-41.08a8,8,0,1,0-15.32-4.62l-3.2,10.59H177.6l-3.2-10.59a8,8,0,1,0-15.32,4.63l12.4,41.08h0a7.92,7.92,0,0,0,.44,1.13l.09.18a8,8,0,0,0,.57,1l.15.2a8,8,0,0,0,.66.79l.08.09A7.94,7.94,0,0,0,174.33,240.92Zm44.55-23.18-2.66,8.81H185.09l-2.66-8.81Z"/></svg>