<svg id="Layer_1" data-name="Layer 1" xmlns="http://www.w3.org/2000/svg" viewBox="0 0 400 400"><title>Artboard 152 copy 3</title><path d="M200.5,3C92.7,3,5,90.7,5,198.5S92.7,394,200.5,394,396,306.3,396,198.5,308.3,3,200.5,3Zm0,375C101.52,378,21,297.48,21,198.5S101.52,19,200.5,19,380,99.52,380,198.5,299.48,378,200.5,378Z"/><path d="M289.51,240.09a8,8,0,0,0-10.92,3A89.78,89.78,0,0,1,111.25,206.6l1.45,1.5A8,8,0,1,0,124.21,197l-14.12-14.63a9.91,9.91,0,0,0-14-.25L81.46,196.24a8,8,0,0,0,11.11,11.51l2.54-2.45A105.78,105.78,0,0,0,292.48,251,8,8,0,0,0,289.51,240.09Z"/><path d="M308.43,185.06l-2.58,2.49A105.78,105.78,0,0,0,108.8,146,8,8,0,0,0,122.68,154a89.78,89.78,0,0,1,166.85,32l-1.23-1.28a8,8,0,1,0-11.51,11.11l14.12,14.63a9.91,9.91,0,0,0,14,.25l14.63-14.12a8,8,0,0,0-11.11-11.51Z"/></svg>