<svg id="Layer_1" data-name="Layer 1" xmlns="http://www.w3.org/2000/svg" viewBox="0 0 400 400"><title>Artboard 66 copy 8</title><path d="M359.69,309.15,308.76,187.69a8,8,0,0,0-7.73-6H273.69c.26-.7.53-1.41.77-2.11,1-2.9,1.92-5.82,2.72-8.68s1.52-5.91,2.1-8.8,1.08-6,1.42-8.9.58-6,.67-9,0-6.07-.16-9a87.19,87.19,0,0,0-1.06-9,83.39,83.39,0,0,0-2-8.92,81.76,81.76,0,0,0-3.08-8.78,82.6,82.6,0,0,0-4.17-8.58q-.62-1.11-1.27-2.19A68.55,68.55,0,0,0,210,64.44l-.74,0h0a68.77,68.77,0,0,0-59,34.14,83.58,83.58,0,0,0-4.37,8.55,81.83,81.83,0,0,0-3.27,8.75,83,83,0,0,0-2.22,8.89,86.72,86.72,0,0,0-1.23,9c-.25,2.94-.35,6-.31,9s.22,5.94.53,9,.74,5.9,1.3,8.88,1.22,5.85,2,8.78,1.64,5.77,2.62,8.65c.42,1.23.87,2.47,1.33,3.72H114a8.35,8.35,0,0,0-7.56,5L55.06,309.28A8.14,8.14,0,0,0,62.5,320.5H352.44a8,8,0,0,0,7.26-11.35ZM295,304.5c-6.85-31.52-37.8-32.37-48.45-32.66-6.89-.19-14.61.27-22.78.75-37.84,2.23-65.22,1.68-72.77-25.88-3.36-12.25,1-26.34,10.19-35.15,1.39,2.29,2.84,4.61,4.35,6.9,1.61,2.45,3.31,4.91,5,7.33s3.45,4.7,5.25,7,3.55,4.48,5.39,6.68,3.62,4.24,5.48,6.31,3.66,4,5.51,5.9c3.56,3.68,7.45,7.38,12.59,12a8.66,8.66,0,0,0,5.86,2.31H211l.44,0a8.62,8.62,0,0,0,5.26-2.42l1.47-1.38c3-2.85,6.18-5.8,9.18-8.92,1.84-1.9,3.68-3.87,5.47-5.86s3.67-4.14,5.46-6.27,3.63-4.41,5.38-6.65,3.56-4.66,5.25-7,3.46-4.9,5.06-7.33,3.29-5.09,4.82-7.62,3.09-5.26,4.52-7.89c1.24-2.29,2.42-4.59,3.54-6.87h28.79L340.39,304.5ZM119.18,197.74h33.49c-15.07,12.61-22.31,34.06-17.07,53.2,11.57,42.2,56.41,39.55,89.15,37.62,7.81-.46,15.19-.9,21.4-.73,16.05.44,27.86,3.68,32.31,16.67h-204Zm35.95-62.63a70.43,70.43,0,0,1,1-7.3,67,67,0,0,1,1.79-7.16,65.79,65.79,0,0,1,2.63-7,67.3,67.3,0,0,1,3.53-6.9c9.35-16,27.08-26.24,45.19-26.24h.45l.72,0c18.09-.25,35.94,9.79,45.44,25.62q.53.88,1,1.77a65.5,65.5,0,0,1,5.83,14,67.16,67.16,0,0,1,1.64,7.2,71.36,71.36,0,0,1,.87,7.34c.16,2.43.2,4.94.13,7.46s-.27,5-.57,7.57-.71,5.08-1.22,7.64-1.12,5.1-1.84,7.68-1.51,5.11-2.4,7.68-1.86,5.08-2.92,7.64-2.18,5-3.39,7.55-2.46,4.95-3.8,7.42-2.71,4.86-4.16,7.26-2.91,4.71-4.46,7.06-3.07,4.54-4.7,6.81-3.22,4.38-4.89,6.53-3.31,4.18-5,6.2-3.38,4-5.08,5.84-3.37,3.68-5.1,5.45-3.42,3.45-5.22,5.15c-2.57-2.4-4.78-4.57-6.86-6.72-1.73-1.78-3.45-3.63-5.12-5.49s-3.45-3.9-5.11-5.87-3.4-4.14-5-6.22-3.32-4.35-4.88-6.53-3.19-4.54-4.69-6.81-3-4.7-4.43-7c-1.18-2-2.3-3.95-3.39-5.92a8,8,0,0,0-.42-.87c-.13-.24-.28-.46-.43-.68-1.28-2.39-2.5-4.79-3.62-7.16s-2.31-5-3.32-7.51-2-5.1-2.84-7.59-1.64-5.11-2.31-7.63-1.26-5.12-1.73-7.62-.85-5.1-1.11-7.59-.42-5.06-.45-7.51S154.93,137.53,155.13,135.11Z"/><path d="M210.21,173.28a38.44,38.44,0,1,0-38.44-38.44A38.48,38.48,0,0,0,210.21,173.28Zm0-60.88a22.44,22.44,0,1,1-22.44,22.44A22.47,22.47,0,0,1,210.21,112.4Z"/></svg>