<svg id="Layer_1" data-name="Layer 1" xmlns="http://www.w3.org/2000/svg" viewBox="0 0 400 400"><title>Artboard 66 copy 39</title><path d="M317,68H93A20,20,0,0,0,73,88V312a20,20,0,0,0,20,20H317a20,20,0,0,0,20-20V88A20,20,0,0,0,317,68ZM89,88a4.05,4.05,0,0,1,4-4H317a4.05,4.05,0,0,1,4,4v26.4H89ZM321,312a4.05,4.05,0,0,1-4,4H93a4.05,4.05,0,0,1-4-4V130.4H321Z"/><path d="M169.36,295.45H240a20,20,0,0,0,20-20V172.19a20,20,0,0,0-20-20H169.36a20,20,0,0,0-20,20V275.45A20,20,0,0,0,169.36,295.45Zm-4-123.26a4.05,4.05,0,0,1,4-4H240a4.05,4.05,0,0,1,4,4V275.45a4.05,4.05,0,0,1-4,4H169.36a4.05,4.05,0,0,1-4-4Z"/></svg>