<svg id="Layer_1" data-name="Layer 1" xmlns="http://www.w3.org/2000/svg" viewBox="0 0 400 400"><title>Artboard 66 copy 37</title><path d="M317,68H93A20,20,0,0,0,73,88V312a20,20,0,0,0,20,20H317a20,20,0,0,0,20-20V88A20,20,0,0,0,317,68Zm4,244a4.05,4.05,0,0,1-4,4H93a4.05,4.05,0,0,1-4-4V130.4H321Zm0-197.6H89V88a4.05,4.05,0,0,1,4-4H317a4.05,4.05,0,0,1,4,4Z"/><path d="M143.91,294.15H264.14a20,20,0,0,0,20-20V170.88a20,20,0,0,0-20-20H143.91a20,20,0,0,0-20,20V274.15A20,20,0,0,0,143.91,294.15Zm-4-123.26a4.05,4.05,0,0,1,4-4H264.14a4.05,4.05,0,0,1,4,4V274.15a4.05,4.05,0,0,1-4,4H143.91a4.05,4.05,0,0,1-4-4Z"/></svg>