<svg id="Layer_1" data-name="Layer 1" xmlns="http://www.w3.org/2000/svg" viewBox="0 0 400 400"><title>Artboard 66 copy 3</title><path d="M312,68H88A20,20,0,0,0,68,88V312a20,20,0,0,0,20,20H312a20,20,0,0,0,20-20V88A20,20,0,0,0,312,68ZM84,88a4.05,4.05,0,0,1,4-4H312a4.05,4.05,0,0,1,4,4v26.4H84ZM316,312a4.05,4.05,0,0,1-4,4H88a4.05,4.05,0,0,1-4-4V130.4H316Z"/><path d="M178.72,294.8H282a20,20,0,0,0,20-20V171.54a20,20,0,0,0-20-20H178.72a20,20,0,0,0-20,20V274.8A20,20,0,0,0,178.72,294.8Zm-4-123.26a4.05,4.05,0,0,1,4-4H282a4.05,4.05,0,0,1,4,4V274.8a4.05,4.05,0,0,1-4,4H178.72a4.05,4.05,0,0,1-4-4Z"/><path d="M116.17,294.8a18.1,18.1,0,0,0,18.08-18.08V169.62a18.08,18.08,0,0,0-36.16,0v107.1A18.1,18.1,0,0,0,116.17,294.8Z"/></svg>