<svg id="Layer_1" data-name="Layer 1" xmlns="http://www.w3.org/2000/svg" viewBox="0 0 400 400"><title>Artboard 66 copy 38</title><path d="M307,68H83A20,20,0,0,0,63,88V312a20,20,0,0,0,20,20H307a20,20,0,0,0,20-20V88A20,20,0,0,0,307,68ZM79,88a4.05,4.05,0,0,1,4-4H307a4.05,4.05,0,0,1,4,4v26.4H79ZM311,312a4.05,4.05,0,0,1-4,4H83a4.05,4.05,0,0,1-4-4V130.4H311Z"/><path d="M183.5,294.8h23a20,20,0,0,0,20-20V171.54a20,20,0,0,0-20-20h-23a20,20,0,0,0-20,20V274.8A20,20,0,0,0,183.5,294.8Zm-4-123.26a4.05,4.05,0,0,1,4-4h23a4.05,4.05,0,0,1,4,4V274.8a4.05,4.05,0,0,1-4,4h-23a4.05,4.05,0,0,1-4-4Z"/></svg>