<svg id="Layer_1" data-name="Layer 1" xmlns="http://www.w3.org/2000/svg" viewBox="0 0 400 400"><title>Artboard 66 copy 42</title><path d="M320.67,185a20,20,0,0,0-20-20h0l-25,0-.07-43.76a70.79,70.79,0,0,0-70.6-70.49h-.11a70.68,70.68,0,0,0-70.49,70.71l.07,43.76-25,0a20,20,0,0,0-20,20l.21,131.49a20,20,0,0,0,20,20h0l191.29-.3a20,20,0,0,0,20-20ZM150.32,121.54a54.67,54.67,0,0,1,54.52-54.69h.09a54.79,54.79,0,0,1,54.6,54.52l.07,43.76-109.21.17Zm-43.76,61a4,4,0,0,1,2.82-1.19l191.29-.3h0a4.05,4.05,0,0,1,4,4l.17,106.23-199.29.31-.17-106.23A4,4,0,0,1,106.55,182.55ZM303.69,319.37a4,4,0,0,1-2.82,1.19l-191.29.3h0a4.05,4.05,0,0,1-4-4V307.6l199.29-.31v9.26A4,4,0,0,1,303.69,319.37Z"/><path d="M205.75,279.62h0A21.34,21.34,0,0,0,227,258.29L227,214.51a21.32,21.32,0,0,0-21.3-21.26h0a21.32,21.32,0,0,0-21.26,21.33l.07,43.78A21.32,21.32,0,0,0,205.75,279.62Zm-.08-70.38h0a5.37,5.37,0,0,1,5.3,5.29l.07,43.78a5.34,5.34,0,0,1-5.29,5.31,5.35,5.35,0,0,1-5.31-5.29l-.07-43.78A5.37,5.37,0,0,1,205.67,209.25Z"/></svg>