<?xml version="1.0" encoding="UTF-8"?>
<svg width="24px" height="24px" viewBox="0 0 24 24" version="1.1" xmlns="http://www.w3.org/2000/svg" xmlns:xlink="http://www.w3.org/1999/xlink">
    <!-- Generator: Sketch 51.1 (57501) - http://www.bohemiancoding.com/sketch -->
    <title>Icon/close Copy 5</title>
    <desc>Created with Sketch.</desc>
    <defs></defs>
    <g id="Icon/close-Copy-5" stroke="none" stroke-width="1" fill="none" fill-rule="evenodd">
        <path d="M3,21 L8,21 L8,22 L3,22 L2,22 L2,16 L3,16 L3,21 Z" id="Combined-Shape" fill="#2A2A2A" transform="translate(5.000000, 19.000000) rotate(-180.000000) translate(-5.000000, -19.000000) "></path>
        <path d="M5,19 L10,19 L10,20 L5,20 L4,20 L4,14 L5,14 L5,19 Z" id="Combined-Shape-Copy-2" fill="#2A2A2A" transform="translate(7.000000, 17.000000) rotate(-180.000000) translate(-7.000000, -17.000000) "></path>
        <path d="M15,9 L20,9 L20,10 L15,10 L14,10 L14,4 L15,4 L15,9 Z" id="Combined-Shape-Copy-3" fill="#2A2A2A"></path>
        <path d="M17,7 L22,7 L22,8 L17,8 L16,8 L16,2 L17,2 L17,7 Z" id="Combined-Shape-Copy" fill="#2A2A2A"></path>
    </g>
</svg>