<?xml version="1.0" encoding="UTF-8"?>
<svg width="24px" height="24px" viewBox="0 0 24 24" version="1.1" xmlns="http://www.w3.org/2000/svg" xmlns:xlink="http://www.w3.org/1999/xlink">
    <!-- Generator: Sketch 51.1 (57501) - http://www.bohemiancoding.com/sketch -->
    <title>Icon/close Copy 3</title>
    <desc>Created with Sketch.</desc>
    <defs></defs>
    <g id="Icon/close-Copy-3" stroke="none" stroke-width="1" fill="none" fill-rule="evenodd">
        <path d="M4,20 L9,20 L9,21 L4,21 L3,21 L3,15 L4,15 L4,20 Z" id="Combined-Shape" fill="#2A2A2A"></path>
        <path d="M6,18 L11,18 L11,19 L6,19 L5,19 L5,13 L6,13 L6,18 Z" id="Combined-Shape-Copy-2" fill="#2A2A2A"></path>
        <path d="M14,10 L19,10 L19,11 L14,11 L13,11 L13,5 L14,5 L14,10 Z" id="Combined-Shape-Copy-3" fill="#2A2A2A" transform="translate(16.000000, 8.000000) rotate(-180.000000) translate(-16.000000, -8.000000) "></path>
        <path d="M16,8 L21,8 L21,9 L16,9 L15,9 L15,3 L16,3 L16,8 Z" id="Combined-Shape-Copy" fill="#2A2A2A" transform="translate(18.000000, 6.000000) rotate(-180.000000) translate(-18.000000, -6.000000) "></path>
    </g>
</svg>