<svg id="Layer_1" data-name="Layer 1" xmlns="http://www.w3.org/2000/svg" viewBox="0 0 400 400"><title>Artboard 66 copy 29</title><path d="M305.13,286.3l-9.89-24.93V194.74h0a95.4,95.4,0,0,0-75.17-93.11V87.95a20.45,20.45,0,1,0-40.9,0V101.8a95.41,95.41,0,0,0-74.42,92.94h0v66.62L94.87,286.3a8,8,0,0,0,7.43,11l.29,0,.39,0h54.78a42.73,42.73,0,0,0,84.46,0H297.7a8,8,0,0,0,7.43-11Zm-191-5.05,4.11-10.35H281.81l4.11,10.35Zm81.09-193.3a4.45,4.45,0,1,1,8.9,0V99.59c-1.35-.06-2.71-.09-4.07-.09q-2.43,0-4.83.12ZM200,115.5a79.33,79.33,0,0,1,79.24,79.24h0V254.9H120.76V194.74h0A79.33,79.33,0,0,1,200,115.5Zm0,202a26.77,26.77,0,0,1-25.93-20.25h51.85A26.77,26.77,0,0,1,200,317.5Z"/></svg>