<svg id="Layer_1" data-name="Layer 1" xmlns="http://www.w3.org/2000/svg" viewBox="0 0 400 400"><title>Artboard 66 copy 5</title><path d="M306.08,215.26A69.36,69.36,0,0,0,268,92.68a69.47,69.47,0,0,0-63.44,30.07,8,8,0,0,0-1,2.08,83.64,83.64,0,0,0-50.79,26.74,66.83,66.83,0,0,0-80.26,58.65A61.05,61.05,0,0,0,85.14,331H279a61,61,0,0,0,27.06-115.74ZM266.61,108.61a53.35,53.35,0,0,1,32,91.91,84.14,84.14,0,0,0-74.87-76A53.45,53.45,0,0,1,266.61,108.61ZM279,315H85.14a45.06,45.06,0,0,1-4.61-89.88,8.74,8.74,0,0,0,7.65-8.24,50.76,50.76,0,0,1,100.08-12,8,8,0,0,0,15.55-3.76,66.49,66.49,0,0,0-34.32-43.63A68,68,0,0,1,283,208.07a69,69,0,0,1-.59,9,8,8,0,0,0,6.69,8.94,45.05,45.05,0,0,1-10,89Z"/><path d="M268.71,84.82c.24,0,.48,0,.71,0a8,8,0,0,0,8-7.3l1.91-21.67a8,8,0,0,0-15.94-1.4l-1.91,21.67A8,8,0,0,0,268.71,84.82Z"/><path d="M306.27,98.52a8,8,0,0,0,11.14-2l12.49-17.81a8,8,0,1,0-13.1-9.19L304.32,87.38A8,8,0,0,0,306.27,98.52Z"/><path d="M332,129.17A8,8,0,0,0,342.58,133l19.73-9.18a8,8,0,1,0-6.75-14.51l-19.73,9.18A8,8,0,0,0,332,129.17Z"/><path d="M369.22,163.19l-21.67-1.91a8,8,0,0,0-1.4,15.94l21.67,1.91q.36,0,.71,0a8,8,0,0,0,.69-16Z"/><path d="M354.13,216.64l-17.81-12.49a8,8,0,0,0-9.19,13.1l17.81,12.49a8,8,0,0,0,9.19-13.1Z"/><path d="M169.73,106.88l17.81,12.49a8,8,0,0,0,9.19-13.1L178.91,93.78a8,8,0,0,0-9.19,13.1Z"/><path d="M218.7,87.86a8,8,0,1,0,14.51-6.75L224,61.38a8,8,0,1,0-14.51,6.75Z"/></svg>