<svg id="Layer_1" data-name="Layer 1" xmlns="http://www.w3.org/2000/svg" viewBox="0 0 400 400"><title>Artboard 188 copy 8</title><path d="M322.67,239l-24.26-29.79a29,29,0,0,0-40.78-4.17c-2.66,2.17-5.25,4.41-7.75,6.59-4.25,3.69-8.26,7.18-12.56,10.26-5.72,4.11-11.73,8-16.72,6.51a36.83,36.83,0,0,1-13.71-8.19,171.69,171.69,0,0,1-16.45-17.74,205.1,205.1,0,0,1-14.2-19.9A36.85,36.85,0,0,1,171,167.52c-.44-5.18,4.58-10.28,9.76-15.05,3.89-3.59,8.12-6.81,12.59-10.22,2.63-2,5.36-4.09,8-6.26a29,29,0,0,0,4.17-40.78L181.29,65.42a29,29,0,0,0-40.78-4.17L126.09,73c-1.16.95-2.36,2-3.78,3.26q-1.31,1.18-2.6,2.38-1.51,1.4-3,2.84c-1.13,1.1-2.12,2.1-3,3.06-1.11,1.16-2,2.15-2.79,3.11-.28.34-.55.68-.82,1a66.47,66.47,0,0,0-9.62,17.14,59.17,59.17,0,0,0-3.63,15.84c-1.28,15,1.49,31.51,8.48,50.31a258.69,258.69,0,0,0,18.08,37.86A221.54,221.54,0,0,0,144,240.1l0,0a221.44,221.44,0,0,0,25.45,26.36,258.59,258.59,0,0,0,33.41,25.38c17,10.65,32.56,16.7,47.56,18.49a57.3,57.3,0,0,0,6.8.4,60.57,60.57,0,0,0,9.44-.75,66.45,66.45,0,0,0,18.73-6l1.17-.6c1.1-.58,2.24-1.25,3.61-2.11,1.12-.7,2.3-1.47,3.61-2.36q1.71-1.16,3.39-2.35,1.44-1,2.85-2.06c1.53-1.13,2.79-2.09,4-3L318.5,279.8A29,29,0,0,0,322.67,239Zm-9.58,19.62a12.89,12.89,0,0,1-4.69,8.75L294,279.14c-1,.78-2,1.6-3.34,2.57q-1.31,1-2.64,1.91-1.53,1.09-3.08,2.14c-1.15.77-2.17,1.44-3.12,2s-1.9,1.15-2.67,1.56l-.66.34a50.48,50.48,0,0,1-14.22,4.53,43.19,43.19,0,0,1-11.85.26c-12.6-1.51-26-6.79-41-16.16a243.16,243.16,0,0,1-31.36-23.85A205.38,205.38,0,0,1,156.47,230l-6.2,5.06,6.18-5.08a205.49,205.49,0,0,1-19.16-28.07,243.29,243.29,0,0,1-17-35.54c-6.15-16.55-8.61-30.74-7.53-43.39a43.19,43.19,0,0,1,2.66-11.55,50.48,50.48,0,0,1,7.32-13l.46-.57c.56-.67,1.22-1.4,2.07-2.3s1.64-1.68,2.62-2.64,1.8-1.73,2.72-2.59,1.6-1.47,2.4-2.2c1.22-1.1,2.23-2,3.19-2.75l14.42-11.74a13,13,0,0,1,18.27,1.87l24.26,29.79a13,13,0,0,1-1.87,18.27c-2.46,2-5,3.92-7.62,5.94-4.57,3.49-9.29,7.09-13.73,11.18-5.6,5.16-16,14.75-14.86,28.19a52.56,52.56,0,0,0,7.46,21.95,221.57,221.57,0,0,0,15.35,21.56l.13.16a187.47,187.47,0,0,0,18,19.44,52.55,52.55,0,0,0,20,11.75c12.92,3.85,24.43-4.41,30.61-8.84,4.9-3.52,9.39-7.41,13.72-11.18,2.52-2.19,4.9-4.25,7.36-6.26A13,13,0,0,1,286,219.34l24.26,29.79A12.89,12.89,0,0,1,313.09,258.65Z"/></svg>