<svg id="Layer_1" data-name="Layer 1" xmlns="http://www.w3.org/2000/svg" viewBox="0 0 400 400"><title>Artboard 66 copy 43</title><path d="M273.38,210.62c0-.13,0-.26,0-.39s0-.25,0-.37,0-.26-.07-.39-.05-.24-.08-.36-.07-.26-.1-.39-.08-.24-.12-.36-.09-.25-.14-.37l-.16-.36-.17-.35-.2-.35-.2-.33-.24-.34-.23-.3-.28-.32-.15-.17-.13-.12-.12-.13-121.31-116-.21-.18-.32-.28-.31-.23-.32-.22-.35-.21-.32-.18-.37-.18-.34-.15-.38-.14-.37-.12-.38-.1-.38-.08-.41-.06-.36,0-.45,0H144l-.46,0-.34,0-.4.06-.38.06-.34.09-.41.11-.34.12-.39.15-.37.18-.32.16-.37.23-.29.18-.32.24-.3.23-.27.25-.31.3-.07.06-.18.21-.28.32-.23.31-.22.32-.21.35-.18.32c-.06.12-.12.25-.18.37l-.15.34c-.05.13-.1.25-.14.38s-.08.24-.12.36-.07.26-.1.39-.06.24-.08.37,0,.28-.06.42,0,.23,0,.35,0,.31,0,.47,0,.16,0,.24V327c0,.08,0,.16,0,.24s0,.31,0,.47,0,.23,0,.35,0,.28.06.42.05.24.08.37.06.26.1.39.08.24.12.36.09.26.14.38l.15.34c.06.13.12.25.18.37l.18.32.21.35.22.32.23.31.28.32.18.21.07.06.34.32.25.23.35.27.29.21.37.23.54.3.47.23.24.09.5.18.24.06.53.13.31,0,.47.07c.25,0,.51,0,.76,0h0c.26,0,.52,0,.78,0l.31,0,.46-.07.35-.08.4-.1.35-.12.38-.14.33-.15.37-.18.31-.17.36-.22.3-.21.32-.24.3-.26.22-.19,121.31-116,.13-.13.13-.12.15-.17.28-.32.23-.3.24-.34.2-.33.2-.35.17-.35.16-.36c0-.12.1-.25.14-.37s.08-.24.12-.36.07-.26.1-.39.06-.24.08-.36,0-.26.07-.39,0-.25,0-.37,0-.26,0-.39,0-.25,0-.38S273.39,210.75,273.38,210.62Z"/></svg>