<svg id="Layer_1" data-name="Layer 1" xmlns="http://www.w3.org/2000/svg" viewBox="0 0 400 400"><title>Artboard 188 copy 5</title><path d="M318.08,78.06c0-.06,0-.11,0-.17s0-.11,0-.17v0c0-.12,0-.24,0-.36s0-.14,0-.21,0-.16,0-.24,0-.2,0-.3,0-.16,0-.24,0-.16,0-.25,0-.19,0-.28,0-.17,0-.25,0-.15-.06-.23l-.08-.3c0-.08,0-.16-.06-.23l-.07-.19c0-.12-.08-.24-.13-.35h0l-.07-.19-.07-.15c-.06-.13-.12-.26-.19-.39l-.09-.18v0l-.06-.1-.23-.38-.11-.17-.1-.13-.24-.32L316.3,72l-.14-.16-.22-.24-.17-.18-.18-.17-.2-.18-.2-.18-.22-.17-.09-.08-.1-.07-.22-.16-.23-.14-.23-.14-.22-.12-.22-.11-.29-.14-.19-.08-.21-.08-.37-.13-.16-.05-.2-.05-.43-.11-.12,0h0l-.2,0-.42-.06-.17,0h-.21l-.37,0h-.44l-.31,0h-.23l-.25,0-.28,0-.24,0-.23.06-.3.08-.22.06-.2.07-.33.12-.19.07h0l-.17.08-.36.17-.21.1h0L86.32,189.6l-.23.14-.35.22-.32.23-.31.23-.31.27-.27.25-.28.3-.25.28-.25.31-.22.31-.21.34-.19.33c-.07.12-.13.25-.19.37l-.15.33c-.06.14-.11.28-.16.43s-.06.15-.08.22l0,.09c0,.15-.08.3-.12.45s-.06.22-.08.32,0,.28-.07.42,0,.24-.05.36,0,.26,0,.39,0,.26,0,.38,0,.27,0,.41,0,.24,0,.37,0,.29.06.44,0,.22,0,.32.07.29.1.44,0,.21.08.32.09.27.14.4.08.23.12.34.1.23.16.35.12.25.18.38l0,.1.09.13q.2.35.43.67l.15.21a8,8,0,0,0,.62.73l.15.15q.27.27.57.51l.22.17a7.87,7.87,0,0,0,.67.45l.13.08A7.93,7.93,0,0,0,87,204l.23.09.44.17,104,33.74,63.09,89.32.11.14c.13.18.27.35.41.52l.2.22c.15.16.31.31.47.46l.18.17a8,8,0,0,0,.7.53l.15.09c.2.13.4.25.62.36l.26.13.54.24.31.11.53.16.34.08.16,0,.42.06.28,0a7.3,7.3,0,0,0,2,0l.16,0a7.94,7.94,0,0,0,1-.24l.19-.06a8,8,0,0,0,1-.39l.16-.08a8.07,8.07,0,0,0,1-.57l0,0,.14-.11.41-.32.21-.19.34-.33.2-.21.31-.36.17-.21c.11-.15.22-.31.33-.47l.09-.13q.2-.32.37-.66h0c.11-.22.21-.45.29-.68l.07-.19c.06-.17.12-.33.16-.51s0-.18.07-.27.06-.22.08-.34L318,78.69v0c0-.07,0-.14,0-.21S318.06,78.2,318.08,78.06Zm-61,224.79-50.55-71.56,88.74-120.5ZM193.67,221.8l-83.34-27L282.41,101.3Z"/></svg>