<svg id="Layer_1" data-name="Layer 1" xmlns="http://www.w3.org/2000/svg" viewBox="0 0 400 400"><title>Artboard 104 copy 15</title><path d="M334.5,293.61s0,0,0-.07,0-.11,0-.16c-.16-49.1-29.07-94-73-115.11a66.87,66.87,0,1,0-110.27.18c-43.75,21.15-72.51,66-72.67,114.92,0,.05,0,.11,0,.16s0,0,0,.07,0,.12,0,.18h0a8,8,0,0,0,8,7.75h240a8,8,0,0,0,8-7.75h0C334.5,293.73,334.5,293.67,334.5,293.61ZM206.25,89.71a50.87,50.87,0,1,1-50.87,50.87A50.93,50.93,0,0,1,206.25,89.71ZM162.33,190.93a66.67,66.67,0,0,0,88-.15,112.91,112.91,0,0,1,67.84,94.75H94.82A113,113,0,0,1,162.33,190.93Z"/></svg>