<svg id="Layer_1" data-name="Layer 1" xmlns="http://www.w3.org/2000/svg" viewBox="0 0 400 400"><title>Artboard 66 copy 6</title><path d="M325.26,150.22c.07-1.38.11-2.77.11-4.15A84,84,0,0,0,179.2,89.56a66.83,66.83,0,0,0-80.26,58.65A61.05,61.05,0,0,0,111.56,269h13.1l-48.6,50.34a8,8,0,1,0,11.51,11.11L146.9,269h28.34L137,308.3a8,8,0,0,0,11.47,11.15L197.56,269h24.89l-53.14,55.5a8,8,0,1,0,11.56,11.06L244.6,269h26.85l-38.21,39.3a8,8,0,0,0,11.47,11.15L293.77,269h11.68a61,61,0,0,0,19.82-118.78ZM305.44,253H111.56A45.06,45.06,0,0,1,107,163.12a8.74,8.74,0,0,0,7.65-8.24,50.76,50.76,0,0,1,100.08-12,8,8,0,0,0,15.55-3.77,66.49,66.49,0,0,0-34.32-43.63,68,68,0,0,1,113.46,50.58,69,69,0,0,1-.59,9,8,8,0,0,0,6.7,8.95,45.05,45.05,0,0,1-10,89Z"/></svg>