<svg id="Layer_1" data-name="Layer 1" xmlns="http://www.w3.org/2000/svg" viewBox="0 0 400 400"><defs><style>.cls-1{fill:#fff;}</style></defs><title>Artboard 152 copy 7</title><path class="cls-1" d="M325.6,106.89V255.31a3.77,3.77,0,0,1-3.88,3.66l-202.4-.47a3.77,3.77,0,0,1-3.86-3.66V106.89"/><path d="M321.74,267h0l-202.4-.47a11.78,11.78,0,0,1-11.84-11.66V106.89h16V250.5L317.6,251V106.89h16V255.31a11.48,11.48,0,0,1-3.41,8.18A11.89,11.89,0,0,1,321.74,267Z"/><path d="M320.23,114.13H117.73a20.53,20.53,0,1,1,0-41.06h202.5a20.53,20.53,0,1,1,0,41.06ZM117.73,89.07a4.53,4.53,0,1,0,0,9.06h202.5a4.53,4.53,0,1,0,0-9.06Z"/><rect x="116.11" y="220.05" width="210.15" height="16"/><rect x="116.11" y="189.14" width="210.15" height="16"/><rect x="116.11" y="158.22" width="210.15" height="16"/><rect x="116.11" y="127.3" width="210.15" height="16"/><path d="M303.44,261v56.07a4.05,4.05,0,0,1-4,4H228.6V259h-16v62.1H141.78a4.05,4.05,0,0,1-4-4V256h-16v61.07a20,20,0,0,0,20,20H299.44a20,20,0,0,0,20-20V261Z"/><path d="M100,101.6v-16H79.87a8,8,0,0,0-8,8v93.93a19.6,19.6,0,0,0-11.82,18v18.63a19.58,19.58,0,1,0,39.16,0V205.5a19.59,19.59,0,0,0-11.34-17.73V101.6ZM83.21,224.12a3.58,3.58,0,1,1-7.16,0V205.5a3.58,3.58,0,1,1,7.16,0Z"/></svg>