<svg id="Layer_1" data-name="Layer 1" xmlns="http://www.w3.org/2000/svg" viewBox="0 0 400 400"><title>Artboard 66 copy 48</title><path d="M290.58,304l.22-.32.21-.35.18-.32c.06-.12.12-.25.18-.37l.15-.34c.05-.13.1-.25.14-.38s.08-.24.12-.36.07-.26.1-.39.06-.24.08-.37,0-.28.06-.42,0-.23,0-.35,0-.31,0-.47,0-.16,0-.24V78c0-.08,0-.16,0-.24s0-.31,0-.47,0-.23,0-.35,0-.28-.06-.42-.05-.24-.08-.37-.06-.26-.1-.39-.08-.24-.12-.36-.09-.26-.14-.38l-.15-.34c-.06-.13-.12-.25-.18-.37L291,74l-.21-.35-.22-.32-.23-.31-.28-.32-.18-.21-.07-.06-.31-.3-.27-.25-.3-.23-.33-.24-.29-.18-.38-.23-.31-.15-.38-.19-.37-.14-.35-.13-.4-.11-.35-.09-.38-.06L285,70l-.35,0-.45,0h-.35l-.44,0-.37,0-.4.06-.39.08-.37.1-.38.12-.36.13-.36.16-.36.17-.34.19-.34.21-.33.23-.31.23-.33.28-.21.18L167,178.9V77.81a10.46,10.46,0,1,0-20.92,0V298.89a10.46,10.46,0,1,0,20.92,0V198.39l111.6,106.72.22.19.3.26.32.24.3.21.36.22.3.17.38.18.32.15.38.14.34.12.4.1.35.08.46.07.31,0c.26,0,.52,0,.78,0h0c.26,0,.51,0,.76,0l.47-.07.31,0,.53-.13.24-.06.52-.19.22-.08c.18-.07.35-.16.52-.25l.46-.26.4-.24.28-.21.36-.28.25-.23.35-.33.07-.06.18-.21.28-.32ZM276.1,96.69V280.61l-96.17-92Z"/></svg>