<svg id="Layer_1" data-name="Layer 1" xmlns="http://www.w3.org/2000/svg" viewBox="0 0 400 400"><title>Artboard 66 copy 47</title><path d="M256.64,299.39c7.85,0,15.36-6.9,15-15s-6.59-15-15-15c-7.85,0-15.36,6.9-15,15s6.59,15,15,15Z"/><path d="M261.12,306.11c7.85,0,15.36-6.9,15-15s-6.59-15-15-15c-7.85,0-15.36,6.9-15,15s6.59,15,15,15Z"/><path d="M280.61,93.36c0-.16,0-.31,0-.47s0-.23,0-.35,0-.28-.06-.42-.05-.24-.08-.37-.06-.26-.1-.39-.08-.24-.12-.36-.09-.26-.14-.38l-.15-.34c-.06-.13-.12-.25-.18-.37l-.18-.32-.21-.35-.22-.32-.23-.31-.28-.32-.18-.21-.07-.06-.31-.3-.27-.25-.3-.23-.33-.24-.29-.18-.37-.23-.32-.16-.38-.18-.39-.14L275,86l-.42-.11-.34-.09-.4-.07-.38-.06-.36,0-.44,0h-.36l-.43,0-.38,0-.39.06-.39.09-.36.09-.38.13-.36.13-.36.16-.35.17-.34.19-.33.2-.33.23-.3.23-.33.28-.21.18L152.72,197.18V100a15.64,15.64,0,0,0-31.28,0V310.71a15.64,15.64,0,1,0,31.28,0V211.38L267.09,320.74l.22.19.3.26.32.24.3.21.36.22.3.17.38.18.32.15.38.14.34.12.4.1.35.08.46.07.31,0c.26,0,.52,0,.78,0h0c.26,0,.51,0,.76,0l.47-.07.31,0,.53-.13.24-.06.52-.19.22-.08c.18-.07.35-.16.52-.25l.46-.26.4-.24.28-.21.36-.28.25-.23.35-.33.07-.06.18-.21.28-.32.23-.31.22-.32.21-.35.18-.32c.06-.12.12-.25.18-.37l.15-.34c.05-.13.1-.25.14-.38s.08-.24.12-.36.07-.26.1-.39.06-.24.08-.37,0-.28.06-.42,0-.23,0-.35,0-.31,0-.47,0-.16,0-.24V93.6C280.62,93.52,280.61,93.44,280.61,93.36Z"/><path d="M260.67,135c7.85,0,15.36-6.9,15-15s-6.59-15-15-15c-7.85,0-15.36,6.9-15,15s6.59,15,15,15Z"/><path d="M262,130.53c7.85,0,15.36-6.9,15-15s-6.59-15-15-15c-7.85,0-15.36,6.9-15,15s6.59,15,15,15Z"/></svg>