<svg id="Layer_1" data-name="Layer 1" xmlns="http://www.w3.org/2000/svg" viewBox="0 0 400 400"><title>Artboard 152</title><path d="M197,94.52A105.48,105.48,0,1,0,302.48,200,105.6,105.6,0,0,0,197,94.52Zm0,195A89.48,89.48,0,1,1,286.48,200,89.58,89.58,0,0,1,197,289.48Z"/><path d="M197,72.57a8,8,0,0,0,8-8V30a8,8,0,0,0-16,0V64.57A8,8,0,0,0,197,72.57Z"/><path d="M260.72,89.64a8,8,0,0,0,10.93-2.93l17.28-29.94a8,8,0,0,0-13.86-8L257.79,78.71A8,8,0,0,0,260.72,89.64Z"/><path d="M314.29,140.29a8,8,0,0,0,4-1.07l29.94-17.28a8,8,0,1,0-8-13.86l-29.94,17.28a8,8,0,0,0,4,14.93Z"/><path d="M367,192H332.43a8,8,0,0,0,0,16H367a8,8,0,0,0,0-16Z"/><path d="M348.22,278.07l-29.94-17.28a8,8,0,1,0-8,13.86l29.94,17.28a8,8,0,1,0,8-13.86Z"/><path d="M271.64,313.29a8,8,0,1,0-13.86,8l17.28,29.94a8,8,0,0,0,13.86-8Z"/><path d="M197,327.43a8,8,0,0,0-8,8V370a8,8,0,0,0,16,0V335.43A8,8,0,0,0,197,327.43Z"/><path d="M133.28,310.36a8,8,0,0,0-10.93,2.93l-17.28,29.94a8,8,0,1,0,13.86,8l17.28-29.94A8,8,0,0,0,133.28,310.36Z"/><path d="M75.71,260.79,45.78,278.07a8,8,0,1,0,8,13.86l29.94-17.28a8,8,0,1,0-8-13.86Z"/><path d="M69.57,200a8,8,0,0,0-8-8H27a8,8,0,0,0,0,16H61.57A8,8,0,0,0,69.57,200Z"/><path d="M83.71,125.36,53.78,108.07a8,8,0,1,0-8,13.86l29.94,17.28a8,8,0,1,0,8-13.86Z"/><path d="M122.36,86.71a8,8,0,1,0,13.86-8L118.93,48.78a8,8,0,0,0-13.86,8Z"/><path d="M187.12,131.32a75.52,75.52,0,0,0-57.91,52.36,8,8,0,1,0,15.31,4.64A59.56,59.56,0,0,1,190.19,147a8,8,0,1,0-3.07-15.7Z"/></svg>