<svg id="Layer_1" data-name="Layer 1" xmlns="http://www.w3.org/2000/svg" viewBox="0 0 400 400"><title>Artboard 152 copy 2</title><path d="M202.5,4.5C94.7,4.5,7,92.2,7,200S94.7,395.5,202.5,395.5,398,307.8,398,200,310.3,4.5,202.5,4.5Zm0,375C103.52,379.5,23,299,23,200S103.52,20.5,202.5,20.5,382,101,382,200,301.48,379.5,202.5,379.5Z"/><path d="M315.49,192H295.94l15.62-15.62a8,8,0,1,0-11.31-11.31L273.31,192h-52l37.6-37.6h36.66a8,8,0,0,0,0-16H274.92l13-13A8,8,0,0,0,276.6,114.1l-13.38,13.38V106a8,8,0,0,0-16,0v37.45L210,180.69V127.38l26-26A8,8,0,0,0,224.71,90L210,104.75V86.51a8,8,0,1,0-16,0v18.61L178.93,90a8,8,0,1,0-11.31,11.31L194,127.75v52.94l-37.38-37.38V106.25a8,8,0,0,0-16,0v21.06L127.42,114.1a8,8,0,1,0-11.31,11.31l13.21,13.21H108.26a8,8,0,0,0,0,16h37.06L182.69,192H130.23l-26.13-26.13a8,8,0,0,0-11.31,11.31L107.6,192H88.52a8,8,0,0,0,0,16h19.22l-15,15a8,8,0,0,0,11.31,11.31L130.37,208h52.33l-36.43,36.43H108.91a8,8,0,1,0,0,16h21.35L116.1,274.59a8,8,0,0,0,11.31,11.31L141.28,272V292.8a8,8,0,0,0,16,0V256L194,219.31v51.52l-26.41,26.41a8,8,0,0,0,11.31,11.31l15.1-15.1v20a8,8,0,0,0,16,0V293.88l14.68,14.68A8,8,0,1,0,236,297.24l-26-26V219.31l36.84,36.84v36.58a8,8,0,0,0,16,0V272.15L276.6,285.9a8,8,0,1,0,11.31-11.31l-14.22-14.22h21.53a8,8,0,0,0,0-16H257.69L221.32,208h53.44l25.48,25.48a8,8,0,0,0,11.31-11.31L297.39,208h18.1a8,8,0,1,0,0-16Z"/></svg>