<svg id="Layer_1" data-name="Layer 1" xmlns="http://www.w3.org/2000/svg" viewBox="0 0 400 400"><title>Artboard 66 copy 45</title><path d="M262,79.35A15.66,15.66,0,0,0,246.33,95v99.32L132,85l-.21-.18-.32-.28-.31-.23-.32-.22-.35-.21-.33-.18-.36-.18-.35-.15-.37-.14-.37-.12-.38-.1-.38-.08-.4-.06-.37,0-.45,0h-.35l-.45,0-.35,0-.39.06-.39.06-.34.09-.41.11-.34.12-.39.15-.37.18-.32.16-.37.22-.3.18-.32.24-.31.24-.27.25-.31.3-.07.06-.18.21-.28.32L120,86l-.22.32-.21.35-.18.32c-.06.12-.12.25-.18.37l-.15.34c-.05.13-.1.25-.14.38s-.08.24-.12.36-.07.26-.1.39-.06.24-.08.37,0,.28-.06.42,0,.23,0,.35,0,.31,0,.47,0,.16,0,.24V312.09c0,.08,0,.16,0,.24s0,.31,0,.47,0,.23,0,.35,0,.28.06.42.05.24.08.37.06.26.1.39.08.24.12.36.09.26.14.38l.15.34c.06.13.12.25.18.37l.18.32.21.35.22.32.23.31.28.32.18.21.07.06.34.32.25.23.35.27.29.21.37.23.54.3.47.23.24.09.5.18.24.06.53.13.31,0,.47.07c.25,0,.51,0,.76,0h0c.26,0,.52,0,.78,0l.31,0,.46-.07.35-.08.4-.1.34-.12.38-.14.32-.15.38-.18.3-.17.36-.22.3-.21.32-.24.3-.26.22-.19L246.33,208.51v97.19a15.64,15.64,0,1,0,31.28,0V95A15.66,15.66,0,0,0,262,79.35Zm-127.54,214v-3.81A15.58,15.58,0,0,0,137,290.9Z"/><path d="M138.39,300.68c7.85,0,15.36-6.9,15-15s-6.59-15-15-15c-7.85,0-15.36,6.9-15,15s6.59,15,15,15Z"/></svg>