<svg id="Layer_1" data-name="Layer 1" xmlns="http://www.w3.org/2000/svg" viewBox="0 0 400 400"><title>Artboard 66 copy 49</title><path d="M316.37,301.47l.24-.34.2-.33.2-.35.17-.35.16-.36c0-.12.1-.25.14-.37s.08-.24.12-.36.07-.26.1-.39.06-.24.08-.36,0-.26.07-.39,0-.25,0-.37,0-.26,0-.39,0-.25,0-.38,0-.25,0-.38,0-.26,0-.39,0-.25,0-.37,0-.26-.07-.39-.05-.24-.08-.36-.07-.26-.1-.39-.08-.24-.12-.36-.09-.25-.14-.37l-.16-.36L317,293l-.2-.35-.2-.33-.24-.34-.23-.3-.28-.32-.15-.17-.13-.12-.12-.13L282.88,259.8l-.2-.17-.33-.29-.3-.23-.33-.23-.34-.2-.34-.19-.35-.17-.36-.16L280,258l-.38-.12-.37-.09-.39-.09-.4-.06-.37,0-.44,0h-.35l-.45,0-.35,0-.4.06-.38.06-.35.09-.4.11-.35.13-.37.14-.39.19-.3.15-.39.23-.28.17-.33.25-.29.23-.28.25-.31.29-.07.06-.18.21-.28.32-.23.31-.22.32-.21.35-.18.32c-.06.12-.12.25-.18.37l-.15.34c-.05.13-.1.25-.14.38s-.08.24-.12.36-.07.26-.1.39-.06.24-.08.37,0,.28-.06.42,0,.23,0,.35,0,.31,0,.47,0,.16,0,.24v23.8c-43.7-.17-79.2-33.87-79.2-75.29s35.31-74.93,78.85-75.28v22.24c0,.08,0,.16,0,.24s0,.31,0,.47,0,.24,0,.35,0,.28.06.42.05.25.08.37.06.26.1.39.08.24.12.36.09.25.14.38l.15.34.18.37.18.32.21.35.23.32.23.31.28.33.18.2.06.06.35.33.24.22.36.28.27.21.39.24.49.27.5.24.24.09.51.18.24.06.53.13.31,0,.47.07c.25,0,.51,0,.76,0h0c.26,0,.52,0,.78,0l.31,0,.46-.07.35-.08.4-.1.34-.12.38-.14.32-.15.38-.18.3-.17.36-.22.3-.21.32-.24.3-.26.22-.19,32.58-31.15.13-.13.13-.12.15-.17.28-.32.23-.3.24-.34.2-.32.2-.35.17-.35.16-.36.14-.37c0-.12.08-.24.12-.36s.07-.26.1-.38.06-.24.08-.36,0-.26.06-.39,0-.25,0-.37,0-.26,0-.39,0-.25,0-.38,0-.25,0-.38,0-.26,0-.39,0-.25,0-.37,0-.26-.06-.39-.05-.24-.08-.36-.06-.26-.1-.38-.08-.24-.12-.36l-.14-.37-.16-.36-.17-.35-.2-.35-.2-.32-.24-.34-.23-.3-.28-.32-.15-.17-.13-.12-.12-.13L282.53,93l-.21-.18-.32-.28-.31-.23-.32-.23-.34-.21-.33-.19-.36-.17-.35-.15-.37-.14-.37-.12-.38-.1-.38-.08-.41-.06-.36,0-.45,0h-.34l-.46,0-.34,0-.41.06-.37.06L275,91l-.39.1-.37.13-.36.13-.4.19-.3.15-.38.23-.28.17-.33.25-.3.23-.27.24-.32.3-.06.06-.18.2-.28.33-.23.31-.23.32-.21.35-.18.32-.18.37-.15.34c-.05.13-.1.25-.14.38s-.08.24-.12.36-.07.26-.1.39-.06.24-.08.37,0,.28-.06.42,0,.23,0,.35,0,.31,0,.47,0,.16,0,.24v24.06c-40.4.27-74.91,24.63-88.58,58.77-12.79-36-48.53-62-90.5-62a8,8,0,1,0,0,16c43.85,0,79.53,33.78,79.53,75.29s-35.68,75.29-79.53,75.29a8,8,0,0,0,0,16c40.69,0,75.52-24.45,89.26-58.77,12.76,35.93,48.34,61.88,90.16,62v22.5c0,.08,0,.16,0,.24s0,.31,0,.47,0,.23,0,.35,0,.28.06.42.05.24.08.37.06.26.1.39.08.24.12.36.09.25.14.38l.15.34c.06.13.12.25.18.37l.18.32.21.35.22.32.23.31.28.32.18.21.07.06.35.33.25.23.36.28.28.21.4.24.46.26c.17.09.34.17.52.25l.22.08.52.19.24.06.53.13.31,0,.47.07c.25,0,.51,0,.76,0h0c.26,0,.52,0,.78,0l.31,0,.46-.07.35-.08.4-.1.35-.12.38-.14.33-.15.38-.18.31-.17.36-.22.3-.21.32-.24.3-.26.22-.19,32.58-31.15.13-.13.13-.12.15-.17.28-.32ZM285,117.48l13,12.43-13,12.43Zm.35,166.83,13,12.43-13,12.43Z"/></svg>