<svg id="Layer_1" data-name="Layer 1" xmlns="http://www.w3.org/2000/svg" viewBox="0 0 400 400"><title>Artboard 200</title><path d="M333.35,168.54a8,8,0,0,0-.13-1.21v0c0-.18-.08-.36-.13-.54s0-.15-.06-.23-.09-.27-.14-.4-.08-.23-.12-.34-.09-.18-.13-.28-.13-.29-.2-.44l-.07-.13a7.92,7.92,0,0,0-.5-.79c-.09-.13-.18-.26-.28-.38l-.15-.17c-.13-.15-.25-.29-.39-.43l0,0-.16-.15c-.13-.13-.26-.25-.41-.37l-.24-.18-.39-.29-.28-.18-.39-.23-.32-.16-.38-.18-.36-.14-.37-.13-.41-.11L327,161l-.49-.08-.25,0-78.91-8.56-38.82-71-.12-.2c-.08-.14-.16-.28-.25-.41l-.19-.27-.27-.36-.23-.26-.29-.31-.27-.25-.31-.27-.3-.23-.32-.23-.35-.22-.32-.19-.39-.19-.24-.12-.09,0-.39-.15-.37-.13-.33-.09-.44-.11-.26,0-.51-.07H202l-.5,0-.36,0-.4,0-.46.07-.3,0-.47.11-.28.07-.41.14-.34.13-.33.15-.4.2-.08,0-.2.13-.4.24-.28.2-.35.26-.28.24-.3.28-.27.28-.26.29-.25.33-.21.3-.23.38-.17.29c-.08.14-.15.29-.21.43l-.1.2-31.21,72.75-78.42,8.51-.24,0-.5.08-.32.08-.44.12-.34.12-.39.15-.35.16-.35.17-.36.21-.31.19-.37.27-.26.2c-.14.11-.26.23-.39.35l-.17.15,0,0c-.13.13-.25.27-.37.41l-.17.19c-.09.12-.18.24-.26.36a7.93,7.93,0,0,0-.82,1.42l-.1.22c0,.1-.07.21-.11.31s-.11.29-.15.43l0,.07a8,8,0,0,0-.3,1.88c0,.12,0,.23,0,.35s0,.2,0,.31,0,.33,0,.5,0,0,0,0,0,.21,0,.31,0,.27.06.4.06.26.1.39.05.23.09.34.11.32.17.47.05.16.09.24q.14.35.32.69l0,.06c.11.2.23.4.35.59l.14.19c.1.15.21.29.32.43l.18.21.34.38.08.08,56.75,56.81-7.68,79.83c0,.08,0,.15,0,.23s0,.35,0,.53,0,.22,0,.32,0,.31,0,.46,0,.24,0,.36,0,.27.06.41.06.25.09.38.06.25.1.38.09.26.13.39.08.23.13.34.12.28.19.41l.14.3c.08.15.17.29.26.44l.12.21,0,0a8,8,0,0,0,.55.73l.19.21c.14.16.29.31.44.45l.25.23c.16.14.32.27.49.39l.22.16a8,8,0,0,0,.76.46l.14.07q.33.17.69.31l.25.09.61.19.29.07.6.11.31,0,.11,0c.24,0,.49,0,.73,0h.06a8,8,0,0,0,1-.07l.25,0a8,8,0,0,0,1-.21l.06,0a8,8,0,0,0,.93-.35l.19-.08a8,8,0,0,0,.91-.51l.06,0,65.68-43.14,67.91,39.75h0l.08,0c.19.11.39.21.59.31l.25.11.45.18.3.1.42.12.32.07.41.07.33,0,.41,0,.35,0h.26a8,8,0,0,0,1-.07H280l.49-.1.3-.06.27-.08a8,8,0,0,0,1.74-.75l.13-.07.37-.25.28-.19.21-.18a7.93,7.93,0,0,0,1.18-1.18l.24-.3.15-.23c.1-.15.2-.29.29-.44l0,0,.11-.21c.08-.15.17-.3.24-.46s.08-.2.13-.3.12-.28.17-.43.07-.23.11-.34.08-.27.12-.41.05-.25.08-.37.05-.26.07-.39,0-.27,0-.4,0-.25,0-.38,0-.29,0-.44,0-.23,0-.35,0-.33,0-.49,0-.17,0-.25l-11.83-79.14L331,174.49l.08-.09.34-.37.18-.21c.11-.13.21-.27.3-.41l.15-.21c.11-.16.2-.33.3-.5l.09-.15q.18-.33.32-.69l.06-.17c.07-.18.13-.36.19-.54s.06-.22.08-.33.07-.27.1-.4,0-.27.06-.4,0-.21.05-.32,0,0,0,0c0-.18,0-.35,0-.53s0-.18,0-.27S333.36,168.64,333.35,168.54Zm-71.8,52.53a10.37,10.37,0,0,0-2.93,8.84l9.78,65.45-56.56-33.11a10.25,10.25,0,0,0-10.87.28L146.3,298.45l6.34-65.91a10.24,10.24,0,0,0-3-8.23l-46.87-46.92,65.12-7.07a10.34,10.34,0,0,0,8.37-6.19l26-60.69,32.35,59.14a10.33,10.33,0,0,0,7.95,5.32l65.2,7.07Z"/></svg>