<svg id="Layer_1" data-name="Layer 1" xmlns="http://www.w3.org/2000/svg" viewBox="0 0 400 400"><title>Artboard 66 copy 46</title><path d="M251.64,87.35a10.47,10.47,0,0,0-10.46,10.46V198.3L129.59,91.59l-.21-.18-.32-.28-.31-.23-.33-.23-.34-.21-.33-.19-.36-.17-.36-.16-.36-.13-.38-.12-.37-.1-.39-.08-.4-.06-.37,0-.44,0H124l-.45,0-.35,0-.4.06-.38.06-.36.09-.4.11-.36.13-.36.14-.4.19-.3.15-.39.23-.28.17-.33.25-.29.23-.28.25-.31.29-.07.06-.18.21-.28.32-.23.31-.22.32-.21.35-.18.32c-.06.12-.12.25-.18.37l-.15.34c-.05.13-.1.25-.14.38s-.08.24-.12.36-.07.26-.1.39-.06.24-.08.37,0,.28-.06.42,0,.23,0,.35,0,.31,0,.47,0,.16,0,.24V318.73c0,.08,0,.16,0,.24s0,.31,0,.47,0,.23,0,.35,0,.28.06.42.05.24.08.37.06.26.1.39.08.24.12.36.09.26.14.38l.15.34c.06.13.12.25.18.37l.18.32.21.35.22.32.23.31.28.32.18.21.07.06.34.33.25.23.35.27.29.21.37.23.54.3.47.23.24.09.5.18.24.06.53.13.31,0,.47.07c.25,0,.51,0,.76,0h0c.26,0,.52,0,.78,0l.31,0,.46-.07.35-.08.4-.1.34-.12.38-.14.32-.15.38-.18.3-.17.36-.22.3-.21.32-.24.3-.26.22-.19,111.6-106.72v101.1a10.46,10.46,0,1,0,20.92,0V97.81A10.47,10.47,0,0,0,251.64,87.35ZM132.06,300V116.09l96.17,92Z"/></svg>