<svg id="Layer_1" data-name="Layer 1" xmlns="http://www.w3.org/2000/svg" viewBox="0 0 400 400"><title>Artboard 188 copy 6</title><path d="M308.88,110.2H247.22V88.61a11.71,11.71,0,0,0-11.7-11.7H168.33a11.71,11.71,0,0,0-11.7,11.7V110.2H93.12a8,8,0,0,0,0,16h10.62V277.46a45.5,45.5,0,0,0,45.45,45.45H252.81a45.5,45.5,0,0,0,45.45-45.45V126.2h10.62a8,8,0,0,0,0-16ZM172.63,92.91h58.59V110.2H172.63ZM282.26,277.46a29.48,29.48,0,0,1-29.45,29.45H149.19a29.48,29.48,0,0,1-29.45-29.45V126.2H282.26Z"/><path d="M201.28,279.59a8,8,0,0,0,8-8V159.71a8,8,0,1,0-16,0V271.59A8,8,0,0,0,201.28,279.59Z"/><path d="M164,265.1a8,8,0,0,0,8-8V174.5a8,8,0,0,0-16,0v82.6A8,8,0,0,0,164,265.1Z"/><path d="M237.65,265.1a8,8,0,0,0,8-8V174.5a8,8,0,0,0-16,0v82.6A8,8,0,0,0,237.65,265.1Z"/></svg>