<svg id="Layer_1" data-name="Layer 1" xmlns="http://www.w3.org/2000/svg" viewBox="0 0 400 400"><title>Artboard 66 copy 22</title><path d="M298.58,73.37H111.42A13.4,13.4,0,0,0,98,86.76V148.7a13.4,13.4,0,0,0,13.39,13.39h34.11a13.4,13.4,0,0,0,13.39-13.39V134.25h15.87V252.9H156.53a13.4,13.4,0,0,0-13.39,13.39V300.4a13.4,13.4,0,0,0,13.39,13.39h96.95a13.4,13.4,0,0,0,13.39-13.39V266.29a13.4,13.4,0,0,0-13.39-13.39H235.67V134.25h15.42V148.7a13.4,13.4,0,0,0,13.39,13.39h34.11A13.4,13.4,0,0,0,312,148.7V86.76A13.4,13.4,0,0,0,298.58,73.37ZM296,146.08H267.08V118.25H219.67V268.9h31.19v28.88H159.14V268.9h31.64V118.25H142.92v27.83H114V89.37H296Z"/><path d="M304,321.37H106a8,8,0,0,0,0,16H304a8,8,0,0,0,0-16Z"/></svg>