<svg id="Layer_1" data-name="Layer 1" xmlns="http://www.w3.org/2000/svg" viewBox="0 0 400 400"><title>Artboard 181</title><path d="M318,70H94A20,20,0,0,0,74,90V314a20,20,0,0,0,20,20H318a20,20,0,0,0,20-20V90A20,20,0,0,0,318,70ZM90,90a4.05,4.05,0,0,1,4-4H318a4.05,4.05,0,0,1,4,4v26.4H90ZM322,314a4.05,4.05,0,0,1-4,4H94a4.05,4.05,0,0,1-4-4V132.4H322Z"/><path d="M126.79,306H176a20,20,0,0,0,20-20V163.6a20,20,0,0,0-20-20H126.79a20,20,0,0,0-20,20V286A20,20,0,0,0,126.79,306Zm-4-142.4a4.05,4.05,0,0,1,4-4H176a4.05,4.05,0,0,1,4,4V286a4.05,4.05,0,0,1-4,4H126.79a4.05,4.05,0,0,1-4-4Z"/><path d="M236.79,306H286a20,20,0,0,0,20-20V163.6a20,20,0,0,0-20-20H236.79a20,20,0,0,0-20,20V286A20,20,0,0,0,236.79,306Zm-4-142.4a4.05,4.05,0,0,1,4-4H286a4.05,4.05,0,0,1,4,4V286a4.05,4.05,0,0,1-4,4H236.79a4.05,4.05,0,0,1-4-4Z"/><circle cx="110.23" cy="101.49" r="6.53"/><circle cx="134.38" cy="101.49" r="6.53"/><circle cx="158.53" cy="101.49" r="6.53"/></svg>