<svg id="Layer_1" data-name="Layer 1" xmlns="http://www.w3.org/2000/svg" viewBox="0 0 400 400"><title>Artboard 66 copy 50</title><path d="M214.81,90.86l-.33,0a8,8,0,0,0-5.29,1.63l-80,61.18-.28.24a19.89,19.89,0,0,0-7.78-1.58H66.82a20,20,0,0,0-20,20v54.31a20,20,0,0,0,20,20h54.31a19.86,19.86,0,0,0,8.27-1.81c.18.16.36.32.55.47l80,61.18a8,8,0,0,0,12.85-6.73c0-.08,0-.16,0-.24V98.86A8,8,0,0,0,214.81,90.86Zm-74.87,74.75,66.87-51.14V284l-66.7-51a19.89,19.89,0,0,0,1-6.28V172.34A19.87,19.87,0,0,0,139.94,165.61Zm-14.81,61.05a4.05,4.05,0,0,1-4,4H66.82a4.05,4.05,0,0,1-4-4V172.34a4.05,4.05,0,0,1,4-4h54.31a4.05,4.05,0,0,1,4,4Z"/><path d="M282.31,134.78a8,8,0,1,0-10,12.45,65.45,65.45,0,0,1-1.36,102.95,8,8,0,1,0,9.71,12.71,81.46,81.46,0,0,0,1.69-128.12Z"/><path d="M311,110.63a8,8,0,1,0-10,12.45c22.51,18.17,36.26,47.42,35.88,76.35s-14.9,57.81-37.88,75.37a8,8,0,1,0,9.71,12.71c26.8-20.48,43.72-54.15,44.17-87.88S337.23,131.81,311,110.63Z"/><path d="M256.52,158.43a8,8,0,1,0-10,12.45,35.08,35.08,0,0,1-.73,55.17,8,8,0,1,0,9.71,12.71,51.08,51.08,0,0,0,1.06-80.34Z"/></svg>