<svg id="Layer_1" data-name="Layer 1" xmlns="http://www.w3.org/2000/svg" viewBox="0 0 400 400"><title>Artboard 180</title><path d="M289.81,99.86a8,8,0,0,0-8-8l-.33,0a8,8,0,0,0-5.29,1.63l-80,61.18-.28.24a19.89,19.89,0,0,0-7.78-1.58H133.82a20,20,0,0,0-20,20v54.31a20,20,0,0,0,20,20h54.31a19.86,19.86,0,0,0,8.27-1.81c.18.16.36.32.55.47l80,61.18a8,8,0,0,0,12.85-6.73c0-.08,0-.16,0-.24Zm-82.87,66.75,66.87-51.14V285l-66.7-51a19.89,19.89,0,0,0,1-6.28V173.34A19.87,19.87,0,0,0,206.94,166.61Zm-14.81,61.05a4.05,4.05,0,0,1-4,4H133.82a4.05,4.05,0,0,1-4-4V173.34a4.05,4.05,0,0,1,4-4h54.31a4.05,4.05,0,0,1,4,4Z"/></svg>