<svg xmlns="http://www.w3.org/2000/svg" viewBox="0 0 315.11 396"><title>Asset 24100</title><g id="Layer_2" data-name="Layer 2"><g id="Layer_1-2" data-name="Layer 1"><path d="M314.55,332.27l-15.44-38.92V190.54h0c0-69-49.64-126.61-115.08-139V27.06a27.06,27.06,0,0,0-54.12,0V51.7C65.05,64.59,16,121.94,16,190.54h0V293.35L.57,332.27a8,8,0,0,0,7.43,11c.15,0,.29,0,.44,0s.4,0,.61,0H97a61.15,61.15,0,0,0,121.14,0h89a8,8,0,0,0,7.43-11ZM19.78,327.22l9.65-24.34H285.68l9.65,24.34ZM145.92,27.06a11.06,11.06,0,0,1,22.12,0V49.37Q162.85,49,157.56,49c-3.92,0-7.8.17-11.64.48ZM157.56,65A125.7,125.7,0,0,1,283.11,190.54h0v96.33H32V190.54h0A125.7,125.7,0,0,1,157.56,65Zm0,315a45.06,45.06,0,0,1-44.38-36.78h88.74A45.22,45.22,0,0,1,157.56,380Z"/></g></g></svg>