<svg xmlns="http://www.w3.org/2000/svg" viewBox="0 0 356.46 396"><title>Asset 18100</title><g id="Layer_2" data-name="Layer 2"><g id="Layer_1-2" data-name="Layer 1"><path d="M356.4,8.92c0-.05,0-.11,0-.16s0-.08,0-.12,0-.05,0-.08,0-.25,0-.38,0-.13,0-.2,0-.16,0-.23,0-.21,0-.32,0-.15,0-.23,0-.16,0-.24,0-.19,0-.29,0-.16,0-.24,0-.15-.05-.23l-.08-.31c0-.08,0-.15-.06-.23L356,5.46c0-.12-.08-.24-.13-.36l0-.08,0-.11-.07-.15-.18-.39-.09-.19h0l-.06-.1-.23-.38-.11-.18L355,3.4l-.24-.32-.14-.18-.13-.15-.22-.24-.17-.18-.17-.16-.2-.18-.21-.18-.21-.16-.1-.08-.1-.06-.24-.17-.22-.13-.23-.14L352.2.93l-.2-.1-.3-.14L351.49.6l-.18-.07L350.94.4l-.18-.06-.17,0-.43-.11-.13,0h0l-.18,0-.44-.06L349,0l-.37,0h-.45l-.3,0h-.22l-.26,0-.28,0-.24,0-.23.06-.3.08-.23.06-.19.07-.35.13-.2.07-.14.07-.39.19-.17.08h0L4.18,185.89,4,186l-.44.27-.26.18-.37.28-.26.22-.32.3-.24.26-.28.32-.22.28-.25.35-.19.3-.21.36-.17.34c-.06.12-.11.24-.17.36s-.1.26-.15.39-.07.16-.09.25l0,.1c0,.13-.07.27-.11.41s-.07.25-.09.37,0,.24-.06.37,0,.28-.06.41,0,.22,0,.33,0,.3,0,.45,0,.23,0,.34,0,.29,0,.43,0,.25.05.38,0,.26.06.39.06.26.09.39.06.25.09.37.08.24.12.36.09.26.14.38.1.21.15.32.12.27.19.4l0,.09.08.13a8,8,0,0,0,.44.69l.14.2a8,8,0,0,0,.62.73l.15.14q.27.27.57.51l.23.18a7.91,7.91,0,0,0,.66.44l.15.09a8,8,0,0,0,.85.42l.26.1.43.16,162.36,52.67,98.47,139.42.12.15c.13.17.26.34.4.5l.21.23c.15.15.3.3.46.44l.19.18a8,8,0,0,0,.69.53l.16.1c.19.12.39.24.6.35l.27.13.53.23.32.11.53.16.34.09.16,0,.42.06.28,0a7.29,7.29,0,0,0,2,0l.15,0a7.92,7.92,0,0,0,1-.24l.19-.06a8,8,0,0,0,1-.4l.15-.08a8,8,0,0,0,1-.58l0,0,.13-.1.43-.34.21-.18.34-.33.2-.21.3-.36.17-.21c.11-.14.21-.3.31-.45l.11-.16q.19-.32.36-.65l0-.07c.09-.2.18-.4.26-.6l.08-.24c.05-.15.1-.3.15-.45s.05-.21.08-.31.05-.2.07-.3l75.57-380v0c0-.07,0-.13,0-.2S356.39,9.06,356.4,8.92ZM268.68,368.17,182.75,246.5,333.61,41.65ZM169.87,237l-141.68-46L320.73,32.17Z"/></g></g></svg>