<svg xmlns="http://www.w3.org/2000/svg" viewBox="0 0 396 325.72"><title>Asset 13100</title><g id="Layer_2" data-name="Layer 2"><g id="Layer_1-2" data-name="Layer 1"><path d="M285.12,202.72c.08-1.51.13-3,.13-4.54,0-2.76-.14-5.49-.39-8.18a60.84,60.84,0,1,0-79.08-78.54c-2.5-.22-5-.33-7.59-.33a86.73,86.73,0,0,0-64.54,28.64,69.19,69.19,0,0,0-83.29,60.91,63.18,63.18,0,0,0,12.83,125H264.83a63.17,63.17,0,0,0,20.28-123ZM262.53,88.56A44.84,44.84,0,0,1,281.8,173.9a87.41,87.41,0,0,0-59.9-59.49A44.78,44.78,0,0,1,262.53,88.56Zm2.31,221.15H63.19a47.19,47.19,0,0,1-4.82-94.13A8.77,8.77,0,0,0,66,207.34,53.11,53.11,0,0,1,170.75,194.8,8,8,0,0,0,186.3,191a68.84,68.84,0,0,0-35.93-45.38,71,71,0,0,1,118.88,52.53,72,72,0,0,1-.62,9.41,8,8,0,0,0,6.71,8.95,47.18,47.18,0,0,1-10.5,93.18Z"/><path d="M260.45,68a8,8,0,0,0,8-8V8a8,8,0,1,0-16,0V60A8,8,0,0,0,260.45,68Z"/><path d="M388.1,129.1l-52-.63H336a8,8,0,0,0-.09,16l52,.63h.1a8,8,0,0,0,.09-16Z"/><path d="M315.16,91.41a8,8,0,0,0,5.52-2.21L358.3,53.34a8,8,0,0,0-11-11.58L309.63,77.62a8,8,0,0,0,5.52,13.79Z"/><path d="M318.95,184.07a8,8,0,0,0-11.45,11.17l36.3,37.21a8,8,0,0,0,11.45-11.17Z"/><path d="M200,89.44a8,8,0,0,0,11-11.62L173.27,42.09a8,8,0,0,0-11,11.63Z"/></g></g></svg>