<svg xmlns="http://www.w3.org/2000/svg" viewBox="0 0 396 351.39"><title>Asset 57100</title><g id="Layer_2" data-name="Layer 2"><g id="Layer_1-2" data-name="Layer 1"><path d="M396,343.45s0,0,0-.06,0-.06,0-.09A196.21,196.21,0,0,0,359.82,230a198.72,198.72,0,0,0-81.91-67.3,101.21,101.21,0,1,0-160.42.27A198.76,198.76,0,0,0,36,230.28a196.22,196.22,0,0,0-36,113s0,.06,0,.09,0,0,0,.06,0,.22,0,.33H0a8,8,0,0,0,8,7.6H388a8,8,0,0,0,8-7.6h0C396,343.67,396,343.56,396,343.45ZM197.6,16a85.21,85.21,0,1,1-85.21,85.21A85.3,85.3,0,0,1,197.6,16ZM128.94,175.49a101,101,0,0,0,137.57-.23c65.49,26.83,110,89.92,113.28,160.13H16.21C19.51,265.44,63.78,202.44,128.94,175.49Z"/></g></g></svg>