<svg xmlns="http://www.w3.org/2000/svg" viewBox="0 0 254.45 396.01"><title>Asset 14100</title><g id="Layer_2" data-name="Layer 2"><g id="Layer_1-2" data-name="Layer 1"><path d="M252.43,331.24l-17.7-52.38a38.25,38.25,0,0,0-48.42-24c-4.63,1.56-9.22,3.28-13.66,4.94-7.67,2.86-14.91,5.57-22.42,7.61-10.63,2.88-21.62,5.24-28.86-.23-5.84-4.41-11.44-11.4-15.37-19.16a250.56,250.56,0,0,1-13.44-32.69c-3.3-10.58-7-22.55-9.24-34.44-1.58-8.55-1.37-17.5.6-24.55,2.44-8.75,12.6-13.53,22.8-17.69,7.2-2.93,14.6-5.18,22.43-7.55,4.54-1.37,9.23-2.8,13.86-4.36a38.29,38.29,0,0,0,24-48.42L149.29,26A38.29,38.29,0,0,0,100.87,2L75.51,10.58c-2,.67-4.07,1.44-6.58,2.43q-2.33.92-4.64,1.87Q61.58,16,58.9,17.18c-2,.9-3.85,1.73-5.52,2.54-2,1-3.63,1.82-5.13,2.68-.51.29-1,.59-1.51.9A92.12,92.12,0,0,0,25.92,40.89,81.63,81.63,0,0,0,13.58,59.61C4.5,78.77.06,101.87,0,130.21c0,17.93,1.64,36.87,5.26,59.59a315.24,315.24,0,0,0,12.46,50.63l0,.09a315.31,315.31,0,0,0,20.8,47.82c10.9,20.27,21.06,36.34,32,50.57,17.24,22.5,34.77,38.17,53.62,47.9a81.63,81.63,0,0,0,21.17,7.4,90.42,90.42,0,0,0,18.07,1.8q4.55,0,9.15-.44c.58-.06,1.17-.12,1.75-.2,1.69-.22,3.5-.54,5.69-1,1.82-.37,3.76-.8,5.94-1.33,1.82-.44,3.73-.92,5.67-1.44q2.42-.64,4.83-1.33c2.57-.73,4.7-1.38,6.7-2.06l25.36-8.57a38.29,38.29,0,0,0,24-48.42ZM236.1,353.3a22,22,0,0,1-12.75,11.2L198,373.07c-1.75.59-3.65,1.17-6,1.83q-2.28.65-4.58,1.26-2.65.71-5.31,1.35c-2,.48-3.73.87-5.36,1.2-1.83.37-3.29.63-4.62.8l-1.18.14a76,76,0,0,1-22.49-1.11,65.65,65.65,0,0,1-17-5.94C114.78,364,99,349.77,83.22,329.19c-10.37-13.54-20.08-28.92-30.57-48.42a299.21,299.21,0,0,1-19.74-45.39L25.34,238l7.56-2.62a299.18,299.18,0,0,1-11.83-48.06c-3.49-21.86-5.1-40-5.06-57,.05-25.93,4-46.8,12-63.79a65.67,65.67,0,0,1,9.93-15A76.19,76.19,0,0,1,55.19,36.88l1-.6c1.16-.67,2.48-1.35,4.16-2.17,1.5-.73,3.13-1.48,5-2.29q2.51-1.11,5-2.15,2.2-.91,4.4-1.78C77,27,78.9,26.32,80.64,25.74L106,17.17A22.29,22.29,0,0,1,134.13,31.1l17.7,52.38a22.29,22.29,0,0,1-13.93,28.14c-4.39,1.48-9,2.87-13.38,4.21-7.84,2.37-15.94,4.83-23.83,8-9.58,3.9-27.42,11.17-32.18,28.21-2.64,9.46-3,20.74-.92,31.77,2.38,12.86,6.28,25.36,9.73,36.39l.07.2a266.38,266.38,0,0,0,14.34,34.85c5.06,10,12.17,18.78,20,24.7,13,9.84,28.86,6.66,42.69,2.91,8.23-2.23,16.16-5.19,23.83-8.06,4.32-1.62,8.8-3.29,13.18-4.77A22.23,22.23,0,0,1,219.57,284l17.7,52.38A22,22,0,0,1,236.1,353.3Z"/></g></g></svg>