<svg xmlns="http://www.w3.org/2000/svg" viewBox="0 0 193.77 356"><title>Asset 22100</title><g id="Layer_2" data-name="Layer 2"><g id="Layer_1-2" data-name="Layer 1"><path d="M193.76,177.62c0-.13,0-.26,0-.39s0-.25,0-.37,0-.26-.07-.39-.05-.24-.08-.36-.07-.26-.1-.39-.07-.24-.12-.36l-.14-.37-.16-.36-.17-.35-.2-.35-.2-.32-.24-.34L192,173l-.28-.32-.15-.17-.13-.12-.12-.13L13.53,2.22,13.33,2,13,1.76l-.3-.23-.33-.23L12,1.09,11.69.91,11.33.73,11,.58,10.62.45,10.23.32,9.87.23,9.47.14,9.08.08,8.7,0,8.27,0H7.91L7.48,0l-.37,0L6.74.11,6.33.18,6,.26,5.58.38,5.27.49,4.85.64,4.51.81,4.16,1l-.35.21-.31.2-.31.23-.32.25-.26.24-.32.31-.06.06L2,2.67,1.76,3l-.23.3-.23.33L1.09,4l-.19.33-.17.36L.58,5c0,.12-.09.24-.13.36s-.09.25-.12.38-.07.25-.1.37-.06.26-.09.39,0,.27-.06.4,0,.25,0,.37,0,.29,0,.44S0,7.91,0,8V348c0,.09,0,.17,0,.26s0,.29,0,.44,0,.25,0,.37,0,.27.06.4.05.26.09.39.06.25.1.37.08.25.12.38.08.24.13.36l.15.35.17.36.19.33.21.34.23.33.23.3.29.33.17.2.06.06.35.33.25.22.35.27.29.22.34.21q.31.19.62.34l.42.2.27.1.48.17.25.07.52.13.32,0,.47.07c.25,0,.51,0,.76,0H8c.26,0,.52,0,.78,0l.31,0,.46-.07.35-.08.39-.1.35-.12.38-.14.33-.15.37-.18.31-.18.35-.21.31-.22.32-.24.31-.27.21-.19,177.78-170,.13-.13.13-.12.15-.17L192,183l.23-.3.24-.34.2-.32.2-.35.17-.35.16-.36.14-.37c0-.12.08-.24.12-.36s.07-.26.1-.39.06-.24.08-.36,0-.26.07-.39,0-.25,0-.37,0-.26,0-.39,0-.25,0-.38S193.77,177.75,193.76,177.62Z"/></g></g></svg>