<svg xmlns="http://www.w3.org/2000/svg" viewBox="0 0 396 368.27"><title>Asset 45100</title><g id="Layer_2" data-name="Layer 2"><g id="Layer_1-2" data-name="Layer 1"><path d="M396,25.8A25.83,25.83,0,0,0,370.2,0H82.56A25.66,25.66,0,0,0,67.18,5.1H50.68a19.11,19.11,0,0,0-18,12.7h-13a8,8,0,0,0-8,8v136.3A19.91,19.91,0,0,0,0,180.19V198a19.9,19.9,0,1,0,39.8,0V180.19a19.93,19.93,0,0,0-12.13-18.32V33.8h4.87A19.12,19.12,0,0,0,50.68,47H67.85a25.8,25.8,0,0,0,3.48,2v205.8A13.37,13.37,0,0,0,84.8,268l6.88,0v80.24a20,20,0,0,0,20,20h234a20,20,0,0,0,20-20v-79.6l6.59,0h0a13.55,13.55,0,0,0,9.64-4,13,13,0,0,0,3.85-9.23V46.3A25.77,25.77,0,0,0,396,25.8ZM82.56,16H370.2a9.8,9.8,0,0,1,0,19.6H82.56a9.8,9.8,0,1,1,0-19.6Zm4.77,164.87h282.5v27.92H87.33Zm0-16V136.95h282.5v27.92Zm0-43.92V93h282.5v27.92Zm0-43.92V51.6h282.5V77ZM23.8,198a3.9,3.9,0,1,1-7.8,0V180.19a3.9,3.9,0,1,1,7.8,0ZM47.59,27.89v-3.7a3.13,3.13,0,0,1,3.09-3.09H57.2A25.72,25.72,0,0,0,57.28,31h-6.6A3.13,3.13,0,0,1,47.59,27.89Zm60.08,320.39v-80.2l113,.26v83.94h-109A4.05,4.05,0,0,1,107.68,348.27Zm242,0a4.05,4.05,0,0,1-4,4h-109v-83.9l113,.26ZM87.33,252V224.78h282.5v27.9Z"/></g></g></svg>