<svg xmlns="http://www.w3.org/2000/svg" viewBox="0 0 396 396"><title>Asset 20100</title><g id="Layer_2" data-name="Layer 2"><g id="Layer_1-2" data-name="Layer 1"><path d="M389.82,359.93,277.95,248.05a153.89,153.89,0,0,0,31.44-93.36C309.38,69.39,240,0,154.69,0S0,69.39,0,154.69,69.39,309.38,154.69,309.38a153.89,153.89,0,0,0,93.36-31.44L359.93,389.82a21.14,21.14,0,0,0,29.89-29.89ZM16,154.69C16,78.22,78.22,16,154.69,16S293.38,78.22,293.38,154.69,231.17,293.38,154.69,293.38,16,231.17,16,154.69Z"/></g></g></svg>