<svg xmlns="http://www.w3.org/2000/svg" viewBox="0 0 348.99 365.05"><title>Asset 42100</title><g id="Layer_2" data-name="Layer 2"><g id="Layer_1-2" data-name="Layer 1"><path d="M347.44,314.33l.24-.34.2-.33.2-.35.17-.35.16-.36c0-.12.1-.25.14-.37s.08-.24.12-.36.07-.26.1-.39.06-.24.08-.36,0-.26.07-.39,0-.25,0-.37,0-.26,0-.39,0-.25,0-.38,0-.25,0-.38,0-.26,0-.39,0-.25,0-.37,0-.26-.07-.39-.05-.24-.08-.36-.07-.26-.1-.39-.07-.24-.12-.36-.09-.25-.14-.37l-.16-.36-.17-.35-.2-.35-.2-.33-.24-.34-.23-.3-.28-.32-.15-.17-.13-.12-.12-.13L296.9,256.36l-.2-.17-.33-.29-.3-.23-.33-.23-.34-.21-.33-.19-.36-.17-.35-.15-.37-.14-.37-.12-.38-.1-.38-.08-.41-.06-.36,0-.46,0h-.33l-.48,0-.32,0-.44.07-.34.06-.4.1-.35.09-.42.15-.31.12-.44.21-.25.12-.41.25-.25.16-.34.26-.29.22-.27.25-.32.3-.06.06-.17.2-.29.33-.23.3-.23.33-.21.34-.19.33-.17.36-.15.35c0,.12-.09.24-.13.36s-.09.25-.12.38-.07.25-.1.37-.06.26-.09.39,0,.27-.06.4,0,.25,0,.37,0,.29,0,.44,0,.17,0,.26v40.61a8,8,0,0,0-1.54-.15c-69.11,0-125.34-53.33-125.34-118.89S212.72,64.82,281.84,64.82a8.07,8.07,0,0,0,1-.07v38.16c0,.09,0,.17,0,.26s0,.29,0,.44,0,.25,0,.37,0,.27.06.4.05.26.09.39.06.25.1.37.08.25.12.38.08.24.13.36l.15.35.17.36.19.33.21.34.23.33.23.3.29.33.17.2.06.06.35.33.25.22.35.27.29.22.34.21q.31.19.62.34l.42.2.27.1.48.17.25.06.52.13.32,0,.47.07c.25,0,.51,0,.76,0h0c.26,0,.52,0,.78,0l.31,0,.46-.07.35-.08.4-.1.35-.12.38-.14.33-.15.37-.18.31-.18.35-.21.31-.22.31-.23.31-.27.21-.18L346,61.24l.13-.13.13-.12.15-.17.28-.32.23-.3.24-.34.2-.33.2-.35.17-.35.16-.36.14-.37c0-.12.08-.24.12-.36s.07-.26.1-.39.06-.24.08-.36,0-.26.07-.39,0-.25,0-.37,0-.26,0-.39,0-.25,0-.38,0-.25,0-.38,0-.26,0-.39,0-.25,0-.37,0-.26-.07-.39-.05-.24-.08-.36-.07-.26-.1-.39-.07-.24-.12-.36l-.14-.37-.16-.36-.17-.35-.2-.35-.2-.33-.24-.34-.23-.3-.28-.32-.15-.17-.13-.12-.12-.13L296.37,2.22l-.2-.17-.33-.29-.3-.23-.33-.23-.34-.21-.33-.19-.36-.17-.35-.15-.37-.13-.38-.12-.37-.1-.39-.08-.4-.06-.37,0-.45,0h-.34l-.45,0-.34,0-.4.06-.38.06-.36.09-.39.11-.37.13-.36.13-.4.19L287,1l-.39.23-.28.17-.33.25-.3.23-.27.24-.32.3-.06.06-.17.2L284.6,3l-.23.3-.23.33-.21.34-.19.33-.17.36-.15.35c0,.12-.09.24-.13.36s-.09.25-.12.38-.07.25-.1.37-.06.26-.09.39,0,.27-.06.4,0,.25,0,.37,0,.29,0,.44,0,.17,0,.26V48.89a8.07,8.07,0,0,0-1-.07c-64.92,0-119.75,42-136.25,99C130.89,88.3,74.78,43.87,8,43.87a8,8,0,0,0,0,16c69.11,0,125.34,53.33,125.34,118.89S77.11,297.65,8,297.65a8,8,0,0,0,0,16c64.92,0,119.74-42,136.25-99,14.69,59.52,70.8,104,137.58,104a8,8,0,0,0,1.54-.15V357c0,.09,0,.17,0,.26s0,.29,0,.44,0,.25,0,.37,0,.27.06.4.05.26.09.39.06.25.1.37.08.25.12.38.08.24.13.36l.15.35.17.36.19.33.21.34.23.33.23.3.29.33.17.2.06.06.35.33.24.22.36.27.28.21.37.22c.18.11.37.21.56.31l.45.21.26.09.49.18.25.06.52.13.32,0,.47.07c.25,0,.51,0,.76,0h0c.26,0,.52,0,.78,0l.31,0,.46-.07.35-.08.39-.1.35-.12.38-.14.33-.15.37-.18.31-.18.35-.21.31-.22.32-.24.31-.27.21-.19,49.63-47.46.13-.13.13-.12.15-.17.28-.32ZM298.84,26.72l30.05,28.74L298.84,84.19Zm.53,254.14,30.05,28.74-30.05,28.74Z"/></g></g></svg>