<svg xmlns="http://www.w3.org/2000/svg" viewBox="0 0 220.6 380"><title>Asset 46100</title><g id="Layer_2" data-name="Layer 2"><g id="Layer_1-2" data-name="Layer 1"><path d="M219.07,362.57l.23-.33.21-.34.19-.33.17-.36.15-.35c0-.12.09-.24.13-.36s.09-.25.12-.38.07-.25.1-.37.06-.26.09-.39,0-.27.06-.4,0-.25,0-.37,0-.29,0-.44,0-.17,0-.26v-334c0-.09,0-.17,0-.26s0-.29,0-.44,0-.25,0-.37,0-.27-.06-.4-.05-.26-.09-.39-.06-.25-.1-.37-.08-.25-.12-.38-.08-.24-.13-.36l-.15-.35-.17-.36-.19-.33-.21-.34-.23-.33-.23-.3-.29-.33-.17-.2-.06-.06-.32-.3-.27-.24-.3-.23-.33-.25-.28-.17-.39-.23-.3-.15-.4-.19-.37-.14L215,16.2l-.41-.11-.34-.09-.4-.07-.38-.06-.36,0-.43,0h-.36l-.42,0-.39,0-.38.06-.4.09-.35.09-.39.13-.35.13-.37.16-.34.17-.35.19-.33.2-.34.24-.3.22-.33.29-.2.17L32.4,185.07l-.12.13-.13.12,0,0V5.54A5.55,5.55,0,0,0,26.58,0h-21A5.55,5.55,0,0,0,0,5.54V374.46A5.55,5.55,0,0,0,5.54,380h21a5.55,5.55,0,0,0,5.54-5.54V196.35l0,0,.13.12.13.13,174.67,167,.21.18.31.27.31.23.31.22.35.21.31.18.37.18.33.15.38.14.35.12.4.1.35.08.46.07.31,0c.26,0,.52,0,.78,0h0c.26,0,.51,0,.76,0l.47-.07.32,0,.52-.13.25-.07.48-.17.27-.1.42-.2q.32-.16.62-.34l.34-.21.29-.22.35-.27.25-.22.35-.33.06-.06.17-.2.29-.33Z"/></g></g></svg>