<svg xmlns="http://www.w3.org/2000/svg" viewBox="0 0 396 378.79"><title>Asset 55100</title><g id="Layer_2" data-name="Layer 2"><g id="Layer_1-2" data-name="Layer 1"><path d="M394.55,145l.14-.2c.11-.17.21-.34.3-.51l.08-.14q.18-.34.32-.69l.06-.17c.07-.18.14-.36.19-.54s.06-.22.09-.34.07-.26.1-.4,0-.28.06-.41,0-.2,0-.31v0c0-.19,0-.37,0-.56s0-.16,0-.24,0-.3,0-.45a8,8,0,0,0-.1-.91c0-.06,0-.13,0-.19s-.07-.29-.11-.44,0-.22-.08-.32-.07-.21-.11-.31-.1-.29-.15-.43l-.08-.16a7.94,7.94,0,0,0-1-1.74l-.07-.09-.22-.25c-.1-.12-.21-.24-.32-.35l0,0-.2-.18-.36-.32-.28-.22-.34-.25-.33-.2-.34-.2-.36-.18-.34-.16-.4-.15-.34-.12-.45-.12-.31-.08-.52-.08-.23,0L261.5,118.67,198.87,4.16,198.74,4c-.08-.13-.16-.27-.24-.4l-.21-.29L198,2.93l-.25-.29-.27-.29-.3-.28-.27-.24-.35-.27-.27-.2-.41-.25L195.65,1l-.47-.23L195,.65l-.07,0-.49-.18-.27-.09-.44-.11L193.4.15,193,.09,192.63,0l-.39,0-.38,0-.47,0-.29,0-.53.07-.24,0-.5.12-.26.07-.41.14-.34.12-.33.15-.4.19L188,1l-.21.13-.4.24-.29.2-.34.26-.28.25-.29.27-.27.29-.25.29-.25.33-.21.3-.23.37-.17.3c-.07.14-.14.28-.21.42l-.11.22L134,122.55,7.14,136.31l-.22,0-.52.08-.31.08-.45.12-.33.12-.4.15-.34.16-.37.18-.34.2-.33.21-.34.25-.29.22-.35.31-.2.18,0,0L2,139l-.23.26-.17.23a7.94,7.94,0,0,0-1,1.74v0c-.06.15-.11.3-.16.45s-.07.19-.1.29,0,.17-.06.25A7.94,7.94,0,0,0,0,143.88c0,.13,0,.27,0,.4s0,.19,0,.28,0,.35,0,.52c0,0,0,0,0,0s0,.2,0,.3,0,.27.06.41.06.26.09.38.05.24.09.35.1.3.16.46.06.17.09.26q.14.35.32.69l0,.06c.11.2.23.4.35.59l.13.18c.1.15.21.3.33.44l.17.2.35.38.07.08,91.41,91.51L81.37,370c0,.09,0,.18,0,.27s0,.32,0,.48,0,.23,0,.35,0,.29,0,.44,0,.25,0,.37,0,.27.06.4.06.26.09.39.06.25.1.37.09.26.14.4.08.23.13.34.13.28.19.42l.14.29c.08.16.17.3.27.45l.12.2,0,0a8,8,0,0,0,.56.74l.18.2c.14.16.29.31.45.46l.25.23c.16.14.32.27.49.39l.21.16a8,8,0,0,0,.76.46l.14.07q.33.17.69.31l.25.09.61.19.3.07.59.11.32,0,.1,0c.26,0,.51,0,.77,0h0a7.91,7.91,0,0,0,1-.07l.24,0a7.93,7.93,0,0,0,1-.22l.05,0a8,8,0,0,0,.94-.35l.18-.08a8,8,0,0,0,.92-.51l.06,0,106.42-69.89L310.21,372l.09,0c.19.11.38.21.58.3l.24.1.47.18.28.09.44.13.3.07.44.08.31,0,.43,0h.6a8,8,0,0,0,1-.07h.14l.49-.1.29-.06.34-.11a7.94,7.94,0,0,0,1.55-.66l.25-.14.27-.18.38-.26.11-.09a7.93,7.93,0,0,0,1.32-1.3l.21-.26.16-.24c.1-.14.2-.29.29-.44l0,0,.11-.21c.08-.15.17-.3.24-.46s.09-.2.13-.3.12-.28.17-.42.07-.23.11-.35.08-.26.11-.4.05-.26.08-.38.05-.25.07-.38,0-.28,0-.41,0-.24,0-.36,0-.3,0-.45,0-.22,0-.33,0-.34-.05-.51,0-.16,0-.24L303.09,236.27l90.56-90.16.08-.09.34-.38.18-.2C394.35,145.31,394.45,145.16,394.55,145ZM286.94,236.48l16.93,113.27-98-57.34a11.59,11.59,0,0,0-12.29.32L98.9,354.93l11-114a11.55,11.55,0,0,0-3.34-9.3L25.45,150.42l112.79-12.24a11.7,11.7,0,0,0,9.47-7l45-104.91,55.83,102.06a11.69,11.69,0,0,0,9,6l112.95,12.26-80.23,79.89A11.72,11.72,0,0,0,286.94,236.48Z"/></g></g></svg>