<svg xmlns="http://www.w3.org/2000/svg" viewBox="0 0 396 396"><title>Asset 36100</title><g id="Layer_2" data-name="Layer 2"><g id="Layer_1-2" data-name="Layer 1"><path d="M198,100.66A97.34,97.34,0,1,0,295.35,198,97.45,97.45,0,0,0,198,100.66Zm0,178.68A81.34,81.34,0,1,1,279.35,198,81.44,81.44,0,0,1,198,279.34Z"/><path d="M198,93.43a8,8,0,0,0,8-8V8a8,8,0,0,0-16,0V85.43A8,8,0,0,0,198,93.43Z"/><path d="M388.1,192.3l-77.43-.94h-.1a8,8,0,0,0-.09,16l77.43.94h.1a8,8,0,0,0,.09-16Z"/><path d="M198.19,302.57h0a8,8,0,0,0-8,8L189.85,388a8,8,0,0,0,8,8h0a8,8,0,0,0,8-8l.31-77.43A8,8,0,0,0,198.19,302.57Z"/><path d="M93.43,196.16a8,8,0,0,0-8-8h0L8,188.61a8,8,0,0,0,0,16H8l77.43-.4A8,8,0,0,0,93.43,196.16Z"/><path d="M279.49,128.33a8,8,0,0,0,5.52-2.21l56-53.42a8,8,0,0,0-11-11.58l-56,53.42a8,8,0,0,0,5.52,13.79Z"/><path d="M282.34,273a8,8,0,0,0-11.45,11.17l54.07,55.43a8,8,0,0,0,11.45-11.17Z"/><path d="M110.35,269.09,53.82,322a8,8,0,0,0,10.93,11.68l56.53-52.91a8,8,0,0,0-10.93-11.68Z"/><path d="M110.72,126.46a8,8,0,1,0,11-11.62L65.46,61.63a8,8,0,1,0-11,11.63Z"/></g></g></svg>