<svg xmlns="http://www.w3.org/2000/svg" viewBox="0 0 396 396"><title>Asset 16100</title><g id="Layer_2" data-name="Layer 2"><g id="Layer_1-2" data-name="Layer 1"><path d="M376,0H20A20,20,0,0,0,0,20V376a20,20,0,0,0,20,20H376a20,20,0,0,0,20-20V20A20,20,0,0,0,376,0ZM16,20a4.05,4.05,0,0,1,4-4H376a4.05,4.05,0,0,1,4,4V71.1H16ZM380,376a4.05,4.05,0,0,1-4,4H20a4.05,4.05,0,0,1-4-4V87.1H380Z"/><path d="M211.22,165.55H336a20,20,0,0,0,20-20V132.8a20,20,0,0,0-20-20H211.22a20,20,0,0,0-20,20v12.75A20,20,0,0,0,211.22,165.55Zm-4-32.75a4.05,4.05,0,0,1,4-4H336a4.05,4.05,0,0,1,4,4v12.75a4.05,4.05,0,0,1-4,4H211.22a4.05,4.05,0,0,1-4-4Z"/><path d="M64.11,353.1h88.24a20,20,0,0,0,20-20V132.77a20,20,0,0,0-20-20H64.11a20,20,0,0,0-20,20V333.1A20,20,0,0,0,64.11,353.1Zm-4-220.32a4.05,4.05,0,0,1,4-4h88.24a4.05,4.05,0,0,1,4,4V333.1a4.05,4.05,0,0,1-4,4H64.11a4.05,4.05,0,0,1-4-4Z"/><path d="M211.22,228.06H336a20,20,0,0,0,20-20V195.32a20,20,0,0,0-20-20H211.22a20,20,0,0,0-20,20v12.74A20,20,0,0,0,211.22,228.06Zm-4-32.74a4.05,4.05,0,0,1,4-4H336a4.05,4.05,0,0,1,4,4v12.74a4.05,4.05,0,0,1-4,4H211.22a4.05,4.05,0,0,1-4-4Z"/><path d="M336.42,237.59h-124a20,20,0,0,0-20,20v12.74a20,20,0,0,0,20,20h124a20,20,0,0,0,20-20V257.59A20,20,0,0,0,336.42,237.59Zm4,32.74a4.05,4.05,0,0,1-4,4h-124a4.05,4.05,0,0,1-4-4V257.59a4.05,4.05,0,0,1,4-4h124a4.05,4.05,0,0,1,4,4Z"/><circle cx="51.26" cy="44" r="10"/><circle cx="88.26" cy="44" r="10"/><circle cx="125.26" cy="44" r="10"/><path d="M211.22,352.85h124a20,20,0,0,0,20-20V320.11a20,20,0,0,0-20-20h-124a20,20,0,0,0-20,20v12.75A20,20,0,0,0,211.22,352.85Zm-4-32.75a4.05,4.05,0,0,1,4-4h124a4.05,4.05,0,0,1,4,4v12.75a4.05,4.05,0,0,1-4,4h-124a4.05,4.05,0,0,1-4-4Z"/></g></g></svg>