<svg xmlns="http://www.w3.org/2000/svg" viewBox="0 0 356 396"><title>Asset 15100</title><g id="Layer_2" data-name="Layer 2"><g id="Layer_1-2" data-name="Layer 1"><path d="M338.75,0H17.25C7.74,0,0,7.29,0,16.25v94.91c0,9,7.74,16.25,17.25,16.25H75.85c9.51,0,17.25-7.29,17.25-16.25V84.77h38.74V275.09H94.73c-9.51,0-17.25,7.29-17.25,16.25v52.27c0,9,7.74,16.25,17.25,16.25H261.27c9.51,0,17.25-7.29,17.25-16.25V291.34c0-9-7.74-16.25-17.25-16.25H224.93V84.77h38v26.39c0,9,7.74,16.25,17.25,16.25h58.59c9.51,0,17.25-7.29,17.25-16.25V16.25C356,7.29,348.26,0,338.75,0ZM340,111a1.8,1.8,0,0,1-1.25.43H280.15a1.8,1.8,0,0,1-1.25-.43V68.77h-70V291.09h52.33a1.8,1.8,0,0,1,1.25.43v51.91a1.8,1.8,0,0,1-1.25.43H94.73a1.8,1.8,0,0,1-1.25-.43V291.52a1.8,1.8,0,0,1,1.25-.43h53.1V68.77H77.1V111a1.8,1.8,0,0,1-1.25.43H17.25A1.8,1.8,0,0,1,16,111V16.43A1.8,1.8,0,0,1,17.25,16h321.5a1.8,1.8,0,0,1,1.25.43Z"/><path d="M348,380H8a8,8,0,0,0,0,16H348a8,8,0,0,0,0-16Z"/></g></g></svg>