<svg xmlns="http://www.w3.org/2000/svg" viewBox="0 0 372.47 396"><title>Asset 53100</title><g id="Layer_2" data-name="Layer 2"><g id="Layer_1-2" data-name="Layer 1"><path d="M364.47,55H257.38V14.11A14.13,14.13,0,0,0,243.27,0h-111a14.13,14.13,0,0,0-14.11,14.11V55H8A8,8,0,0,0,8,71H30.86a8,8,0,0,0-.1,1.19V326.12A70,70,0,0,0,100.64,396H271.83a70,70,0,0,0,69.88-69.88V72.19a8,8,0,0,0-.1-1.19h22.86a8,8,0,0,0,0-16ZM134.14,16H241.38V55H134.14ZM325.7,72.19V326.12A53.94,53.94,0,0,1,271.83,380H100.64a53.94,53.94,0,0,1-53.88-53.88V72.19a8,8,0,0,0-.1-1.19H325.8A8,8,0,0,0,325.7,72.19Z"/><path d="M186.7,324.43a8,8,0,0,0,8-8V131.58a8,8,0,0,0-16,0V316.43A8,8,0,0,0,186.7,324.43Z"/><path d="M125.08,300.5a8,8,0,0,0,8-8V156a8,8,0,1,0-16,0V292.5A8,8,0,0,0,125.08,300.5Z"/><path d="M246.79,300.5a8,8,0,0,0,8-8V156a8,8,0,1,0-16,0V292.5A8,8,0,0,0,246.79,300.5Z"/></g></g></svg>