<svg xmlns="http://www.w3.org/2000/svg" viewBox="0 0 396 279.75"><title>Asset 5100</title><g id="Layer_2" data-name="Layer 2"><g id="Layer_1-2" data-name="Layer 1"><path d="M217.64,0l-.48,0a8,8,0,0,0-5.38,1.62L107,81.81c-.16.12-.31.25-.45.38a19.88,19.88,0,0,0-7.89-1.63H20a20,20,0,0,0-20,20v78.62a20,20,0,0,0,20,20H98.62a19.84,19.84,0,0,0,8.55-1.95,8,8,0,0,0,.79.7l104.82,80.17a8,8,0,0,0,12.84-6.8c0-.12,0-.24,0-.36V8A8,8,0,0,0,217.64,0Zm-115,179.18a4.05,4.05,0,0,1-4,4H20a4.05,4.05,0,0,1-4-4V100.57a4.05,4.05,0,0,1,4-4H98.62a4.05,4.05,0,0,1,4,4Zm15.06,6a19.91,19.91,0,0,0,.94-6V100.57a19.87,19.87,0,0,0-1.16-6.64l92.18-70.5V255.56l-92-70.33Z"/><path d="M304.53,57a8,8,0,0,0-10,12.45,90.12,90.12,0,0,1,32.83,69.85,90.12,90.12,0,0,1-34.66,69A8,8,0,1,0,302.36,221c24.84-19,40.53-50.2,40.94-81.46S328.86,76.63,304.53,57Z"/><path d="M342.09,25.36a8,8,0,0,0-10,12.45c30.08,24.27,48.45,63.36,47.94,102S360.09,217,329.37,240.52a8,8,0,1,0,9.71,12.71C373.61,226.85,395.42,183.47,396,140S375.91,52.64,342.09,25.36Z"/><path d="M270.74,88a8,8,0,0,0-10,12.45,48.45,48.45,0,0,1-1,76.2,8,8,0,1,0,9.71,12.71A64.45,64.45,0,0,0,270.74,88Z"/></g></g></svg>