<svg xmlns="http://www.w3.org/2000/svg" viewBox="0 0 225.64 279.75"><title>Asset 1100</title><g id="Layer_2" data-name="Layer 2"><g id="Layer_1-2" data-name="Layer 1"><path d="M225.64,8a8,8,0,0,0-8-8l-.48,0a8,8,0,0,0-5.38,1.62L107,81.81c-.16.12-.31.25-.45.38a19.88,19.88,0,0,0-7.89-1.63H20a20,20,0,0,0-20,20v78.62a20,20,0,0,0,20,20H98.62a19.84,19.84,0,0,0,8.55-1.95,8,8,0,0,0,.79.7l104.82,80.17a8,8,0,0,0,12.84-6.8c0-.12,0-.24,0-.36Zm-123,171.18a4.05,4.05,0,0,1-4,4H20a4.05,4.05,0,0,1-4-4V100.57a4.05,4.05,0,0,1,4-4H98.62a4.05,4.05,0,0,1,4,4Zm15.06,6a19.91,19.91,0,0,0,.94-6V100.57a19.87,19.87,0,0,0-1.16-6.64l92.18-70.5V255.56l-92-70.33Z"/></g></g></svg>