<svg width="64" height="64" viewBox="0 0 64 64" version="1.1" xmlns="http://www.w3.org/2000/svg"><g id="icon/light/component/buton-group" stroke="none" stroke-width="1" fill="none" fill-rule="evenodd"><g id="Group" transform="translate(3.000000, 22.000000)"><path d="M58,3 L58,18 L3,18 C1.64640925,18 0.502197169,17.1035434 0.128681912,15.8719483 C0.403893068,15.954988 0.696689979,16 1,16 L1,16 L53,16 C54.6568542,16 56,14.6568542 56,13 L56,13 L56,1 C56,0.696689979 55.954988,0.403893068 55.8712796,0.127924759 C57.1035434,0.502197169 58,1.64640925 58,3 Z" id="Combined-Shape" fill="#FCAF5C"></path><rect id="Rectangle" fill="#6DA3F2" x="0" y="0" width="59" height="20" rx="3"></rect><path d="M54.8961072,1.00899893 C56.5528172,0.987137477 57.9135682,2.3124441 57.9354297,3.96915412 C57.9368297,4.07524985 57.9326001,4.18134514 57.9227586,4.28699272 L57.7761959,5.86093471 C57.3276827,4.7689548 56.2536409,4 55,4 L55,4 L5,4 C3.34314575,4 2,5.34314575 2,7 L2,7 L2.00039164,18.8122414 C0.862364519,18.3999886 0.0415775418,17.3178835 0.0222798381,16.0358135 C0.0215604815,15.988022 0.0219833689,15.9402202 0.023548138,15.8924489 L0.487545231,1.72695798 L54.8961072,1.00899893 Z" id="Combined-Shape" fill="#97BDFF"></path><rect id="Rectangle" stroke="#457AE6" stroke-width="2" x="20" y="1" width="18" height="18"></rect><rect id="Rectangle" stroke="#457AE6" stroke-width="2" x="1" y="1" width="57" height="18" rx="3"></rect><g id="Some-Icon" transform="translate(24.000000, 5.000000)" fill="#FFFFFF"><path d="M7.31733333,8.75029167 C7.2515,8.75029167 7.18525,8.734875 7.12441667,8.70320833 L4.99983333,7.59320833 L2.87566667,8.70320833 C2.73483333,8.776125 2.56483333,8.763625 2.43733333,8.67029167 C2.309,8.57695833 2.24525,8.41904167 2.27233333,8.26279167 L2.67691667,5.91779167 L0.96025,4.257375 C0.846083333,4.14695833 0.804833333,3.981125 0.853583333,3.82945833 C0.902333333,3.678625 1.03275,3.56820833 1.19025,3.54570833 L3.56525,3.20070833 L4.62691667,1.064875 C4.76775,0.781541667 5.23233333,0.781541667 5.37316667,1.064875 L6.43483333,3.20070833 L8.80983333,3.54570833 C8.96733333,3.56820833 9.09775,3.678625 9.1465,3.82945833 C9.19525,3.981125 9.154,4.14695833 9.03983333,4.257375 L7.32316667,5.91779167 L7.72775,8.26279167 C7.75483333,8.41904167 7.69066667,8.57695833 7.56275,8.67029167 C7.49025,8.723625 7.404,8.75029167 7.31733333,8.75029167" id="🎨-Icon-color"></path></g><g id="Some-Icon" transform="translate(43.000000, 5.000000)" fill="#FFFFFF"><path d="M7.31733333,8.75029167 C7.2515,8.75029167 7.18525,8.734875 7.12441667,8.70320833 L4.99983333,7.59320833 L2.87566667,8.70320833 C2.73483333,8.776125 2.56483333,8.763625 2.43733333,8.67029167 C2.309,8.57695833 2.24525,8.41904167 2.27233333,8.26279167 L2.67691667,5.91779167 L0.96025,4.257375 C0.846083333,4.14695833 0.804833333,3.981125 0.853583333,3.82945833 C0.902333333,3.678625 1.03275,3.56820833 1.19025,3.54570833 L3.56525,3.20070833 L4.62691667,1.064875 C4.76775,0.781541667 5.23233333,0.781541667 5.37316667,1.064875 L6.43483333,3.20070833 L8.80983333,3.54570833 C8.96733333,3.56820833 9.09775,3.678625 9.1465,3.82945833 C9.19525,3.981125 9.154,4.14695833 9.03983333,4.257375 L7.32316667,5.91779167 L7.72775,8.26279167 C7.75483333,8.41904167 7.69066667,8.57695833 7.56275,8.67029167 C7.49025,8.723625 7.404,8.75029167 7.31733333,8.75029167" id="🎨-Icon-color"></path></g><g id="Some-Icon" transform="translate(6.000000, 5.000000)" fill="#FFFFFF"><path d="M7.31733333,8.75029167 C7.2515,8.75029167 7.18525,8.734875 7.12441667,8.70320833 L4.99983333,7.59320833 L2.87566667,8.70320833 C2.73483333,8.776125 2.56483333,8.763625 2.43733333,8.67029167 C2.309,8.57695833 2.24525,8.41904167 2.27233333,8.26279167 L2.67691667,5.91779167 L0.96025,4.257375 C0.846083333,4.14695833 0.804833333,3.981125 0.853583333,3.82945833 C0.902333333,3.678625 1.03275,3.56820833 1.19025,3.54570833 L3.56525,3.20070833 L4.62691667,1.064875 C4.76775,0.781541667 5.23233333,0.781541667 5.37316667,1.064875 L6.43483333,3.20070833 L8.80983333,3.54570833 C8.96733333,3.56820833 9.09775,3.678625 9.1465,3.82945833 C9.19525,3.981125 9.154,4.14695833 9.03983333,4.257375 L7.32316667,5.91779167 L7.72775,8.26279167 C7.75483333,8.41904167 7.69066667,8.57695833 7.56275,8.67029167 C7.49025,8.723625 7.404,8.75029167 7.31733333,8.75029167" id="🎨-Icon-color"></path></g></g></g></svg>
