<svg width="64" height="64" xmlns="http://www.w3.org/2000/svg"><g fill="none" fill-rule="evenodd"><path d="M56.33 58.14H6.81a.81.81 0 0 1-.81-.81V7.81a.81.81 0 0 1 .81-.81H56.33a.81.81 0 0 1 .81.81V57.33a.81.81 0 0 1-.81.809" fill="#CADEFF"/><path d="M54.25 54.167H10.066a.735.735 0 0 1-.735-.735V7.533c0-.406.328-.735.734-.735H54.25c.407 0 .736.33.736.735v45.9a.735.735 0 0 1-.735.734" fill="#FFF" opacity=".7"/><path d="M57.047 14.345H6.537a.308.308 0 0 1-.309-.308V7.24c0-.17.138-.308.308-.308h50.511c.171 0 .31.138.31.308v6.796c0 .17-.139.308-.31.308" fill="#6DA3F2"/><path d="M57.057 14.345H9.537a.298.298 0 0 1-.298-.298V7.232c0-.165.133-.3.298-.3h47.52a.3.3 0 0 1 .3.3v6.815a.299.299 0 0 1-.3.298" fill="#97BDFF"/><path d="M56.14 57.14V8H7v49.14h49.14zm.19 2H6.81a1.81 1.81 0 0 1-1.81-1.81V7.81c0-.998.811-1.81 1.81-1.81H56.33c.999 0 1.81.811 1.81 1.81V57.33c0 1-.811 1.809-1.81 1.809z" fill="#457AE6" fill-rule="nonzero"/><path fill="#457AE6" fill-rule="nonzero" d="M11.157 26.155v-2h22.356v2zM11.157 22.01v-2h12.515v2zM5.495 15.236v-2h47.431v2zM6.165 54.447v-2h50.8v2z"/></g></svg>