<svg width="64" height="64" xmlns="http://www.w3.org/2000/svg"><g fill="none" fill-rule="evenodd"><path d="M17.172 52.233l-.297-1.978c.928-.139 1.94-.264 3.024-.375l.203 1.99c-1.054.107-2.035.229-2.93.363zm5.888-.613l-.137-1.995a114.44 114.44 0 0 1 3.022-.166l.084 1.998c-1.02.043-2.012.098-2.97.163zm5.944-.253l-.037-2a139.972 139.972 0 0 1 3.022-.023l-.006 2h-.392c-.87 0-1.734.007-2.587.023zm5.957.017l.05-1.999c1.028.025 2.037.062 3.021.11l-.097 1.998c-.968-.047-1.962-.084-2.974-.109zm5.943.293l.152-1.994a85.52 85.52 0 0 1 3.023.283l-.224 1.987a83.529 83.529 0 0 0-2.951-.276zm5.871.677l.33-1.972c1.193.2 2.217.423 3.047.665l-.56 1.92c-.748-.218-1.696-.425-2.817-.613z" fill="#457AE6" fill-rule="nonzero"/><path d="M13.056 53.613c.959.336 2.395.65 4.204.919 3.763.557 8.874.877 14.332.877 1.64 0 3.245-.028 4.791-.084l.073 1.999c-1.571.057-3.2.085-4.864.085-12.365 0-21.476-1.35-21.476-4.033 0-1.338 1.439-2.036 4.164-2.646l.437 1.951c-.992.223-1.756.46-2.249.695.161.077.358.157.588.237z" fill="#457AE6" fill-rule="nonzero"/><path d="M32.902 53.56l1.415-1.413 3.549 3.55a1 1 0 0 1 0 1.414l-3.405 3.405-1.415-1.414 2.698-2.698-2.842-2.843z" fill="#457AE6" fill-rule="nonzero"/><path d="M34.613 44.228l22.75.798a.81.81 0 0 0 .821-.798V5.89a.81.81 0 0 0-.82-.798L34.613 6.69a.81.81 0 0 0-.822.799v35.94c0 .442.367.799.821.799M5.82 45.027l22.75-.799a.81.81 0 0 0 .823-.8V7.488a.81.81 0 0 0-.822-.798L5.82 5.092A.81.81 0 0 0 5 5.891v38.337c0 .441.368.799.82.799" fill="#CADEFF"/><path d="M34.613 44.228l22.75.798a.81.81 0 0 0 .821-.798V5.89a.81.81 0 0 0-.82-.798L34.613 6.69a.81.81 0 0 0-.822.799v35.94c0 .442.367.799.821.799" fill="#6DA3F2"/><path d="M5.82 45.027l22.75-.799a.81.81 0 0 0 .823-.8V7.488a.81.81 0 0 0-.822-.798L5.82 5.092A.81.81 0 0 0 5 5.891v38.337c0 .441.368.799.82.799" fill="#CADEFF"/><path d="M8.95 45.027l19.73-.792c.394 0 .712-.355.712-.793V7.8c0-.437-.318-1.006-.712-1.006L8.95 5.62c-.395 0-.713.355-.713.792v37.823c0 .437.318.792.712.792" fill="#FFF" opacity=".7"/><path d="M34.507 44.248l19.806.779c.395 0 .715-.35.715-.779V6.066c0-.43-.32-.779-.715-.779l-19.73 1.89c-.394 0-.791.816-.791 1.247v35.044c0 .432.32.78.715.78" fill="#97BDFF"/><path d="M5.856 46.026C4.822 46.026 4 45.228 4 44.228V5.891c0-1 .822-1.799 1.89-1.796L28.57 5.69c1.001 0 1.823.798 1.823 1.799v35.94c0 1-.822 1.8-1.787 1.799l-22.75.798zm22.537-2.791V7.68L6 6.105V44.02l22.393-.785zM32.792 43.429V7.489c0-1 .821-1.799 1.751-1.796l22.82-1.6c1 0 1.821.798 1.821 1.797v38.338c0 1-.82 1.798-1.856 1.798l-22.736-.798a1.809 1.809 0 0 1-1.8-1.8zm2-.195l22.392.786V6.107l-22.392 1.57v35.557z" fill="#457AE6" fill-rule="nonzero"/></g></svg>