<svg width="64" height="64" xmlns="http://www.w3.org/2000/svg"><g fill="none" fill-rule="evenodd"><path d="M55.563 53.714H24.535c-.623 0-1.13-.507-1.13-1.131V10.926c0-.624.506-1.13 1.13-1.13h31.027c.625 0 1.13.506 1.13 1.13v41.657c0 .624-.505 1.13-1.13 1.13" fill="#6DA3F2"/><path d="M52.309 49.115H24.228a1.018 1.018 0 0 1-1.018-1.018V10.813c0-.562.456-1.017 1.018-1.017h28.08c.563 0 1.019.455 1.019 1.017v37.284c0 .563-.456 1.018-1.018 1.018" fill="#97BDFF"/><path d="M24.535 52.549h1v2h-1a2.13 2.13 0 0 1-2.13-2.131V10.762a2.13 2.13 0 0 1 2.13-2.131h31.027a2.13 2.13 0 0 1 2.13 2.13v41.657a2.13 2.13 0 0 1-2.13 2.13h-18.32v-2h18.32a.13.13 0 0 0 .13-.13V10.762a.13.13 0 0 0-.13-.131H24.535a.13.13 0 0 0-.13.13v41.657a.13.13 0 0 0 .13.13z" fill="#457AE6" fill-rule="nonzero"/><path d="M29.925 57.18H8.605a.601.601 0 0 1-.6-.6V6.6c0-.33.27-.6.6-.6h21.32c.329 0 .599.27.599.6V56.58c0 .329-.27.599-.6.599" fill="#CADEFF"/><path d="M29.983 55.292H11.946a.543.543 0 0 1-.54-.542V6.542c0-.298.242-.542.54-.542h18.037c.297 0 .54.244.54.542V54.75a.543.543 0 0 1-.54.542" fill="#FFF" opacity=".7"/><path d="M29.524 7H9.006v49.18h20.518V7zm.4 51.18H8.605a1.601 1.601 0 0 1-1.598-1.6V6.6c0-.882.718-1.6 1.599-1.6h21.32c.881 0 1.599.718 1.599 1.6V56.58c0 .881-.718 1.599-1.6 1.599z" fill="#457AE6" fill-rule="nonzero"/><path fill="#457AE6" fill-rule="nonzero" d="M7 15.996v-2h24.365v2zM7 21.047v-2h24.365v2z"/><path d="M31.019 49.224v-11.98l5.866 5.867a.173.173 0 0 1 0 .247l-5.866 5.866z" fill="#457AE6"/></g></svg>