<svg width="60" height="42" xmlns="http://www.w3.org/2000/svg"><g transform="translate(-2 -16)" fill="none" fill-rule="evenodd"><path d="M0 0h64v64H0z"/><circle fill="#6DA3F2" cx="15" cy="29" r="12"/><circle fill="#97BDFF" cx="16" cy="28" r="10"/><path d="M15 40c6.075 0 11-4.925 11-11s-4.925-11-11-11S4 22.925 4 29s4.925 11 11 11zm0 2C7.82 42 2 36.18 2 29s5.82-13 13-13 13 5.82 13 13-5.82 13-13 13zM40 34a5 5 0 1 1 0-10 5 5 0 0 1 0 10zM57 34a5 5 0 1 1 0-10 5 5 0 0 1 0 10z" fill="#457AE6" fill-rule="nonzero"/><path d="M40 32a3 3 0 1 0 0-6 3 3 0 0 0 0 6zM57 32a3 3 0 1 0 0-6 3 3 0 0 0 0 6z" fill="#6DA3F2"/><path d="M40 34a5 5 0 1 1 0-10 5 5 0 0 1 0 10zm0-2a3 3 0 1 0 0-6 3 3 0 0 0 0 6zM57 34a5 5 0 1 1 0-10 5 5 0 0 1 0 10zm0-2a3 3 0 1 0 0-6 3 3 0 0 0 0 6z" fill="#457AE6" fill-rule="nonzero"/><path d="M17.152 25.47a1 1 0 1 1 1.696 1.06l-4.131 6.601-4.424-4.424a1 1 0 1 1 1.414-1.414l2.647 2.647 2.798-4.47z" fill="#FFF" fill-rule="nonzero"/><ellipse fill="#CADEFF" cx="33" cy="55.5" rx="20" ry="2.5"/><path d="M35.093 30H59v-2H35.092v2zM59 28v2H27v-2h32z" fill="#457AE6" fill-rule="nonzero"/><path d="M47.794 30H59v-2H47.794v2zM59 28v2H44v-2h15z" fill="#457AE6" fill-rule="nonzero"/><path d="M47.689 28H32v2H47.69v-2zM32 30v-2h21v2H32z" fill="#457AE6" fill-rule="nonzero"/></g></svg>