<svg width="64" height="64" xmlns="http://www.w3.org/2000/svg"><g fill="none" fill-rule="evenodd"><path fill="#CADEFF" d="M52.284 54.974H8.334l-2.13.32-.014 2.47 1.072 1.09H56.69l2.502-1.334-.24-6.427z"/><path d="M57.965 50.01h2v8.611a1 1 0 0 1-1 1H6.204a1 1 0 0 1-1-1v-3.326h2v2.326h50.761v-7.61z" fill="#457AE6" fill-rule="nonzero"/><path fill="#6DA3F2" d="M4.027 23.875h55.91v-7.661H4.027z"/><path fill="#97BDFF" d="M4.027 18h55.91v-3.6H4.027z"/><path d="M4 23h57v24c-3.979-.124-6.312.21-7 1-1.95 2.24.075 6.868-1 7-1.644.202-17.977-.131-49-1V23z" fill="#CADEFF"/><path d="M7 23h53v25h-6c.889 2.667.889 4 0 4H7V23z" fill="#EFF5FF"/><path d="M60.724 12.756a1 1 0 0 1 1 1v33.943a1 1 0 0 1-.29.704l-7.092 7.16a1 1 0 0 1-.71.296H4a1 1 0 0 1-1-1V13.756a1 1 0 0 1 1-1h56.724zm-1 2H5v39.103h48.215l6.51-6.571V14.756z" fill="#457AE6" fill-rule="nonzero"/><path d="M54.342 55.563c-.628.635-1.71.19-1.71-.703V47.7a1 1 0 0 1 1-1h7.092c.889 0 1.336 1.072.71 1.703l-7.092 7.16zm3.984-6.864h-3.694v3.73l3.694-3.73zM3.158 24.345v-2h57.805v2z" fill="#457AE6" fill-rule="nonzero"/><path d="M27.092 36.68c0-.894-.062-1.645-.184-2.254-.124-.607-.306-1.099-.548-1.47-.243-.375-.536-.644-.884-.81a2.704 2.704 0 0 0-1.176-.248c-.438 0-.829.083-1.17.248-.343.166-.632.435-.87.81-.237.371-.417.863-.54 1.47-.123.609-.185 1.36-.185 2.253v4.588c0 .903.064 1.663.192 2.28.128.618.31 1.118.547 1.499.238.383.53.657.876.823.346.166.739.249 1.177.249.438 0 .83-.083 1.178-.25.346-.165.636-.439.868-.822.233-.381.41-.881.535-1.499.122-.617.184-1.377.184-2.28v-4.588zm3.956 4.062c0 1.51-.162 2.808-.486 3.89-.325 1.083-.78 1.973-1.37 2.674a5.272 5.272 0 0 1-2.12 1.541c-.826.326-1.741.49-2.745.49-1.003 0-1.92-.164-2.744-.49a5.324 5.324 0 0 1-2.129-1.54c-.593-.702-1.054-1.592-1.382-2.675-.329-1.082-.493-2.38-.493-3.89v-3.496c0-1.511.161-2.808.487-3.89.323-1.083.782-1.971 1.375-2.668a5.376 5.376 0 0 1 2.121-1.534c.822-.326 1.734-.49 2.738-.49s1.917.164 2.744.49a5.38 5.38 0 0 1 2.13 1.534c.591.697 1.052 1.585 1.381 2.667.329 1.083.493 2.38.493 3.891v3.496zM43.326 49.061H39.37V33.667l-4.722 1.478v-3.247l8.254-2.985h.424z" fill="#97BDFF"/><path d="M28.092 36.68v4.587c0 .962-.066 1.786-.204 2.477-.146.728-.362 1.334-.66 1.82-.328.543-.761.953-1.292 1.207a3.687 3.687 0 0 1-1.609.347 3.687 3.687 0 0 1-1.61-.347c-.526-.253-.959-.66-1.292-1.196-.305-.491-.527-1.099-.678-1.825-.143-.69-.212-1.515-.212-2.483v-4.588c0-.954.067-1.769.204-2.453.148-.722.37-1.325.677-1.806.333-.525.76-.923 1.278-1.174a3.648 3.648 0 0 1 1.606-.348 3.7 3.7 0 0 1 1.607.346c.521.248.953.643 1.292 1.167.316.486.54 1.092.69 1.818.136.681.203 1.496.203 2.45zm-2 0c0-.831-.056-1.519-.164-2.053-.101-.496-.241-.872-.407-1.127-.146-.226-.302-.368-.474-.451a1.713 1.713 0 0 0-.747-.151c-.292 0-.534.051-.734.148-.17.082-.32.223-.463.448-.163.255-.302.633-.403 1.13-.109.537-.165 1.225-.165 2.055v4.588c0 .84.058 1.535.17 2.077.107.512.25.903.42 1.175.14.227.29.368.457.448.207.099.452.15.745.15.294 0 .539-.051.746-.15.164-.08.31-.217.447-.444.165-.269.304-.66.407-1.17.109-.548.165-1.245.165-2.086v-4.588zm3.956 4.062v-3.496c0-1.42-.152-2.62-.45-3.6-.29-.957-.688-1.724-1.186-2.308a4.377 4.377 0 0 0-1.734-1.254c-.709-.279-1.499-.42-2.378-.42-.88 0-1.668.141-2.367.418a4.377 4.377 0 0 0-1.73 1.255c-.5.585-.894 1.35-1.18 2.306-.294.98-.444 2.181-.444 3.603v3.496c0 1.418.152 2.62.45 3.6.29.958.688 1.727 1.188 2.318a4.325 4.325 0 0 0 1.734 1.257c.705.279 1.496.42 2.376.42.88 0 1.67-.14 2.377-.42a4.273 4.273 0 0 0 1.723-1.254c.496-.59.89-1.358 1.177-2.318.293-.98.444-2.182.444-3.603zm2 0c0 1.603-.174 2.995-.528 4.177-.362 1.209-.88 2.22-1.561 3.03a6.273 6.273 0 0 1-2.52 1.828c-.948.375-1.988.56-3.112.56-1.125 0-2.165-.186-3.112-.56a6.324 6.324 0 0 1-2.524-1.824c-.687-.812-1.21-1.824-1.576-3.03-.36-1.184-.536-2.578-.536-4.18v-3.497c0-1.604.174-2.995.528-4.177.361-1.208.884-2.22 1.573-3.03a6.378 6.378 0 0 1 2.514-1.815c.944-.374 1.982-.56 3.106-.56 1.123 0 2.162.186 3.114.56.978.39 1.822.998 2.52 1.816.687.808 1.211 1.818 1.578 3.025.36 1.184.536 2.576.536 4.181v3.496zM42.326 30.185L35.648 32.6v1.184l3.424-1.072a1 1 0 0 1 1.298.955V48.06h1.956V30.185zm.916-.332l-.34-.94v1h.175l.165-.06zM34.947 36.1a1 1 0 0 1-1.3-.954v-3.247a1 1 0 0 1 .66-.94l8.255-2.985a1 1 0 0 1 .34-.06h.424a1 1 0 0 1 1 1v20.148a1 1 0 0 1-1 1H39.37a1 1 0 0 1-1-1V35.028l-3.423 1.071z" fill="#457AE6" fill-rule="nonzero"/><path d="M20.24 18.508c0 1.752-1.407 3.174-3.143 3.174-1.738 0-3.145-1.422-3.145-3.174s1.407-3.173 3.145-3.173c1.736 0 3.143 1.42 3.143 3.173M50.706 18.508c0 1.752-1.408 3.174-3.143 3.174-1.737 0-3.144-1.422-3.144-3.174s1.407-3.173 3.144-3.173c1.735 0 3.143 1.42 3.143 3.173" fill="#457AE6"/><path d="M17.13 20.053c-.921 0-1.675-.76-1.675-1.69V7.579c0-.93.754-1.69 1.674-1.69.92 0 1.674.76 1.674 1.69v10.784c0 .93-.753 1.69-1.674 1.69" fill="#CADEFF"/><path d="M17.13 19.053a.688.688 0 0 0 .673-.69V7.579c0-.38-.308-.69-.674-.69a.688.688 0 0 0-.674.69v10.784c0 .379.308.69.674.69zm0 2c-1.476 0-2.675-1.21-2.675-2.69V7.579c0-1.48 1.2-2.69 2.674-2.69a2.687 2.687 0 0 1 2.674 2.69v10.784c0 1.48-1.199 2.69-2.674 2.69z" fill="#457AE6" fill-rule="nonzero"/><path d="M47.595 20.053c-.92 0-1.674-.76-1.674-1.69V7.579c0-.93.753-1.69 1.674-1.69.92 0 1.674.76 1.674 1.69v10.784c0 .93-.754 1.69-1.674 1.69" fill="#CADEFF"/><path d="M47.595 19.053a.688.688 0 0 0 .674-.69V7.579a.688.688 0 0 0-.674-.69.687.687 0 0 0-.674.69v10.784c0 .38.308.69.674.69zm0 2c-1.475 0-2.674-1.21-2.674-2.69V7.579c0-1.48 1.199-2.69 2.674-2.69a2.687 2.687 0 0 1 2.674 2.69v10.784c0 1.48-1.2 2.69-2.674 2.69z" fill="#457AE6" fill-rule="nonzero"/></g></svg>