<svg width="64" height="64" xmlns="http://www.w3.org/2000/svg"><g fill="none" fill-rule="evenodd"><path d="M50.593 54.172h-38.54a.842.842 0 0 1-.842-.843v-38.54c0-.465.377-.842.842-.842h38.54c.465 0 .842.377.842.842v38.54a.842.842 0 0 1-.842.843" fill="#CADEFF"/><path d="M50.629 54.143H12.017a.805.805 0 0 1-.806-.806v-35.22c0-.447.36-.808.806-.808h38.612c.446 0 .806.361.806.807v35.221c0 .446-.36.806-.806.806" fill="#97BDFF"/><path d="M51.188 54.143h-39.73a.247.247 0 0 1-.248-.247v-2.968c0-.136.111-.247.248-.247h39.73c.137 0 .247.111.247.247v2.968c0 .137-.11.247-.247.247" fill="#6DA3F2"/><path d="M50.225 14.947H12v38.225h38.225V14.947zm.158 40.225H11.842A1.843 1.843 0 0 1 10 53.329v-38.54c0-1.018.825-1.842 1.842-1.842h38.54c1.018 0 1.843.824 1.843 1.842v38.54a1.842 1.842 0 0 1-1.842 1.843z" fill="#457AE6" fill-rule="nonzero"/><path d="M46.492 28.256l-1.414-1.414 2.121-2.121 1.414 1.414-2.12 2.121zm4.243-4.242L49.32 22.6l2.122-2.122 1.414 1.414-2.121 2.122zm4.242-4.243l-1.414-1.414 2.121-2.122L57.1 17.65l-2.122 2.121zm4.243-4.243l-1.414-1.414 2.12-2.121 1.415 1.414-2.121 2.121zM42.706 29.215l1.414 1.414-13.098 13.097a1 1 0 0 1-1.414 0L18.33 32.449l1.414-1.414 10.57 10.57 12.392-12.39z" fill="#457AE6" fill-rule="nonzero"/></g></svg>