<svg width="64" height="64" xmlns="http://www.w3.org/2000/svg" xmlns:xlink="http://www.w3.org/1999/xlink"><defs><path id="a" d="M0 51.803h51.803V0H0z"/></defs><g transform="translate(6 6)" fill="none" fill-rule="evenodd"><path d="M50.015 50.803H1.787A.788.788 0 0 1 1 50.015V1.787C1 1.353 1.352 1 1.787 1h48.228c.435 0 .788.353.788.787v48.228a.788.788 0 0 1-.788.788" fill="#CADEFF"/><mask id="b" fill="#fff"><use xlink:href="#a"/></mask><path fill="#97BDFF" mask="url(#b)" d="M26.101 50.803h23.914v-10.97H26.101zM1.164 50.803h23.914v-10.97H1.164z"/><path fill="#6DA3F2" mask="url(#b)" d="M1.583 50.803h48.432v-2.869H1.583z"/><path d="M47.989 39.694H4.959a.716.716 0 0 1-.717-.716V1.52c0-.396.321-.717.717-.717h43.03c.396 0 .717.32.717.717v37.458a.716.716 0 0 1-.717.716" fill="#FFF" mask="url(#b)"/><path d="M49.803 49.803V2H2v47.803h47.804zm.212 2H1.787C.8 51.803 0 51.003 0 50.015V1.787C0 .8.8 0 1.787 0h48.228c.987 0 1.788.8 1.788 1.787v48.228c0 .987-.8 1.788-1.788 1.788z" fill="#457AE6" fill-rule="nonzero" mask="url(#b)"/><path fill="#457AE6" fill-rule="nonzero" mask="url(#b)" d="M5.996 24.181v-2h10.543v2zM5.996 19.144v-2h32.696v2zM.482 10.66v-2h46.244v2zM1.16 40.415v-2h49.472v2zM12.11 28.514v-2h10.542v2z"/><path fill="#457AE6" fill-rule="nonzero" mask="url(#b)" d="M25.007 38.746h2v11.242h-2z"/></g></svg>