<svg width="53" height="46" xmlns="http://www.w3.org/2000/svg" xmlns:xlink="http://www.w3.org/1999/xlink"><defs><path id="a" d="M0 0h52.018v47.798H0z"/></defs><g fill="none" fill-rule="evenodd"><path fill="#EEF5FF" d="M1 25.502h51.308V2H1z"/><path fill="#CADEFF" d="M1 25.552h51.308V21H1z"/><g transform="translate(0 -13.202)"><mask id="b" fill="#fff"><use xlink:href="#a"/></mask><path fill="#5590EB" fill-rule="nonzero" mask="url(#b)" d="M34 20h1v12h-1z"/><path stroke="#457AE6" stroke-width="2" stroke-linecap="square" stroke-linejoin="round" d="M1 39h51V15H1z"/><path d="M12.279 27.098l-.369-1.406a51.472 51.472 0 0 1-.314-1.213 19.646 19.646 0 0 1-.243-1.067c-.035.2-.104.528-.208.985a96.23 96.23 0 0 1-.688 2.701h1.822zm.902 3.504l-.422-1.606H9.976l-.433 1.606H7L9.795 22h3.088l2.83 8.602h-2.532zM18.988 29.256c.277 0 .515-.088.712-.264a.874.874 0 0 0 .296-.685v-.516l-.528.024c-.753.027-1.13.304-1.13.832 0 .406.216.609.65.609zm1.699 1.5l-.439-.879h-.047c-.309.383-.623.645-.943.785-.321.141-.735.211-1.243.211-.625 0-1.117-.187-1.476-.562-.36-.375-.539-.903-.539-1.582 0-.707.246-1.234.738-1.579.492-.346 1.205-.54 2.139-.583l1.107-.036v-.093c0-.547-.269-.821-.809-.821-.484 0-1.099.164-1.845.493l-.662-1.512c.773-.399 1.75-.598 2.929-.598.852 0 1.511.211 1.978.633.467.422.7 1.012.7 1.769v4.354h-1.588zM25.988 29.256c.277 0 .515-.088.712-.264a.874.874 0 0 0 .296-.685v-.516l-.528.024c-.753.027-1.13.304-1.13.832 0 .406.216.609.65.609zm1.699 1.5l-.439-.879h-.047c-.309.383-.623.645-.943.785-.321.141-.735.211-1.243.211-.625 0-1.117-.187-1.476-.562-.36-.375-.539-.903-.539-1.582 0-.707.246-1.234.738-1.579.492-.346 1.205-.54 2.139-.583l1.107-.036v-.093c0-.547-.269-.821-.809-.821-.484 0-1.099.164-1.845.493l-.662-1.512c.773-.399 1.75-.598 2.929-.598.852 0 1.511.211 1.978.633.467.422.7 1.012.7 1.769v4.354h-1.588z" fill="#5590EB"/></g><path fill="#97BDFF" d="M49.144 33.591l-6.721 3.832-3.832 6.721L28 23z"/><path fill="#6DA3F2" d="M49.144 33.591l-6.721 3.832L28 23z"/><path d="M30.245 25.245l8.407 16.784 2.907-5.097a1 1 0 0 1 .373-.373l5.097-2.907-16.784-8.407zm9.219 19.399a1 1 0 0 1-1.763-.048l-10.59-21.144c-.432-.86.481-1.773 1.341-1.342l21.144 10.591a1 1 0 0 1 .048 1.763L43.16 38.16l-3.696 6.484z" fill="#457AE6" fill-rule="nonzero"/><path fill="#457AE6" fill-rule="nonzero" d="M42 38.414L43.414 37l6.334 6.334-1.414 1.414z"/></g></svg>