<svg width="64" height="64" xmlns="http://www.w3.org/2000/svg"><g fill="none" fill-rule="evenodd"><path fill="#CADEFF" d="M18.531 56.506h40.125V17.55H18.531z"/><path fill="#EFF5FF" d="M18.531 17.55H54.5v38.956H18.531z"/><path d="M18.532 56.637H6.49a.49.49 0 0 1-.49-.49V18.039c0-.27.219-.49.49-.49h12.04c.272 0 .49.22.49.49v38.108a.49.49 0 0 1-.49.49" fill="#6DA3F2"/><path d="M18.48 56.637H8.773a.442.442 0 0 1-.442-.442V17.991c0-.244.198-.442.442-.442h9.707c.244 0 .442.198.442.442v38.204a.442.442 0 0 1-.442.442" fill="#97BDFF"/><path d="M18.022 17.04h2v39.106c0 .823-.668 1.491-1.49 1.491H6.49A1.49 1.49 0 0 1 5 56.147V17.038h2v38.598h11.02V17.04z" fill="#457AE6" fill-rule="nonzero"/><path d="M57.535 55.637a.121.121 0 0 0 .121-.121V10.121a.121.121 0 0 0-.12-.121H7.12a.121.121 0 0 0-.12.121v45.395c0 .067.054.121.12.121h50.414zm0 2H7.121a2.121 2.121 0 0 1-2.12-2.121V10.121C5 8.95 5.95 8 7.12 8h50.414c1.172 0 2.121.95 2.121 2.121v45.395c0 1.171-.95 2.121-2.12 2.121z" fill="#457AE6" fill-rule="nonzero"/><path fill="#457AE6" d="M8.683 13.918h1.5v-1.5h-1.5zM11.725 13.918h1.501v-1.5h-1.501zM14.767 13.918h1.501v-1.5h-1.501z"/><path fill="#457AE6" fill-rule="nonzero" d="M59.47 16.575v2H5.49v-2zM18.022 52.508v-2h29.86v2z"/></g></svg>