<svg width="54" height="48" xmlns="http://www.w3.org/2000/svg"><g fill="none" fill-rule="evenodd"><rect fill="#6DA3F2" width="54" height="14" rx="2"/><rect fill="#6DA3F2" y="17" width="54" height="14" rx="2"/><rect fill="#6DA3F2" y="34" width="54" height="14" rx="2"/><rect fill="#97BDFF" width="46" height="14" rx="2"/><rect fill="#97BDFF" x="1" y="17" width="45" height="14" rx="2"/><rect fill="#97BDFF" y="34" width="46" height="14" rx="2"/><path d="M2 2v10h50V2H2zm0-2h50a2 2 0 0 1 2 2v10a2 2 0 0 1-2 2H2a2 2 0 0 1-2-2V2a2 2 0 0 1 2-2zM2 19v10h50V19H2zm0-2h50a2 2 0 0 1 2 2v10a2 2 0 0 1-2 2H2a2 2 0 0 1-2-2V19a2 2 0 0 1 2-2zM2 36v10h50V36H2zm0-2h50a2 2 0 0 1 2 2v10a2 2 0 0 1-2 2H2a2 2 0 0 1-2-2V36a2 2 0 0 1 2-2z" fill="#457AE6" fill-rule="nonzero"/><path fill="#EFF5FF" d="M8.5 4l3.5 6H5z"/><path d="M10.152 21.47a1 1 0 1 1 1.696 1.06L8.679 27.6 5.29 24.184a1 1 0 1 1 1.42-1.408L8.32 24.4l1.831-2.93z" fill="#EFF5FF" fill-rule="nonzero"/><circle fill="#EFF5FF" cx="8" cy="41" r="3"/></g></svg>