<svg width="52" height="48" xmlns="http://www.w3.org/2000/svg" xmlns:xlink="http://www.w3.org/1999/xlink"><defs><path id="a" d="M0 .344h52v10.678H0z"/><path id="c" d="M0 .602h52V11.28H0z"/><path id="e" d="M0 .322h52V11H0z"/><path id="g" d="M0 48h52V.344H0z"/></defs><g fill="none" fill-rule="evenodd"><path d="M-6-9h64v64H-6z"/><path fill="#CADEFF" d="M1 30.052h50V8.882H1z"/><g transform="translate(0 -.344)"><path fill="#FFF" opacity=".7" d="M5.118 9.225H51v21.171H5.118z"/><path d="M50.205 10.021H1.795A.795.795 0 0 1 1 9.226V2.14c0-.44.356-.797.795-.797h48.41c.438 0 .795.357.795.796v7.087c0 .44-.357.795-.795.795" fill="#6DA3F2"/><path d="M50.34 7.32H1.66A.66.66 0 0 1 1 6.66V2.004a.66.66 0 0 1 .66-.66h48.68a.66.66 0 0 1 .66.66V6.66a.66.66 0 0 1-.66.66" fill="#97BDFF"/><mask id="b" fill="#fff"><use xlink:href="#a"/></mask><path d="M50.205 2.344h.01-.01zM2 9.022h48V2.344H2v6.678zm48.205 2H1.795A1.798 1.798 0 0 1 0 9.226V2.14C0 1.15.806.344 1.795.344h48.41C51.195.344 52 1.15 52 2.14v7.086c0 .99-.806 1.796-1.795 1.796z" fill="#457AE6" mask="url(#b)"/><path d="M50.205 38.28H1.795A.795.795 0 0 1 1 37.482v-7.087c0-.438.356-.795.795-.795h48.41c.438 0 .795.357.795.795v7.087c0 .44-.357.796-.795.796" fill="#6DA3F2"/><path d="M50.34 35.578H1.66a.66.66 0 0 1-.66-.66v-4.656a.66.66 0 0 1 .66-.66h48.68a.66.66 0 0 1 .66.66v4.656a.66.66 0 0 1-.66.66" fill="#97BDFF"/><g transform="translate(0 28)"><mask id="d" fill="#fff"><use xlink:href="#c"/></mask><path d="M50.205 2.602h.01-.01zM2 9.28h48V2.602H2V9.28zm50 2H0V2.397C0 1.407.806.602 1.795.602h48.41c.99 0 1.795.806 1.795 1.795v8.883z" fill="#457AE6" mask="url(#d)"/></g><path d="M50.205 47H1.795A.795.795 0 0 1 1 46.204v-7.086c0-.439.356-.796.795-.796h48.41c.438 0 .795.357.795.796v7.086c0 .44-.357.796-.795.796" fill="#6DA3F2"/><path d="M50.34 44.299H1.66a.66.66 0 0 1-.66-.66v-4.656a.66.66 0 0 1 .66-.661h48.68a.66.66 0 0 1 .66.66v4.657a.66.66 0 0 1-.66.66" fill="#97BDFF"/><g transform="translate(0 37)"><mask id="f" fill="#fff"><use xlink:href="#e"/></mask><path d="M50.205 2.322h.01-.01zM2 9h48V2.322H2V9zm48.205 2H1.795A1.798 1.798 0 0 1 0 9.204V2.118C0 1.128.806.322 1.795.322h48.41c.99 0 1.795.806 1.795 1.796v7.086c0 .99-.806 1.796-1.795 1.796z" fill="#457AE6" mask="url(#f)"/></g><mask id="h" fill="#fff"><use xlink:href="#g"/></mask><path fill="#457AE6" mask="url(#h)" d="M8.835 17.283h22.487v-2H8.835zM8.835 22.835h16.918v-2H8.835z"/></g></g></svg>