<svg width="57" height="58" xmlns="http://www.w3.org/2000/svg"><g fill="none" fill-rule="evenodd"><path d="M-3-3h64v64H-3z"/><path d="M8.921 29.815h24.337a7.246 7.246 0 0 1 7.247 7.245v5.929a7.246 7.246 0 0 1-7.247 7.245h-2.036a45.562 45.562 0 0 0-18.985 4.145l-4.443 2.037c.3-1.654-1.324-3.241-2.974-4.393-1.958-1.365-3.144-3.583-3.144-5.97V37.06a7.245 7.245 0 0 1 7.245-7.245" fill="#97BDFF"/><path d="M12.589 33.45H34.1c3.537 0 6.404 2.801 6.404 6.256v5.118c0 3.454-2.867 6.256-6.404 6.256h-1.8c-5.791 0-11.258-.768-16.522 1.59l-3.928 1.758-1.847.603s.418-1.414-1.04-2.408c-1.73-1.18-2.78-3.093-2.78-5.153v-7.764c0-3.455 2.868-6.256 6.406-6.256" fill="#6DA3F2"/><path d="M11.82 53.47a46.562 46.562 0 0 1 19.402-4.236h2.036a6.246 6.246 0 0 0 6.247-6.245V37.06a6.246 6.246 0 0 0-6.247-6.245H8.921a6.245 6.245 0 0 0-6.245 6.245v8.993c0 2.045 1.014 3.963 2.716 5.15 1.684 1.175 2.856 2.402 3.274 3.713l3.155-1.447zM8.922 28.814h24.337a8.246 8.246 0 0 1 8.247 8.245v5.929a8.246 8.246 0 0 1-8.247 8.245h-2.036a44.562 44.562 0 0 0-18.568 4.054l-4.443 2.037a1 1 0 0 1-1.4-1.088c.167-.922-.774-2.145-2.563-3.393-2.235-1.56-3.572-4.088-3.572-6.791V37.06a8.245 8.245 0 0 1 8.245-8.245z" fill="#457AE6" fill-rule="nonzero"/><path d="M48.178 1.706H23.841a7.246 7.246 0 0 0-7.246 7.245v5.928a7.246 7.246 0 0 0 7.246 7.246h2.036a45.562 45.562 0 0 1 18.985 4.144l4.443 2.037c-.3-1.654 1.324-3.24 2.974-4.392 1.958-1.366 3.144-3.584 3.144-5.97V8.95a7.245 7.245 0 0 0-7.245-7.245" fill="#CADEFF"/><path d="M44.51 5.34H23c-3.537 0-6.404 2.802-6.404 6.256v5.118c0 3.455 2.867 6.256 6.404 6.256h1.8c5.791 0 11.258-.767 16.522 1.59l3.928 1.758 1.847.604s-.418-1.413 1.04-2.408c1.73-1.18 2.78-3.093 2.78-5.154v-7.764c0-3.454-2.868-6.255-6.406-6.255" fill="#EFF5FF"/><path d="M48.178.706a8.245 8.245 0 0 1 8.245 8.245v8.992c0 2.704-1.337 5.232-3.571 6.791-1.79 1.248-2.73 2.472-2.563 3.393a1 1 0 0 1-1.4 1.088l-4.444-2.037a44.562 44.562 0 0 0-18.568-4.053H23.84a8.246 8.246 0 0 1-8.246-8.246V8.951A8.246 8.246 0 0 1 23.84.706h24.337zm3.53 22.388c1.701-1.188 2.715-3.105 2.715-5.15V8.95a6.245 6.245 0 0 0-6.245-6.245H23.841a6.246 6.246 0 0 0-6.246 6.245v5.928a6.246 6.246 0 0 0 6.246 6.246h2.036a46.562 46.562 0 0 1 19.402 4.235l3.154 1.446c.418-1.31 1.59-2.538 3.274-3.712z" fill="#457AE6" fill-rule="nonzero"/></g></svg>