<svg width="55" height="50" xmlns="http://www.w3.org/2000/svg"><defs><path id="a" d="M.317 0h29.396v1H.317z"/></defs><g fill="none" fill-rule="evenodd"><path d="M-5-7h64v64H-5z"/><path d="M13.317 11.585h29.396" fill="#FFF"/><path fill="#457AE6" fill-rule="nonzero" d="M12.195 12.758v-2h31.64v2z"/><path d="M52.609 7.709h-38.49c-.443 0-.802-.32-.802-.715V2.27c0-.395.36-.715.802-.715h38.49c.443 0 .8.32.8.715v4.723c0 .395-.357.715-.8.715" fill="#6DA3F2"/><path d="M52.745 5.283H13.982c-.367 0-.664-.266-.664-.593V2.148c0-.327.297-.593.664-.593h38.763c.367 0 .666.266.666.593V4.69c0 .327-.299.593-.666.593" fill="#97BDFF"/><path d="M43.655 2.555v-2h8.954c1.064 0 1.924.768 1.924 1.715v4.723c0 .947-.86 1.715-1.924 1.715H14.12c-1.063 0-1.924-.768-1.924-1.715V2.27c0-.947.861-1.715 1.924-1.715h25.106v2H14.44v4.153h37.848V2.555h-8.633z" fill="#457AE6" fill-rule="nonzero"/><path d="M13.317 29.585h15.03" fill="#FFF"/><path fill="#457AE6" fill-rule="nonzero" d="M12.195 31.053v-2H29.47v2z"/><path d="M52.609 19.851h-38.49c-.443 0-.802.32-.802.715v4.723c0 .395.36.715.802.715h38.49c.443 0 .8-.32.8-.715v-4.723c0-.395-.357-.715-.8-.715" fill="#CADEFF"/><path d="M52.745 22.277H13.982c-.367 0-.664.266-.664.593v2.542c0 .327.297.593.664.593h38.763c.367 0 .666-.266.666-.593V22.87c0-.327-.299-.593-.666-.593" fill="#EFF5FF"/><path d="M39.225 25.005v2H14.119c-1.063 0-1.924-.768-1.924-1.715v-4.723c0-.947.861-1.715 1.924-1.715h38.49c1.064 0 1.924.768 1.924 1.715v4.723c0 .947-.86 1.715-1.924 1.715h-8.954v-2h8.633v-4.153H14.44v4.153h24.785z" fill="#457AE6" fill-rule="nonzero"/><path d="M13.317 48h29.396" fill="#FFF"/><path fill="#457AE6" fill-rule="nonzero" d="M12.195 49.586v-2h31.64v2z"/><path d="M52.609 44.536h-38.49c-.443 0-.802-.32-.802-.714v-4.724c0-.395.36-.714.802-.714h38.49c.443 0 .8.319.8.714v4.724c0 .395-.357.714-.8.714" fill="#CADEFF"/><path d="M52.745 42.11H13.982c-.367 0-.664-.266-.664-.593v-2.54c0-.328.297-.594.664-.594h38.763c.367 0 .666.266.666.593v2.541c0 .327-.299.593-.666.593" fill="#EFF5FF"/><path d="M14.44 39.383v4.152h37.848v-4.151H14.44zm38.169-2c1.063 0 1.924.767 1.924 1.714v4.724c0 .948-.86 1.715-1.924 1.715h-38.49c-1.063 0-1.924-.767-1.924-1.715v-4.724c0-.947.861-1.714 1.924-1.714h38.49z" fill="#457AE6" fill-rule="nonzero"/><path d="M4.875 9.857a2.254 2.254 0 0 1-.21-.691 2.74 2.74 0 0 1-.805.592c-.322.161-.717.242-1.182.242-.379 0-.732-.057-1.059-.171a2.636 2.636 0 0 1-.851-.478 2.201 2.201 0 0 1-.564-.73A2.121 2.121 0 0 1 0 7.69c0-.404.076-.763.23-1.077.152-.314.381-.58.687-.798.305-.219.685-.385 1.139-.5a6.53 6.53 0 0 1 1.582-.17h.939v-.443c0-.356-.093-.641-.28-.855-.187-.214-.482-.321-.884-.321-.354 0-.632.083-.833.25-.202.166-.302.394-.302.684H.175c0-.333.078-.649.236-.948.158-.3.382-.561.673-.785.291-.223.643-.4 1.055-.53C2.552 2.064 3.012 2 3.522 2c.456 0 .878.057 1.266.171.388.114.723.284 1.004.51.281.226.501.509.659.848.157.34.236.736.236 1.188v3.265c0 .219.007.415.022.588.014.174.034.33.058.471A2.21 2.21 0 0 0 7 9.736v.121H4.875zM3.136 8.424a1.843 1.843 0 0 0 .91-.231 1.46 1.46 0 0 0 .316-.24c.09-.09.162-.182.215-.277V6.349H3.71c-.276 0-.517.03-.72.09-.204.059-.371.142-.502.25a.999.999 0 0 0-.291.377 1.176 1.176 0 0 0-.095.474c0 .257.092.468.276.635.185.166.437.25.757.25zM7 26.105c0 .575-.062 1.1-.187 1.576a3.61 3.61 0 0 1-.563 1.23 2.61 2.61 0 0 1-.944.803c-.378.19-.821.286-1.329.286-.45 0-.838-.084-1.166-.251a2.57 2.57 0 0 1-.851-.703l-.093.813H0V19h2.075v3.895c.23-.264.499-.468.808-.611a2.536 2.536 0 0 1 1.08-.216c.507 0 .951.097 1.332.29.38.193.697.462.951.806.254.344.443.754.567 1.23.125.476.187.997.187 1.562v.149zm-2.075-.149a5.47 5.47 0 0 0-.064-.859 2.149 2.149 0 0 0-.234-.71 1.286 1.286 0 0 0-.456-.48c-.191-.119-.435-.178-.732-.178-.35 0-.634.07-.854.209-.22.139-.39.336-.51.59v3.019c.12.254.29.452.51.594.22.141.51.212.868.212.292 0 .533-.057.722-.17.189-.113.34-.268.452-.466.113-.198.19-.435.234-.71.043-.277.064-.577.064-.902v-.149zM3.133 46.339c.169 0 .323-.028.462-.082.14-.055.26-.132.36-.232.102-.1.181-.22.238-.36.057-.14.088-.298.092-.474H6c-.004.409-.08.785-.228 1.13a2.682 2.682 0 0 1-1.497 1.472 2.957 2.957 0 0 1-1.11.207c-.532 0-.996-.101-1.393-.303a2.807 2.807 0 0 1-.987-.827 3.664 3.664 0 0 1-.589-1.234A5.719 5.719 0 0 1 0 44.107v-.2c0-.546.065-1.057.196-1.533.131-.475.327-.889.589-1.24a2.8 2.8 0 0 1 .984-.831c.395-.202.855-.303 1.383-.303.422 0 .807.07 1.155.21.348.14.647.341.896.603.248.261.443.579.582.952.14.373.21.79.215 1.251H4.285a1.84 1.84 0 0 0-.086-.524 1.327 1.327 0 0 0-.224-.428 1.06 1.06 0 0 0-.855-.396c-.266 0-.483.062-.652.186-.168.123-.3.289-.395.495-.095.207-.16.446-.193.717-.034.27-.05.551-.05.841v.2c0 .295.016.577.05.848s.098.51.193.713c.095.205.227.368.395.489.17.121.39.182.665.182z" fill="#5590EB"/></g></svg>