<svg width="64" height="64" xmlns="http://www.w3.org/2000/svg"><g fill="none" fill-rule="evenodd"><path d="M55.816 52.734H8.768a.768.768 0 0 1-.768-.77V7.769C8 7.344 8.344 7 8.768 7h47.048c.424 0 .769.343.769.767v44.197a.77.77 0 0 1-.769.769" fill="#97BDFF"/><path d="M55.827 57.734H8.757A.758.758 0 0 1 8 56.976V14.024c0-.42.34-.758.758-.758h47.069c.418 0 .758.339.758.758v42.952c0 .419-.34.758-.758.758" fill="#6DA3F2"/><path d="M55.585 51.734V8H9v43.733h46.585zm.231 2H8.768A1.768 1.768 0 0 1 7 51.964V7.769C7 6.79 7.792 6 8.768 6h47.048c.976 0 1.769.79 1.769 1.767v44.197a1.77 1.77 0 0 1-1.769 1.769z" fill="#457AE6" fill-rule="nonzero"/><path d="M55.816 57.384H8.768A.768.768 0 0 1 8 56.615V16.32c0-.425.344-.769.768-.769h47.048a.77.77 0 0 1 .769.77v40.295a.77.77 0 0 1-.769.77" fill="#CADEFF"/><path d="M53.84 53.61H11.86a.7.7 0 0 1-.699-.7V16.058a.7.7 0 0 1 .7-.7h41.977c.386 0 .698.315.698.7V52.91a.698.698 0 0 1-.698.699" fill="#FFF" opacity=".7"/><path d="M55.585 56.384V16.55H9v39.834h46.585zm.231 2H8.768A1.768 1.768 0 0 1 7 56.615V16.32c0-.977.791-1.769 1.768-1.769h47.048a1.77 1.77 0 0 1 1.769 1.77v40.295a1.77 1.77 0 0 1-1.769 1.77z" fill="#457AE6" fill-rule="nonzero"/><path d="M19 33h2v3h-2v-3zm0 6h2v3h-2v-3zm0 6h2v3h-2v-3zM19 23.948h2v7.091h-2z" fill="#457AE6" fill-rule="nonzero"/><path stroke="#457AE6" stroke-width="2" stroke-linejoin="round" d="M16.49 26.391l3.55-3.55 3.406 3.406"/><path d="M44 33h2v3h-2v-3zm0 6h2v3h-2v-3zm0 6h2v3h-2v-3zM44 23.948h2v7.091h-2z" fill="#457AE6" fill-rule="nonzero"/><path d="M44.903 24.255l-2.842 2.843-1.414-1.414 3.549-3.55a1 1 0 0 1 1.414 0l3.406 3.406-1.414 1.414-2.699-2.699z" fill="#457AE6" fill-rule="nonzero"/></g></svg>