<svg width="64" height="64" xmlns="http://www.w3.org/2000/svg"><g fill="none" fill-rule="evenodd"><path fill="#97BDFF" d="M4 32.701h56V9.93H4z"/><path fill="#CADEFF" d="M4 29.978h56V7.206H4z"/><path fill="#FFF" opacity=".705" d="M4 26.992h56V7.027H4z"/><path d="M58.981 8H3.537V6h55.907c.85 0 1.537.688 1.537 1.537v3.545h-2V8zM5 28.28h55.444v2H4.537A1.536 1.536 0 0 1 3 28.742v-3.752h2v3.288z" fill="#457AE6" fill-rule="nonzero"/><path fill="#97BDFF" d="M56.465 47.767L49.744 51.6l-3.832 6.721L35.32 37.176z"/><path fill="#6DA3F2" d="M56.465 47.767L49.744 51.6 35.32 37.176z"/><path d="M37.562 39.417l8.407 16.784 2.906-5.097a1 1 0 0 1 .373-.373l5.098-2.907-16.784-8.407zm9.219 19.399a1 1 0 0 1-1.763-.048L34.427 37.624c-.431-.86.482-1.773 1.342-1.342l21.144 10.591a1 1 0 0 1 .047 1.763l-6.483 3.696-3.696 6.484zM40.09 10.571h2v14.284h-2zM50.387 10.571h2v14.284h-2z" fill="#457AE6" fill-rule="nonzero"/><path d="M27.008 24.764H7.805a.496.496 0 0 1-.495-.496V11.332c0-.273.22-.496.495-.496h19.203c.273 0 .495.223.495.496v12.936a.496.496 0 0 1-.495.496" fill="#6DA3F2"/><path d="M26.792 25.26H10.407c-.225 0-.407-.239-.407-.534V11.37c0-.295.182-.535.407-.535h16.385c.224 0 .407.24.407.535v13.355c0 .295-.183.533-.407.533" fill="#97BDFF"/><path d="M26.503 11.836H8.31v11.928h18.193V11.836zm.505 13.928H7.805a1.496 1.496 0 0 1-1.495-1.496V11.332c0-.824.668-1.496 1.495-1.496h19.203c.826 0 1.495.672 1.495 1.496v12.936c0 .825-.67 1.496-1.495 1.496zM48.61 51.88l1.414-1.415L56.36 56.8l-1.415 1.414z" fill="#457AE6" fill-rule="nonzero"/></g></svg>