<svg width="64" height="64"><g fill="none" fill-rule="evenodd"><path fill="#97BDFF" d="M7 24h51V8H7z"/><path fill="#6DA3F2" d="M7 25h51v-4H7z"/><path d="M6.74705881 26C6.33446962 26 6 25.658677 6 25.2376338V7.76236622C6 7.34132298 6.33446962 7 6.74705882 7H57.2529412C57.6655304 7 58 7.34132298 58 7.76236622V25.2376338C58 25.658677 57.6655304 26 57.2529412 26H6.74705882zm.74705882-1.5247324H56.5058824V8.52473244H7.49411763V24.4752676z" fill="#457AE6" fill-rule="nonzero"/><path d="M6.74705881 26C6.33446962 26 6 25.658677 6 25.2376338V7.76236622C6 7.34132298 6.33446962 7 6.74705882 7H57.2529412C57.6655304 7 58 7.34132298 58 7.76236622V25.2376338C58 25.658677 57.6655304 26 57.2529412 26H6.74705882zm.74705882-1.5247324H56.5058824V8.52473244H7.49411763V24.4752676z" fill="#457AE6" fill-rule="nonzero"/><path d="M14.63525766 15.55591723l-.25410306-.98070216c-.05922186-.21832132-.13152761-.50011626-.21622863-.84608231-.08470102-.34596605-.14047974-.5942804-.16733616-.74424552-.02410192.13950244-.07161713.36828644-.14323425.68704952-.0709285.31876308-.22931252.94652406-.47377482 1.88398047h1.25467692zM15.25639849 18l-.29060026-1.1202046h-1.91644669L12.7511764 18H11l1.9247102-6h2.12647768L17 18h-1.74360151z" fill="#FFF"/><path d="M57.0190562 43H7.98094377C7.43942045 43 7 42.568131 7 42.0342517v-7.0685034C7 34.4326136 7.43942045 34 7.98094377 34H57.0190562C57.5605795 34 58 34.4326136 58 34.9657483v7.0685034C58 42.568131 57.5605795 43 57.0190562 43" fill="#CADEFF"/><path d="M57.1861903 40H7.81380967C7.36455043 40 7 39.6526126 7 39.2237838v-4.4482883C7 34.3473874 7.36455043 34 7.81380967 34H57.1861903C57.6354496 34 58 34.3473874 58 34.7754955v4.4482883C58 39.6526126 57.6354496 40 57.1861903 40" fill="#FFF" opacity=".69984149"/><path d="M57.0190562 54H7.98094377C7.43942045 54 7 53.5673864 7 53.0342517v-7.0685034C7 45.431869 7.43942045 45 7.98094377 45H57.0190562C57.5605795 45 58 45.431869 58 45.9657483v7.0685034C58 53.5673864 57.5605795 54 57.0190562 54" fill="#CADEFF"/><path d="M57.1861903 53H7.81380967C7.36455043 53 7 52.6532917 7 52.2244113v-4.4488226C7 47.3467083 7.36455043 47 7.81380967 47H57.1861903C57.6354496 47 58 47.3467083 58 47.7755887v4.4488226C58 52.6532917 57.6354496 53 57.1861903 53" fill="#FFF" opacity=".69984149"/><path d="M57.0190562 34H7.98094377C7.43942045 34 7 33.5674222 7 33.033587v-7.0679186C7 25.4325778 7.43942045 25 7.98094377 25H57.0190562C57.5605795 25 58 25.4325778 58 25.9656684v7.0679186C58 33.5674222 57.5605795 34 57.0190562 34" fill="#CADEFF"/><path d="M57.1861903 31H7.81380967C7.36455043 31 7 30.6533333 7 30.2245045v-4.4482883C7 25.3473874 7.36455043 25 7.81380967 25H57.1861903C57.6354496 25 58 25.3473874 58 25.7762162v4.4482883C58 30.6533333 57.6354496 31 57.1861903 31" fill="#FFF" opacity=".69984149"/><path d="M6 45V34h52v11H6zm50.5058824-1.5642304v-7.8715392H7.49411763v7.8715392H56.5058824z" fill="#457AE6" fill-rule="nonzero"/><path d="M6 54V43h52v11H6zm50.5058824-1.5642304v-7.8715392H7.49411763v7.8715392H56.5058824zM6 36V25h52v11H6zm50.5058824-1.5642304v-7.8715392H7.49411763v7.8715392H56.5058824z" fill="#457AE6" fill-rule="nonzero"/><path stroke="#FFF" d="M8 9h48v15H8z"/><path fill="#FFF" d="M18 11h1v9h-1z"/><path d="M14.0293814 30.9632644l-.2117526-.8172518c-.0493515-.1819345-.1096063-.4167636-.1801905-.7050686-.0705842-.2883051-.1170664-.4952337-.1394468-.6202046-.0200849.116252-.0596809.3069053-.1193619.5725412-.059107.2656359-.1910937.7887701-.3948123 1.5699838h1.0455641zM14.5469987 33l-.2421668-.9335038H12.707793L12.4593137 33H11l1.6039252-5h1.7720647L16 33h-1.4530013zM14.0293814 39.9632644l-.2117526-.8172518c-.0493515-.1819345-.1096063-.4167636-.1801905-.7050686-.0705842-.2883051-.1170664-.4952337-.1394468-.6202046-.0200849.116252-.0596809.3069053-.1193619.5725412-.059107.2656359-.1910937.7887701-.3948123 1.5699838h1.0455641zM14.5469987 42l-.2421668-.9335038H12.707793L12.4593137 42H11l1.6039252-5h1.7720647L16 42h-1.4530013zM14.0293814 48.9632644l-.2117526-.8172518c-.0493515-.1819345-.1096063-.4167636-.1801905-.7050686-.0705842-.2883051-.1170664-.4952337-.1394468-.6202046-.0200849.116252-.0596809.3069053-.1193619.5725412-.059107.2656359-.1910937.7887701-.3948123 1.5699838h1.0455641zM14.5469987 51l-.2421668-.9335038H12.707793L12.4593137 51H11l1.6039252-5h1.7720647L16 51h-1.4530013zM18.9047012 32.0589262c.1765737 0 .3282868-.0512149.4538645-.1536447.1255777-.1018478.1886853-.2351229.1886853-.3986614v-.3003055l-.3365737.0139677c-.48.0157136-.7203187.1769242-.7203187.4842136 0 .2362869.1376892.3544303.4143426.3544303zm1.0830279.8729813l-.2798407-.511567h-.0299601c-.1969721.2229012-.3971315.3753819-.6011156.4568601C18.8721912 32.9592609 18.6082869 33 18.2844622 33c-.3984064 0-.7120319-.1088317-.9408765-.327077C17.1141036 32.4546777 17 32.1473883 17 31.7522188c0-.4114651.1568127-.7181725.4704382-.9189582.3136255-.2013677.7681275-.3142733 1.363506-.3392987l.7056574-.0209516v-.0541248c0-.3183472-.1714741-.4778117-.5156972-.4778117-.3085259 0-.7005578.0954459-1.1760956.2869198l-.4219921-.8799651C17.9185657 29.1158155 18.5413546 29 19.2929084 29c.5431075 0 .9631872.1227994 1.2608765.3683981.2976892.2455987.4462151.5889713.4462151 1.0295358v2.5339736h-1.0122709zM18.9047012 41.0589262c.1765737 0 .3282868-.0512149.4538645-.1536447.1255777-.1018478.1886853-.2351229.1886853-.3986614v-.3003055l-.3365737.0139677c-.48.0157136-.7203187.1769242-.7203187.4842136 0 .2362869.1376892.3544303.4143426.3544303zm1.0830279.8729813l-.2798407-.511567h-.0299601c-.1969721.2229012-.3971315.3753819-.6011156.4568601C18.8721912 41.9592609 18.6082869 42 18.2844622 42c-.3984064 0-.7120319-.1088317-.9408765-.327077C17.1141036 41.4546777 17 41.1473883 17 40.7522188c0-.4114651.1568127-.7181725.4704382-.9189582.3136255-.2013677.7681275-.3142733 1.363506-.3392987l.7056574-.0209516v-.0541248c0-.3183472-.1714741-.4778117-.5156972-.4778117-.3085259 0-.7005578.0954459-1.1760956.2869198l-.4219921-.8799651C17.9185657 38.1158155 18.5413546 38 19.2929084 38c.5431075 0 .9631872.1227994 1.2608765.3683981.2976892.2455987.4462151.5889713.4462151 1.0295358v2.5339736h-1.0122709zM18.9047012 50.0589262c.1765737 0 .3282868-.0512149.4538645-.1536447.1255777-.1018478.1886853-.2351229.1886853-.3986614v-.3003055l-.3365737.0139677c-.48.0157136-.7203187.1769242-.7203187.4842136 0 .2362869.1376892.3544303.4143426.3544303zm1.0830279.8729813l-.2798407-.511567h-.0299601c-.1969721.2229012-.3971315.3753819-.6011156.4568601C18.8721912 50.9592609 18.6082869 51 18.2844622 51c-.3984064 0-.7120319-.1088317-.9408765-.327077C17.1141036 50.4546777 17 50.1473883 17 49.7522188c0-.4114651.1568127-.7181725.4704382-.9189582.3136255-.2013677.7681275-.3142733 1.363506-.3392987l.7056574-.0209516v-.0541248c0-.3183472-.1714741-.4778117-.5156972-.4778117-.3085259 0-.7005578.0954459-1.1760956.2869198l-.4219921-.8799651C17.9185657 47.1158155 18.5413546 47 19.2929084 47c.5431075 0 .9631872.1227994 1.2608765.3683981.2976892.2455987.4462151.5889713.4462151 1.0295358v2.5339736h-1.0122709zM23.9047012 32.0589262c.1765737 0 .3282868-.0512149.4538645-.1536447.1255777-.1018478.1886853-.2351229.1886853-.3986614v-.3003055l-.3365737.0139677c-.48.0157136-.7203187.1769242-.7203187.4842136 0 .2362869.1376892.3544303.4143426.3544303zm1.0830279.8729813l-.2798407-.511567h-.0299601c-.1969721.2229012-.3971315.3753819-.6011156.4568601C23.8721912 32.9592609 23.6082869 33 23.2844622 33c-.3984064 0-.7120319-.1088317-.9408765-.327077C22.1141036 32.4546777 22 32.1473883 22 31.7522188c0-.4114651.1568127-.7181725.4704382-.9189582.3136255-.2013677.7681275-.3142733 1.363506-.3392987l.7056574-.0209516v-.0541248c0-.3183472-.1714741-.4778117-.5156972-.4778117-.3085259 0-.7005578.0954459-1.1760956.2869198l-.4219921-.8799651C22.9185657 29.1158155 23.5413546 29 24.2929084 29c.5431075 0 .9631872.1227994 1.2608765.3683981.2976892.2455987.4462151.5889713.4462151 1.0295358v2.5339736h-1.0122709zM23.9047012 41.0589262c.1765737 0 .3282868-.0512149.4538645-.1536447.1255777-.1018478.1886853-.2351229.1886853-.3986614v-.3003055l-.3365737.0139677c-.48.0157136-.7203187.1769242-.7203187.4842136 0 .2362869.1376892.3544303.4143426.3544303zm1.0830279.8729813l-.2798407-.511567h-.0299601c-.1969721.2229012-.3971315.3753819-.6011156.4568601C23.8721912 41.9592609 23.6082869 42 23.2844622 42c-.3984064 0-.7120319-.1088317-.9408765-.327077C22.1141036 41.4546777 22 41.1473883 22 40.7522188c0-.4114651.1568127-.7181725.4704382-.9189582.3136255-.2013677.7681275-.3142733 1.363506-.3392987l.7056574-.0209516v-.0541248c0-.3183472-.1714741-.4778117-.5156972-.4778117-.3085259 0-.7005578.0954459-1.1760956.2869198l-.4219921-.8799651C22.9185657 38.1158155 23.5413546 38 24.2929084 38c.5431075 0 .9631872.1227994 1.2608765.3683981.2976892.2455987.4462151.5889713.4462151 1.0295358v2.5339736h-1.0122709zM23.9047012 50.0589262c.1765737 0 .3282868-.0512149.4538645-.1536447.1255777-.1018478.1886853-.2351229.1886853-.3986614v-.3003055l-.3365737.0139677c-.48.0157136-.7203187.1769242-.7203187.4842136 0 .2362869.1376892.3544303.4143426.3544303zm1.0830279.8729813l-.2798407-.511567h-.0299601c-.1969721.2229012-.3971315.3753819-.6011156.4568601C23.8721912 50.9592609 23.6082869 51 23.2844622 51c-.3984064 0-.7120319-.1088317-.9408765-.327077C22.1141036 50.4546777 22 50.1473883 22 49.7522188c0-.4114651.1568127-.7181725.4704382-.9189582.3136255-.2013677.7681275-.3142733 1.363506-.3392987l.7056574-.0209516v-.0541248c0-.3183472-.1714741-.4778117-.5156972-.4778117-.3085259 0-.7005578.0954459-1.1760956.2869198l-.4219921-.8799651C22.9185657 47.1158155 23.5413546 47 24.2929084 47c.5431075 0 .9631872.1227994 1.2608765.3683981.2976892.2455987.4462151.5889713.4462151 1.0295358v2.5339736h-1.0122709z" fill="#457AE6"/></g></svg>
