<svg width="64" height="64" xmlns="http://www.w3.org/2000/svg"><g fill="none" fill-rule="evenodd"><path d="M15.856 43.577h31.447c7.621 0 13.857-6.235 13.857-13.856V24.85c0-7.62-6.236-13.856-13.857-13.856H15.856C8.236 10.993 2 17.228 2 24.85v4.872c0 7.621 6.235 13.856 13.856 13.856" fill="#97BDFF"/><path d="M15.856 15.14h31.447c7.621 0 13.857 6.236 13.857 13.857v.724c0 7.62-6.236 13.857-13.857 13.857H15.856C8.236 43.578 2 37.342 2 29.72v-.724C2 21.376 8.235 15.14 15.856 15.14" fill="#97BDFF"/><path d="M15.856 39.77h31.447c7.621 0 13.857-6.236 13.857-13.857v3.807c0 7.622-6.236 13.858-13.857 13.858H15.856C8.236 43.578 2 37.34 2 29.72v-3.806c0 7.62 6.235 13.855 13.856 13.855" fill="#6DA3F2"/><path d="M18.292 44.577C8.779 44.577 1 36.797 1 27.285 1 17.772 8.78 9.993 18.292 9.993h26.576c9.512 0 17.292 7.78 17.292 17.292s-7.78 17.292-17.292 17.292H18.292zm0-2h26.576c8.407 0 15.292-6.884 15.292-15.292s-6.884-15.292-15.292-15.292H18.292C9.884 11.993 3 18.877 3 27.285s6.884 15.292 15.292 15.292z" fill="#457AE6" fill-rule="nonzero"/><path d="M38.824 27.227a7.568 7.568 0 1 0 15.136-.001 7.568 7.568 0 0 0-15.136 0" fill="#FFF"/><path d="M37.013 27.285a9.35 9.35 0 1 1 18.7 0 9.35 9.35 0 0 1-18.7 0zm2 0a7.35 7.35 0 1 0 14.7 0 7.35 7.35 0 0 0-14.7 0zM15.566 54.11v-2h32.027v2z" fill="#457AE6" fill-rule="nonzero"/><path fill="#457AE6" fill-rule="nonzero" d="M48.95 23.462l1.414 1.414-6.529 6.53-1.414-1.414z"/><path fill="#457AE6" fill-rule="nonzero" d="M50.364 29.992l-1.414 1.414-6.53-6.53 1.415-1.414z"/></g></svg>