<svg width="64" height="64" xmlns="http://www.w3.org/2000/svg" xmlns:xlink="http://www.w3.org/1999/xlink"><defs><path id="a" d="M0 .2h47.683v7.984H0z"/><path id="c" d="M0 .2h9.58v7.984H0z"/></defs><g fill="none" fill-rule="evenodd"><path fill="#97BDFF" d="M52.284 54.974H8.334l-2.13.32-.014 2.47 1.072 1.09H56.69l2.502-1.334-.24-6.427z"/><path d="M57.965 50.01h2v8.611a1 1 0 0 1-1 1H6.204a1 1 0 0 1-1-1v-3.326h2v2.326h50.761v-7.61z" fill="#97BDFF"/><path fill="#CADEFF" d="M4.027 23.875h55.91v-9.61H4.027z"/><path fill="#FFF" opacity=".7" d="M4.027 18h55.91v-3.6H4.027z"/><path d="M4 23h57v24c-3.979-.124-6.312.21-7 1-1.95 2.24.075 6.868-1 7-1.644.202-17.977-.131-49-1V23z" fill="#CADEFF"/><path d="M7 23h53v25h-6c.889 2.667.889 4 0 4H7V23z" fill="#EFF5FF"/><path d="M60.724 12.756a1 1 0 0 1 1 1v33.943a1 1 0 0 1-.29.704l-7.092 7.16a1 1 0 0 1-.71.296H4a1 1 0 0 1-1-1V13.756a1 1 0 0 1 1-1h56.724zm-1 2H5v39.103h48.215l6.51-6.571V14.756z" fill="#457AE6" fill-rule="nonzero"/><path d="M54.342 55.563c-.628.635-1.71.19-1.71-.703V47.7a1 1 0 0 1 1-1h7.092c.889 0 1.336 1.072.71 1.703l-7.092 7.16zm3.984-6.864h-3.694v3.73l3.694-3.73zM3.158 24.345v-2h57.805v2z" fill="#457AE6" fill-rule="nonzero"/><path d="M20.24 18.508c0 1.752-1.407 3.174-3.143 3.174-1.738 0-3.145-1.422-3.145-3.174s1.407-3.173 3.145-3.173c1.736 0 3.143 1.42 3.143 3.173M50.706 18.508c0 1.752-1.408 3.174-3.143 3.174-1.737 0-3.144-1.422-3.144-3.174s1.407-3.173 3.144-3.173c1.735 0 3.143 1.42 3.143 3.173" fill="#457AE6"/><path d="M17.13 20.053c-.921 0-1.675-.76-1.675-1.69V7.579c0-.93.754-1.69 1.674-1.69.92 0 1.674.76 1.674 1.69v10.784c0 .93-.753 1.69-1.674 1.69" fill="#CADEFF"/><path d="M17.13 19.053a.688.688 0 0 0 .673-.69V7.579c0-.38-.308-.69-.674-.69a.688.688 0 0 0-.674.69v10.784c0 .379.308.69.674.69zm0 2c-1.476 0-2.675-1.21-2.675-2.69V7.579c0-1.48 1.2-2.69 2.674-2.69a2.687 2.687 0 0 1 2.674 2.69v10.784c0 1.48-1.199 2.69-2.674 2.69z" fill="#457AE6" fill-rule="nonzero"/><path d="M47.595 20.053c-.92 0-1.674-.76-1.674-1.69V7.579c0-.93.753-1.69 1.674-1.69.92 0 1.674.76 1.674 1.69v10.784c0 .93-.754 1.69-1.674 1.69" fill="#CADEFF"/><path d="M47.595 19.053a.688.688 0 0 0 .674-.69V7.579a.688.688 0 0 0-.674-.69.687.687 0 0 0-.674.69v10.784c0 .38.308.69.674.69zm0 2c-1.475 0-2.674-1.21-2.674-2.69V7.579c0-1.48 1.199-2.69 2.674-2.69a2.687 2.687 0 0 1 2.674 2.69v10.784c0 1.48-1.2 2.69-2.674 2.69z" fill="#457AE6" fill-rule="nonzero"/><g><g transform="translate(9 29.8)"><mask id="b" fill="#fff"><use xlink:href="#a"/></mask><path d="M43.691 8.184H3.992a3.992 3.992 0 1 1 0-7.984h39.7a3.992 3.992 0 0 1 0 7.984" fill="#97BDFF" mask="url(#b)"/></g><path d="M34.037 47.788H12.992a3.992 3.992 0 0 1 0-7.984h21.045a3.992 3.992 0 1 1 0 7.984" fill="#97BDFF"/><g transform="translate(9 29.8)"><mask id="d" fill="#fff"><use xlink:href="#c"/></mask><path d="M5.589 8.184H3.992a3.992 3.992 0 1 1 0-7.984h1.597a3.992 3.992 0 0 1 0 7.984" fill="#457AE6" mask="url(#d)"/></g><path d="M34.027 47.8H32.43a3.992 3.992 0 1 1 0-7.984h1.598a3.991 3.991 0 0 1 0 7.984" fill="#457AE6"/></g></g></svg>