<svg xmlns="http://www.w3.org/2000/svg" xmlns:xlink="http://www.w3.org/1999/xlink" viewBox="0 0 64 64"><defs><path id="a" d="M44.7 46.7c-.4 0-.7-.1-1.1-.3l-11.6-6-11.6 6.1c-.8.4-1.7.3-2.4-.2s-1.1-1.4-.9-2.2l2.2-12.9L9.9 22c-.6-.6-.9-1.5-.6-2.4.3-.8 1-1.4 1.8-1.6l13-1.9L30 4.5c.8-1.6 3.3-1.6 4.1 0l5.8 11.7 13 1.9c.9.1 1.6.7 1.8 1.6.3.8 0 1.7-.6 2.4l-9.4 9.1L46.9 44c.1.9-.2 1.7-.9 2.2-.4.4-.8.5-1.3.5"/></defs><clipPath id="b"><use xlink:href="#a" overflow="visible"/></clipPath><path clip-path="url(#b)" fill="#6da3f2" d="M4.2-1.7h55.6v53.4H4.2z"/><defs><path id="c" d="M44.7 46.7c-.4 0-.7-.1-1.1-.3l-11.6-6-11.6 6.1c-.8.4-1.7.3-2.4-.2s-1.1-1.4-.9-2.2l2.2-12.9L9.9 22c-.6-.6-.9-1.5-.6-2.4.3-.8 1-1.4 1.8-1.6l13-1.9L30 4.5c.8-1.6 3.3-1.6 4.1 0l5.8 11.7 13 1.9c.9.1 1.6.7 1.8 1.6.3.8 0 1.7-.6 2.4l-9.4 9.1L46.9 44c.1.9-.2 1.7-.9 2.2-.4.4-.8.5-1.3.5"/></defs><clipPath id="d"><use xlink:href="#c" overflow="visible"/></clipPath><g clip-path="url(#d)"><defs><path id="e" d="M18 26h14v20H18z"/></defs><clipPath id="f"><use xlink:href="#e" overflow="visible"/></clipPath><g clip-path="url(#f)"><defs><path id="g" d="M18.3 45.3l1.8-14.8L32 26.7v12.6z"/></defs><clipPath id="h"><use xlink:href="#g" overflow="visible"/></clipPath><g clip-path="url(#h)"><defs><path id="i" d="M9 3h46v44H9z"/></defs><clipPath id="j"><use xlink:href="#i" overflow="visible"/></clipPath><path clip-path="url(#j)" fill="#457ae6" d="M13.3 21.7H37v28.7H13.3z"/></g></g></g><g><defs><path id="k" d="M44.7 46.7c-.4 0-.7-.1-1.1-.3l-11.6-6-11.6 6.1c-.8.4-1.7.3-2.4-.2s-1.1-1.4-.9-2.2l2.2-12.9L9.9 22c-.6-.6-.9-1.5-.6-2.4.3-.8 1-1.4 1.8-1.6l13-1.9L30 4.5c.8-1.6 3.3-1.6 4.1 0l5.8 11.7 13 1.9c.9.1 1.6.7 1.8 1.6.3.8 0 1.7-.6 2.4l-9.4 9.1L46.9 44c.1.9-.2 1.7-.9 2.2-.4.4-.8.5-1.3.5"/></defs><clipPath id="l"><use xlink:href="#k" overflow="visible"/></clipPath><g clip-path="url(#l)"><defs><path id="m" d="M32 16h23v15H32z"/></defs><clipPath id="n"><use xlink:href="#m" overflow="visible"/></clipPath><g clip-path="url(#n)"><defs><path id="o" d="M32 26.7l6.6-9.9L54.5 20l-11 10.5z"/></defs><clipPath id="p"><use xlink:href="#o" overflow="visible"/></clipPath><g clip-path="url(#p)"><defs><path id="q" d="M9 3h46v44H9z"/></defs><clipPath id="r"><use xlink:href="#q" overflow="visible"/></clipPath><path clip-path="url(#r)" fill="#cadeff" d="M27 11.8h32.5v23.7H27z"/></g></g></g></g><g><defs><path id="s" d="M44.7 46.7c-.4 0-.7-.1-1.1-.3l-11.6-6-11.6 6.1c-.8.4-1.7.3-2.4-.2s-1.1-1.4-.9-2.2l2.2-12.9L9.9 22c-.6-.6-.9-1.5-.6-2.4.3-.8 1-1.4 1.8-1.6l13-1.9L30 4.5c.8-1.6 3.3-1.6 4.1 0l5.8 11.7 13 1.9c.9.1 1.6.7 1.8 1.6.3.8 0 1.7-.6 2.4l-9.4 9.1L46.9 44c.1.9-.2 1.7-.9 2.2-.4.4-.8.5-1.3.5"/></defs><clipPath id="t"><use xlink:href="#s" overflow="visible"/></clipPath><g clip-path="url(#t)"><defs><path id="u" d="M10 17h23v14H10z"/></defs><clipPath id="v"><use xlink:href="#u" overflow="visible"/></clipPath><g clip-path="url(#v)"><defs><path id="w" d="M32 26.7l-7.1-9.4L10.6 20 21 30.5z"/></defs><clipPath id="x"><use xlink:href="#w" overflow="visible"/></clipPath><g clip-path="url(#x)"><defs><path id="y" d="M9 3h46v44H9z"/></defs><clipPath id="z"><use xlink:href="#y" overflow="visible"/></clipPath><path clip-path="url(#z)" fill="#cadeff" d="M5.6 12.3H37v23.2H5.6z"/></g></g></g></g><g><defs><path id="A" d="M44.7 46.7c-.4 0-.7-.1-1.1-.3l-11.6-6-11.6 6.1c-.8.4-1.7.3-2.4-.2s-1.1-1.4-.9-2.2l2.2-12.9L9.9 22c-.6-.6-.9-1.5-.6-2.4.3-.8 1-1.4 1.8-1.6l13-1.9L30 4.5c.8-1.6 3.3-1.6 4.1 0l5.8 11.7 13 1.9c.9.1 1.6.7 1.8 1.6.3.8 0 1.7-.6 2.4l-9.4 9.1L46.9 44c.1.9-.2 1.7-.9 2.2-.4.4-.8.5-1.3.5"/></defs><clipPath id="B"><use xlink:href="#A" overflow="visible"/></clipPath><g clip-path="url(#B)"><defs><path id="C" d="M24 4h16v23H24z"/></defs><clipPath id="D"><use xlink:href="#C" overflow="visible"/></clipPath><g clip-path="url(#D)"><defs><path id="E" d="M32 26.7l7.1-9.4L32 4.7l-7.1 12.6z"/></defs><clipPath id="F"><use xlink:href="#E" overflow="visible"/></clipPath><g clip-path="url(#F)"><defs><path id="G" d="M9 3h46v44H9z"/></defs><clipPath id="H"><use xlink:href="#G" overflow="visible"/></clipPath><path clip-path="url(#H)" fill="#eff5ff" d="M19.9-.3h24.2v32H19.9z"/></g></g></g></g><path d="M44.7 45.7c.3 0 .5-.1.8-.2.4-.3.6-.8.5-1.3l-2.3-13.4 9.8-9.5c.4-.3.5-.9.3-1.3-.2-.5-.6-.8-1-.9l-13.5-2-6-12.2c-.4-.8-1.9-.8-2.3 0l-6 12.2-.5.1-13 1.9c-.5.1-.9.4-1 .9-.2.5 0 1 .3 1.3l9.8 9.5-.1.5L18 44.2c-.1.5.1 1 .5 1.3.4.3.9.3 1.3.1L32 39.2l.5.2 11.6 6.1c.2.2.4.2.6.2z" fill="none" stroke="#457ae6" stroke-width="2" stroke-miterlimit="10"/><g><ellipse cx="32" cy="57.5" rx="17" ry="2.5" fill="#cadeff"/></g></svg>