<svg width="44" height="55" xmlns="http://www.w3.org/2000/svg" xmlns:xlink="http://www.w3.org/1999/xlink"><defs><path id="a" d="M.289.104h12.086v54.895H.289z"/><path id="c" d="M0 55h43.375V.104H0z"/></defs><g fill="none" fill-rule="evenodd"><path d="M-10-5h64v64h-64z"/><path fill="#CADEFF" d="M33.289 52.897h8.086V2h-8.086z"/><g transform="translate(0 -.104)"><path fill="#FFF" opacity=".699" d="M33.289 3.311h8.086v47.318h-8.086z"/><g transform="translate(31)"><mask id="b" fill="#fff"><use xlink:href="#a"/></mask><path d="M10.375.103H2.289a2 2 0 0 0-2 2V53a2 2 0 0 0 2 2h8.086a2 2 0 0 0 2-2V2.102a2 2 0 0 0-2-2zM2.289 53h8.086V2.102H2.289V53z" fill="#457AE6" mask="url(#b)"/></g><mask id="d" fill="#fff"><use xlink:href="#c"/></mask><path fill="#6DA3F2" mask="url(#d)" d="M33.289 36.325h8.086V7.623h-8.086z"/><path fill="#97BDFF" mask="url(#d)" d="M34.908 33.853h4.894V7.624h-4.894z"/><path d="M41.375 5.623h-8.086a2 2 0 0 0-2 2v28.702a2 2 0 0 0 2 2h8.086a2 2 0 0 0 2-2V7.623a2 2 0 0 0-2-2zm-8.086 30.702h8.086V7.623h-8.086v28.702zM18.559 18.866H-.001L9.088 9.78a.273.273 0 0 1 .385 0l9.087 9.087zM0 32.237h18.559l-9.087 9.087a.273.273 0 0 1-.385 0L0 32.237z" fill="#457AE6" mask="url(#d)"/><path d="M16.105 52.315c0 1.34-3.056 2.427-6.825 2.427-3.77 0-6.825-1.087-6.825-2.427s3.054-2.428 6.825-2.428c3.769 0 6.825 1.087 6.825 2.428" fill="#CADEFF" mask="url(#d)"/></g></g></svg>