<svg width="64" height="64" xmlns="http://www.w3.org/2000/svg" xmlns:xlink="http://www.w3.org/1999/xlink"><defs><path id="a" d="M16.467 0h9.08v10.136h-9.08z"/></defs><g fill="none" fill-rule="evenodd"><path fill="#CADEFF" d="M41.598 37.185h17.7V7.533h-17.7z"/><g transform="translate(19 46.94)"><path d="M3.494 5.099c-.303 0-.556.07-.759.21a1.33 1.33 0 0 0-.453.514v.684c0 .636.11 1.107.328 1.412.219.304.54.456.965.456a.982.982 0 0 0 .487-.124c.15-.084.278-.2.387-.346.108-.147.192-.32.254-.518.06-.199.09-.416.09-.65 0-.253-.032-.48-.097-.683a1.572 1.572 0 0 0-.272-.519 1.161 1.161 0 0 0-.93-.436zM5.552 0v1.794H5.43c-.389 0-.755.048-1.1.143a2.905 2.905 0 0 0-.925.43c-.27.191-.5.432-.687.72a2.71 2.71 0 0 0-.382 1.023c.23-.226.507-.408.83-.548.321-.14.696-.21 1.12-.21.451 0 .85.087 1.198.26.348.174.64.414.877.718.237.305.416.663.539 1.074.12.41.182.855.182 1.333 0 .483-.085.931-.257 1.344a3.3 3.3 0 0 1-.714 1.077 3.302 3.302 0 0 1-1.09.718c-.423.173-.884.26-1.385.26-.52 0-1.001-.089-1.446-.267a3.24 3.24 0 0 1-1.154-.78 3.604 3.604 0 0 1-.762-1.248C.09 7.349 0 6.79 0 6.168v-.833c0-.564.064-1.086.192-1.567.13-.48.309-.918.539-1.314.23-.395.506-.744.826-1.05.321-.303.673-.56 1.056-.767A5.198 5.198 0 0 1 3.842.163 5.553 5.553 0 0 1 5.186 0h.366zM12.39 3.873a5.09 5.09 0 0 0-.08-.992 2.093 2.093 0 0 0-.23-.653.912.912 0 0 0-.363-.36 1.06 1.06 0 0 0-.484-.108c-.18 0-.342.037-.485.109a.894.894 0 0 0-.358.36 2.078 2.078 0 0 0-.223.652c-.052.268-.078.6-.078.992v2.37c0 .402.026.738.078 1.008.051.272.127.49.226.654.1.165.221.283.366.355.145.073.307.109.488.109.176 0 .334-.036.476-.109a.894.894 0 0 0 .363-.355c.1-.165.176-.382.227-.654.052-.27.078-.606.078-1.008v-2.37zm2.283 2.092c0 .714-.084 1.33-.25 1.852-.168.521-.403.954-.705 1.297a2.812 2.812 0 0 1-1.084.765c-.42.167-.882.25-1.387.25-.51 0-.976-.083-1.4-.25a2.808 2.808 0 0 1-1.085-.765c-.302-.343-.54-.776-.708-1.297-.17-.521-.254-1.138-.254-1.852v-1.8c0-.709.084-1.325.25-1.85.168-.523.403-.956.705-1.3A2.812 2.812 0 0 1 9.838.25 3.75 3.75 0 0 1 11.233 0c.505 0 .969.084 1.392.25.422.168.784.423 1.086.766.302.343.539.776.708 1.3.169.524.254 1.14.254 1.848v1.801z" fill="#5590EB"/><mask id="b" fill="#fff"><use xlink:href="#a"/></mask><path d="M22.615 8.105a.821.821 0 0 0 .453.735.678.678 0 0 0 .291.064.92.92 0 0 0 .373-.064.536.536 0 0 0 .321-.433 1.81 1.81 0 0 0 .024-.302v-.522c0-.104-.014-.203-.043-.3a.726.726 0 0 0-.137-.258.646.646 0 0 0-.23-.176.753.753 0 0 0-.32-.064c-.123 0-.23.02-.322.064a.642.642 0 0 0-.23.176.739.739 0 0 0-.136.258c-.03.097-.044.196-.044.3v.522zm-1.462-.522c0-.274.046-.537.138-.785.092-.248.23-.464.413-.646a1.99 1.99 0 0 1 .687-.437c.276-.109.594-.162.955-.162.37 0 .694.053.972.162.277.108.507.254.687.437.18.182.316.398.407.646.09.248.135.51.135.785v.522c0 .28-.045.543-.135.789-.091.246-.227.46-.407.643a1.95 1.95 0 0 1-.68.437 2.616 2.616 0 0 1-.966.163c-.365 0-.686-.055-.96-.163a2.03 2.03 0 0 1-.692-.437 1.752 1.752 0 0 1-.416-.643 2.217 2.217 0 0 1-.138-.789v-.522zm-2.046 1.68l-1.062-.535 4.813-7.705 1.064.534-4.815 7.706zm-1.17-6.703a.99.99 0 0 0 .043.297c.03.096.074.18.136.254.06.075.138.134.23.176a.771.771 0 0 0 .328.065.726.726 0 0 0 .318-.065.575.575 0 0 0 .22-.176.817.817 0 0 0 .13-.254.99.99 0 0 0 .043-.297v-.522c0-.108-.014-.21-.044-.307a.78.78 0 0 0-.132-.258.603.603 0 0 0-.226-.176.753.753 0 0 0-.322-.065.733.733 0 0 0-.319.065.639.639 0 0 0-.226.176.74.74 0 0 0-.136.258c-.03.097-.043.2-.043.307v.522zm-1.47-.522c0-.28.046-.542.138-.788.093-.246.23-.461.414-.647.183-.185.412-.332.687-.44.275-.108.594-.163.955-.163.37 0 .693.055.968.163.275.108.504.255.684.44.18.186.315.4.406.647.09.246.136.508.136.788v.522c0 .275-.045.536-.136.782-.09.246-.226.46-.406.643a1.95 1.95 0 0 1-.68.437 2.594 2.594 0 0 1-.959.163c-.366 0-.686-.055-.961-.163a2.021 2.021 0 0 1-.69-.437 1.765 1.765 0 0 1-.418-.643 2.219 2.219 0 0 1-.138-.782v-.522z" fill="#5590EB" mask="url(#b)"/></g><path fill="#FFF" d="M44.589 37.185h14.708V7.533H44.589z"/><path d="M40.843 37.939H3.755A.755.755 0 0 1 3 37.185V8.288c0-.417.338-.755.755-.755h37.088c.417 0 .755.338.755.755v28.897a.755.755 0 0 1-.755.754" fill="#97BDFF"/><path fill="#6DA3F2" d="M35.578 8.027L23.03 38.659h-6.49L29.46 7.658zM41.93 37.185l-6.971 1.474 7.463-17.62zM17.863 8.027L5.315 38.659l-2.19-.958.062-9.291 8.556-20.752z"/><path d="M59.217 36.939V8.533H4v28.406h55.216zm.08 2H3.92A1.918 1.918 0 0 1 2 37.02V8.45c0-1.06.858-1.918 1.918-1.918h55.379c1.06 0 1.919.859 1.919 1.919V37.02c0 1.06-.86 1.918-1.92 1.918z" fill="#457AE6" fill-rule="nonzero"/><path fill="#457AE6" fill-rule="nonzero" d="M42.657 38.156h-2V7.316h2z"/></g></svg>