<svg width="64" height="64" xmlns="http://www.w3.org/2000/svg"><g fill="none" fill-rule="evenodd"><path d="M16.576 38.143c-5.28 0-9.576 4.296-9.576 9.576s4.296 9.576 9.576 9.576 9.576-4.296 9.576-9.576-4.296-9.576-9.576-9.576m0 21.152C10.193 59.295 5 54.102 5 47.719c0-6.383 5.193-11.576 11.576-11.576 6.383 0 11.576 5.193 11.576 11.576 0 6.383-5.193 11.576-11.576 11.576" fill="#457AE6"/><path d="M35.861 52.85c.223.03.492.03.879.03 1.026 0 1.936-.397 1.936-1.487 0-1.042-.91-1.455-2.04-1.455h-.775v2.912zm0-4.584h.745c1.19 0 1.831-.505 1.831-1.271 0-.78-.58-1.196-1.607-1.196-.492 0-.775.031-.969.062v2.405zm-2.247-3.953c.595-.123 1.8-.216 2.932-.216 1.384 0 2.234.139 2.962.583.7.383 1.207 1.088 1.207 2.024 0 .92-.522 1.778-1.653 2.206v.032c1.147.321 1.995 1.21 1.995 2.544 0 .935-.416 1.67-1.042 2.191-.73.598-1.95.936-3.946.936-1.116 0-1.95-.077-2.455-.154V44.313zM44.792 51.318c0 .153.015.29.045.413.149.629.67 1.104 1.325 1.104.967 0 1.563-.768 1.563-2.116 0-1.165-.506-2.085-1.563-2.085-.61 0-1.176.476-1.325 1.15-.03.138-.045.276-.045.43v1.104zm-2.322 3.187c.03-.49.06-1.396.06-2.238v-8.644h2.262v4.275h.03c.432-.642 1.191-1.056 2.203-1.056 1.742 0 3.022 1.486 3.008 3.786 0 2.697-1.668 4.047-3.336 4.047-.848 0-1.666-.323-2.187-1.212h-.03l-.09 1.042h-1.92zM53.694 51.318c0 .153.014.29.044.413.15.629.67 1.104 1.326 1.104.967 0 1.562-.768 1.562-2.116 0-1.165-.505-2.085-1.562-2.085-.61 0-1.177.476-1.326 1.15-.03.138-.044.276-.044.43v1.104zm-2.322 3.187c.028-.49.059-1.396.059-2.238v-8.644h2.263v4.275h.03c.431-.642 1.19-1.056 2.202-1.056 1.742 0 3.022 1.486 3.008 3.786 0 2.697-1.667 4.047-3.335 4.047-.848 0-1.667-.323-2.189-1.212h-.03l-.089 1.042h-1.92z" fill="#CADEFF"/><g><path d="M16.576 6C11.296 6 7 10.296 7 15.576s4.296 9.576 9.576 9.576 9.576-4.296 9.576-9.576S21.856 6 16.576 6m0 21.152C10.193 27.152 5 21.959 5 15.576 5 9.193 10.193 4 16.576 4c6.383 0 11.576 5.193 11.576 11.576 0 6.383-5.193 11.576-11.576 11.576" fill="#457AE6"/><path d="M16.576 22.092a6.523 6.523 0 0 1-6.516-6.516 6.523 6.523 0 0 1 6.516-6.515 6.523 6.523 0 0 1 6.516 6.515 6.523 6.523 0 0 1-6.516 6.516" fill="#6DA3F2"/><path d="M17.605 16.874c-1.653 0-2.998-1.277-2.998-2.848 0-1.57 1.345-2.847 2.998-2.847 1.653 0 2.999 1.277 2.999 2.847 0 1.571-1.346 2.848-2.999 2.848" fill="#97BDFF"/><path d="M16.576 8.06a7.515 7.515 0 1 0 0 15.031 7.516 7.516 0 1 0 0-15.03m0 2a5.522 5.522 0 0 1 5.516 5.516 5.521 5.521 0 0 1-5.516 5.514 5.521 5.521 0 0 1-5.516-5.515 5.522 5.522 0 0 1 5.516-5.516" fill="#457AE6"/><path d="M39.2 16.524l-.622-2.192c-.179-.613-.356-1.379-.505-1.992h-.029c-.148.613-.296 1.395-.46 1.992l-.593 2.192h2.21zm-2.535 1.749l-.712 2.651H33.61l3.054-10.331h2.965l3.099 10.331h-2.431l-.772-2.651h-2.86zM47.842 17.383c-1.187-.016-2.105.277-2.105 1.18 0 .598.385.89.889.89.563 0 1.023-.384 1.171-.86.03-.122.045-.26.045-.398v-.812zm.267 3.54l-.134-.75h-.044c-.475.597-1.216.92-2.076.92-1.467 0-2.342-1.104-2.342-2.3 0-1.947 1.69-2.883 4.255-2.866v-.107c0-.4-.208-.966-1.32-.966-.74 0-1.527.26-2.002.566l-.415-1.5c.505-.292 1.498-.66 2.817-.66 2.417 0 3.189 1.472 3.189 3.234v2.605c0 .722.03 1.41.103 1.825H48.11zM55.668 17.383c-1.185-.016-2.104.277-2.104 1.18 0 .598.385.89.89.89.563 0 1.023-.384 1.17-.86.03-.122.044-.26.044-.398v-.812zm.268 3.54l-.134-.75h-.043c-.475.597-1.217.92-2.076.92-1.468 0-2.343-1.104-2.343-2.3 0-1.947 1.69-2.883 4.255-2.866v-.107c0-.4-.207-.966-1.32-.966-.741 0-1.527.26-2.001.566l-.415-1.5c.504-.292 1.497-.66 2.817-.66 2.417 0 3.187 1.472 3.187 3.234v2.605c0 .722.03 1.41.104 1.825h-2.03z" fill="#CADEFF"/></g></g></svg>