<svg width="64" height="64" xmlns="http://www.w3.org/2000/svg"><g fill="none" fill-rule="evenodd"><path d="M44.855 27.294c-.474 10.724-9.55 19.034-20.275 18.561-10.725-.474-19.035-9.55-18.56-20.276.472-10.724 9.55-19.034 20.274-18.56 10.725.472 19.034 9.55 18.561 20.275" fill="#97BDFF"/><path d="M44.749 25.179c-.42 9.516-8.475 16.889-17.99 16.469-9.516-.42-16.89-8.475-16.47-17.99.42-9.516 8.475-16.89 17.99-16.47 9.517.42 16.89 8.475 16.47 17.99" fill="#CADEFF"/><path d="M44.749 25.179c.42-9.516-6.953-17.57-16.47-17.99-5.301-.235-10.144 1.955-13.471 5.582a17.163 17.163 0 0 1 11.244-3.542c9.515.42 16.889 8.474 16.468 17.99A17.171 17.171 0 0 1 38 38.107c3.907-2.995 6.515-7.626 6.749-12.928" fill="#FFF" opacity=".7"/><path d="M28.26 7.652C19 7.245 11.161 14.42 10.752 23.678c-.408 9.259 6.766 17.097 16.025 17.505 9.26.409 17.098-6.765 17.506-16.025C44.693 15.9 37.52 8.062 28.26 7.652zm-1.57 35.53c-10.362-.458-18.392-9.23-17.935-19.592.458-10.363 9.229-18.392 19.592-17.936 10.363.459 18.393 9.23 17.935 19.592-.457 10.364-9.229 18.393-19.592 17.935z" fill="#457AE6" fill-rule="nonzero"/><path d="M42.518 40.57l-2.731-2.983-2.211 2.023 2.73 2.983a2.078 2.078 0 0 1-.13 2.935l11.719 12.8 5.275-4.83L45.453 40.7a2.077 2.077 0 0 1-2.935-.13" fill="#C7E3FF"/><path d="M42.645 41.676l-2.73-2.984.48-.441-.609-.665-2.21 2.025 2.73 2.983c.775.846.717 2.16-.129 2.935l11.717 12.799 1.73-1.583L42.516 44.61a2.077 2.077 0 0 0 .13-2.935" fill="#6DA3F2"/><path d="M45.453 40.7a2.077 2.077 0 0 1-2.935-.13l-2.122-2.319-.482.44 2.73 2.985c.776.845.718 2.16-.128 2.934l11.108 12.135 3.546-3.247L45.453 40.7z" fill="#97BDFF"/><path d="M43.255 39.894c.402.44 1.084.47 1.523.068l.737-.675L58.582 53.56l-6.75 6.18-13.068-14.275.738-.675a1.078 1.078 0 0 0 .067-1.522l-3.406-3.72 3.686-3.375 3.406 3.72zM39.725 39l-.736.674 2.056 2.245a3.08 3.08 0 0 1 .432 3.55l10.48 11.448 3.8-3.48L45.278 41.99a3.078 3.078 0 0 1-3.498-.745l-2.056-2.246z" fill="#457AE6" fill-rule="nonzero"/></g></svg>