<svg width="64" height="71" fill="none" xmlns="http://www.w3.org/2000/svg"><path d="M0 17.455C0 9.42 6.512 2.909 14.545 2.909h34.91C57.488 2.91 64 9.421 64 17.455 64 25.488 57.488 32 49.455 32h-34.91C6.512 32 0 25.488 0 17.455Z" fill="#CEDEFC"/><path d="M1.94 14.545C1.94 6.512 8.451 0 16.484 0h32.97C57.488 0 64 6.512 64 14.545c0 8.034-6.512 14.546-14.545 14.546h-32.97c-8.033 0-14.546-6.512-14.546-14.546Z" fill="#EFF5FF"/><path fill-rule="evenodd" clip-rule="evenodd" d="M49.455 1.94h-32.97c-6.962 0-12.606 5.643-12.606 12.605 0 6.963 5.644 12.606 12.606 12.606h32.97c6.962 0 12.606-5.643 12.606-12.606 0-6.962-5.644-12.606-12.606-12.606ZM16.485 0C8.452 0 1.939 6.512 1.939 14.545c0 8.034 6.513 14.546 14.546 14.546h32.97C57.488 29.09 64 22.579 64 14.545 64 6.512 57.488 0 49.455 0h-32.97Z" fill="#457AE6"/><circle cx="50.424" cy="14.546" r="7.758" fill="#CEDEFC"/><path fill-rule="evenodd" clip-rule="evenodd" d="m46.83 16.769 5.818-5.818 1.372 1.371L48.2 18.14 46.83 16.77Z" fill="#457AE6"/><path fill-rule="evenodd" clip-rule="evenodd" d="m52.648 18.14-5.818-5.818 1.371-1.371 5.818 5.818-1.371 1.371Z" fill="#457AE6"/><path d="M19.948 17.37h-3.4l-.647 1.94h-2.063l3.505-9.413h1.797l3.524 9.413H20.6l-.653-1.94Zm-2.877-1.57h2.354l-1.184-3.524-1.17 3.524ZM27.474 19.31a2.075 2.075 0 0 1-.187-.627c-.453.505-1.041.757-1.765.757-.686 0-1.255-.199-1.707-.595a1.917 1.917 0 0 1-.673-1.5c0-.742.274-1.31.821-1.707.552-.397 1.347-.597 2.386-.601h.86v-.401c0-.323-.084-.582-.252-.776-.164-.194-.425-.291-.782-.291-.315 0-.563.075-.744.226-.177.151-.265.358-.265.62h-1.869c0-.404.125-.78.375-1.124.25-.345.604-.614 1.06-.808.458-.199.97-.298 1.54-.298.862 0 1.545.218 2.05.653.508.431.762 1.04.762 1.824v3.032c.004.664.097 1.166.278 1.506v.11h-1.888Zm-1.545-1.3c.276 0 .53-.06.763-.18a1.23 1.23 0 0 0 .517-.498v-1.203h-.698c-.936 0-1.433.324-1.494.97l-.006.11c0 .233.082.425.245.576.164.15.388.226.673.226ZM34.573 19.31a2.075 2.075 0 0 1-.187-.627c-.453.505-1.041.757-1.765.757-.686 0-1.255-.199-1.707-.595a1.917 1.917 0 0 1-.673-1.5c0-.742.274-1.31.822-1.707.551-.397 1.347-.597 2.385-.601h.86v-.401c0-.323-.084-.582-.252-.776-.164-.194-.424-.291-.782-.291-.315 0-.563.075-.744.226-.177.151-.265.358-.265.62h-1.868c0-.404.125-.78.375-1.124.25-.345.603-.614 1.06-.808.457-.199.97-.298 1.539-.298.862 0 1.545.218 2.05.653.508.431.762 1.04.762 1.824v3.032c.005.664.097 1.166.278 1.506v.11h-1.888Zm-1.545-1.3c.276 0 .53-.06.763-.18a1.23 1.23 0 0 0 .517-.498v-1.203h-.698c-.935 0-1.433.324-1.494.97l-.006.11c0 .233.082.425.246.576.163.15.387.226.672.226Z" fill="#457AE6"/><path d="M0 56.075C0 48.042 6.512 41.53 14.545 41.53h34.91C57.488 41.53 64 48.042 64 56.075c0 8.033-6.512 14.546-14.545 14.546h-34.91C6.512 70.62 0 64.108 0 56.075Z" fill="#CEDEFC"/><path d="M1.94 53.166c0-8.033 6.512-14.545 14.545-14.545h32.97C57.488 38.62 64 45.133 64 53.166c0 8.033-6.512 14.546-14.545 14.546h-32.97c-8.033 0-14.546-6.513-14.546-14.546Z" fill="#EFF5FF"/><path fill-rule="evenodd" clip-rule="evenodd" d="M49.455 40.56h-32.97c-6.962 0-12.606 5.644-12.606 12.606s5.644 12.606 12.606 12.606h32.97c6.962 0 12.606-5.644 12.606-12.606S56.417 40.56 49.455 40.56Zm-32.97-1.94c-8.033 0-14.546 6.513-14.546 14.546s6.513 14.546 14.546 14.546h32.97C57.488 67.712 64 61.199 64 53.166s-6.512-14.545-14.545-14.545h-32.97Z" fill="#457AE6"/><circle cx="50.424" cy="53.166" r="7.758" fill="#CEDEFC"/><path fill-rule="evenodd" clip-rule="evenodd" d="m46.83 55.39 5.818-5.819 1.372 1.372L48.2 56.76l-1.371-1.372Z" fill="#457AE6"/><path fill-rule="evenodd" clip-rule="evenodd" d="m52.648 56.76-5.818-5.817L48.2 49.57l5.818 5.818-1.371 1.372Z" fill="#457AE6"/><path d="M14.633 57.931v-9.414h3.298c1.142 0 2.009.22 2.6.66.59.435.885 1.075.885 1.92 0 .461-.119.868-.356 1.222a2.06 2.06 0 0 1-.989.77c.483.12.862.364 1.138.73.28.366.42.815.42 1.345 0 .905-.289 1.59-.866 2.056-.578.465-1.401.702-2.47.711h-3.66Zm1.94-4.1v2.542h1.662c.457 0 .812-.108 1.067-.323.258-.22.388-.522.388-.906 0-.862-.447-1.3-1.339-1.312h-1.778Zm0-1.37h1.436c.978-.017 1.467-.407 1.467-1.17 0-.427-.125-.733-.375-.918-.245-.19-.636-.285-1.17-.285h-1.358v2.373ZM29.271 54.498c0 1.12-.239 1.995-.717 2.625-.479.625-1.147.937-2.005.937-.758 0-1.364-.29-1.816-.873l-.084.744h-1.681V48h1.868v3.563c.431-.505.998-.757 1.7-.757.854 0 1.522.315 2.005.944.487.625.73 1.506.73 2.644v.104Zm-1.868-.136c0-.707-.112-1.222-.336-1.545-.224-.328-.558-.492-1.002-.492-.595 0-1.005.244-1.229.731v2.76c.229.492.642.738 1.242.738.603 0 1-.298 1.19-.892.09-.285.135-.718.135-1.3ZM36.733 54.498c0 1.12-.24 1.995-.718 2.625-.479.625-1.147.937-2.004.937-.759 0-1.364-.29-1.817-.873l-.084.744h-1.681V48h1.868v3.563c.431-.505.998-.757 1.7-.757.854 0 1.522.315 2.005.944.487.625.73 1.506.73 2.644v.104Zm-1.869-.136c0-.707-.112-1.222-.336-1.545-.224-.328-.558-.492-1.002-.492-.595 0-1.005.244-1.229.731v2.76c.229.492.643.738 1.242.738.603 0 1-.298 1.19-.892.09-.285.135-.718.135-1.3Z" fill="#457AE6"/></svg>
