<?xml version="1.0" encoding="UTF-8"?><svg width="64px" height="64px" viewBox="0 0 64 64" version="1.1" xmlns="http://www.w3.org/2000/svg" xmlns:xlink="http://www.w3.org/1999/xlink"><title>icon/component/timepicker</title><defs><polygon id="path-1" points="5.89869831 28.0004 52.7735119 28.0004 52.7735119 35.9839 5.89869831 35.9839"></polygon></defs><g id="icon/component/timepicker" stroke="none" stroke-width="1" fill="none" fill-rule="evenodd"><g id="Group" transform="translate(3.000000, 7.000000)"><polygon id="Fill-4" fill="#CADEFF" points="1 18 55.962621 18 55.962621 10 1 10"></polygon><path d="M0.983050847,17 L57.0169492,17 L57.0169492,41 C57.0377746,44.8763989 56.7100909,47.2097323 56.0338983,48 C54.1170315,50.2402463 50.2091822,48.8679999 49.1525424,49 C47.5367932,49.2018465 31.480296,48.8685131 0.983050847,48 L0.983050847,17 Z" id="Rectangle" fill="#CADEFF"></path><polygon id="Rectangle" fill="#EFF5FF" points="3.93220339 17 56.0338983 17 56.0338983 42 56.0338983 46 3.93220339 46"></polygon><polygon id="Rectangle" fill="#EFF5FF" points="1.9753307 1 56.0338983 1 55.9724398 10 1.9753307 10"></polygon><path d="M57.0123347,0 C57.5578072,0 58,0.519345771 58,1.15999125 L58,48.5 C58,49.3284271 57.3284271,50 56.5,50 C54.3358402,50 52.1716804,50 50.0075205,50 L0.98766535,50 C0.442192839,50 0,49.4806542 0,48.8400088 L0,1.15999125 C0,0.519345771 0.442192839,0 0.98766535,0 L57.0123347,0 Z M56.0246693,2.31998249 L1.9753307,2.31998249 L1.9753307,47.6800175 L56.0338983,47.6800175 L56.0246693,40.0567922 L56.0246693,2.31998249 Z" id="Stroke-6" fill="#457AE6" fill-rule="nonzero"></path><path d="M51.1186441,42 L51.1186441,46 L51.1186441,42 Z" id="Stroke-8" fill="#457AE6" fill-rule="nonzero"></path><polygon id="Stroke-10" fill="#457AE6" fill-rule="nonzero" points="0 13 0 11 57.0169492 11 57.0169492 13"></polygon><mask id="mask-2" fill="white"><use xlink:href="#path-1"></use></mask><g id="Clip-2"></g><path d="M49.8977413,35 L9.10225867,35 C6.83635677,35 5,33.2094188 5,31 C5,28.7915832 6.83635677,27 9.10225867,27 L49.8977413,27 C52.1636432,27 54,28.7915832 54,31 C54,33.2094188 52.1636432,35 49.8977413,35" id="Fill-1" fill="#97BDFF"></path><g id="Group-2" transform="translate(25.000000, 19.000000)" fill="#457AE6"><rect id="Rectangle" x="-1.84741111e-13" y="0" width="8.84745763" height="4" rx="2"></rect><rect id="Rectangle" x="-1.84741111e-13" y="10" width="8.84745763" height="4" rx="2"></rect><rect id="Rectangle" x="-1.84741111e-13" y="20" width="8.84745763" height="4" rx="2"></rect></g><rect id="Rectangle" fill="#457AE6" x="14.7457627" y="4.5" width="8.84745763" height="4" rx="2"></rect><g id="Group-3" transform="translate(8.000000, 19.000000)" fill="#457AE6"><rect id="Rectangle" x="-1.84741111e-13" y="0" width="8.84745763" height="4" rx="2"></rect><rect id="Rectangle" x="-1.84741111e-13" y="10" width="8.84745763" height="4" rx="2"></rect><rect id="Rectangle" x="-1.84741111e-13" y="20" width="8.84745763" height="4" rx="2"></rect></g><rect id="Rectangle" fill="#457AE6" x="3.93220339" y="4.5" width="8.84745763" height="4" rx="2"></rect><g id="Group-4" transform="translate(42.000000, 19.000000)" fill="#457AE6"><rect id="Rectangle" x="-1.84741111e-13" y="0" width="8.84745763" height="4" rx="2"></rect><rect id="Rectangle" x="-1.84741111e-13" y="10" width="8.84745763" height="4" rx="2"></rect><rect id="Rectangle" x="-1.84741111e-13" y="20" width="8.84745763" height="4" rx="2"></rect></g><rect id="Rectangle" fill="#457AE6" x="25.559322" y="4.5" width="8.84745763" height="4" rx="2"></rect></g></g></svg>
