<svg width="64" height="64" xmlns="http://www.w3.org/2000/svg"><g fill="none" fill-rule="evenodd"><path d="M10.449 18.898h27.615c3.547 0 6.449-2.902 6.449-6.45 0-3.546-2.902-6.447-6.449-6.447H10.449C6.902 6 4 8.9 4 12.449c0 3.547 2.902 6.449 6.449 6.449z" fill="#CADEFF"/><path d="M58.962 56.294H5.288a.84.84 0 0 1-.841-.84V29.731c0-.464.377-.84.84-.84h8.78l5.216-5.216 5.215 5.215h34.464c.465 0 .84.377.84.841v25.723a.84.84 0 0 1-.84.84" fill="#6DA3F2"/><path d="M5.288 55.956h49.674a.84.84 0 0 0 .84-.84V33.73a.84.84 0 0 0-.84-.84H18.498l-5.215-5.214-5.216 1.435h-2.78c-.463 0-.84 4.157-.84 4.62v21.385c0 .464.377.84.84.84" fill="#97BDFF"/><path d="M58.803 55.294V29.89H24.498a1 1 0 0 1-.707-.292l-4.508-4.508-4.51 4.508a1 1 0 0 1-.706.292h-8.62v25.404h53.356zM24.912 27.89h34.05c1.017 0 1.84.825 1.84 1.841v25.723a1.84 1.84 0 0 1-1.84 1.84H5.288a1.84 1.84 0 0 1-1.841-1.84V29.731c0-1.016.824-1.84 1.84-1.84h8.366l4.923-4.923a1 1 0 0 1 1.414 0l4.922 4.922z" fill="#457AE6" fill-rule="nonzero"/><path fill="#457AE6" fill-rule="nonzero" d="M28.406 45.216v-2h14.009v2z"/><path fill="#457AE6" fill-rule="nonzero" d="M42.303 45.216v-2H53.91v2zM28.406 50.233v-2h7.986v2zM39.848 50.233v-2h5.407v2zM28.406 40.397v-2h17.001v2zM48.601 40.397v-2h5.374v2z"/><path fill="#FFF" d="M9.247 49.494l7.163-11.482 7.162 11.482z"/><path d="M21.77 48.494L16.41 39.9l-5.36 8.593h10.72zm-13.372.47l7.163-11.482a1 1 0 0 1 1.697 0l7.162 11.482a1 1 0 0 1-.848 1.53H9.247a1 1 0 0 1-.849-1.53z" fill="#457AE6" fill-rule="nonzero"/><path d="M9.89 5.542h29.543c3.017 0 5.485 2.468 5.485 5.484v.287c0 3.015-2.468 5.484-5.485 5.484H9.89c-3.017 0-5.484-2.469-5.484-5.485v-.286c0-3.016 2.467-5.484 5.484-5.484" fill="#FFF" opacity=".7"/><path d="M9.484 16.202h29.544c3.017 0 5.485-1.777 5.485-5.172v1.696c0 3.395-2.468 6.172-5.485 6.172H9.484C6.467 18.898 4 16.12 4 12.726V11.03c0 3.395 2.467 5.172 5.484 5.172" fill="#CADEFF"/><path d="M10.449 19.898c-4.1 0-7.449-3.35-7.449-7.45 0-4.098 3.35-7.447 7.449-7.447h27.615c4.1 0 7.449 3.349 7.449 7.448 0 4.1-3.35 7.449-7.449 7.449H10.449zm0-2h27.615c2.995 0 5.449-2.454 5.449-5.45 0-2.994-2.454-5.447-5.449-5.447H10.449C7.454 7 5 9.454 5 12.449c0 2.995 2.454 5.449 5.449 5.449z" fill="#457AE6" fill-rule="nonzero"/></g></svg>