<svg width="47" height="58" xmlns="http://www.w3.org/2000/svg" xmlns:xlink="http://www.w3.org/1999/xlink"><defs><path id="a" d="M.13.145h22.42V5H.13z"/></defs><g fill="none" fill-rule="evenodd"><path d="M-9-3h64v64H-9z"/><path d="M15.157 37.448c-7.792-4.52-10.445-14.5-5.925-22.29 4.52-7.793 14.5-10.446 22.291-5.927 7.792 4.52 10.445 14.5 5.926 22.292-4.52 7.792-14.5 10.445-22.292 5.925m19.39-33.43C23.877-2.17 10.208 1.462 4.02 12.133c-6.19 10.67-2.557 24.338 8.114 30.528 10.671 6.19 24.34 2.557 30.528-8.114 6.19-10.67 2.557-24.339-8.114-30.529" fill="#49A4F5"/><path d="M42.662 34.547c6.189-10.671 2.557-24.339-8.114-30.528-10.671-6.19-24.34-2.557-30.53 8.114l5.214 3.024c4.52-7.792 14.5-10.445 22.292-5.925 7.792 4.519 10.445 14.5 5.925 22.292-3.895 6.715-11.847 9.6-18.958 7.378l-1.796 5.761c9.74 3.045 20.632-.917 25.967-10.116" fill="#6DA3F2"/><path d="M15.157 37.448c-7.792-4.52-10.445-14.5-5.925-22.29L4.02 12.132c-6.19 10.67-2.557 24.338 8.114 30.528a22.366 22.366 0 0 0 4.562 2.002l1.795-5.76a16.3 16.3 0 0 1-3.333-1.455" fill="#CADEFF"/><path d="M9.757 15.331L5.74 13c-6.35 10.32-.744 22.714 7.482 27.486a17.239 17.239 0 0 0 3.517 1.543l.832-2.908A12.557 12.557 0 0 1 15 38C8.993 34.517 4.151 23.659 9.757 15.331z" fill="#EEF5FF"/><path d="M41.797 34.045c5.912-10.193 2.442-23.25-7.751-29.161-10.193-5.913-23.25-2.443-29.162 7.75-5.913 10.194-2.442 23.25 7.752 29.162 10.193 5.913 23.249 2.443 29.16-7.75zm1.73 1.004C37.06 46.198 22.78 49.993 11.632 43.526.483 37.06-3.313 22.78 3.154 11.631 9.62.482 23.9-3.313 35.049 3.154 46.198 9.62 49.993 23.9 43.527 35.049z" fill="#457AE6" fill-rule="nonzero"/><path d="M36.798 31.146c4.311-7.432 1.78-16.952-5.652-21.263s-16.952-1.78-21.264 5.651c-4.31 7.433-1.78 16.953 5.653 21.265 7.432 4.31 16.952 1.78 21.263-5.653zm1.73 1.003c-4.865 8.388-15.609 11.245-23.997 6.38-8.388-4.866-11.243-15.61-6.379-23.998 4.866-8.388 15.61-11.243 23.998-6.378 8.388 4.865 11.243 15.609 6.378 23.996z" fill="#457AE6" fill-rule="nonzero"/><path fill="#457AE6" fill-rule="nonzero" d="M10.384 14.669l-1.003 1.73-6.73-3.902 1.004-1.73zM17.372 45.905l-1.919-.565 1.955-6.639 1.919.565z"/><g transform="translate(12 52.998)"><mask id="b" fill="#fff"><use xlink:href="#a"/></mask><path d="M22.55 2.572C22.55 3.913 17.533 5 11.34 5 5.15 5 .13 3.913.13 2.572.13 1.232 5.149.145 11.34.145c6.192 0 11.21 1.087 11.21 2.427" fill="#CADEFF" mask="url(#b)"/></g></g></svg>