<?xml version="1.0" standalone="no"?>
<!DOCTYPE svg PUBLIC "-//W3C//DTD SVG 1.1//EN" "http://www.w3.org/Graphics/SVG/1.1/DTD/svg11.dtd" >
<svg xmlns="http://www.w3.org/2000/svg">
<metadata>Generated by IcoMoon</metadata>
<defs>
<font id="icomoon" horiz-adv-x="1024">
<font-face units-per-em="1024" ascent="960" descent="-64" />
<missing-glyph horiz-adv-x="1024" />
<glyph unicode="&#x20;" horiz-adv-x="512" d="" />
<glyph unicode="&#xe900;" glyph-name="nb-alert" d="M888.32 197.734l0.486 0.666c0.205 0.307 0.358 0.589 0.538 0.896l0.486 0.819c0.128 0.256 0.256 0.538 0.384 0.794s0.333 0.666 0.461 1.024 0.179 0.461 0.256 0.717 0.282 0.768 0.41 1.178 0 0.461 0.179 0.691 0.205 0.819 0.307 1.229 0 0.589 0.128 0.896 0 0.717 0.154 1.075 0 1.152 0 1.741c0 0 0 0.179 0 0.256v0c0.017 0.31 0.026 0.672 0.026 1.037s-0.010 0.727-0.028 1.087l0.002-0.050v0.205c0 0.589-0.154 1.178-0.282 1.766s-0.128 0.538-0.205 0.819-0.179 0.742-0.282 1.101-0.282 0.794-0.435 1.178-0.154 0.461-0.256 0.691-0.538 1.178-0.819 1.741v0c-0.381 0.712-0.737 1.298-1.121 1.864l0.046-0.072-358.81 528.819c-0.256 0.384-0.538 0.742-0.819 1.101l-0.563 0.64-0.768 0.819-0.845 0.794-0.614 0.563-1.126 0.845-0.41 0.282-1.229 0.742-0.563 0.333-1.075 0.512-0.819 0.358-0.768 0.282-1.152 0.41h-0.435l-1.51 0.358h-0.256c-0.563 0-1.101 0.179-1.664 0.23h-4.045c-0.563 0-1.101-0.128-1.664-0.23h-0.282l-1.485-0.358h-0.435l-1.126-0.384-0.768-0.282-0.794-0.358-1.075-0.512-0.538-0.307-1.229-0.742-0.384-0.282-1.126-0.87-0.614-0.538-0.845-0.794-0.768-0.819-0.563-0.64c-0.282-0.358-0.563-0.717-0.819-1.101l-0.307-0.41-0.23-0.358-358.298-527.949c-0.338-0.494-0.695-1.080-1.022-1.684l-0.054-0.108c-0.307-0.563-0.589-1.152-0.819-1.741s-0.179-0.461-0.256-0.691-0.307-0.768-0.435-1.178-0.205-0.742-0.282-1.101-0.154-0.538-0.205-0.819-0.205-1.178-0.282-1.766v-0.205c-0.017-0.31-0.026-0.672-0.026-1.037s0.010-0.727 0.028-1.087l-0.002 0.050s0-0.179 0-0.256c0-0.589 0-1.152 0-1.741s0-0.717 0.154-1.075 0-0.589 0.128-0.896 0.179-0.819 0.307-1.229 0-0.461 0.179-0.691 0.256-0.794 0.41-1.178 0.154-0.461 0.256-0.717 0.307-0.691 0.461-1.024 0.256-0.538 0.384-0.794l0.486-0.819c0.179-0.307 0.358-0.614 0.538-0.896l0.486-0.666c0.23-0.307 0.461-0.64 0.717-0.947l0.512-0.589c0.256-0.307 0.512-0.589 0.794-0.87l0.742-0.691 0.717-0.64q0.768-0.64 1.587-1.203v0c0.722-0.476 1.562-0.945 2.435-1.355l0.125-0.053 0.512-0.256c0.695-0.331 1.543-0.662 2.417-0.934l0.143-0.039h0.307c0.614-0.185 1.392-0.363 2.184-0.495l0.12-0.017h0.742c0.763-0.107 1.65-0.172 2.551-0.179h716.86c0.91 0.007 1.797 0.072 2.667 0.191l-0.107-0.012h0.742c0.912 0.149 1.69 0.327 2.449 0.548l-0.145-0.036h0.307c1.017 0.311 1.865 0.641 2.684 1.025l-0.124-0.052 0.512 0.256c0.998 0.463 1.838 0.932 2.638 1.456l-0.078-0.048q0.819 0.563 1.587 1.203l0.717 0.64 0.742 0.691c0.282 0.282 0.538 0.589 0.794 0.87l0.512 0.589c0.077 0.179 0.307 0.486 0.589 0.794zM513.28 701.44l319.77-471.245h-639.539zM468.48 509.44c2.604-29.12 7.355-55.724 14.196-81.477l-0.756 3.345q1.024-4.019 2.15-8.013t2.33-7.936q1.229-3.942 2.56-7.68c0.87-2.56 1.766-5.12 2.56-7.475l0.256-0.691c3.499-9.036 12.108-15.332 22.192-15.36h0.31c10.317 0.14 19.032 6.841 22.172 16.114l0.049 0.167c0.384 1.126 0.717 2.278 1.075 3.379s0.64 2.048 0.973 3.046q1.306 3.866 2.56 7.68t2.355 7.936c0.768 2.56 1.485 5.35 2.176 8.038l0.179 0.666c6.057 22.464 10.765 49.12 13.182 76.435l0.13 1.824c1.315 13.175 2.065 28.475 2.065 43.951 0 1.388-0.006 2.774-0.018 4.159l0.001-0.213c-0.23 12.621-1.587 30.976-10.906 44.57-5.867 9.029-14.886 15.586-25.466 18.143l-0.287 0.059c-3.251 0.655-6.988 1.030-10.813 1.030-0.303 0-0.605-0.002-0.907-0.007l0.046 0.001c-0.151 0.002-0.329 0.003-0.508 0.003-4.704 0-9.231-0.76-13.464-2.163l0.302 0.087c-9.166-3.311-16.7-9.291-21.865-16.993l-0.1-0.159c-9.318-13.594-10.701-31.949-10.906-44.57-0.005-0.802-0.008-1.751-0.008-2.7 0-15.916 0.793-31.647 2.342-47.155l-0.158 1.958zM513.69 365.107c-23.767 0-43.034-19.267-43.034-43.034s19.267-43.034 43.034-43.034c23.767 0 43.034 19.267 43.034 43.034v0c-0.029 23.755-19.278 43.004-43.031 43.034h-0.003z" />
<glyph unicode="&#xe901;" glyph-name="nb-angle-double-left" d="M781.338 162.406l-300.058 278.886 298.138 285.235c3.786 3.719 6.132 8.892 6.132 14.614 0 11.311-9.169 20.48-20.48 20.48-5.403 0-10.318-2.092-13.977-5.511l0.012 0.011-311.706-298.086c-0.611-0.594-1.18-1.22-1.71-1.88l-0.031-0.040c-0.41-0.384-0.845-0.768-1.229-1.203-3.393-3.645-5.476-8.549-5.476-13.94 0-5.925 2.516-11.263 6.539-15.002l0.013-0.012 315.955-293.555c3.67-3.511 8.657-5.672 14.148-5.672 11.311 0 20.48 9.169 20.48 20.48 0 6.020-2.597 11.433-6.732 15.18l-0.017 0.015zM286.336 441.293l298.266 285.235c3.786 3.719 6.132 8.892 6.132 14.614 0 11.311-9.169 20.48-20.48 20.48-5.403 0-10.318-2.092-13.977-5.511l0.012 0.011-311.706-298.086c-0.611-0.594-1.18-1.22-1.71-1.88l-0.031-0.040c-0.41-0.384-0.845-0.768-1.229-1.203-3.393-3.645-5.476-8.549-5.476-13.94 0-5.925 2.516-11.263 6.539-15.002l0.013-0.012 315.955-293.555c3.67-3.511 8.657-5.672 14.148-5.672 11.311 0 20.48 9.169 20.48 20.48 0 6.020-2.597 11.433-6.732 15.18l-0.017 0.015z" />
<glyph unicode="&#xe902;" glyph-name="nb-angle-double-right" d="M634.88 432.64c0.41 0.384 0.819 0.742 1.203 1.178 3.393 3.645 5.476 8.549 5.476 13.94 0 5.925-2.516 11.263-6.539 15.002l-0.013 0.012-315.827 293.555c-3.67 3.511-8.657 5.672-14.148 5.672-11.311 0-20.48-9.169-20.48-20.48 0-6.020 2.597-11.433 6.732-15.18l0.017-0.015 300.058-278.912-298.138-285.21c-3.786-3.719-6.132-8.892-6.132-14.614 0-11.311 9.169-20.48 20.48-20.48 5.403 0 10.318 2.092 13.977 5.511l-0.012-0.011 311.706 298.086c0.566 0.592 1.103 1.226 1.6 1.892l0.038 0.054zM829.978 462.746l-315.981 293.581c-3.67 3.511-8.657 5.672-14.148 5.672-11.311 0-20.48-9.169-20.48-20.48 0-6.020 2.597-11.433 6.732-15.18l0.017-0.015 300.186-278.912-298.266-285.21c-3.786-3.719-6.132-8.892-6.132-14.614 0-11.311 9.169-20.48 20.48-20.48 5.403 0 10.318 2.092 13.977 5.511l-0.012-0.011 311.706 298.086c0.621 0.602 1.198 1.236 1.735 1.905l0.031 0.040c0.41 0.384 0.819 0.742 1.203 1.178 3.393 3.644 5.475 8.548 5.475 13.939 0 5.913-2.506 11.24-6.513 14.978l-0.012 0.011z" />
<glyph unicode="&#xe903;" glyph-name="nb-arrow-down" d="M823.117 618.086c-3.671 3.516-8.661 5.681-14.157 5.681-5.814 0-11.062-2.423-14.79-6.313l-0.007-0.007-282.163-295.091-282.163 295.066c-3.749 4.013-9.072 6.515-14.98 6.515-11.311 0-20.48-9.169-20.48-20.48 0-5.589 2.239-10.656 5.869-14.351l-0.003 0.003 299.699-312.909 0.819-0.563 0.922-0.563 0.819-0.461 0.998-0.486 0.819-0.358 1.101-0.384 0.768-0.256 1.203-0.307 0.717-0.179 1.382-0.205h0.589c0.666 0 1.306 0 1.971 0v0c0.666 0 1.306 0 1.971 0h0.589l1.357 0.205 0.717 0.179 1.203 0.307 0.768 0.256 1.101 0.384 0.794 0.358 0.998 0.486 0.819 0.461 0.922 0.563 0.794 0.563 0.87 0.666 0.742 0.64 0.486 0.435 0.333 0.333 0.333 0.307 296.96 310.554c3.502 3.668 5.656 8.648 5.656 14.131 0 5.827-2.433 11.086-6.34 14.815l-0.008 0.008z" />
<glyph unicode="&#xe904;" glyph-name="nb-arrow-dropdown" d="M197.12 601.6c0-0.384 0-0.742 0-1.126s0-0.64 0-0.947 0-0.691 0.154-1.024 0.128-0.666 0.23-0.998 0.154-0.64 0.256-0.947 0.205-0.64 0.307-0.973 0.205-0.614 0.333-0.922 0.256-0.614 0.41-0.922l0.435-0.896 0.486-0.87 0.512-0.845 0.614-0.87 0.563-0.768 0.768-0.87 0.435-0.486 299.622-312.883 0.896-0.614 0.819-0.512 0.922-0.512 0.87-0.435 0.922-0.41 0.947-0.358 0.922-0.307 0.973-0.256 0.922-0.205 0.998-0.179h5.837l0.973 0.154 0.973 0.205 0.947 0.256 0.947 0.307 0.922 0.333 0.947 0.41 0.87 0.435 0.922 0.512 0.819 0.512 0.896 0.614 0.768 0.589 0.819 0.717 0.435 0.384 0.307 0.333 0.333 0.307 299.34 313.548 0.512 0.845 0.486 0.87 0.435 0.896c0.128 0.307 0.282 0.614 0.41 0.922s0.23 0.614 0.333 0.922 0.23 0.64 0.307 0.973 0.179 0.64 0.256 0.947 0.154 0.666 0.23 0.998 0 0.691 0.154 1.024 0 0.64 0 0.947 0 0.742 0 1.126 0 0.435 0 0.666 0 0.154 0 0.23 0 0.768 0 1.152 0 0.614 0 0.896 0 0.666-0.154 0.998 0 0.666-0.179 0.998-0.154 0.563-0.23 0.845-0.179 0.717-0.282 1.075-0.205 0.563-0.307 0.819-0.23 0.691-0.384 1.024-0.282 0.614-0.435 0.922-0.282 0.589-0.435 0.87-0.358 0.589-0.538 0.896-0.333 0.538-0.486 0.794l-0.589 0.794-0.64 0.819-0.589 0.64-0.794 0.845-0.154 0.154-0.538 0.461-0.819 0.691-0.794 0.589-0.794 0.563-0.896 0.538-0.819 0.461-0.947 0.461-0.845 0.384-0.973 0.358-0.896 0.307-1.024 0.256-0.896 0.205-1.178 0.179h-0.794c-0.666 0-1.331 0-1.997 0h-593.613c-0.666 0-1.331 0-1.997 0h-0.794l-1.178-0.179-0.896-0.205-0.998-0.256-0.896-0.307-0.973-0.358-0.845-0.384-0.947-0.461-0.819-0.461-0.896-0.538-0.794-0.563-0.794-0.589-0.819-0.691-0.538-0.461-0.154-0.154-0.794-0.845-0.589-0.64-0.64-0.819-0.589-0.794c-0.179-0.256-0.333-0.538-0.486-0.794s-0.384-0.589-0.538-0.896-0.282-0.589-0.435-0.87-0.307-0.614-0.435-0.922-0.256-0.691-0.384-1.024-0.205-0.563-0.307-0.819-0.205-0.717-0.282-1.075-0.154-0.563-0.23-0.845 0-0.666-0.179-0.998 0-0.666-0.154-0.998 0-0.614 0-0.896 0-0.768 0-1.152 0-0.154 0-0.23-0.102-0.282-0.102-0.614z" />
<glyph unicode="&#xe905;" glyph-name="nb-arrow-dropleft" d="M704 766.31h-2.074l-1.024-0.154-0.998-0.23-0.947-0.256-0.973-0.307-0.922-0.333-0.922-0.41-0.896-0.435-0.87-0.486-0.845-0.512-0.87-0.614-0.768-0.563-0.87-0.768-0.486-0.435-312.883-299.622-0.614-0.896-0.512-0.819-0.512-0.922-0.435-0.87-0.41-0.922c0-0.307-0.23-0.614-0.358-0.947s-0.205-0.614-0.307-0.922-0.179-0.64-0.256-0.973-0.154-0.614-0.205-0.922 0-0.666-0.179-0.998 0-0.614 0-0.947 0-0.666 0-0.998 0-0.64 0-0.947 0-0.666 0-0.998 0-0.64 0-0.973 0-0.666 0-0.973 0-0.64 0.154-0.973 0.128-0.64 0.205-0.973 0.154-0.64 0.256-0.947 0.205-0.64 0.307-0.947l0.333-0.922 0.41-0.947 0.435-0.87 0.512-0.922 0.512-0.819 0.614-0.896 0.589-0.768 0.717-0.819 0.384-0.435 0.333-0.307 0.307-0.333 313.548-299.34 0.845-0.512 0.87-0.486 0.896-0.435 0.922-0.41 0.922-0.333 0.973-0.307 0.947-0.256 0.998-0.23 1.024-0.154h5.018l0.998 0.154 0.998 0.179 0.845 0.23 1.075 0.282 1.843 0.691 0.922 0.435 0.87 0.435 0.896 0.538 0.794 0.486 0.794 0.589 0.819 0.64 0.64 0.589 0.845 0.794 0.154 0.154 0.461 0.538 0.691 0.819 0.589 0.794 0.794 0.64 0.538 0.896 0.461 0.819c0.154 0.307 0.307 0.64 0.461 0.947s0.256 0.563 0.384 0.845 0.23 0.64 0.358 0.973 0.205 0.589 0.307 0.896 0.179 0.666 0.256 1.024 0.154 0.589 0.205 0.896 0 0.768 0.179 1.178 0 0.512 0 0.794c0 0.666 0 1.331 0 1.997v0 593.92c0 0.666 0 1.331 0 1.997 0 0.256 0 0.538 0 0.794s0 0.768-0.179 1.178-0.154 0.614-0.205 0.896-0.154 0.666-0.256 0.998-0.205 0.614-0.307 0.896-0.23 0.64-0.358 0.973-0.256 0.563-0.384 0.845-0.282 0.64-0.461 0.947l-0.461 0.819-0.538 0.896-0.563 0.794-0.589 0.794-0.691 0.819-0.461 0.538-0.154 0.154-0.845 0.794-0.64 0.589-0.819 0.64-0.87 0.538-0.794 0.486-0.896 0.538-0.87 0.435-0.922 0.435-1.843 0.691-1.075 0.282-0.845 0.23-0.998 0.179-0.998 0.154h-3.046z" />
<glyph unicode="&#xe906;" glyph-name="nb-arrow-dropright" d="M357.402 100.762h2.074l1.024 0.154 0.998 0.23 0.947 0.256 0.973 0.307 0.922 0.333 0.922 0.41 0.896 0.435 0.87 0.486 0.845 0.512 0.87 0.614 0.768 0.563 0.87 0.768 0.486 0.435 312.883 299.622 0.614 0.896 0.512 0.819 0.512 0.922 0.435 0.87 0.41 0.922c0 0.307 0.23 0.614 0.358 0.947s0.205 0.614 0.307 0.922 0.179 0.64 0.256 0.973 0.154 0.614 0.205 0.922 0 0.666 0.179 0.998 0 0.614 0 0.947 0 0.666 0 0.998 0 0.64 0 0.947 0 0.666 0 0.998 0 0.64 0 0.973 0 0.666 0 0.973 0 0.64-0.154 0.973-0.128 0.64-0.205 0.973-0.154 0.64-0.256 0.947-0.205 0.64-0.307 0.947l-0.333 0.922-0.41 0.947-0.435 0.87-0.512 0.922-0.512 0.819-0.614 0.896-0.589 0.768-0.717 0.819-0.384 0.435-0.333 0.307-0.307 0.333-313.548 299.34-0.845 0.512-0.87 0.486-0.896 0.435-0.922 0.41-0.87 0.486-0.973 0.307-0.947 0.256-0.998 0.23-1.024 0.154h-5.018l-0.998-0.154-0.998-0.179-0.845-0.23-1.075-0.282-1.843-0.691-0.922-0.435-0.87-0.435-0.896-0.538-0.794-0.486-0.794-0.589-0.819-0.64-0.64-0.589-0.845-0.794-0.154-0.154-0.461-0.538-0.691-0.819-0.589-0.794-0.563-0.794-0.538-0.896-0.461-0.819c-0.154-0.307-0.307-0.64-0.461-0.947s-0.256-0.563-0.384-0.845-0.23-0.64-0.358-0.973-0.205-0.589-0.307-0.896-0.179-0.666-0.256-1.024-0.154-0.589-0.205-0.896 0-0.768-0.179-1.178 0-0.512 0-0.794c0-0.666 0-1.331 0-1.997v0-593.92c0-0.666 0-1.331 0-1.997 0-0.256 0-0.538 0-0.794s0-0.768 0.179-1.178 0.154-0.614 0.205-0.896 0.154-0.666 0.256-0.998 0.205-0.614 0.307-0.896 0.23-0.64 0.358-0.973 0.256-0.563 0.384-0.845 0.282-0.64 0.461-0.947l0.461-0.819 0.538-0.896 0.563-0.794 0.589-0.794 0.691-0.819 0.461-0.538 0.154-0.154 0.845-0.794 0.64-0.589 0.819-0.64 0.794-0.589 0.794-0.486 0.896-0.538 0.87-0.435 0.922-0.435 1.843-0.691 1.075-0.282 0.845-0.23 0.998-0.179 0.998-0.154h2.944z" />
<glyph unicode="&#xe907;" glyph-name="nb-arrow-dropup" d="M832 305.306c0 0.384 0 0.742 0 1.126s0 0.64 0 0.947 0 0.691-0.154 1.024-0.128 0.666-0.23 0.998-0.154 0.64-0.256 0.947-0.205 0.64-0.307 0.973-0.205 0.614-0.333 0.922-0.256 0.614-0.41 0.922l-0.435 0.896-0.486 0.87-0.512 0.845-0.614 0.87-0.563 0.768-0.768 0.87-0.435 0.486-299.622 312.883-0.896 0.614-0.819 0.512-0.922 0.512-0.87 0.435-0.922 0.41-0.947 0.358-0.922 0.307-0.973 0.256-0.922 0.205-0.998 0.179h-5.837l-0.973-0.154-0.973-0.205-0.947-0.256-0.947-0.307-0.922-0.333-0.947-0.41-0.87-0.435-0.922-0.512-0.819-0.512-0.896-0.614-0.768-0.589-0.819-0.717-0.435-0.384-0.307-0.333-0.333-0.307-299.34-313.548-0.512-0.845-0.486-0.87-0.435-0.896c-0.128-0.307-0.282-0.614-0.41-0.922s-0.23-0.614-0.333-0.922-0.23-0.64-0.307-0.973-0.179-0.64-0.256-0.947-0.154-0.666-0.23-0.998 0-0.691-0.154-1.024 0-0.64 0-0.947 0-0.742 0-1.126 0-0.435 0-0.666 0-0.154 0-0.23 0-0.768 0-1.152 0-0.614 0-0.896 0-0.666 0.154-0.998 0-0.666 0.179-0.998 0.154-0.563 0.23-0.845 0.179-0.717 0.282-1.075 0.205-0.563 0.307-0.819 0.23-0.691 0.384-1.024 0.282-0.614 0.435-0.922 0.282-0.589 0.435-0.87 0.358-0.589 0.538-0.896 0.333-0.538 0.486-0.794l0.589-0.794 0.64-0.819 0.589-0.64 0.794-0.845 0.154-0.154 0.538-0.461 0.819-0.691 0.794-0.589 0.794-0.563 0.896-0.538 0.819-0.461 0.947-0.461 0.845-0.384 0.973-0.358 0.896-0.307 1.024-0.256 0.896-0.205 1.178-0.179h0.794c0.666 0 1.331 0 1.997 0h593.613c0.666 0 1.331 0 1.997 0h0.794l1.178 0.179 0.896 0.205 0.998 0.256 0.896 0.307 0.973 0.358 0.845 0.384 0.947 0.461 0.819 0.461 0.896 0.538 0.794 0.563 0.794 0.589 0.819 0.691 0.538 0.461 0.154 0.154 0.794 0.845 0.589 0.64 0.64 0.819 0.589 0.794c0.179 0.256 0.333 0.538 0.486 0.794s0.384 0.589 0.538 0.896 0.282 0.589 0.435 0.87 0.307 0.614 0.435 0.922 0.256 0.691 0.384 1.024 0.205 0.563 0.307 0.819 0.205 0.717 0.282 1.075 0.154 0.563 0.23 0.845 0 0.666 0.179 0.998 0 0.666 0.154 0.998 0 0.614 0 0.896 0 0.768 0 1.152 0 0.154 0 0.23 0.102 0.384 0.102 0.614z" />
<glyph unicode="&#xe908;" glyph-name="nb-arrow-left" d="M386.355 450.56l295.066 282.163c3.786 3.719 6.132 8.892 6.132 14.614 0 11.311-9.169 20.48-20.48 20.48-5.403 0-10.318-2.092-13.977-5.511l0.012 0.011-312.883-299.622-0.614-0.896-0.512-0.819-0.512-0.896-0.435-0.896-0.41-0.922-0.358-0.947c0-0.307-0.205-0.614-0.307-0.922s-0.179-0.666-0.256-0.973-0.154-0.614-0.205-0.922 0-0.666-0.179-0.998 0-0.64 0-0.947 0-0.666 0-0.998 0-0.64 0-0.973 0-0.64 0-0.973 0-0.666 0-0.998 0-0.64 0-0.947 0-0.666 0.179-0.998 0.128-0.614 0.205-0.922 0.179-0.666 0.256-0.973 0.205-0.614 0.307-0.922l0.358-0.947 0.41-0.922 0.435-0.896 0.512-0.896 0.512-0.819 0.614-0.896 0.589-0.768 0.717-0.819 0.384-0.435 0.333-0.307 0.333-0.333 310.554-296.96c3.648-3.408 8.562-5.5 13.965-5.5 11.311 0 20.48 9.169 20.48 20.48 0 5.721-2.346 10.895-6.129 14.611l-0.003 0.003z" />
<glyph unicode="&#xe909;" glyph-name="nb-arrow-retweet" d="M862.362 370.048c0.23 0.282 0.435 0.563 0.64 0.87l0.41 0.666c0.205 0.333 0.435 0.666 0.614 1.024s0.23 0.461 0.333 0.691 0.358 0.717 0.512 1.075 0.205 0.563 0.307 0.845 0.256 0.666 0.358 0.998 0.179 0.64 0.256 0.947 0.179 0.666 0.256 0.973 0 0.614 0.154 0.896 0 0.717 0.179 1.101 0 0.563 0 0.819 0 0.819 0 1.229 0 0.128 0 0.205 0 0.41 0 0.614 0 0.794 0 1.203 0 0.589 0 0.896 0 0.717-0.154 1.075-0.128 0.614-0.205 0.947-0.154 0.666-0.256 0.998-0.205 0.614-0.307 0.922-0.23 0.666-0.358 0.973l-0.384 0.87c-0.154 0.333-0.307 0.64-0.461 0.947l-0.461 0.819-0.538 0.896-0.563 0.819-0.589 0.794-0.717 0.819-0.461 0.538-79.667 83.226-0.819 0.717-0.768 0.589-0.87 0.614-0.819 0.512-0.896 0.512-0.896 0.435-0.922 0.41-0.947 0.358-0.922 0.307-0.998 0.256-0.922 0.205-1.024 0.179h-5.862l-0.973-0.154-0.947-0.205-0.947-0.256-0.947-0.307-0.922-0.358-0.922-0.41-0.87-0.435-0.922-0.512-0.819-0.512-0.87-0.614-0.768-0.589-0.819-0.717-0.435-0.384-0.307-0.333-0.486-0.333-79.744-83.507-0.589-0.794-0.563-0.819-0.538-0.896-0.461-0.819c-0.154-0.307-0.307-0.64-0.461-0.947l-0.384-0.87c-0.128-0.333-0.256-0.64-0.358-0.973s-0.205-0.614-0.307-0.922-0.179-0.666-0.256-0.998-0.154-0.614-0.205-0.947 0-0.717-0.154-1.075 0-0.589 0-0.896 0-0.794 0-1.203 0-0.41 0-0.614 0-0.128 0-0.205 0-0.819 0-1.229 0-0.563 0-0.819 0-0.717 0.179-1.101 0-0.614 0.154-0.896 0.154-0.666 0.256-0.973 0.154-0.64 0.256-0.947 0.23-0.666 0.358-0.998 0.205-0.563 0.307-0.845 0.333-0.717 0.512-1.075 0.23-0.486 0.333-0.691 0.41-0.691 0.614-1.024l0.41-0.666c0.205-0.307 0.435-0.589 0.64-0.87l0.563-0.742 0.64-0.717 0.742-0.794 0.154-0.179 0.563-0.486 0.768-0.666 0.819-0.614 0.768-0.538 0.922-0.563 0.768-0.435 0.973-0.461 0.819-0.384 0.973-0.358 0.87-0.307 1.024-0.256 0.896-0.205 1.178-0.179h0.794c0.666 0 1.331 0 1.997 0h56.781c-5.562-48.447-46.3-85.733-95.762-85.811h-383.65c-11.311 0-20.48-9.169-20.48-20.48s9.169-20.48 20.48-20.48v0h383.718c72.080 0.106 131.151 55.658 136.852 126.284l0.032 0.487h59.238c0.666 0 1.331 0 1.997 0h0.794l1.178 0.179 0.896 0.205 1.024 0.256 0.896 0.307 0.973 0.358 0.845 0.384 0.947 0.461 0.794 0.435 0.922 0.563 0.768 0.538 0.819 0.614 0.768 0.666 0.563 0.486 0.154 0.179 0.742 0.794 0.64 0.717zM736.922 402.918l30.72 32.026 30.72-32.026zM245.376 422.707l0.742-0.64 0.87-0.666 0.794-0.563 0.922-0.563 0.819-0.461 0.998-0.486 0.794-0.358 1.101-0.41 0.768-0.256 1.203-0.307 0.717-0.179 1.382-0.205h0.589c0.666 0 1.306 0 1.971 0v0c0.666 0 1.306 0 1.971 0h0.589l1.382 0.205 0.717 0.179 1.203 0.307 0.768 0.256 1.101 0.41 0.794 0.358 1.024 0.486 0.794 0.461 0.922 0.563 0.794 0.563 0.87 0.666 0.742 0.64 0.486 0.435 0.333 0.333 0.333 0.307 79.744 83.507 0.589 0.794 0.563 0.819 0.538 0.896 0.461 0.819c0.154 0.307 0.307 0.64 0.461 0.947l0.384 0.87c0.128 0.333 0.256 0.64 0.358 0.973s0.205 0.614 0.307 0.922 0.179 0.666 0.256 0.998 0.154 0.614 0.205 0.947 0 0.717 0.154 1.075 0 0.589 0 0.896 0 0.794 0 1.203 0 0.41 0 0.614 0 0.128 0 0.205 0 0.819 0 1.229 0 0.563 0 0.819 0 0.717-0.179 1.101 0 0.614-0.154 0.896-0.154 0.666-0.256 0.973-0.154 0.64-0.256 0.947-0.23 0.666-0.358 0.998-0.205 0.563-0.307 0.845-0.333 0.717-0.512 1.075-0.23 0.486-0.333 0.691-0.41 0.691-0.614 1.024l-0.41 0.666c-0.205 0.307-0.435 0.589-0.64 0.87l-0.563 0.742-0.64 0.717-0.742 0.794-0.154 0.179-0.538 0.461-0.819 0.717-0.794 0.589-0.819 0.589-0.87 0.538-0.845 0.486-0.922 0.435-0.896 0.384-0.947 0.333-0.947 0.307-0.973 0.256-0.973 0.205-1.050 0.154h-59.085c8.967 44.768 47.959 78.026 94.72 78.029h383.719c11.311 0 20.48 9.169 20.48 20.48s-9.169 20.48-20.48 20.48v0h-383.846c-69.33-0.106-126.624-51.499-135.981-118.263l-0.083-0.725h-62.106l-1.075-0.128-1.024-0.23-0.922-0.23-0.998-0.333-0.896-0.333-0.922-0.41-0.896-0.435-0.87-0.486-0.845-0.512-0.845-0.589-0.768-0.589-0.845-0.717-0.538-0.461-0.154-0.179-0.742-0.794-0.64-0.717-0.563-0.742c-0.23-0.282-0.435-0.563-0.64-0.87l-0.41-0.666c-0.205-0.333-0.435-0.666-0.614-1.024s-0.23-0.461-0.333-0.691-0.358-0.717-0.512-1.075-0.205-0.563-0.307-0.845-0.256-0.666-0.358-0.998-0.179-0.64-0.256-0.947-0.179-0.666-0.256-0.973 0-0.614-0.154-0.896 0-0.717-0.179-1.101 0-0.563 0-0.819 0-0.819 0-1.229 0-0.128 0-0.205 0-0.41 0-0.614 0-0.794 0-1.203 0-0.589 0-0.896 0-0.717 0.154-1.075 0.128-0.614 0.205-0.947 0.154-0.666 0.256-0.998 0.205-0.614 0.307-0.922 0.23-0.666 0.358-0.973l0.384-0.87c0.154-0.333 0.307-0.64 0.461-0.947l0.461-0.819 0.538-0.896 0.563-0.819 0.589-0.794 0.717-0.819 0.461-0.538 79.283-82.79zM228.403 499.507h61.261l-30.72-32.026z" />
<glyph unicode="&#xe90a;" glyph-name="nb-arrow-right" d="M683.75 433.306l0.614 0.896 0.512 0.819 0.512 0.896 0.435 0.896 0.41 0.922 0.358 0.947c0 0.307 0.205 0.614 0.307 0.922s0.179 0.666 0.256 0.973 0.154 0.614 0.205 0.922 0 0.666 0.179 0.998 0 0.64 0 0.947 0 0.666 0 0.998 0 0.64 0 0.973 0 0.64 0 0.973 0 0.666 0 0.998 0 0.64 0 0.947 0 0.666-0.179 0.998-0.128 0.614-0.205 0.922-0.179 0.666-0.256 0.973-0.205 0.614-0.307 0.922l-0.358 0.947-0.41 0.922-0.435 0.896-0.512 0.896-0.512 0.819-0.614 0.896-0.589 0.768-0.717 0.819-0.384 0.435-0.333 0.307-0.307 0.333-310.554 296.96c-3.648 3.408-8.562 5.5-13.965 5.5-11.311 0-20.48-9.169-20.48-20.48 0-5.721 2.346-10.895 6.129-14.611l0.003-0.003 295.091-282.112-295.066-282.163c-3.786-3.719-6.132-8.892-6.132-14.614 0-11.311 9.169-20.48 20.48-20.48 5.403 0 10.318 2.092 13.977 5.511l-0.012-0.011 312.32 298.854z" />
<glyph unicode="&#xe90b;" glyph-name="nb-arrow-thin-down" d="M701.158 354.765c-3.671 3.516-8.661 5.681-14.157 5.681-5.814 0-11.062-2.423-14.79-6.313l-0.007-0.007-142.925-149.478v537.754c0 11.311-9.169 20.48-20.48 20.48s-20.48-9.169-20.48-20.48v0-537.754l-142.925 149.478c-3.719 3.786-8.892 6.132-14.614 6.132-11.311 0-20.48-9.169-20.48-20.48 0-5.403 2.092-10.318 5.511-13.977l-0.011 0.012 180.172-188.083 0.845-0.64 0.794-0.563 0.922-0.563 0.819-0.461 0.998-0.486 0.794-0.358 1.101-0.41 0.768-0.256 1.203-0.307 0.691-0.154 1.382-0.205h0.563c0.666 0 1.306 0 1.971 0v0c0.666 0 1.306 0 1.971 0h0.589l1.357 0.205 0.717 0.179 1.203 0.307 0.768 0.256 1.101 0.384 0.794 0.358 0.998 0.486 0.819 0.461 0.922 0.563 0.794 0.563 0.87 0.666 0.742 0.64 0.486 0.435 0.333 0.333 0.333 0.307 178.202 186.368c3.501 3.668 5.656 8.648 5.656 14.131 0 5.814-2.423 11.063-6.314 14.79l-0.007 0.007z" />
<glyph unicode="&#xe90c;" glyph-name="nb-arrow-thin-left" d="M823.68 468.48h-537.754l149.478 142.925c3.9 3.739 6.323 8.991 6.323 14.81 0 11.325-9.181 20.505-20.505 20.505-5.506 0-10.506-2.17-14.19-5.703l0.007 0.007-188.109-180.096-0.589-0.768-0.614-0.896-0.512-0.819-0.512-0.896-0.435-0.896-0.41-0.922-0.358-0.947c0-0.307-0.205-0.614-0.307-0.922s-0.179-0.666-0.256-0.973-0.154-0.614-0.205-0.922 0-0.666-0.179-0.998 0-0.64 0-0.947 0-0.666 0-0.998 0-0.64 0-0.973 0-0.64 0-0.973 0-0.666 0-0.998 0-0.64 0-0.947 0-0.666 0.179-0.998 0.128-0.614 0.205-0.922 0.179-0.666 0.256-0.973 0.205-0.614 0.307-0.922l0.358-0.947 0.41-0.922 0.435-0.896 0.512-0.896 0.512-0.819 0.614-0.896 0.589-0.768 0.717-0.819 0.384-0.435 0.333-0.307 0.333-0.333 186.342-178.304c3.648-3.408 8.562-5.5 13.965-5.5 11.311 0 20.48 9.169 20.48 20.48 0 5.721-2.346 10.895-6.129 14.611l-0.003 0.003-149.427 142.95h537.754c11.311 0 20.48 9.169 20.48 20.48s-9.169 20.48-20.48 20.48v0z" />
<glyph unicode="&#xe90d;" glyph-name="nb-arrow-thin-right" d="M842.726 435.866l0.614 0.896 0.512 0.819 0.512 0.896 0.435 0.896 0.41 0.922 0.358 0.947c0 0.307 0.205 0.614 0.307 0.922s0.179 0.666 0.256 0.973 0.154 0.614 0.205 0.922 0 0.666 0.179 0.998 0 0.64 0 0.947 0 0.666 0 0.998 0 0.64 0 0.973 0 0.64 0 0.973 0 0.666 0 0.998 0 0.64 0 0.947 0 0.666-0.179 0.998-0.128 0.614-0.205 0.922-0.179 0.666-0.256 0.973-0.205 0.614-0.307 0.922l-0.358 0.947-0.41 0.922-0.435 0.896-0.512 0.896-0.512 0.819-0.614 0.896-0.486 0.717-0.717 0.819-0.384 0.435-0.333 0.307-0.307 0.333-186.368 178.202c-3.648 3.408-8.562 5.5-13.965 5.5-11.311 0-20.48-9.169-20.48-20.48 0-5.721 2.346-10.895 6.129-14.611l0.003-0.003 149.376-142.822h-537.754c-11.311 0-20.48-9.169-20.48-20.48s9.169-20.48 20.48-20.48v0h537.754l-149.478-142.925c-3.786-3.719-6.132-8.892-6.132-14.614 0-11.311 9.169-20.48 20.48-20.48 5.403 0 10.318 2.092 13.977 5.511l-0.012-0.011 188.212 180.199z" />
<glyph unicode="&#xe90e;" glyph-name="nb-arrow-thin-up" d="M717.184 526.669l-180.096 188.109-0.768 0.589-0.896 0.614-0.819 0.512-0.922 0.512-0.896 0.435-0.922 0.41-0.947 0.358-0.922 0.307-0.998 0.256-0.922 0.205-0.998 0.179h-3.891l-0.947 0.205h-0.973l-0.973-0.154-0.947-0.205-0.973-0.256-0.922-0.307-0.947-0.358-0.922-0.41-0.896-0.435-0.896-0.512-0.845-0.512-0.87-0.614-0.768-0.589-0.819-0.717-0.435-0.384-0.307-0.333-0.333-0.307-178.202-186.368c-3.627-3.692-5.866-8.759-5.866-14.348 0-11.311 9.169-20.48 20.48-20.48 5.908 0 11.231 2.501 14.969 6.503l0.011 0.012 142.925 149.478v-537.984c0-11.311 9.169-20.48 20.48-20.48s20.48 9.169 20.48 20.48v0 537.754l142.925-149.478c3.749-4.013 9.072-6.515 14.98-6.515 11.311 0 20.48 9.169 20.48 20.48 0 5.589-2.239 10.656-5.869 14.351l0.003-0.003z" />
<glyph unicode="&#xe90f;" glyph-name="nb-arrow-up" d="M823.757 365.773l-299.622 312.883-0.896 0.614-0.819 0.512-0.922 0.512-0.87 0.435-0.922 0.41-0.922 0.358-0.922 0.307-0.973 0.256-0.947 0.205-0.998 0.179h-5.837l-0.998-0.154-0.947-0.205-0.973-0.256-0.922-0.307-0.947-0.358-0.922-0.41-0.896-0.435-0.896-0.512-0.819-0.512-0.87-0.614-0.768-0.589-0.819-0.717-0.435-0.384-0.307-0.333-0.333-0.307-296.96-310.554c-3.408-3.648-5.5-8.562-5.5-13.965 0-11.311 9.169-20.48 20.48-20.48 5.721 0 10.895 2.346 14.611 6.129l0.003 0.003 282.112 295.040 282.163-295.066c3.749-4.013 9.072-6.515 14.98-6.515 11.311 0 20.48 9.169 20.48 20.48 0 5.589-2.239 10.656-5.869 14.351l0.003-0.003z" />
<glyph unicode="&#xe910;" glyph-name="nb-audio" d="M713.293 787.251h-395.034c-28.277 0-51.2-22.923-51.2-51.2v0-578.56c0-28.277 22.923-51.2 51.2-51.2v0h395.034c28.277 0 51.2 22.923 51.2 51.2v0 578.56c0 28.277-22.923 51.2-51.2 51.2v0zM723.533 157.491c-0.071-5.627-4.613-10.169-10.233-10.24h-395.041c-5.627 0.071-10.169 4.613-10.24 10.233v578.567c0.071 5.627 4.613 10.169 10.233 10.24h395.041c5.627-0.071 10.169-4.613 10.24-10.233v-0.007zM516.352 527.36c50.079 0 90.675 40.597 90.675 90.675s-40.597 90.675-90.675 90.675c-50.079 0-90.675-40.597-90.675-90.675v0c0.058-50.055 40.62-90.617 90.67-90.675h0.006zM516.352 667.725c27.457 0 49.715-22.258 49.715-49.715s-22.258-49.715-49.715-49.715c-27.457 0-49.715 22.258-49.715 49.715v0c0.015 27.456 22.261 49.712 49.712 49.741h0.003zM516.352 493.747c-85.085 0-154.061-68.975-154.061-154.061s68.975-154.061 154.061-154.061c85.085 0 154.061 68.975 154.061 154.061v0c-0.102 85.044-69.016 153.959-154.051 154.061h-0.010zM516.352 226.586c-62.464 0-113.101 50.637-113.101 113.101s50.637 113.101 113.101 113.101c62.464 0 113.101-50.637 113.101-113.101v0c-0.073-62.434-50.666-113.028-113.094-113.101h-0.007zM516.352 424.141c-46.657 0-84.48-37.823-84.48-84.48s37.823-84.48 84.48-84.48c46.657 0 84.48 37.823 84.48 84.48v0c0 46.657-37.823 84.48-84.48 84.48v0zM516.352 296.141c-24.035 0-43.52 19.485-43.52 43.52s19.485 43.52 43.52 43.52c24.035 0 43.52-19.485 43.52-43.52v0c-0.029-24.013-19.503-43.469-43.52-43.469v0zM228.966 231.373c-24.131 18.579-39.527 47.476-39.527 79.97 0 31.566 14.53 59.739 37.267 78.194l0.187 0.147c5.276 3.755 8.677 9.849 8.677 16.737 0 11.311-9.169 20.48-20.48 20.48-5.322 0-10.171-2.030-13.812-5.359l0.016 0.014c-32.24-26.172-52.675-65.801-52.675-110.204 0-45.719 21.664-86.377 55.287-112.271l0.332-0.246c3.326-2.431 7.496-3.889 12.007-3.889 11.311 0 20.48 9.169 20.48 20.48 0 6.427-2.96 12.162-7.591 15.917l-0.038 0.030zM182.758 190.771c-36.396 28.019-59.618 71.603-59.618 120.609 0 47.599 21.907 90.082 56.188 117.915l0.281 0.221c5.276 3.755 8.677 9.849 8.677 16.737 0 11.311-9.169 20.48-20.48 20.48-5.322 0-10.171-2.030-13.812-5.359l0.016 0.014c-43.932-35.624-71.781-89.596-71.781-150.072 0-62.205 29.464-117.528 75.196-152.775l0.451-0.334c3.481-2.824 7.966-4.533 12.85-4.533 11.311 0 20.48 9.169 20.48 20.48 0 6.8-3.314 12.826-8.415 16.55l-0.058 0.040zM823.552 421.555c-3.285 2.341-7.38 3.743-11.803 3.743-11.311 0-20.48-9.169-20.48-20.48 0-5.988 2.57-11.376 6.668-15.121l0.016-0.014c22.916-18.602 37.441-46.77 37.441-78.331 0-32.499-15.402-61.401-39.304-79.805l-0.236-0.175c-5.159-3.765-8.473-9.791-8.473-16.591 0-11.311 9.169-20.48 20.48-20.48 4.884 0 9.369 1.71 12.889 4.563l-0.038-0.030c33.955 26.139 55.619 66.798 55.619 112.516 0 44.402-20.435 84.032-52.413 109.998l-0.262 0.206zM870.835 461.389c-3.285 2.341-7.38 3.743-11.803 3.743-11.311 0-20.48-9.169-20.48-20.48 0-5.988 2.57-11.376 6.668-15.121l0.016-0.014c34.562-28.055 56.469-70.537 56.469-118.136 0-49.007-23.222-92.59-59.262-120.346l-0.356-0.263c-5.159-3.765-8.473-9.791-8.473-16.591 0-11.311 9.169-20.48 20.48-20.48 4.884 0 9.369 1.71 12.889 4.563l-0.038-0.030c46.222 35.579 75.713 90.925 75.713 153.159 0 60.448-27.823 114.398-71.362 149.741l-0.357 0.281zM688.973 705.408c0-4.666-3.782-8.448-8.448-8.448s-8.448 3.782-8.448 8.448c0 4.666 3.782 8.448 8.448 8.448s8.448-3.782 8.448-8.448zM357.222 705.408c0-4.666-3.782-8.448-8.448-8.448s-8.448 3.782-8.448 8.448c0 4.666 3.782 8.448 8.448 8.448s8.448-3.782 8.448-8.448zM688.973 191.437c0-4.666-3.782-8.448-8.448-8.448s-8.448 3.782-8.448 8.448c0 4.666 3.782 8.448 8.448 8.448s8.448-3.782 8.448-8.448zM357.197 191.437c0-4.652-3.771-8.422-8.422-8.422s-8.422 3.771-8.422 8.422c0 4.652 3.771 8.422 8.422 8.422s8.422-3.771 8.422-8.422z" />
<glyph unicode="&#xe911;" glyph-name="nb-bar-chart" d="M897.28 216.781h-73.958v384.205c0 20.762-15.744 37.632-35.098 37.632h-107.264c-19.354 0-35.098-16.87-35.098-37.632v-384.205h-20.25v267.059c0 20.762-15.744 37.632-35.098 37.632h-107.085c-19.354 0-35.098-16.896-35.098-37.632v-267.059h-20.25v150.733c0 20.762-15.744 37.632-35.098 37.632h-107.187c-19.354 0-35.098-16.896-35.098-37.632v-150.733h-95.821c-11.311 0-20.48-9.169-20.48-20.48s9.169-20.48 20.48-20.48v0h742.4c11.311 0 20.48 9.169 20.48 20.48s-9.169 20.48-20.48 20.48v0zM686.899 597.658h95.462v-380.877h-95.462zM489.267 480.563h95.462v-263.68h-95.437zM291.635 364.16h95.462v-147.405h-95.437zM253.824 425.395c5.203 0.001 9.952 1.942 13.564 5.139l-0.022-0.019 179.2 157.875 25.805-31.539c3.884-4.849 9.804-7.928 16.444-7.928 5.265 0 10.077 1.936 13.765 5.134l-0.026-0.022 171.52 151.040v-40.166c0-11.311 9.169-20.48 20.48-20.48s20.48 9.169 20.48 20.48v0 80.051c-0.044 15.42-12.554 27.904-27.981 27.904-0.036 0-0.072 0-0.108 0h-79.994c-11.311 0-20.48-9.169-20.48-20.48s9.169-20.48 20.48-20.48v0h35.61l-151.322-133.325-24.934 30.49c-3.667 5.688-9.97 9.4-17.14 9.4-5.229 0-9.996-1.974-13.598-5.218l0.018 0.016-195.226-172.032c-4.261-3.771-6.934-9.253-6.934-15.36 0-11.309 9.167-20.478 20.476-20.48v0z" />
<glyph unicode="&#xe912;" glyph-name="nb-checkmark" d="M812.621 709.274c-3.516 2.925-8.078 4.7-13.055 4.7-6.329 0-11.987-2.871-15.744-7.381l-0.027-0.033-343.475-417.997-187.93 234.496c-3.785 4.699-9.538 7.68-15.987 7.68-11.311 0-20.48-9.169-20.48-20.48 0-4.861 1.694-9.327 4.524-12.839l-0.031 0.039 200.55-250.24c2.14-2.125 4.211-4.302 6.22-6.536l0.128-0.145c3.507-2.9 8.051-4.659 13.005-4.659 6.357 0 12.037 2.896 15.793 7.44l0.028 0.035 359.296 437.094c2.9 3.507 4.659 8.051 4.659 13.005 0 6.357-2.896 12.037-7.44 15.793l-0.035 0.028z" />
<glyph unicode="&#xe913;" glyph-name="nb-chevron-down" d="M708.147 487.373l0.563 0.768 0.614 0.87 0.512 0.845 0.486 0.87 0.435 0.896c0.128 0.307 0.282 0.614 0.41 0.922s0.23 0.614 0.333 0.922 0.23 0.64 0.307 0.973 0.179 0.64 0.256 0.947 0.154 0.666 0.23 0.998 0 0.691 0.154 1.024 0 0.64 0 0.947 0 0.742 0 1.126 0 0.435 0 0.666 0 0.154 0 0.23 0 0.768 0 1.126 0 0.614 0 0.896 0 0.666-0.154 0.998 0 0.666-0.179 0.998-0.154 0.563-0.205 0.845-0.179 0.717-0.282 1.075-0.205 0.563-0.307 0.845-0.23 0.691-0.384 1.024-0.282 0.614-0.435 0.922-0.282 0.589-0.435 0.87-0.358 0.589-0.538 0.896-0.333 0.538-0.486 0.794l-0.589 0.794-0.64 0.819-0.589 0.64-0.794 0.845-0.154 0.154-0.486 0.435-0.87 0.742-0.768 0.563-0.87 0.614-0.845 0.512-0.87 0.486-0.896 0.435-0.922 0.41-0.922 0.333-0.973 0.307-0.947 0.23-0.998 0.23-1.024 0.154-314.7-0.384-0.922-0.23-0.973-0.333-0.922-0.333-0.922-0.41-0.896-0.435-0.87-0.486-0.845-0.512-0.87-0.614-0.768-0.563-0.87-0.742-0.486-0.435-0.154-0.154-0.794-0.845-0.589-0.64-0.64-0.819-0.589-0.794c-0.179-0.256-0.333-0.538-0.486-0.794s-0.384-0.589-0.538-0.896-0.282-0.589-0.435-0.87-0.307-0.614-0.435-0.922-0.256-0.691-0.384-1.024-0.205-0.563-0.307-0.845-0.205-0.717-0.282-1.075-0.154-0.563-0.205-0.845 0-0.666-0.179-0.998 0-0.666-0.154-0.998 0-0.614 0-0.896 0-0.768 0-1.126 0-0.154 0-0.23 0-0.435 0-0.666 0-0.742 0-1.126 0-0.64 0-0.947 0-0.691 0.154-1.024 0.128-0.666 0.23-0.998 0.154-0.64 0.256-0.947 0.205-0.64 0.307-0.973 0.205-0.614 0.333-0.922 0.256-0.614 0.41-0.922l0.435-0.896 0.486-0.87 0.512-0.845 0.614-0.87 0.563-0.768 0.768-0.87 0.435-0.486 155.52-162.381 0.845-0.64 0.819-0.563 0.896-0.563 0.819-0.461 0.998-0.486 0.819-0.358 1.101-0.384 0.768-0.256 1.203-0.307 0.717-0.179 1.382-0.205h0.589c0.666 0 1.306 0 1.971 0v0c0.666 0 1.306 0 1.971 0h0.589l1.357 0.205 0.717 0.179 1.203 0.307 0.768 0.256 1.101 0.384 0.819 0.358 0.998 0.486 0.819 0.461 0.922 0.563 0.794 0.563 0.845 0.64 0.742 0.64 0.486 0.435 0.205 0.435 0.333 0.307 154.035 161.126zM590.566 439.373v0c0.273 0.139 0.509 0.301 0.72 0.489l-0.003-0.003z" />
<glyph unicode="&#xe914;" glyph-name="nb-chevron-down-outline" d="M679.757 543.104c-3.671 3.516-8.661 5.681-14.157 5.681-5.814 0-11.062-2.423-14.79-6.313l-0.007-0.007-138.803-145.152-138.803 145.152c-3.719 3.786-8.892 6.132-14.614 6.132-11.311 0-20.48-9.169-20.48-20.48 0-5.403 2.092-10.318 5.511-13.977l-0.011 0.012 155.52-162.381 0.845-0.64 0.819-0.563 0.922-0.563 0.819-0.461 0.998-0.486 0.819-0.358 1.101-0.384 0.768-0.256 1.203-0.307 0.717-0.179 1.382-0.205h0.589c0.666 0 1.306 0 1.971 0v0c0.666 0 1.306 0 1.971 0h0.589l1.357 0.205 0.717 0.179 1.203 0.307 0.768 0.256 1.101 0.384 0.794 0.358 0.998 0.486 0.819 0.461 0.922 0.563 0.794 0.563 0.87 0.666 0.742 0.64 0.486 0.435 0.333 0.333 0.333 0.307 153.6 160.64c3.494 3.667 5.644 8.641 5.644 14.118 0 5.833-2.439 11.097-6.353 14.827l-0.008 0.008z" />
<glyph unicode="&#xe915;" glyph-name="nb-chevron-left" d="M568.806 282.394l0.589 0.845 0.538 0.87 0.486 0.845 0.435 0.922c0.128 0.307 0.282 0.589 0.384 0.896s0.23 0.614 0.333 0.947 0.205 0.64 0.307 0.947 0.179 0.64 0.256 0.973 0.154 0.64 0.205 0.973 0 0.691 0.154 1.024 0 0.64 0 0.947 0 0.768 0 1.126 0 0.435 0 0.666v307.226c0 0.23 0 0.435 0 0.666s0 0.768 0 1.126 0 0.64 0 0.947 0 0.691-0.154 1.024-0.128 0.666-0.205 0.973-0.154 0.64-0.256 0.973-0.205 0.64-0.307 0.947-0.23 0.614-0.333 0.947-0.256 0.614-0.384 0.896l-0.435 0.922-0.486 0.845-0.538 0.87-0.589 0.845-0.486 0.819-0.742 0.845-0.435 0.512-0.154 0.154-0.819 0.768-0.666 0.614-0.794 0.614-0.819 0.614-1.69 1.050-0.794 0.384-0.973 0.461-0.973 0.358-0.896 0.333-1.024 0.282-0.896 0.23-0.973 0.154-1.024 0.154h-5.018l-1.050-0.154-0.973-0.205-0.973-0.256-0.947-0.307-0.947-0.333-0.896-0.384-0.922-0.435-0.87-0.486-0.87-0.538-0.845-0.589-0.768-0.589-0.845-0.742-0.512-0.435-162.381-155.494-0.589-0.768-0.614-0.87-0.512-0.845-0.512-0.896-0.435-0.896-0.41-0.896c0-0.307-0.256-0.64-0.358-0.947s-0.205-0.614-0.307-0.922-0.179-0.666-0.256-0.973-0.154-0.614-0.205-0.922 0-0.666-0.179-0.998 0-0.64 0-0.947 0-0.666 0-0.998 0-0.64 0-0.973 0-0.64 0-0.973 0-0.666 0-0.998 0-0.64 0-0.947 0-0.666 0.179-0.998 0.128-0.614 0.205-0.922 0.154-0.666 0.256-0.973 0.205-0.614 0.307-0.922 0.23-0.64 0.358-0.947l0.41-0.896 0.435-0.896 0.512-0.896 0.512-0.845 0.614-0.87 0.589-0.768 0.717-0.819 0.384-0.435 0.333-0.307 0.333-0.333 161.971-154.752 0.794-0.589 0.794-0.563 0.896-0.538 0.794-0.461 0.947-0.461 0.845-0.384 0.973-0.358 0.896-0.307 1.024-0.256 0.896-0.205 1.178-0.179h0.794c0.666 0 1.331 0 1.997 0v0c0.64 0 1.28 0 1.946 0l1.229 0.179h0.794l1.382 0.333 0.589 0.154 1.894 0.691 1.331 0.64 1.178 0.666 1.024 0.614 0.691 0.538 0.947 0.717 0.614 0.563 0.896 0.845 0.154 0.154 0.435 0.512 0.819 0.666zM491.52 396.083c0.138-0.273 0.3-0.509 0.489-0.72l-0.003 0.003-0.486 0.742z" />
<glyph unicode="&#xe916;" glyph-name="nb-chevron-left-outline" d="M461.312 430.080l145.152 138.803c4.013 3.749 6.515 9.072 6.515 14.98 0 11.311-9.169 20.48-20.48 20.48-5.589 0-10.656-2.239-14.351-5.869l0.003 0.003-162.381-155.494-0.589-0.768-0.614-0.87-0.512-0.819-0.512-0.896-0.435-0.896-0.41-0.922-0.358-0.947c0-0.307-0.205-0.614-0.307-0.922s-0.179-0.64-0.256-0.973-0.154-0.614-0.205-0.947 0-0.666-0.179-0.998 0-0.64 0-0.947 0-0.666 0-0.998 0-0.64 0-0.973 0-0.64 0-0.973 0-0.666 0-0.998 0-0.64 0-0.947 0-0.666 0.179-0.998 0.128-0.614 0.205-0.947 0.154-0.666 0.256-0.973 0.205-0.614 0.307-0.922l0.358-0.947 0.41-0.922 0.435-0.896 0.512-0.896 0.512-0.819 0.614-0.87 0.589-0.768 0.717-0.819 0.384-0.435 0.333-0.307 0.333-0.333 160.64-153.6c3.692-3.627 8.759-5.866 14.348-5.866 11.311 0 20.48 9.169 20.48 20.48 0 5.908-2.501 11.231-6.503 14.969l-0.012 0.011z" />
<glyph unicode="&#xe917;" glyph-name="nb-chevron-right" d="M610.406 435.891l0.614 0.87 0.512 0.845 0.512 0.896 0.435 0.896 0.41 0.922c0 0.307 0.256 0.64 0.358 0.947s0.205 0.614 0.307 0.922 0.179 0.666 0.256 0.998 0.154 0.614 0.205 0.922 0 0.666 0.179 0.998 0 0.64 0 0.947 0 0.666 0 0.998 0 0.64 0 0.973 0 0.64 0 0.973 0 0.666 0 0.998 0 0.64 0 0.947 0 0.666-0.179 0.998-0.128 0.614-0.205 0.922-0.179 0.666-0.256 0.998-0.205 0.614-0.307 0.922-0.23 0.64-0.358 0.947l-0.41 0.922-0.435 0.896-0.512 0.896-0.512 0.845-0.614 0.87-0.589 0.768-0.717 0.819-0.384 0.435-0.333 0.307-0.307 0.333-161.997 154.778-0.768 0.563-0.87 0.589-0.845 0.512-0.87 0.486-0.896 0.435-0.922 0.41-0.922 0.333-0.973 0.307-0.947 0.256-0.998 0.205-1.024 0.154h-5.018l-1.997-0.307-0.87-0.23-1.050-0.282-0.87-0.307-0.998-0.384-0.922-0.461-0.845-0.41-1.715-1.050-0.794-0.589-0.819-0.64-0.666-0.589-0.845-0.794-0.154-0.154-0.435-0.486-0.768-0.87-0.563-0.768-0.614-0.87-0.512-0.845-0.486-0.87-0.435-0.896c-0.128-0.307-0.282-0.614-0.41-0.922s-0.23-0.614-0.333-0.922-0.23-0.64-0.307-0.973-0.179-0.64-0.256-0.947-0.154-0.666-0.23-0.998 0-0.691-0.154-1.024 0-0.64 0-0.947 0-0.742 0-1.126 0-0.435 0-0.666v-307.123c0-0.23 0-0.435 0-0.666s0-0.742 0-1.126 0-0.64 0-0.947 0-0.691 0.154-1.024 0.128-0.666 0.23-0.998 0.154-0.64 0.256-0.947 0.205-0.64 0.307-0.973 0.205-0.614 0.333-0.922 0.256-0.614 0.41-0.922l0.435-0.896 0.486-0.87 0.512-0.845 0.614-0.87 0.563-0.768 0.768-0.87 0.435-0.486 0.154-0.154 0.922-0.87 0.614-0.538 0.947-0.717 0.691-0.512 1.024-0.64 1.229-0.691c0.41-0.205 0.845-0.435 1.28-0.614l0.614-0.23 1.306-0.461 0.614-0.154 1.357-0.333h0.794l1.229-0.179c0.64 0 1.306 0 1.946 0v0c0.666 0 1.331 0 1.997 0h0.794l1.178 0.179 0.896 0.205 0.998 0.256 0.896 0.307 0.973 0.358 0.845 0.384 0.947 0.461 0.819 0.461 0.896 0.538 0.794 0.563 0.794 0.589 0.819 0.691 0.538 0.461 162.407 155.494zM494.054 499.891c-0.138 0.273-0.3 0.509-0.489 0.72l0.003-0.003 0.486-0.742z" />
<glyph unicode="&#xe918;" glyph-name="nb-chevron-right-outline" d="M608.794 410.291l0.614 0.87 0.512 0.819 0.512 0.896 0.435 0.896 0.41 0.922 0.358 0.947c0 0.307 0.205 0.614 0.307 0.922s0.179 0.666 0.256 0.973 0.154 0.614 0.205 0.922 0 0.666 0.179 0.998 0 0.64 0 0.947 0 0.666 0 0.998 0 0.64 0 0.973 0 0.64 0 0.973 0 0.666 0 0.998 0 0.64 0 0.947 0 0.666-0.179 0.998-0.128 0.614-0.205 0.922-0.179 0.666-0.256 0.973-0.205 0.614-0.307 0.922l-0.358 0.947-0.41 0.922-0.435 0.896-0.512 0.896-0.512 0.819-0.614 0.87-0.589 0.768-0.717 0.819-0.384 0.435-0.333 0.307-0.307 0.333-160.64 153.6c-3.648 3.408-8.562 5.5-13.965 5.5-11.311 0-20.48-9.169-20.48-20.48 0-5.721 2.346-10.895 6.129-14.611l0.003-0.003 145.178-138.726-145.152-138.803c-4.013-3.749-6.515-9.072-6.515-14.98 0-11.311 9.169-20.48 20.48-20.48 5.589 0 10.656 2.239 14.351 5.869l-0.003-0.003 162.407 155.494z" />
<glyph unicode="&#xe919;" glyph-name="nb-chevron-up" d="M689.587 308.301l0.614 0.819 0.486 0.768c0.205 0.307 0.384 0.614 0.563 0.947s0.282 0.538 0.41 0.819 0.333 0.64 0.461 0.947 0.256 0.64 0.358 0.973 0.23 0.589 0.333 0.87 0.179 0.691 0.282 1.050 0.154 0.589 0.23 0.896 0 0.666 0.154 0.998 0 0.666 0.154 0.998 0 0.589 0 0.896 0 0.768 0 1.152 0 0.154 0 0.23 0 0.435 0 0.666 0 0.768 0 1.126 0 0.64 0 0.947 0 0.691-0.154 1.024-0.128 0.666-0.205 0.973-0.154 0.64-0.256 0.973-0.205 0.64-0.307 0.947-0.23 0.614-0.333 0.947-0.256 0.614-0.384 0.896l-0.435 0.922-0.486 0.845-0.538 0.87-0.589 0.845-0.589 0.768-0.742 0.845-0.435 0.512-155.494 162.381-0.768 0.589-0.87 0.614-0.845 0.512-0.896 0.512-0.896 0.435-0.896 0.41-0.947 0.358-0.922 0.307-0.973 0.256-0.922 0.205-0.998 0.179h-5.837l-0.998-0.179-0.922-0.205-0.998-0.256-0.922-0.307-0.947-0.358-0.896-0.41-0.896-0.435-0.896-0.512-0.819-0.512-0.87-0.614-0.768-0.589-0.819-0.717-0.435-0.384-0.307-0.333-0.333-0.307-155.367-162.765-0.589-0.845-0.538-0.87-0.486-0.845-0.435-0.922c-0.128-0.307-0.282-0.589-0.384-0.896s-0.23-0.614-0.333-0.947-0.205-0.64-0.307-0.973-0.179-0.64-0.256-0.973-0.154-0.64-0.205-0.973 0-0.691-0.154-1.024 0-0.64 0-0.947 0-0.768 0-1.126 0-0.435 0-0.666 0-0.154 0-0.23 0-0.768 0-1.152 0-0.589 0-0.896 0-0.666 0.154-0.998 0-0.666 0.154-0.998 0.154-0.589 0.23-0.896 0.179-0.691 0.282-1.050 0.205-0.589 0.307-0.87 0.23-0.666 0.358-0.973 0.307-0.64 0.461-0.947 0.256-0.563 0.41-0.819 0.384-0.614 0.563-0.947l0.486-0.768 0.614-0.819 0.614-0.794 0.614-0.691 0.768-0.819 0.154-0.154 0.538-0.461 0.794-0.691 0.794-0.589 0.794-0.563 0.896-0.538 0.794-0.461 0.947-0.461 0.845-0.384 0.973-0.358 0.896-0.307 1.024-0.256 0.896-0.205 1.178-0.179h0.768c0.666 0 1.331 0 1.997 0h306.944c0.666 0 1.331 0 1.997 0h0.794l1.178 0.179 0.896 0.205 1.024 0.256 0.896 0.307 0.973 0.358 0.845 0.384 0.947 0.461 0.794 0.461 0.896 0.538 0.794 0.563 0.768 0.563 0.794 0.691 0.538 0.461 0.154 0.154 0.768 0.819 0.614 0.691zM467.686 381.44v0c-0.273-0.139-0.509-0.301-0.72-0.489l0.003 0.003z" />
<glyph unicode="&#xe91a;" glyph-name="nb-chevron-up-outline" d="M680.397 381.85l-155.494 162.381-0.768 0.589-0.87 0.614-0.819 0.512-0.896 0.512-0.896 0.435-0.922 0.41-0.947 0.358-0.922 0.307-0.973 0.256-0.947 0.205-0.998 0.154h-5.837l-0.998-0.179-0.922-0.205-0.998-0.256-0.922-0.307-0.947-0.358-0.896-0.41-0.896-0.435-0.896-0.512-0.819-0.512-0.87-0.614-0.768-0.589-0.819-0.717-0.435-0.384-0.307-0.333-0.333-0.307-153.6-160.64c-3.627-3.692-5.866-8.759-5.866-14.348 0-11.311 9.169-20.48 20.48-20.48 5.908 0 11.231 2.501 14.969 6.503l0.011 0.012 138.726 145.178 138.803-145.152c3.719-3.786 8.892-6.132 14.614-6.132 11.311 0 20.48 9.169 20.48 20.48 0 5.403-2.092 10.318-5.511 13.977l0.011-0.012z" />
<glyph unicode="&#xe91b;" glyph-name="nb-close" d="M738.56 250.47l-184.806 184.73 184.499 184.499c3.487 3.665 5.632 8.635 5.632 14.106 0 11.311-9.169 20.48-20.48 20.48-5.471 0-10.441-2.145-14.115-5.641l0.009 0.008-184.499-184.422-184.499 184.474c-3.665 3.487-8.635 5.632-14.106 5.632-11.311 0-20.48-9.169-20.48-20.48 0-5.471 2.145-10.441 5.641-14.115l-0.008 0.009 184.499-184.55-184.806-184.73c-3.93-3.739-6.374-9.008-6.374-14.848 0-11.311 9.169-20.48 20.48-20.48 5.84 0 11.109 2.444 14.839 6.365l0.008 0.009 184.806 184.781 184.781-184.781c3.665-3.487 8.635-5.632 14.106-5.632 11.311 0 20.48 9.169 20.48 20.48 0 5.471-2.145 10.441-5.641 14.115l0.008-0.009z" />
<glyph unicode="&#xe91c;" glyph-name="nb-close-circled" d="M558.976 440.448l137.344 137.267c3.707 3.713 6 8.84 6 14.502 0 11.337-9.191 20.528-20.528 20.528-5.675 0-10.812-2.303-14.528-6.025v0l-137.344-137.293-137.165 137.293c-3.665 3.487-8.635 5.632-14.106 5.632-11.311 0-20.48-9.169-20.48-20.48 0-5.471 2.145-10.441 5.641-14.115l-0.008 0.009 137.242-137.242-137.523-137.549c-3.722-3.716-6.025-8.853-6.025-14.528 0-11.337 9.191-20.528 20.528-20.528 5.662 0 10.789 2.292 14.503 6v0l137.472 137.472 137.472-137.472c3.659-3.459 8.61-5.586 14.057-5.586 11.311 0 20.48 9.169 20.48 20.48 0 5.498-2.167 10.49-5.693 14.169l0.007-0.007zM768.87 679.27v0c-61.152 61.154-145.634 98.979-238.95 98.979-186.628 0-337.92-151.292-337.92-337.92s151.292-337.92 337.92-337.92c186.625 0 337.914 151.286 337.92 337.909v0.001c0.001 0.277 0.001 0.605 0.001 0.933 0 93.021-37.835 177.205-98.956 238.003l-0.015 0.014zM739.84 230.4c-53.746-53.777-128.011-87.040-210.045-87.040-164.006 0-296.96 132.954-296.96 296.96s132.954 296.96 296.96 296.96c82.034 0 156.3-33.264 210.044-87.039l0.001-0.001c53.702-53.733 86.915-127.948 86.915-209.92s-33.213-156.187-86.916-209.921l0.001 0.001z" />
<glyph unicode="&#xe91d;" glyph-name="nb-cloudy" d="M812.186 426.957c0.179 3.533 0.282 7.091 0.282 10.624 0 0.018 0 0.038 0 0.059 0 118.763-96.277 215.040-215.040 215.040-63.013 0-119.695-27.103-159.026-70.287l-0.154-0.172c-10.597 2.334-22.77 3.672-35.255 3.672-88.405 0-161.15-67.054-170.148-153.077l-0.063-0.739c-71.321-15.468-123.964-78.041-123.964-152.909 0-86.315 69.973-156.288 156.288-156.288 0.003 0 0.006 0 0.009 0h496.332c0.201-0.001 0.44-0.001 0.678-0.001 86.245 0 156.16 69.915 156.16 156.16 0 68.327-43.883 126.405-105.002 147.588l-1.097 0.331zM761.446 163.84h-496.333c-63.616 0.122-115.139 51.721-115.139 115.353 0 59.521 45.080 108.513 102.96 114.696l0.506 0.044c10.734 1.374 19.026 10.185 19.582 21.040l0.002 0.054c0.007 71.762 58.183 129.933 129.946 129.933 60.858 0 111.945-41.836 126.070-98.318l0.19-0.895c2.249-9.052 10.306-15.655 19.904-15.655 11.311 0 20.481 9.169 20.481 20.481 0 1.713-0.21 3.376-0.606 4.967l0.030-0.141c-12.072 49.058-44.172 88.96-86.918 111.246l-0.941 0.447c30.7 27.683 71.561 44.619 116.378 44.619 96.142 0 174.080-77.938 174.080-174.080 0-0.008 0-0.017 0-0.025v0.001c0-8.124-0.549-16.12-1.612-23.953l0.101 0.913c-0.112-0.804-0.176-1.732-0.176-2.676 0-10.198 7.454-18.655 17.21-20.22l0.117-0.015c51.897-11.981 90-57.797 90-112.512 0-63.694-51.634-115.328-115.328-115.328-0.095 0-0.191 0-0.286 0h0.015z" />
<glyph unicode="&#xe91e;" glyph-name="nb-coffee-maker" d="M872.55 415.411c-2.56 49.485-13.594 87.040-34.534 118.502-42.931 64.256-120.166 95.488-217.754 88.218-0.073 5.427-1.555 10.492-4.097 14.865l0.078-0.145 9.933 45.363c0 0.23 0 0.461 0 0.691s0.154 0.819 0.205 1.229 0 0.538 0 0.794 0 0.819 0 1.229 0 0.589 0 0.896 0 0.742 0 1.101 0 0.666 0 0.998 0 0.64-0.128 0.973-0.154 0.691-0.23 1.024-0.128 0.589-0.205 0.896-0.205 0.691-0.333 1.024-0.179 0.589-0.282 0.87-0.256 0.64-0.41 0.947-0.256 0.589-0.384 0.845l-0.461 0.845-0.512 0.87-0.512 0.768-0.614 0.87-0.563 0.666-0.717 0.845-0.614 0.614-0.794 0.742-0.742 0.614-0.794 0.64-0.896 0.589-0.768 0.486-1.075 0.563-0.717 0.358-1.178 0.486-0.64 0.256-348.032 120.345h-5.862l-1.229-0.205h-0.819l-1.126-0.307-0.896-0.282-0.896-0.358-0.998-0.435-0.742-0.384-1.024-0.563-0.666-0.435-0.973-0.666-0.691-0.538-0.819-0.666-0.742-0.691-0.64-0.64-0.742-0.845-0.512-0.64-0.666-0.947-0.461-0.717-0.538-0.922-0.461-0.87-0.384-0.845c-0.154-0.358-0.307-0.717-0.435-1.075l-0.154-0.358c0-0.128 0-0.282 0-0.41s-0.23-0.768-0.333-1.178-0.128-0.538-0.205-0.819-0.154-0.742-0.205-1.126 0-0.614 0-0.922 0-0.666 0-1.024 0-0.691 0-1.050 0-0.614 0-0.896 0-0.768 0-1.178 0-0.538 0-0.819 0-0.819 0.205-1.229 0-0.282 0-0.435l34.662-159.488c-4.974-5.407-8.027-12.65-8.038-20.606v-39.887c0.012-2.56 0.338-5.037 0.942-7.404l-0.046 0.211c-65.705-52.393-107.443-132.437-107.443-222.23 0-156.598 126.948-283.546 283.546-283.546s283.546 126.948 283.546 283.546c0 0.008 0 0.015 0 0.023v-0.001c0 81.766-42.138 166.912-109.133 223.642 0.305 1.52 0.499 3.284 0.537 5.088l0.001 0.032c83.686 6.989 148.941-17.92 183.731-69.914 16.691-24.96 25.6-56.090 27.699-97.92 0.587-10.839 9.519-19.405 20.452-19.405 0.010 0 0.020 0 0.030 0h1.099c10.758 0.681 19.225 9.572 19.225 20.442 0 0.356-0.009 0.709-0.027 1.061l0.002-0.049zM577.69 652.416h-261.658l-26.752 122.419 292.941-101.555zM309.222 592.051v19.405h270.080v-19.405zM687.846 352.41c0 0 0-0.001 0-0.001 0-133.976-108.609-242.586-242.586-242.586s-242.586 108.609-242.586 242.586c0 81.855 40.541 154.241 102.64 198.173l0.758 0.509h279.347c61.722-48.486 102.426-126.694 102.426-198.656zM559.667 411.418c-29.747-2.842-42.88-23.552-52.454-38.682-8.858-14.003-12.8-18.97-21.734-19.84s-13.747 3.277-25.088 15.36c-12.262 13.056-29.082 30.899-58.88 28.16s-42.854-23.552-52.454-38.682c-8.858-14.003-12.8-18.97-21.734-19.814s-13.747 3.277-25.088 15.36c-12.262 13.030-29.082 30.899-58.88 28.16-10.437-1.031-18.524-9.764-18.524-20.386 0-0.682 0.033-1.356 0.098-2.021l-0.007 0.084v-0.154c0-0.461 0-0.922 0-1.382 2.33-109.747 100.608-197.299 220.16-197.299h5.12c56.435 0.863 107.852 21.661 147.678 55.643l-0.324-0.27c40.269 34.765 64.742 81.562 68.915 131.763 0.044 0.506 0.070 1.095 0.070 1.69 0 11.311-9.169 20.48-20.48 20.48-2.611 0-5.107-0.488-7.403-1.379l0.14 0.048c-6.374 0.87-11.264 5.427-20.48 15.36-12.083 12.774-28.877 30.643-58.65 27.802zM588.646 355.302c8.346-8.883 18.816-19.968 34.022-25.267-16.64-73.062-87.398-127.155-173.082-128.973-87.68-1.843-162.099 52.864-179.661 126.746l2.56-2.688c11.392-12.109 26.675-28.365 52.608-28.365q2.995 0 6.221 0.307c29.747 2.842 42.854 23.552 52.454 38.682 8.858 14.003 12.8 18.97 21.734 19.814s13.747-3.277 25.088-15.36c12.262-13.030 29.082-30.925 58.88-28.16s42.88 23.552 52.454 38.682c8.858 14.003 12.8 18.97 21.734 19.814s13.645-3.174 25.011-15.232z" />
<glyph unicode="&#xe91f;" glyph-name="nb-compose" d="M739.046 579.763v0c-11.311 0-20.48-9.169-20.48-20.48v0l0.282-408.243c0-8.038-7.475-14.566-16.666-14.566h-446.182c-9.19 0-16.666 6.528-16.666 14.566v564.25c0 8.038 7.475 14.566 16.691 14.566l368.614 0.435c11.311 0 20.48 9.169 20.48 20.48s-9.169 20.48-20.48 20.48v0 0l-368.64-0.435c-31.77 0-57.626-24.909-57.626-55.526v-564.25c0-30.72 25.856-55.526 57.626-55.526h446.182c31.77 0 57.626 24.909 57.626 55.552l-0.307 408.346c-0.073 11.247-9.199 20.338-20.453 20.352h-0.001zM655.36 381.44h-351.002c-11.311 0-20.48-9.169-20.48-20.48s9.169-20.48 20.48-20.48v0h351.002c11.311 0 20.48 9.169 20.48 20.48s-9.169 20.48-20.48 20.48v0zM655.36 304.486h-351.002c-11.311 0-20.48-9.169-20.48-20.48s9.169-20.48 20.48-20.48v0h351.002c11.311 0 20.48 9.169 20.48 20.48s-9.169 20.48-20.48 20.48v0zM655.36 227.558h-351.002c-11.311 0-20.48-9.169-20.48-20.48s9.169-20.48 20.48-20.48v0h351.002c11.311 0 20.48 9.169 20.48 20.48s-9.169 20.48-20.48 20.48v0zM873.088 781.926l-43.52 47.36c-6.48 7.009-15.723 11.383-25.986 11.383-9.231 0-17.636-3.538-23.933-9.332l-277.556-255.337c-4.064-3.754-6.601-9.111-6.601-15.060 0-1.009 0.073-2.001 0.214-2.971l-0.013 0.11-27.213-71.68c-1.3-3.104-2.055-6.711-2.055-10.495 0-8.713 4.004-16.49 10.273-21.593l0.051-0.040c4.239-3.336 9.654-5.35 15.54-5.35 0.018 0 0.036 0 0.054 0h-0.003c4.233 0.008 8.231 1.009 11.775 2.783l-0.153-0.069 73.549 22.554c1.45-0.37 3.114-0.582 4.827-0.582 5.34 0 10.198 2.062 13.822 5.432l-0.012-0.011 274.893 253.133c6.963 6.475 11.306 15.688 11.306 25.915 0 9.204-3.518 17.587-9.282 23.878l0.024-0.026zM580.71 520.474l-36.352 38.656 201.574 185.523 35.994-38.989zM516.941 498.509l8.115 21.35 13.773-14.643zM812.032 733.414l-35.994 38.989 27.136 24.986 35.84-39.040z" />
<glyph unicode="&#xe920;" glyph-name="nb-edit" d="M841.882 630.221c0.027 0.576 0.042 1.251 0.042 1.929 0 11.534-4.445 22.030-11.716 29.868l0.026-0.028-69.914 75.827c-8.116 8.764-19.684 14.233-32.529 14.233-11.57 0-22.103-4.436-29.992-11.701l0.031 0.028-28.288-26.138c-7.156 3.922-15.68 6.23-24.742 6.23-28.857 0-52.25-23.393-52.25-52.25 0-7.54 1.597-14.706 4.471-21.18l-0.132 0.333-343.296-315.981c-4.061-3.754-6.595-9.108-6.595-15.055 0-1.175 0.099-2.326 0.289-3.447l-0.017 0.121-33.638-110.771c-0.97-2.974-1.529-6.395-1.529-9.948 0-10.655 5.030-20.135 12.845-26.194l0.076-0.056c4.72-3.614 10.706-5.791 17.201-5.791 4.28 0 8.339 0.945 11.979 2.638l-0.175-0.073 115.021 26.778c1.431-0.361 3.075-0.567 4.766-0.567 5.332 0 10.184 2.056 13.806 5.418l-0.013-0.012 340.659 313.6c5.997-2.851 13.006-4.611 20.401-4.836l0.079-0.002h1.792c28.792 0.178 52.064 23.559 52.064 52.377 0 6.412-1.152 12.554-3.26 18.232l0.118-0.362 28.16 25.933c8.416 7.714 13.807 18.61 14.257 30.769l0.002 0.079zM295.475 314.266l327.117 301.107 21.606-23.040-322.56-305.894zM257.51 205.722l20.48 67.379 48.282-51.354zM370.534 234.419l-20.813 22.144 322.56 305.843 25.293-27.034zM758.144 547.149v0c-2.036-1.877-4.766-3.029-7.765-3.029-3.269 0-6.218 1.367-8.307 3.562l-0.004 0.005-105.498 112.64c-1.865 2.040-3.008 4.768-3.008 7.763 0 3.266 1.359 6.214 3.542 8.31l0.004 0.004c2.008 1.87 4.71 3.019 7.68 3.021h0.384c3.133-0.087 5.936-1.435 7.931-3.553l0.005-0.006 105.498-112.64c1.877-2.036 3.029-4.766 3.029-7.765 0-3.269-1.367-6.218-3.562-8.307l-0.005-0.004zM799.898 629.76l-25.395-23.373-74.88 80 26.086 24.013c0.581 0.534 1.359 0.861 2.214 0.861 0.944 0 1.795-0.399 2.393-1.038l0.002-0.002 69.786-75.827c0.54-0.579 0.871-1.358 0.871-2.215 0-0.946-0.404-1.797-1.048-2.391l-0.002-0.002z" />
<glyph unicode="&#xe921;" glyph-name="nb-email" d="M842.701 617.882c-0.044 33.165-26.918 60.040-60.079 60.083h-535.198c-33.165-0.044-60.040-26.918-60.083-60.079v-355.127c0-6.654 1.087-13.055 3.092-19.033l-0.123 0.422c0.446-3.321 1.145-6.296 2.098-9.155l-0.101 0.349c6.184-19.1 23.814-32.668 44.613-32.668 0.183 0 0.365 0.001 0.547 0.003h554.494c0.162-0.002 0.353-0.003 0.545-0.003 20.799 0 38.429 13.569 44.52 32.338l0.093 0.331c0.479 1.399 0.965 3.194 1.351 5.026l0.057 0.325c2.657 6.518 4.198 14.080 4.198 22.002 0 0.014 0 0.028 0 0.042v-0.002zM613.76 440.32l177.28 130.56c4.003 2.963 7.497 6.246 10.574 9.892l0.075 0.092v-278.912zM567.040 456.781l-41.446-30.515c-3.003-2.248-6.79-3.6-10.893-3.6s-7.89 1.352-10.941 3.634l0.048-0.034-241.126 177.485c-4.638 3.379-7.617 8.791-7.617 14.9 0 10.151 8.229 18.381 18.381 18.381 0.041 0 0.082 0 0.123 0h482.349c0.035 0 0.075 0 0.116 0 10.151 0 18.381-8.229 18.381-18.381 0-6.108-2.98-11.521-7.565-14.863l-0.052-0.036-199.68-146.995zM238.285 570.88l177.331-130.56-187.315-137.907v277.683c2.978-3.421 6.25-6.449 9.819-9.099l0.165-0.117zM247.424 243.661c-6.791 0.013-12.75 3.564-16.133 8.907l-0.046 0.078c0.508 1.157 1.297 2.11 2.283 2.802l0.021 0.014 216.627 159.462 29.338-21.606c9.698-7.255 21.927-11.617 35.174-11.617s25.477 4.362 35.329 11.728l-0.155-0.111 29.338 21.606 216.627-159.462c1.224-0.825 2.131-2.039 2.549-3.463l0.011-0.045c-3.491-5.033-9.237-8.288-15.743-8.294h-0.001z" />
<glyph unicode="&#xe922;" glyph-name="nb-flame-circled" d="M515.84 947.2c-275.968 0-500.48-224.512-500.48-500.48s224.512-500.48 500.48-500.48 500.48 224.512 500.48 500.48-224.512 500.48-500.48 500.48zM515.84-12.8c-253.389 0-459.52 206.131-459.52 459.52s206.131 459.52 459.52 459.52 459.52-206.131 459.52-459.52-206.131-459.52-459.52-459.52zM561.51 689.485c-15.36 11.341-32 23.040-51.2 31.667-9.953 4.49-22.585 9.23-35.528 13.263l-2.565 0.689c-14.848 4.403-45.722 13.594-57.395-8.448-8.013-15.104-0.256-32.973 4.864-44.774 0.768-1.766 1.562-3.584 1.92-4.557l0.742-2.048c1.715-4.71 3.354-9.165 4.736-13.594 2.119-5.893 3.474-12.7 3.759-19.783l0.004-0.134c0.538-39.040-29.158-68.915-60.595-100.557-10.982-11.059-22.349-22.477-32.077-34.227-64.205-77.363-70.451-189.798-15.181-273.434 31.905-47.682 80.292-82.197 136.855-95.54l1.539-0.306c14.049-3.255 30.18-5.12 46.747-5.12 0.107 0 0.215 0 0.322 0h-0.017c40.997 0.149 79.394 11.151 112.506 30.279l-1.095-0.583c47.528 27.384 84.473 68.554 105.898 118.011l0.624 1.618c30.208 71.194 25.318 151.245-14.157 231.501-31.744 64.64-86.707 128.819-150.707 176.077zM516.736 418.995c7.117-3.768 13.225-7.759 18.933-12.237l-0.271 0.205c53.76-39.731 99.968-110.259 74.24-171.213-17.203-40.55-60.262-64.41-100.122-55.501-21.678 5.12-39.723 18.024-51.416 35.532l-0.194 0.308c-8.683 13.42-13.845 29.822-13.845 47.43 0 21.076 7.395 40.425 19.732 55.593l-0.128-0.162c4.096 4.915 9.165 10.035 14.515 15.36 17.92 18.099 40.397 40.653 39.936 73.6-0.115 3.99-0.612 7.8-1.458 11.476l0.076-0.392zM688.64 297.856c-9.050-21.105-20.474-39.285-34.263-55.379l0.241 0.288c17.126 74.854-32.794 151.245-94.95 197.12-8.136 6.393-17.327 12.151-27.105 16.886l-0.901 0.394c-33.587 14.925-53.197 14.413-61.722-1.638-6.349-11.981-1.024-24.243 2.15-31.565 0.307-0.691 0.563-1.306 0.742-1.766l0.358-0.998c0.845-2.304 1.638-4.506 2.304-6.554 0.786-2.159 1.308-4.655 1.456-7.252l0.003-0.070c0.23-15.718-13.517-29.542-28.16-44.16-5.76-5.811-11.725-11.802-16.998-18.15-18.197-21.987-29.237-50.476-29.237-81.543 0-24.864 7.071-48.077 19.312-67.737l-0.315 0.544c-26.296 14.871-47.969 35.021-64.164 59.155l-0.425 0.673c-44.672 67.61-39.398 162.099 12.544 224.691 8.55 10.24 18.79 20.48 29.619 31.514 34.355 34.56 73.293 73.728 72.499 129.997-0.339 11.423-2.384 22.255-5.887 32.407l0.23-0.766c-1.664 5.299-3.533 10.419-5.35 15.36l-0.742 1.997c-0.614 1.664-1.331 3.405-2.125 5.12 14.311-4.108 26.211-8.466 37.724-13.541l-1.884 0.741c15.36-6.835 29.926-17.178 43.52-27.187 111.462-82.125 206.387-229.427 151.526-358.579z" />
<glyph unicode="&#xe923;" glyph-name="nb-gear" d="M791.475 506.88h-30.31c-1.638 4.915-3.43 9.805-5.325 14.515-2.56 6.733-5.734 13.107-8.883 19.251l24.678 24.678c11.015 11.051 17.825 26.298 17.825 43.136s-6.81 32.085-17.826 43.138l0.002-0.002c-2.381 2.381-4.838 4.992-7.373 7.68-18.253 19.302-48.794 51.61-89.011 32.563-11.648-5.53-19.994-14.31-26.701-21.376l-13.67-14.464-1.587 0.87c-5.581 2.918-11.315 5.658-17.024 8.115-7.526 3.251-15.155 6.118-22.835 8.55v0.691c0 2.714 0 5.402 0 8.115v23.322c-0.044 33.656-27.301 60.932-60.947 61.005h-39.559c-33.674-0.044-60.961-27.33-61.005-61.001v-19.793c0-4.352 0-8.55 0-12.646-7.296-2.381-14.822-4.89-22.374-8.115-5.629-2.239-10.22-4.413-14.66-6.83l0.708 0.353-25.6 25.6c-11.051 11.015-26.298 17.825-43.136 17.825s-32.085-6.81-43.138-17.826l0.002 0.002-27.725-27.853c-11.015-11.051-17.825-26.298-17.825-43.136s6.81-32.085 17.826-43.138l24.651-24.651c-2.227-4.25-4.352-8.627-6.323-13.005-2.97-6.579-5.709-13.363-8.141-20.198q-0.973-2.739-1.869-5.453l-31.795 0.077c-33.648-0.044-60.918-27.287-61.005-60.92v-39.534c0.044-33.674 27.33-60.961 61.001-61.005h15.108c5.12 0 10.24 0 15.539 0 1.792-5.53 3.866-11.11 6.195-16.717 2.56-6.272 5.683-12.8 9.088-19.277q1.024-1.997 2.125-4.045l-23.936-23.936c-11.021-11.048-17.835-26.296-17.835-43.136s6.815-32.088 17.836-43.137l27.954-27.954c11.048-11.021 26.296-17.835 43.136-17.835s32.088 6.815 43.137 17.836l0.409 0.409c2.944 3.123 5.99 6.17 9.242 9.395l4.966 5.12 8.986 9.114c8.114-4.313 17.969-8.697 28.133-12.443l1.742-0.562 0.435-0.154c2.56-0.819 4.813-1.51 7.168-2.125v-32.614c0.044-33.674 27.33-60.961 61.001-61.005h39.53c33.658 0.073 60.921 27.345 60.979 60.999v1.388q0 5.12 0 10.24c0 6.938-0.154 13.85-0.333 20.787 8.422 2.714 16.589 5.786 24.294 9.139 5.12 2.202 10.24 4.634 15.078 7.168v0l8.883-8.858 15.36-15.206c11.048-11.021 26.296-17.835 43.136-17.835s32.088 6.815 43.137 17.836l27.954 27.954c11.021 11.048 17.835 26.296 17.835 43.136s-6.815 32.088-17.836 43.137l-24.498 24.498 1.664 3.379c3.639 7.179 7.492 16.153 10.84 25.369l0.577 1.818c0.947 2.56 1.792 5.325 2.56 7.936l29.517 0.128c33.626 0.131 60.837 27.413 60.851 61.055v39.527c-0.087 33.641-27.357 60.884-61.001 60.928h-0.004zM811.52 406.426c-0.029-11.077-9.015-20.045-20.096-20.045-0.018 0-0.036 0-0.054 0h0.003l-45.005-0.179c-9.606-0.070-17.659-6.638-19.987-15.522l-0.032-0.145-0.614-2.406c-1.562-6.042-3.046-11.776-4.941-17.101-3.298-9.297-6.538-16.861-10.174-24.192l0.574 1.28c-2.254-4.786-4.489-8.78-6.961-12.606l0.254 0.42c-2.432-3.456-3.887-7.752-3.887-12.388 0-1.276 0.11-2.526 0.322-3.742l-0.019 0.13 0.23-1.459 0.768-2.304c1.188-3.18 2.976-5.89 5.244-8.112l0.004-0.004 34.714-34.611c3.619-3.63 5.856-8.638 5.856-14.17s-2.237-10.54-5.857-14.17l-27.954-27.98c-3.632-3.634-8.651-5.882-14.195-5.882s-10.563 2.248-14.195 5.882v0l-15.36 15.206-12.8 12.8-6.579 6.554c-3.83 3.871-9.143 6.269-15.016 6.269-3.377 0-6.57-0.793-9.401-2.202l0.123 0.055c-1.537-0.749-2.845-1.533-4.079-2.413l0.086 0.058-2.56-1.485q-3.123-1.741-6.298-3.354c-4.147-2.15-8.448-4.173-12.8-6.042-6.103-2.767-13.843-5.688-21.775-8.176l-1.572-0.425c-2.56-0.819-5.325-1.562-8.013-2.33l-1.766-0.486c-9.261-2.554-15.949-10.903-15.949-20.813 0-0.045 0-0.090 0-0.134v0.007c0-4.941 0-9.779 0.154-14.464v-0.742c0.154-6.81 0.23-13.594 0.333-20.48 0-3.405 0-6.835 0.128-10.24v-0.922c-0.015-11.065-8.98-20.030-20.043-20.045h-39.399c-11.065 0.015-20.030 8.98-20.045 20.043v48.359c0.001 0.066 0.001 0.143 0.001 0.221 0 10.304-7.352 18.89-17.096 20.8l-0.134 0.022-2.432 0.486c-6.108 1.099-11.276 2.378-16.319 3.943l0.959-0.256c-14.206 5.238-26.343 11.126-37.795 18.035l0.983-0.55-1.536 0.896-2.253 0.845c-13.67 4.608-21.99-4.864-29.312-13.235l-11.674-11.955-4.762-4.787c-3.2-3.226-6.528-6.528-9.805-9.984-3.611-3.512-8.547-5.678-13.989-5.678-5.532 0-10.541 2.238-14.171 5.858v0l-27.955 27.955c-3.619 3.63-5.856 8.638-5.856 14.17s2.237 10.54 5.857 14.17l30.207 30.181 4.506 4.48c3.838 3.801 6.214 9.072 6.214 14.898 0 3.949-1.092 7.643-2.99 10.796l0.053-0.095-1.818 3.046c-0.87 1.485-1.766 2.944-2.56 4.454q-2.253 3.994-4.378 8.064c-2.893 5.555-5.453 11.008-7.68 16.23-3.040 6.905-5.839 15.166-7.941 23.701l-0.225 1.080c-1.131 5.086-3.932 9.388-7.786 12.406l-0.047 0.036-1.075 0.768c-3.317 2.272-7.408 3.644-11.817 3.686h-0.011c-10.394 0.23-20.838 0.154-30.899 0h-14.822c-11.056 0.015-20.016 8.966-20.045 20.016v39.529c0.043 11.002 8.943 19.91 19.937 19.968h0.006l46.080-0.205c0.047 0 0.103-0.001 0.159-0.001 5.040 0 9.667 1.767 13.295 4.716l-0.039-0.031c3.19 2.623 5.586 6.103 6.845 10.089l0.041 0.151 0.845 2.714c1.638 5.274 3.2 10.24 4.915 15.13 2.048 5.76 4.352 11.469 6.861 16.998 1.766 3.891 3.661 7.68 5.632 11.52s4.019 7.398 6.144 10.931c1.915 3.107 3.049 6.873 3.049 10.903 0 2.515-0.442 4.928-1.252 7.163l0.046-0.146v0.282c-1.179 3.014-2.92 5.577-5.112 7.672l-2.21 2.21-32.819 33.024c-3.6 3.638-5.825 8.644-5.825 14.17s2.224 10.531 5.826 14.171l27.953 27.979c3.638 3.579 8.633 5.789 14.144 5.789s10.506-2.21 14.147-5.792l-0.003 0.003 29.901-30.080c1.946-1.971 3.917-3.917 5.734-5.811 2.915-3.059 6.719-5.246 10.998-6.145l0.138-0.024 3.456-0.666 3.354 0.435c3.968 0.553 7.512 2.035 10.511 4.219l-0.066-0.046 0.717 0.41 0.845 0.461q2.56 1.434 5.12 2.765l1.126 0.589c3.079 1.744 6.842 3.572 10.717 5.185l0.726 0.268 0.922 0.358c6.528 2.816 13.517 5.12 20.941 7.526 3.917 1.28 7.834 2.56 11.699 3.917 8.863 3 15.129 11.242 15.129 20.948 0 0.367-0.009 0.731-0.027 1.093l0.002-0.051c-0.179 8.038-0.256 16.282-0.256 25.139v19.814c0.015 11.065 8.98 20.030 20.043 20.045h39.604c11.065-0.015 20.030-8.98 20.045-20.043v-23.323c0-2.56 0-5.12 0-7.526v-4.838c0-2.202 0-4.378 0-6.554v-0.205c-0.052-0.612-0.082-1.323-0.082-2.042 0-5.815 1.956-11.173 5.247-15.451l-0.044 0.060c3.335-4.050 7.873-7 13.064-8.309l0.171-0.036c11.374-2.997 21.040-6.425 30.334-10.54l-1.278 0.505c4.736-2.048 9.498-4.326 14.157-6.733l1.741-1.126c6.656-4.378 16.691-10.957 28.57-7.424 5.552 1.834 10.246 5.001 13.87 9.129l0.030 0.035 19.84 20.915c4.813 5.12 9.779 10.24 14.515 12.544 11.469 5.427 21.683-2.56 41.702-23.68 2.816-2.97 5.53-5.837 8.166-8.499 3.594-3.641 5.814-8.646 5.814-14.17s-2.22-10.529-5.816-14.172l0.002 0.002-27.136-27.187c-2.227-2.227-4.454-4.454-6.707-6.605-2.398-2.211-4.302-4.92-5.552-7.966l-0.054-0.149-0.64-1.869c-0.565-1.868-0.89-4.015-0.89-6.238 0-3.979 1.042-7.714 2.868-10.948l-0.058 0.111 0.947-1.792c3.859-6.759 8-15.12 11.701-23.715l0.663-1.731c1.638-4.096 3.2-8.371 4.634-12.8 1.042-2.89 2.142-6.666 3.047-10.517l0.153-0.772 0.384-1.587c1.613-5.632 6.707-15.002 22.682-15.002h0.794c1.997 0 4.403 0.128 6.016 0.205h35.994c0.024 0 0.052 0 0.080 0 10.959 0 19.866-8.783 20.067-19.693v-0.019zM512.691 608.23c-101.415 0-183.629-82.213-183.629-183.629s82.213-183.629 183.629-183.629c101.415 0 183.629 82.213 183.629 183.629v0c0 101.415-82.213 183.629-183.629 183.629v0zM512.691 281.933c-78.794 0-142.669 63.875-142.669 142.669s63.875 142.669 142.669 142.669c78.794 0 142.669-63.875 142.669-142.669v0c-0.087-78.759-63.91-142.581-142.66-142.669h-0.008zM512.691 523.75c-54.758 0-99.149-44.39-99.149-99.149s44.39-99.149 99.149-99.149c54.758 0 99.149 44.39 99.149 99.149v0c0 54.758-44.39 99.149-99.149 99.149v0zM512.691 366.413c-32.137 0-58.189 26.052-58.189 58.189s26.052 58.189 58.189 58.189c32.137 0 58.189-26.052 58.189-58.189v0c-0.029-32.125-26.064-58.16-58.186-58.189h-0.003z" />
<glyph unicode="&#xe924;" glyph-name="nb-grid-a" d="M233.267 765.44h233.856c16.966 0 30.72-13.754 30.72-30.72v-233.856c0-16.966-13.754-30.72-30.72-30.72h-233.856c-16.966 0-30.72 13.754-30.72 30.72v233.856c0 16.966 13.754 30.72 30.72 30.72zM580.25 765.44h233.856c16.966 0 30.72-13.754 30.72-30.72v-233.856c0-16.966-13.754-30.72-30.72-30.72h-233.856c-16.966 0-30.72 13.754-30.72 30.72v233.856c0 16.966 13.754 30.72 30.72 30.72zM235.725 425.856h233.856c16.966 0 30.72-13.754 30.72-30.72v-233.856c0-16.966-13.754-30.72-30.72-30.72h-233.856c-16.966 0-30.72 13.754-30.72 30.72v233.856c0 16.966 13.754 30.72 30.72 30.72zM580.992 425.856h233.856c16.966 0 30.72-13.754 30.72-30.72v-233.856c0-16.966-13.754-30.72-30.72-30.72h-233.856c-16.966 0-30.72 13.754-30.72 30.72v233.856c0 16.966 13.754 30.72 30.72 30.72z" />
<glyph unicode="&#xe925;" glyph-name="nb-grid-a-outline" d="M220.621 461.107h222.413c28.277 0 51.2 22.923 51.2 51.2v0 222.413c0 28.277-22.923 51.2-51.2 51.2v0h-222.413c-28.277 0-51.2-22.923-51.2-51.2v0-222.413c0-28.277 22.923-51.2 51.2-51.2v0zM210.381 734.72c0.071 5.627 4.613 10.169 10.233 10.24h222.42c5.627-0.071 10.169-4.613 10.24-10.233v-222.42c-0.071-5.627-4.613-10.169-10.233-10.24h-222.42c-5.627 0.071-10.169 4.613-10.24 10.233v0.007zM578.765 461.107h222.515c28.277 0 51.2 22.923 51.2 51.2v0 222.413c0 28.277-22.923 51.2-51.2 51.2v0h-222.515c-28.277 0-51.2-22.923-51.2-51.2v0-222.413c0-28.277 22.923-51.2 51.2-51.2v0zM568.525 734.72c0.071 5.627 4.613 10.169 10.233 10.24h222.522c5.627-0.071 10.169-4.613 10.24-10.233v-222.42c-0.071-5.627-4.613-10.169-10.233-10.24h-222.522c-5.627 0.071-10.169 4.613-10.24 10.233v0.007zM445.44 434.893h-222.438c-28.277 0-51.2-22.923-51.2-51.2v0-222.413c0-28.277 22.923-51.2 51.2-51.2v0h222.438c28.277 0 51.2 22.923 51.2 51.2v0 222.413c0 28.277-22.923 51.2-51.2 51.2v0zM455.68 161.28c-0.071-5.627-4.613-10.169-10.233-10.24h-222.445c-5.627 0.071-10.169 4.613-10.24 10.233v222.42c0.071 5.627 4.613 10.169 10.233 10.24h222.445c5.627-0.071 10.169-4.613 10.24-10.233v-0.007zM801.869 434.893h-222.387c-28.277 0-51.2-22.923-51.2-51.2v0-222.413c0-28.277 22.923-51.2 51.2-51.2v0h222.413c28.277 0 51.2 22.923 51.2 51.2v0 222.413c0 28.277-22.923 51.2-51.2 51.2-0.009 0-0.018 0-0.027 0h0.001zM812.109 161.28c-0.071-5.627-4.613-10.169-10.233-10.24h-222.394c-5.627 0.071-10.169 4.613-10.24 10.233v222.42c0.071 5.627 4.613 10.169 10.233 10.24h222.42c5.627-0.071 10.169-4.613 10.24-10.233v-0.007z" />
<glyph unicode="&#xe926;" glyph-name="nb-grid-b" d="M233.139 755.584h124.877c16.966 0 30.72-13.754 30.72-30.72v-124.877c0-16.966-13.754-30.72-30.72-30.72h-124.877c-16.966 0-30.72 13.754-30.72 30.72v124.877c0 16.966 13.754 30.72 30.72 30.72zM683.418 755.584h124.877c16.966 0 30.72-13.754 30.72-30.72v-124.877c0-16.966-13.754-30.72-30.72-30.72h-124.877c-16.966 0-30.72 13.754-30.72 30.72v124.877c0 16.966 13.754 30.72 30.72 30.72zM458.266 755.584h124.877c16.966 0 30.72-13.754 30.72-30.72v-124.877c0-16.966-13.754-30.72-30.72-30.72h-124.877c-16.966 0-30.72 13.754-30.72 30.72v124.877c0 16.966 13.754 30.72 30.72 30.72zM233.139 531.302h124.877c16.966 0 30.72-13.754 30.72-30.72v-124.877c0-16.966-13.754-30.72-30.72-30.72h-124.877c-16.966 0-30.72 13.754-30.72 30.72v124.877c0 16.966 13.754 30.72 30.72 30.72zM683.418 531.302h124.877c16.966 0 30.72-13.754 30.72-30.72v-124.877c0-16.966-13.754-30.72-30.72-30.72h-124.877c-16.966 0-30.72 13.754-30.72 30.72v124.877c0 16.966 13.754 30.72 30.72 30.72zM458.266 531.302h124.877c16.966 0 30.72-13.754 30.72-30.72v-124.877c0-16.966-13.754-30.72-30.72-30.72h-124.877c-16.966 0-30.72 13.754-30.72 30.72v124.877c0 16.966 13.754 30.72 30.72 30.72zM233.139 307.021h124.877c16.966 0 30.72-13.754 30.72-30.72v-124.877c0-16.966-13.754-30.72-30.72-30.72h-124.877c-16.966 0-30.72 13.754-30.72 30.72v124.877c0 16.966 13.754 30.72 30.72 30.72zM683.418 307.021h124.877c16.966 0 30.72-13.754 30.72-30.72v-124.877c0-16.966-13.754-30.72-30.72-30.72h-124.877c-16.966 0-30.72 13.754-30.72 30.72v124.877c0 16.966 13.754 30.72 30.72 30.72zM458.266 307.021h124.877c16.966 0 30.72-13.754 30.72-30.72v-124.877c0-16.966-13.754-30.72-30.72-30.72h-124.877c-16.966 0-30.72 13.754-30.72 30.72v124.877c0 16.966 13.754 30.72 30.72 30.72z" />
<glyph unicode="&#xe927;" glyph-name="nb-grid-b-outline" d="M336.486 786.304h-110.976c-28.277 0-51.2-22.923-51.2-51.2v0-110.976c0-28.277 22.923-51.2 51.2-51.2v0h110.976c28.277 0 51.2 22.923 51.2 51.2v0 110.976c0 28.277-22.923 51.2-51.2 51.2v0zM346.726 624.128c-0.071-5.627-4.613-10.169-10.233-10.24h-110.983c-5.627 0.071-10.169 4.613-10.24 10.233v110.983c0.071 5.627 4.613 10.169 10.233 10.24h110.983c5.627-0.071 10.169-4.613 10.24-10.233v-0.007zM800.538 786.304h-110.976c-28.277 0-51.2-22.923-51.2-51.2v0-110.976c0-28.277 22.923-51.2 51.2-51.2v0h110.976c28.277 0 51.2 22.923 51.2 51.2v0 110.976c0 28.277-22.923 51.2-51.2 51.2v0zM810.778 624.128c-0.071-5.627-4.613-10.169-10.233-10.24h-110.983c-5.627 0.071-10.169 4.613-10.24 10.233v110.983c0.071 5.627 4.613 10.169 10.233 10.24h110.983c5.627-0.071 10.169-4.613 10.24-10.233v-0.007zM568.525 786.304h-110.976c-28.277 0-51.2-22.923-51.2-51.2v0-110.976c0-28.277 22.923-51.2 51.2-51.2v0h110.976c28.277 0 51.2 22.923 51.2 51.2v0 110.976c0 28.277-22.923 51.2-51.2 51.2v0zM578.765 624.128c-0.071-5.627-4.613-10.169-10.233-10.24h-110.983c-5.627 0.071-10.169 4.613-10.24 10.233v110.983c0.071 5.627 4.613 10.169 10.233 10.24h110.983c5.627-0.071 10.169-4.613 10.24-10.233v-0.007zM336.486 555.059h-110.976c-28.277 0-51.2-22.923-51.2-51.2v0-110.976c0-28.277 22.923-51.2 51.2-51.2v0h110.976c28.277 0 51.2 22.923 51.2 51.2v0 110.976c0 28.277-22.923 51.2-51.2 51.2v0zM346.726 392.883c-0.071-5.627-4.613-10.169-10.233-10.24h-110.983c-5.627 0.071-10.169 4.613-10.24 10.233v110.983c0.071 5.627 4.613 10.169 10.233 10.24h110.983c5.627-0.071 10.169-4.613 10.24-10.233v-0.007zM800.538 555.059h-110.976c-28.277 0-51.2-22.923-51.2-51.2v0-110.976c0-28.277 22.923-51.2 51.2-51.2v0h110.976c28.277 0 51.2 22.923 51.2 51.2v0 110.976c0 28.277-22.923 51.2-51.2 51.2v0zM810.778 392.883c-0.071-5.627-4.613-10.169-10.233-10.24h-110.983c-5.627 0.071-10.169 4.613-10.24 10.233v110.983c0.071 5.627 4.613 10.169 10.233 10.24h110.983c5.627-0.071 10.169-4.613 10.24-10.233v-0.007zM568.525 555.059h-110.976c-28.277 0-51.2-22.923-51.2-51.2v0-110.976c0-28.277 22.923-51.2 51.2-51.2v0h110.976c28.277 0 51.2 22.923 51.2 51.2v0 110.976c0 28.277-22.923 51.2-51.2 51.2v0zM578.765 392.883c-0.071-5.627-4.613-10.169-10.233-10.24h-110.983c-5.627 0.071-10.169 4.613-10.24 10.233v110.983c0.071 5.627 4.613 10.169 10.233 10.24h110.983c5.627-0.071 10.169-4.613 10.24-10.233v-0.007zM336.486 323.84h-110.976c-28.277 0-51.2-22.923-51.2-51.2v0-110.976c0-28.277 22.923-51.2 51.2-51.2v0h110.976c28.277 0 51.2 22.923 51.2 51.2v0 110.976c0 28.277-22.923 51.2-51.2 51.2v0zM346.726 161.664c-0.071-5.627-4.613-10.169-10.233-10.24h-110.983c-5.627 0.071-10.169 4.613-10.24 10.233v110.983c0.071 5.627 4.613 10.169 10.233 10.24h110.983c5.627-0.071 10.169-4.613 10.24-10.233v-0.007zM800.538 323.84h-110.976c-28.277 0-51.2-22.923-51.2-51.2v0-110.976c0-28.277 22.923-51.2 51.2-51.2v0h110.976c28.277 0 51.2 22.923 51.2 51.2v0 110.976c0 28.277-22.923 51.2-51.2 51.2v0zM810.778 161.664c-0.071-5.627-4.613-10.169-10.233-10.24h-110.983c-5.627 0.071-10.169 4.613-10.24 10.233v110.983c0.071 5.627 4.613 10.169 10.233 10.24h110.983c5.627-0.071 10.169-4.613 10.24-10.233v-0.007zM568.525 323.84h-110.976c-28.277 0-51.2-22.923-51.2-51.2v0-110.976c0-28.277 22.923-51.2 51.2-51.2v0h110.976c28.277 0 51.2 22.923 51.2 51.2v0 110.976c0 28.277-22.923 51.2-51.2 51.2v0zM578.765 161.664c-0.071-5.627-4.613-10.169-10.233-10.24h-110.983c-5.627 0.071-10.169 4.613-10.24 10.233v110.983c0.071 5.627 4.613 10.169 10.233 10.24h110.983c5.627-0.071 10.169-4.613 10.24-10.233v-0.007z" />
<glyph unicode="&#xe928;" glyph-name="nb-heart" d="M829.261 579.251c-29.773 95.155-121.062 154.982-217.037 142.285-36.038-4.81-68.141-18.75-94.784-39.4l0.448 0.334h-0.128l-0.538 0.461c-1.859 1.63-3.895 3.243-6.008 4.753l-0.238 0.162c-6.267 4.37-13.528 8.771-21.062 12.72l-1.133 0.541c-18.914 9.986-40.927 17.191-64.223 20.365l-1.032 0.115c-96 12.8-187.238-47.155-217.037-142.285-35.84-114.33 42.342-220.749 77.594-261.12 59.187-67.625 135.883-118.533 223.037-145.754l3.472-0.934c2.179-0.692 4.684-1.091 7.283-1.091s5.105 0.399 7.459 1.139l-0.176-0.048c90.625 28.155 167.321 79.063 226.022 146.121l0.486 0.567c35.251 40.218 113.382 146.765 77.594 261.069zM720.794 344.96c-53.191-60.77-121.788-106.791-199.729-132.075l-3.176-0.891c-81.16 26.163-149.795 72.197-202.563 132.473l-0.445 0.519c-30.72 35.251-98.97 127.462-69.376 222.054 21.683 69.325 83.866 115.2 152.371 115.2 7.122 0 14.131-0.484 20.997-1.42l-0.798 0.089c19.329-2.628 36.815-8.363 52.706-16.722l-0.866 0.415c6.937-3.596 12.748-7.122 18.31-10.981l-0.544 0.357c0.614-0.41 1.92-1.536 2.97-2.432 5.734-4.838 15.36-12.979 28.442-12.186 11.034 0.64 18.893 6.835 23.603 10.547l0.435 0.333c20.67 15.995 45.998 26.961 73.63 30.634l0.789 0.086c76.16 10.086 148.762-37.837 172.57-113.92 29.67-94.592-38.605-186.803-69.325-222.054z" />
<glyph unicode="&#xe929;" glyph-name="nb-home" d="M798.566 471.219c0 5.274 0 10.726 0 16.333-0.205 7.269-3.089 13.827-7.695 18.756l0.015-0.016c-1.889 1.979-3.922 3.784-6.094 5.413l-0.127 0.091-240.742 187.008c-0.614 0.538-1.229 1.075-1.869 1.587-1.331 1.075-2.714 2.15-4.070 3.2l-13.85 10.65c-3.595 2.882-8.212 4.626-13.235 4.626s-9.64-1.743-13.277-4.658l0.042 0.032-263.834-204.8c-1.774-1.386-3.341-2.88-4.751-4.514l-0.036-0.043c-3.274-3.692-5.274-8.579-5.274-13.934 0-0.033 0-0.067 0-0.1v0.005l0.486-361.472c0-18.867 17.203-34.227 38.4-34.253l159.616-0.205c0.076-0.001 0.166-0.001 0.256-0.001 8.362 0 15.944 3.341 21.484 8.762l-0.005-0.005c4.877 4.798 7.901 11.466 7.91 18.84v0.002l-0.23 173.338 118.042-0.154 0.23-173.44c0-15.181 13.312-27.546 29.645-27.571l161.101-0.205c0.132-0.002 0.288-0.002 0.444-0.002 10.933 0 20.853 4.335 28.136 11.38l-0.011-0.011c5.951 5.82 9.655 13.916 9.702 22.878v0.009l-0.435 335.488c-0.026 2.304 0 4.659 0.026 6.989zM244.71 129.408l20.48 0.333s0-0.205 0-0.307zM610.79 135.629l-0.205 166.758c0 18.867-17.203 34.227-38.4 34.253l-123.341 0.154c-0.132 0.002-0.288 0.002-0.444 0.002-10.933 0-20.853-4.335-28.136-11.38l0.011 0.011c-5.955-5.827-9.66-13.933-9.702-22.904v-0.008l0.23-166.656-145.69 0.179-0.461 345.472 246.093 191.155 1.869-1.459 3.379-2.56 0.563-0.486c1.692-1.565 3.559-2.992 5.552-4.235l0.157-0.091 235.494-183.040c0-2.97 0-5.99 0-9.139 0-2.56 0-5.12 0-7.501l0.435-328.704zM842.061 554.342l-310.707 240.102c-5.291 4.122-12.032 6.609-19.354 6.609s-14.063-2.487-19.425-6.662l0.071 0.053-114.765-88.704v15.872c0 21.606-19.686 39.194-43.878 39.194h-48.64c-24.192 0-43.878-17.587-43.878-39.194v-121.344l-59.546-45.926c-5.025-3.774-8.241-9.722-8.241-16.421 0-11.311 9.169-20.48 20.48-20.48 4.86 0 9.325 1.693 12.837 4.522l-0.039-0.031 305.024 235.827 304.998-235.725c3.472-2.798 7.937-4.491 12.798-4.491 11.311 0 20.48 9.169 20.48 20.48 0 6.699-3.216 12.646-8.188 16.383l-0.053 0.038zM282.317 719.36c0.823 0.341 1.779 0.539 2.782 0.539 0.048 0 0.096 0 0.144-0.001h48.633c0.041 0.001 0.089 0.001 0.137 0.001 1.002 0 1.958-0.198 2.831-0.557l-0.050 0.018v-45.184l-54.579-42.189z" />
<glyph unicode="&#xe92a;" glyph-name="nb-keypad" d="M295.706 780.8c-0.015 0-0.033 0-0.051 0-47.378 0-85.786-38.408-85.786-85.786s38.408-85.786 85.786-85.786c47.378 0 85.786 38.408 85.786 85.786v0c0 47.36-38.378 85.756-85.732 85.786h-0.003zM295.706 650.24c-0.015 0-0.033 0-0.051 0-24.756 0-44.826 20.069-44.826 44.826s20.069 44.826 44.826 44.826c24.756 0 44.826-20.069 44.826-44.826 0-0.018 0-0.036 0-0.054v0.003c-0.058-24.705-20.070-44.716-44.769-44.774h-0.006zM527.36 780.8c-47.378 0-85.786-38.408-85.786-85.786s38.408-85.786 85.786-85.786c47.378 0 85.786 38.408 85.786 85.786v0c0 47.378-38.408 85.786-85.786 85.786v0zM527.36 650.24c-24.756 0-44.826 20.069-44.826 44.826s20.069 44.826 44.826 44.826c24.756 0 44.826-20.069 44.826-44.826v0c-0.029-24.745-20.081-44.796-44.823-44.826h-0.003zM759.014 609.28c0.015 0 0.033 0 0.051 0 47.378 0 85.786 38.408 85.786 85.786s-38.408 85.786-85.786 85.786c-47.378 0-85.786-38.408-85.786-85.786 0-0.018 0-0.036 0-0.054v0.003c0.029-47.338 38.396-85.705 85.732-85.734h0.003zM759.014 739.84c0.015 0 0.033 0 0.051 0 24.756 0 44.826-20.069 44.826-44.826s-20.069-44.826-44.826-44.826c-24.756 0-44.826 20.069-44.826 44.826v0c0.029 24.727 20.052 44.767 44.769 44.826h0.006zM295.706 549.146c-0.015 0-0.033 0-0.051 0-47.378 0-85.786-38.408-85.786-85.786s38.408-85.786 85.786-85.786c47.378 0 85.786 38.408 85.786 85.786v0c0 47.36-38.378 85.756-85.732 85.786h-0.003zM295.706 418.586c-0.015 0-0.033 0-0.051 0-24.756 0-44.826 20.069-44.826 44.826s20.069 44.826 44.826 44.826c24.756 0 44.826-20.069 44.826-44.826 0-0.018 0-0.036 0-0.054v0.003c-0.029-24.727-20.052-44.767-44.769-44.826h-0.006zM527.36 549.146c-47.378 0-85.786-38.408-85.786-85.786s38.408-85.786 85.786-85.786c47.378 0 85.786 38.408 85.786 85.786v0c0 47.378-38.408 85.786-85.786 85.786v0zM527.36 418.586c-24.756 0-44.826 20.069-44.826 44.826s20.069 44.826 44.826 44.826c24.756 0 44.826-20.069 44.826-44.826 0-0.018 0-0.036 0-0.054v0.003c-0.029-24.745-20.081-44.796-44.823-44.826h-0.003zM759.014 549.146c-47.378 0-85.786-38.408-85.786-85.786s38.408-85.786 85.786-85.786c47.378 0 85.786 38.408 85.786 85.786v0c0 47.378-38.408 85.786-85.786 85.786v0zM759.014 418.586c-24.756 0-44.826 20.069-44.826 44.826s20.069 44.826 44.826 44.826c24.756 0 44.826-20.069 44.826-44.826 0-0.018 0-0.036 0-0.054v0.003c-0.029-24.745-20.081-44.796-44.823-44.826h-0.003zM295.706 317.44c-0.015 0-0.033 0-0.051 0-47.378 0-85.786-38.408-85.786-85.786s38.408-85.786 85.786-85.786c47.378 0 85.786 38.408 85.786 85.786 0 0.018 0 0.036 0 0.054v-0.003c-0.029 47.338-38.396 85.705-85.732 85.734h-0.003zM295.706 186.88c-0.015 0-0.033 0-0.051 0-24.756 0-44.826 20.069-44.826 44.826s20.069 44.826 44.826 44.826c24.756 0 44.826-20.069 44.826-44.826v0c-0.029-24.727-20.052-44.767-44.769-44.826h-0.006zM527.36 317.44c-47.378 0-85.786-38.408-85.786-85.786s38.408-85.786 85.786-85.786c47.378 0 85.786 38.408 85.786 85.786v0c0 47.378-38.408 85.786-85.786 85.786v0zM527.36 186.88c-24.756 0-44.826 20.069-44.826 44.826s20.069 44.826 44.826 44.826c24.756 0 44.826-20.069 44.826-44.826v0c-0.029-24.745-20.081-44.796-44.823-44.826h-0.003zM759.014 317.44c-47.378 0-85.786-38.408-85.786-85.786s38.408-85.786 85.786-85.786c47.378 0 85.786 38.408 85.786 85.786 0 0.018 0 0.036 0 0.054v-0.003c-0.029 47.356-38.426 85.734-85.786 85.734v0zM759.014 186.88c-24.756 0-44.826 20.069-44.826 44.826s20.069 44.826 44.826 44.826c24.756 0 44.826-20.069 44.826-44.826v0c-0.029-24.745-20.081-44.796-44.823-44.826h-0.003z" />
<glyph unicode="&#xe92b;" glyph-name="nb-layout-centre" d="M811.52 785.92h-573.44c-28.277 0-51.2-22.923-51.2-51.2v0-573.44c0-28.277 22.923-51.2 51.2-51.2v0h573.44c28.277 0 51.2 22.923 51.2 51.2v0 573.44c0 28.277-22.923 51.2-51.2 51.2v0zM227.84 734.72c0.071 5.627 4.613 10.169 10.233 10.24h573.447c5.627-0.071 10.169-4.613 10.24-10.233v-67.591h-593.92zM821.76 161.28c-0.071-5.627-4.613-10.169-10.233-10.24h-573.447c-5.627 0.071-10.169 4.613-10.24 10.233v464.903h593.92zM433.562 203.648h180.838c28.277 0 51.2 22.923 51.2 51.2v0 264.346c0 28.277-22.923 51.2-51.2 51.2v0h-180.838c-28.277 0-51.2-22.923-51.2-51.2v0-264.346c0-28.277 22.923-51.2 51.2-51.2v0zM423.322 519.194c0.071 5.627 4.613 10.169 10.233 10.24h180.845c5.627-0.071 10.169-4.613 10.24-10.233v-264.353c-0.071-5.627-4.613-10.169-10.233-10.24h-180.845c-5.627 0.071-10.169 4.613-10.24 10.233v0.007z" />
<glyph unicode="&#xe92c;" glyph-name="nb-layout-default" d="M811.52 785.92h-573.44c-28.277 0-51.2-22.923-51.2-51.2v0-573.44c0-28.277 22.923-51.2 51.2-51.2v0h573.44c28.277 0 51.2 22.923 51.2 51.2v0 573.44c0 28.277-22.923 51.2-51.2 51.2v0zM821.76 161.28c-0.071-5.627-4.613-10.169-10.233-10.24h-573.447c-5.627 0.071-10.169 4.613-10.24 10.233v464.903h593.92zM821.76 667.136h-593.92v67.584c0.071 5.627 4.613 10.169 10.233 10.24h573.447c5.627-0.071 10.169-4.613 10.24-10.233v-0.007zM368.41 206.976h307.789c28.277 0 51.2 22.923 51.2 51.2v0 264.371c0 28.277-22.923 51.2-51.2 51.2v0h-307.789c-28.277 0-51.2-22.923-51.2-51.2v0-264.371c0-28.277 22.923-51.2 51.2-51.2v0zM358.17 522.522c0.071 5.627 4.613 10.169 10.233 10.24h307.796c5.627-0.071 10.169-4.613 10.24-10.233v-264.353c-0.071-5.627-4.613-10.169-10.233-10.24h-307.796c-5.627 0.071-10.169 4.613-10.24 10.233v0.007z" />
<glyph unicode="&#xe92d;" glyph-name="nb-layout-one-column" d="M785.92 785.92h-573.44c-28.277 0-51.2-22.923-51.2-51.2v0-573.44c0-28.277 22.923-51.2 51.2-51.2v0h573.44c28.277 0 51.2 22.923 51.2 51.2v0 573.44c0 28.277-22.923 51.2-51.2 51.2v0zM202.24 734.72c0.071 5.627 4.613 10.169 10.233 10.24h573.447c5.627-0.071 10.169-4.613 10.24-10.233v-67.591h-593.92zM796.16 161.28c-0.071-5.627-4.613-10.169-10.233-10.24h-573.447c-5.627 0.071-10.169 4.613-10.24 10.233v464.903h593.92zM469.76 205.312h58.88c28.277 0 51.2 22.923 51.2 51.2v0 264.346c0 28.277-22.923 51.2-51.2 51.2v0h-58.88c-28.277 0-51.2-22.923-51.2-51.2v0-264.346c0-28.277 22.923-51.2 51.2-51.2v0zM459.52 520.858c0.071 5.627 4.613 10.169 10.233 10.24h58.887c5.627-0.071 10.169-4.613 10.24-10.233v-264.353c-0.071-5.627-4.613-10.169-10.233-10.24h-58.887c-5.627 0.071-10.169 4.613-10.24 10.233v0.007z" />
<glyph unicode="&#xe92e;" glyph-name="nb-layout-sidebar-left" d="M798.72 785.92h-573.44c-28.277 0-51.2-22.923-51.2-51.2v0-573.44c0-28.277 22.923-51.2 51.2-51.2v0h573.44c28.277 0 51.2 22.923 51.2 51.2v0 573.44c0 28.277-22.923 51.2-51.2 51.2v0zM215.040 734.72c0.071 5.627 4.613 10.169 10.233 10.24h573.447c5.627-0.071 10.169-4.613 10.24-10.233v-67.591h-593.92zM808.96 161.28c-0.071-5.627-4.613-10.169-10.233-10.24h-573.447c-5.627 0.071-10.169 4.613-10.24 10.233v464.903h593.92zM457.523 205.312h264.397c28.277 0 51.2 22.923 51.2 51.2v0 264.346c0 28.277-22.923 51.2-51.2 51.2v0h-264.397c-28.277 0-51.2-22.923-51.2-51.2v0-264.346c0-28.277 22.923-51.2 51.2-51.2v0zM447.283 520.858c0.071 5.627 4.613 10.169 10.233 10.24h264.404c5.627-0.071 10.169-4.613 10.24-10.233v-264.353c-0.071-5.627-4.613-10.169-10.233-10.24h-264.404c-5.627 0.071-10.169 4.613-10.24 10.233v0.007zM297.395 205.312c25.551 0.029 46.256 20.734 46.285 46.282v274.179c0 25.562-20.722 46.285-46.285 46.285s-46.285-20.722-46.285-46.285v0-274.176c0.029-25.551 20.734-46.256 46.282-46.285h0.003z" />
<glyph unicode="&#xe92f;" glyph-name="nb-layout-sidebar-right" d="M798.72 785.92h-573.44c-28.277 0-51.2-22.923-51.2-51.2v0-573.44c0-28.277 22.923-51.2 51.2-51.2v0h573.44c28.277 0 51.2 22.923 51.2 51.2v0 573.44c0 28.277-22.923 51.2-51.2 51.2v0zM215.040 734.72c0.071 5.627 4.613 10.169 10.233 10.24h573.447c5.627-0.071 10.169-4.613 10.24-10.233v-67.591h-593.92zM808.96 161.28c-0.071-5.627-4.613-10.169-10.233-10.24h-573.447c-5.627 0.071-10.169 4.613-10.24 10.233v464.903h593.92zM302.080 205.312h264.397c28.277 0 51.2 22.923 51.2 51.2v0 264.346c0 28.277-22.923 51.2-51.2 51.2v0h-264.397c-28.277 0-51.2-22.923-51.2-51.2v0-264.346c0-28.277 22.923-51.2 51.2-51.2v0zM291.84 520.858c0.071 5.627 4.613 10.169 10.233 10.24h264.404c5.627-0.071 10.169-4.613 10.24-10.233v-264.353c-0.071-5.627-4.613-10.169-10.233-10.24h-264.404c-5.627 0.071-10.169 4.613-10.24 10.233v0.007zM726.605 205.312c25.551 0.029 46.256 20.734 46.285 46.282v274.179c0 25.562-20.722 46.285-46.285 46.285s-46.285-20.722-46.285-46.285v0-274.176c0.029-25.551 20.734-46.256 46.282-46.285h0.003z" />
<glyph unicode="&#xe930;" glyph-name="nb-layout-two-column" d="M811.52 785.92h-573.44c-28.277 0-51.2-22.923-51.2-51.2v0-573.44c0-28.277 22.923-51.2 51.2-51.2v0h573.44c28.277 0 51.2 22.923 51.2 51.2v0 573.44c0 28.277-22.923 51.2-51.2 51.2v0zM227.84 734.72c0.071 5.627 4.613 10.169 10.233 10.24h573.447c5.627-0.071 10.169-4.613 10.24-10.233v-67.591h-593.92zM821.76 161.28c-0.071-5.627-4.613-10.169-10.233-10.24h-573.447c-5.627 0.071-10.169 4.613-10.24 10.233v464.903h593.92zM385.101 206.976h58.88c28.277 0 51.2 22.923 51.2 51.2v0 264.371c0 28.277-22.923 51.2-51.2 51.2v0h-58.88c-28.277 0-51.2-22.923-51.2-51.2v0-264.371c0-28.277 22.923-51.2 51.2-51.2v0zM374.861 522.522c0.071 5.627 4.613 10.169 10.233 10.24h58.887c5.627-0.071 10.169-4.613 10.24-10.233v-264.353c-0.071-5.627-4.613-10.169-10.233-10.24h-58.887c-5.627 0.071-10.169 4.613-10.24 10.233v0.007zM599.040 206.976h58.88c28.277 0 51.2 22.923 51.2 51.2v0 264.371c0 28.277-22.923 51.2-51.2 51.2v0h-58.88c-28.277 0-51.2-22.923-51.2-51.2v0-264.371c0-28.277 22.923-51.2 51.2-51.2v0zM588.8 522.522c0.071 5.627 4.613 10.169 10.233 10.24h58.887c5.627-0.071 10.169-4.613 10.24-10.233v-264.353c-0.071-5.627-4.613-10.169-10.233-10.24h-58.887c-5.627 0.071-10.169 4.613-10.24 10.233v0.007z" />
<glyph unicode="&#xe931;" glyph-name="nb-lightbulb" d="M600.678 227.43c86.724 35.97 146.611 119.961 146.611 217.939 0 129.947-105.343 235.29-235.29 235.29s-235.29-105.343-235.29-235.29c0-97.978 59.887-181.969 145.053-217.365l1.558-0.574v-107.11c0-0.179 0-0.384 0-0.563s0-0.384 0-0.563c0-11.311 9.169-20.48 20.48-20.48v0h2.253v-44.646c0-0.282 0-0.563 0-0.845s0-0.563 0-0.845c0-11.311 9.169-20.48 20.48-20.48v0h93.21c11.311 0 20.48 9.169 20.48 20.48v0c0 0.205 0 0.41 0 0.614 0.094 0.719 0.149 1.554 0.154 2.401v0.005l-0.154 43.341c11.311 0 20.48 9.169 20.48 20.48v0c0 0.435 0 0.845 0 1.28s0 0.794 0 1.229zM317.67 445.44c0.020 107.31 87.017 194.294 194.33 194.294 107.325 0 194.33-87.004 194.33-194.33 0-85.261-54.908-157.697-131.292-183.877l-1.367-0.407-0.41-0.154-1.357-0.538-0.691-0.333-1.075-0.563-0.845-0.512-0.819-0.512-0.896-0.666-0.64-0.512-0.87-0.794-0.589-0.563-0.742-0.819-0.589-0.691-0.589-0.794-0.589-0.845-0.461-0.742c-0.179-0.333-0.384-0.64-0.538-0.973l-0.358-0.717c-0.154-0.358-0.333-0.717-0.486-1.075l-0.282-0.768c0-0.358-0.256-0.717-0.358-1.101s-0.154-0.589-0.23-0.896-0.154-0.666-0.23-0.998 0-0.768-0.179-1.152 0-0.538 0-0.794 0-0.922 0-1.408 0-0.333 0-0.486v-102.067h-0.154c-11.311 0-20.48-9.169-20.48-20.48v0l0.154-46.080h-52.352v44.672c-0.631 11.775-10.014 21.166-21.727 21.809l-0.059 0.003h-0.947v102.067c0 0.307 0 0.614 0 0.922s0 0.563 0 0.819 0 0.87-0.154 1.306 0 0.41 0 0.64-0.205 0.973-0.333 1.459v0.435c-0.154 0.512-0.307 1.024-0.512 1.51v0.333c-0.205 0.486-0.41 0.973-0.64 1.459l-0.179 0.358c-0.23 0.461-0.486 0.896-0.742 1.331l-0.256 0.435c-0.256 0.384-0.512 0.768-0.794 1.126l-0.384 0.512-0.794 0.947-0.538 0.589-0.819 0.794-0.64 0.589-0.87 0.691-0.691 0.512-1.024 0.666-0.64 0.384-1.28 0.64-0.486 0.23c-0.486 0.23-1.024 0.41-1.536 0.589h-0.282c-77.93 26.412-133.018 98.901-133.018 184.256 0 0.094 0 0.189 0 0.283v-0.015zM224.358 401.664c0 11.311-9.169 20.48-20.48 20.48v0h-79.36c-11.311 0-20.48-9.169-20.48-20.48s9.169-20.48 20.48-20.48v0h79.36c11.311 0 20.48 9.169 20.48 20.48v0zM899.405 422.144h-79.36c-11.311 0-20.48-9.169-20.48-20.48s9.169-20.48 20.48-20.48v0h79.36c11.311 0 20.48 9.169 20.48 20.48s-9.169 20.48-20.48 20.48v0zM514.381 746.189c11.311 0 20.48 9.169 20.48 20.48v0 79.36c0 11.311-9.169 20.48-20.48 20.48s-20.48-9.169-20.48-20.48v0-79.36c0-11.311 9.169-20.48 20.48-20.48v0zM194.714 682.624l61.875-49.587c3.473-2.799 7.939-4.493 12.8-4.493 11.311 0 20.48 9.169 20.48 20.48 0 6.449-2.981 12.202-7.641 15.956l-0.039 0.031-61.875 49.587c-3.473 2.799-7.939 4.493-12.8 4.493-11.311 0-20.48-9.169-20.48-20.48 0-6.449 2.981-12.202 7.641-15.956l0.039-0.031zM755.661 627.2c0.003 0 0.007 0 0.010 0 4.708 0 9.045 1.589 12.504 4.259l-0.048-0.035 62.899 48.282c5.075 3.771 8.328 9.748 8.328 16.485 0 11.311-9.169 20.48-20.48 20.48-4.853 0-9.313-1.688-12.822-4.51l0.040 0.031-62.899-48.282c-4.879-3.781-7.99-9.643-7.99-16.23 0-11.303 9.156-20.467 20.456-20.48h0.001zM761.626 261.53c-3.784 4.829-9.616 7.903-16.166 7.903-11.314 0-20.486-9.172-20.486-20.486 0-4.764 1.626-9.148 4.353-12.627l-0.034 0.045 48.64-62.566c3.784-4.829 9.616-7.903 16.166-7.903 11.314 0 20.486 9.172 20.486 20.486 0 4.764-1.626 9.148-4.353 12.627l0.034-0.045zM292.506 263.526c-3.426 2.671-7.791 4.283-12.533 4.283-6.624 0-12.513-3.145-16.257-8.023l-0.036-0.049-48.128-62.925c-2.727-3.447-4.374-7.856-4.374-12.65 0-11.311 9.169-20.48 20.48-20.48 6.69 0 12.631 3.208 16.368 8.169l0.038 0.052 48.23 62.925c2.633 3.411 4.22 7.746 4.22 12.452 0 6.597-3.119 12.465-7.962 16.21l-0.047 0.035zM446.285 343.245l0.461-0.358c0.689-0.501 1.476-0.993 2.296-1.431l0.11-0.054 0.333-0.154c0.698-0.362 1.544-0.726 2.416-1.031l0.144-0.044h0.282c0.759-0.252 1.69-0.484 2.644-0.648l0.121-0.017h0.691c0.755-0.114 1.641-0.188 2.541-0.205h32.685v-155.238c0-11.311 9.169-20.48 20.48-20.48s20.48 9.169 20.48 20.48v0 155.008h36.685c0.001 0 0.001 0 0.002 0 9.202 0 16.986 6.068 19.569 14.421l0.039 0.145 31.744 105.165c0.553 1.77 0.872 3.804 0.872 5.914 0 11.312-9.17 20.482-20.482 20.482-9.203 0-16.988-6.069-19.571-14.423l-0.039-0.145-8.192-27.11h-117.939l-8.192 27.11c-2.626 8.495-10.41 14.559-19.61 14.559-11.314 0-20.486-9.172-20.486-20.486 0-2.114 0.32-4.153 0.915-6.072l-0.039 0.145 31.744-105.165c0.347-1.135 0.729-2.093 1.179-3.012l-0.053 0.12 0.23-0.461c0.479-0.995 0.965-1.834 1.505-2.632l-0.046 0.072 0.384-0.512c0.551-0.749 1.105-1.409 1.698-2.031l-0.008 0.008 0.205-0.23c0.656-0.582 1.375-1.137 2.129-1.643l0.073-0.046zM560.333 402.586l-6.81-22.554h-79.693l-6.81 22.554z" />
<glyph unicode="&#xe932;" glyph-name="nb-list" d="M330.65 587.955h539.75c11.311 0 20.48 9.169 20.48 20.48s-9.169 20.48-20.48 20.48v0h-539.75c-11.311 0-20.48-9.169-20.48-20.48s9.169-20.48 20.48-20.48v0zM870.4 438.067h-539.75c-11.311 0-20.48-9.169-20.48-20.48s9.169-20.48 20.48-20.48v0h539.75c11.311 0 20.48 9.169 20.48 20.48s-9.169 20.48-20.48 20.48v0zM870.4 247.219h-539.75c-11.311 0-20.48-9.169-20.48-20.48s9.169-20.48 20.48-20.48v0h539.75c11.311 0 20.48 9.169 20.48 20.48s-9.169 20.48-20.48 20.48v0zM196.787 671.898c-35.162 0-63.667-28.505-63.667-63.667s28.505-63.667 63.667-63.667c35.162 0 63.667 28.505 63.667 63.667v0c-0.044 35.145-28.522 63.624-63.663 63.667h-0.004zM196.787 585.549c-12.541 0-22.707 10.166-22.707 22.707s10.166 22.707 22.707 22.707c12.541 0 22.707-10.166 22.707-22.707v0c0-12.546-10.163-22.718-22.706-22.733h-0.001zM196.787 481.28c-35.162 0-63.667-28.505-63.667-63.667s28.505-63.667 63.667-63.667c35.162 0 63.667 28.505 63.667 63.667v0c-0.044 35.145-28.522 63.624-63.663 63.667h-0.004zM196.787 394.931c-12.541 0-22.707 10.166-22.707 22.707s10.166 22.707 22.707 22.707c12.541 0 22.707-10.166 22.707-22.707v0c-0.015-12.535-10.172-22.693-22.706-22.707h-0.001zM196.787 289.997c-35.162 0-63.667-28.505-63.667-63.667s28.505-63.667 63.667-63.667c35.162 0 63.667 28.505 63.667 63.667v0c-0.044 35.145-28.522 63.624-63.663 63.667h-0.004zM196.787 203.648c-12.541 0-22.707 10.166-22.707 22.707s10.166 22.707 22.707 22.707c12.541 0 22.707-10.166 22.707-22.707v0c0-12.546-10.163-22.718-22.706-22.733h-0.001z" />
<glyph unicode="&#xe933;" glyph-name="nb-location" d="M920.806 168.576l-130.381 310.938c-2.351 8.89-10.314 15.34-19.787 15.36h-69.992c0.666 1.792 1.357 3.61 1.971 5.402 2.56 7.424 4.915 14.899 6.963 22.221s3.891 15.13 5.376 22.528 2.765 15.36 3.635 22.784 1.485 15.36 1.715 23.040 0 15.539-0.41 23.040c-0.578 8.705-1.542 16.612-2.909 24.381l0.195-1.341c-1.532 9.115-3.312 16.815-5.494 24.343l0.374-1.508c-2.635 9.127-5.32 16.592-8.402 23.847l0.517-1.37c-3.685 8.82-7.261 16.039-11.222 23.011l0.547-1.046q-1.587 2.842-3.251 5.606c-31.221 51.414-86.911 85.236-150.501 85.236-0.757 0-1.512-0.005-2.266-0.014l0.115 0.001h-1.894c-64.156-0.4-120.13-35.055-150.592-86.58l-0.448-0.818c-3.576-5.945-7.314-13.128-10.644-20.535l-0.544-1.353c-2.705-5.882-5.546-13.305-7.964-20.917l-0.407-1.483c-1.956-5.963-3.922-13.61-5.461-21.41l-0.222-1.348c-1.287-6.331-2.401-14.211-3.091-22.212l-0.058-0.828c-0.64-7.526-0.896-15.36-0.794-23.040s0.563-15.206 1.357-23.040 1.894-15.104 3.328-22.733 3.123-14.976 5.12-22.477 4.198-14.771 6.707-22.144c1.075-3.149 2.227-6.323 3.405-9.523h-83.558c-8.613-0.094-15.995-5.269-19.299-12.664l-0.054-0.136-131.533-313.549c-0.98-2.332-1.55-5.043-1.55-7.886 0-11.424 9.192-20.7 20.583-20.837h742.259c11.306 0.007 20.468 9.174 20.468 20.48 0 3.111-0.694 6.060-1.935 8.701l0.053-0.125zM755.2 180.48c-17.536 80.691-96.768 82.867-124.032 83.61-17.638 0.486-37.402-0.691-58.317-1.92-96.87-5.709-166.963-4.301-186.291 66.253-8.602 31.36 2.56 67.43 26.086 89.984 3.558-5.862 7.27-11.802 11.136-17.664 4.122-6.272 8.474-12.57 12.8-18.765s8.832-12.032 13.44-17.92 9.088-11.469 13.798-17.101 9.267-10.854 14.029-16.154 9.37-10.24 14.106-15.104c9.114-9.421 19.072-18.893 32.23-30.72 3.926-3.649 9.2-5.894 14.998-5.914h2.103c5.277 0.482 9.947 2.756 13.47 6.199l-0.004-0.004 3.763 3.533c7.68 7.296 15.821 14.848 23.501 22.835 4.71 4.864 9.421 9.907 14.003 15.002s9.395 10.598 13.978 16.051 9.293 11.29 13.773 17.024 9.114 11.93 13.44 17.92 8.858 12.544 12.954 18.765 8.422 13.030 12.339 19.507 7.91 13.466 11.571 20.198c3.174 5.862 6.195 11.75 9.062 17.587h73.702l114.56-273.203zM305.101 453.786h85.734c-38.579-32.282-57.114-87.194-43.699-136.192 29.619-108.032 144.41-101.248 228.224-96.307 19.994 1.178 38.886 2.304 54.784 1.869 41.088-1.126 71.322-9.421 82.714-42.675h-522.24zM397.133 614.118c0.609 7.164 1.515 13.555 2.747 19.829l-0.187-1.141c1.422 7.371 3.007 13.529 4.915 19.544l-0.332-1.215c2.277 7.28 4.562 13.218 7.161 18.982l-0.428-1.062c3.126 7.067 6.146 12.864 9.473 18.457l-0.437-0.793c23.936 40.96 69.325 67.174 115.686 67.174h2.995c46.31 0.64 92.006-25.062 116.326-65.587q1.357-2.253 2.56-4.531c5.878-10.27 10.96-22.16 14.627-34.654l0.298-1.186c1.478-4.857 2.936-11.069 4.048-17.4l0.15-1.032c0.957-5.236 1.749-11.683 2.196-18.226l0.031-0.565c0.41-6.221 0.512-12.646 0.333-19.098s-0.691-12.8-1.459-19.379-1.818-13.005-3.123-19.558-2.867-13.056-4.71-19.661-3.866-13.082-6.144-19.661-4.762-13.005-7.475-19.558-5.581-12.8-8.678-19.328-6.298-12.672-9.728-18.995-6.938-12.442-10.65-18.586-7.45-12.058-11.418-18.074-7.859-11.622-12.032-17.434-8.243-11.213-12.518-16.717-8.474-10.701-12.8-15.872-8.653-10.24-13.005-14.95-8.627-9.421-13.056-13.952-8.755-8.832-13.363-13.184c-6.579 6.144-12.237 11.699-17.562 17.203-4.429 4.557-8.832 9.293-13.107 14.054s-8.832 9.984-13.082 15.027-8.704 10.598-12.8 15.923-8.499 11.136-12.493 16.717-8.166 11.622-12.006 17.434-7.68 12.032-11.341 17.92c-3.021 5.12-5.888 10.112-8.678 15.155-0.367 0.89-0.727 1.622-1.128 2.329l0.053-0.101c-0.333 0.614-0.717 1.178-1.101 1.741-3.277 6.118-6.4 12.262-9.267 18.33s-5.914 12.8-8.499 19.226-5.12 13.056-7.27 19.43-4.198 13.082-5.914 19.533-3.226 13.107-4.429 19.507-2.176 13.056-2.842 19.43-1.075 12.954-1.152 19.226 0.102 13.133 0.614 19.328zM538.138 516.403c54.348 0 98.406 44.058 98.406 98.406s-44.058 98.406-98.406 98.406c-54.348 0-98.406-44.058-98.406-98.406v0c0.058-54.325 44.081-98.348 98.401-98.406h0.006zM538.138 672.256c31.727 0 57.446-25.72 57.446-57.446s-25.72-57.446-57.446-57.446c-31.727 0-57.446 25.72-57.446 57.446v0c0.044 31.709 25.737 57.403 57.442 57.446h0.004z" />
<glyph unicode="&#xe934;" glyph-name="nb-locked" d="M820.915 486.4c0 28.277-22.923 51.2-51.2 51.2v0 0h-64l-0.179 112.026c-0.435 99.586-81.128 180.179-180.709 180.454h-0.309c-99.721-0.277-180.454-81.18-180.454-180.94 0-0.027 0-0.054 0-0.082v0.004l0.179-112.026h-64c-28.277 0-51.2-22.923-51.2-51.2v0l0.538-336.614c0-28.277 22.923-51.2 51.2-51.2v0 0l489.702 0.768c28.277 0 51.2 22.923 51.2 51.2v0zM384.819 648.858c0 0.015 0 0.034 0 0.052 0 77.16 62.441 139.736 139.55 139.955h0.251c77.014-0.275 139.385-62.574 139.776-139.534v-0.037l0.179-112.026-279.578-0.435zM272.794 492.698c1.842 1.865 4.393 3.027 7.216 3.046h0.004l489.702 0.768c5.627-0.071 10.169-4.613 10.24-10.233v-0.007l0.435-271.949-510.182-0.794-0.435 271.949c0.012 2.81 1.154 5.351 2.995 7.194v0zM777.446 142.413c-1.842-1.865-4.393-3.027-7.216-3.046h-0.004l-489.702-0.768c-5.627 0.071-10.169 4.613-10.24 10.233v23.713l510.182 0.794v-23.706c-0.012-2.823-1.165-5.374-3.020-7.219v0zM526.72 244.173v0c30.063 0.131 54.386 24.525 54.4 54.603v112.078c-0.087 30.059-24.461 54.397-54.525 54.426h-0.003c-30.077-0.087-54.426-24.49-54.426-54.579 0-0.009 0-0.018 0-0.027v0.001l0.179-112.077c0.087-30.005 24.373-54.31 54.363-54.426h0.011zM526.515 424.346v0c7.444-0.099 13.454-6.1 13.568-13.532v-0.011l0.179-112.077c-0.043-7.472-6.074-13.522-13.536-13.594h-0.007c-7.467 0.057-13.507 6.080-13.594 13.534v0.008l-0.179 112.077c0.1 7.453 6.115 13.468 13.559 13.568h0.009z" />
<glyph unicode="&#xe935;" glyph-name="nb-loop-circled" d="M513.28 952.32c-275.968 0-500.48-224.512-500.48-500.48s224.512-500.48 500.48-500.48 500.48 224.512 500.48 500.48-224.512 500.48-500.48 500.48zM513.28-7.68c-253.389 0-459.52 206.131-459.52 459.52s206.131 459.52 459.52 459.52 459.52-206.131 459.52-459.52-206.131-459.52-459.52-459.52zM741.146 345.37c-2.915 1.691-6.413 2.689-10.145 2.689-7.593 0-14.221-4.132-17.758-10.27l-0.053-0.099c-40.375-69.619-114.552-115.694-199.49-115.694-119.637 0-217.925 91.409-228.831 208.196l-0.069 0.912 3.712-3.84c3.764-4.173 9.191-6.785 15.227-6.785 11.311 0 20.48 9.169 20.48 20.48 0 5.775-2.391 10.992-6.236 14.716l-0.006 0.005-36.147 37.453c-4.619 4.774-11.084 7.737-18.241 7.737-6.838 0-13.045-2.706-17.607-7.105l0.008 0.007-37.453-36.147c-3.699-3.705-5.986-8.82-5.986-14.469 0-11.311 9.169-20.48 20.48-20.48 5.395 0 10.302 2.086 13.96 5.495l-0.012-0.011 6.502 6.272c9.466-141.833 126.832-253.295 270.231-253.295 100.071 0 187.464 54.281 234.342 135.007l0.695 1.296c1.696 2.918 2.697 6.421 2.697 10.159 0 7.565-4.102 14.172-10.202 17.718l-0.098 0.053zM789.581 486.246l-6.605-6.374c-14.666 137.015-129.653 242.788-269.344 242.788-100.119 0-187.547-54.333-234.409-135.122l-0.695-1.298c-1.723-2.938-2.74-6.47-2.74-10.24 0-11.325 9.181-20.506 20.506-20.506 7.555 0 14.157 4.086 17.714 10.169l0.052 0.097c40.36 69.681 114.571 115.805 199.554 115.805 115.608 0 211.28-85.355 227.434-196.484l0.148-1.24-3.149 3.277c-3.75 4.024-9.080 6.532-14.996 6.532-11.311 0-20.48-9.169-20.48-20.48 0-5.661 2.297-10.786 6.010-14.493v0l36.147-37.453c4.619-4.774 11.084-7.737 18.241-7.737 6.838 0 13.045 2.706 17.607 7.105l-0.008-0.007 37.453 36.147c3.699 3.705 5.986 8.82 5.986 14.469 0 11.311-9.169 20.48-20.48 20.48-5.395 0-10.302-2.086-13.96-5.495l0.012 0.011z" />
<glyph unicode="&#xe936;" glyph-name="nb-menu" d="M241.050 587.955h539.75c11.311 0 20.48 9.169 20.48 20.48s-9.169 20.48-20.48 20.48v0h-539.75c-11.311 0-20.48-9.169-20.48-20.48s9.169-20.48 20.48-20.48v0zM780.8 438.067h-539.75c-11.311 0-20.48-9.169-20.48-20.48s9.169-20.48 20.48-20.48v0h539.75c11.311 0 20.48 9.169 20.48 20.48s-9.169 20.48-20.48 20.48v0zM780.8 247.219h-539.75c-11.311 0-20.48-9.169-20.48-20.48s9.169-20.48 20.48-20.48v0h539.75c11.311 0 20.48 9.169 20.48 20.48s-9.169 20.48-20.48 20.48v0z" />
<glyph unicode="&#xe937;" glyph-name="nb-notifications" d="M781.133 227.072l-25.318 63.821v170.573c-0.152 116.406-81.719 213.718-190.808 238.057l-1.627 0.305v35.021c0 28.913-23.439 52.352-52.352 52.352s-52.352-23.439-52.352-52.352v0-35.456c-109.753-25.383-190.349-122.219-190.515-237.908v-170.565l-25.293-63.846c-0.945-2.272-1.495-4.912-1.495-7.68 0-11.311 9.169-20.48 20.48-20.48 0.012 0 0.025 0 0.037 0h141.976c8.377-52.812 53.585-92.704 108.109-92.704s99.731 39.892 108.027 92.081l0.081 0.622h142.029c0.010 0 0.023 0 0.035 0 11.311 0 20.48 9.169 20.48 20.48 0 2.768-0.549 5.408-1.544 7.816l0.050-0.136zM292.173 240l10.522 26.496h418.739l10.522-26.496zM499.763 734.848c0 6.292 5.1 11.392 11.392 11.392s11.392-5.1 11.392-11.392v0-29.798c-3.456 0.154-6.938 0.23-10.419 0.23q-6.221 0-12.365-0.307zM512 664.32c111.981-0.131 202.723-90.874 202.854-202.842v-154.022h-405.709v154.010c0.131 111.981 90.874 202.723 202.842 202.854h0.012zM512 147.2c-31.885 0.042-58.665 21.852-66.277 51.364l-0.104 0.476h132.736c-7.714-29.98-34.481-51.786-66.349-51.84h-0.006z" />
</font>
</defs>
</svg>
