<svg _ngcontent-c0="" viewBox="0 0 48 48" xmlns="http://www.w3.org/2000/svg">
  <path _ngcontent-c0="" d="M38.951 0H8.99A8.988 8.988 0 0 0 0 8.989V38.95a8.988 8.988 0 0 0 8.989 8.989H38.95a8.988 8.988 0 0 0 8.989-8.989V8.99A8.988 8.988 0 0 0 38.951 0zm-3.056 18.589l.018.764c0 7.802-5.935 16.79-16.791 16.79-3.332 0-6.433-.976-9.046-2.65.462.053.932.083 1.409.083 2.765 0 5.309-.944 7.328-2.526a5.911 5.911 0 0 1-5.513-4.099c.363.066.728.102 1.112.102.54 0 1.06-.069 1.555-.204a5.908 5.908 0 0 1-4.734-5.785v-.075a5.893 5.893 0 0 0 2.673.74 5.9 5.9 0 0 1-2.625-4.911c0-1.082.29-2.094.797-2.966a16.749 16.749 0 0 0 12.165 6.166 5.902 5.902 0 0 1 5.75-7.245 5.9 5.9 0 0 1 4.308 1.864 11.95 11.95 0 0 0 3.748-1.432 5.917 5.917 0 0 1-2.594 3.265 11.83 11.83 0 0 0 3.388-.928 11.929 11.929 0 0 1-2.948 3.047z" fill="#CDD6E3" fill-rule="nonzero"></path>
</svg>
